<?xml version="1.0" encoding="utf-8"?>
<!-- Generator: Adobe Illustrator 18.0.0, SVG Export Plug-In . SVG Version: 6.00 Build 0)  -->
<!DOCTYPE svg PUBLIC "-//W3C//DTD SVG 1.1//EN" "http://www.w3.org/Graphics/SVG/1.1/DTD/svg11.dtd">
<svg version="1.1" id="Layer_1" xmlns="http://www.w3.org/2000/svg" xmlns:xlink="http://www.w3.org/1999/xlink" x="0px" y="0px"
	 viewBox="0 0 127 51.1" enable-background="new 0 0 127 51.1" xml:space="preserve">
<path fill="#005D46" d="M47.1,21c0.7-0.8,1.7-1.3,2.8-1.3c1.6,0,2.7,1,3.6,3.1c1.3-1.4,3.2-2.8,5.6-1.9c1.5,0.6,2.5,2.9,2.5,8.1
	c0,2.6-0.2,4.5-0.6,6.4c-0.3,0.9-0.5,1-2.2,1c-1.5,0-1.8-0.8-1.8-2c0-6.2,0.2-7.3-0.7-7.3c-1.7,0-0.5,4.9-2.6,5.4
	c-3.1,0.8-4.1-4.5-3.9-7.1c-1.1,0.6-0.8,3.8-0.4,7.6c0.2,2.4-0.4,3.4-2,3.7c-0.6,0.1-3.2-0.4-3.2-6.2c0-3.7,0.9-6.8,2.2-8.4
	c-0.4,0.6-0.6,1.1-0.7,1.6c0.4-0.7,0.8-1.4,1.3-1.9c0.7-0.8,1.1-1.1,1.9-1.4C48.4,20.2,47.8,20.4,47.1,21 M103.5,33
	c-0.2,0.1-0.2,0.5,0.3,1.3c-0.1-0.1-0.1,0.5,0.1,0.6c-0.2-0.1-0.9,1.1-2.8,1.1c-2.2,0-2.5-1.9-3-3.4h-2.8c-0.3,2.1-0.3,3.3-2.8,3.3
	c-1.8,0-2.2-1.2-2.2-2.7c0-3.1,1.3-10.2,3.7-12.7c1.2-1.2,5.9-1.6,6.3-0.2C101.1,22.9,102.2,30.4,103.5,33 M97.6,28.7
	c-0.4-1.7-0.6-3.3-0.8-5c-0.5,1.9-0.9,3.6-1.1,5H97.6z M28.6,20.4c-0.8-0.8-6.6-1.2-6.9-0.6c-0.7,1.3-2.9,9.5-2.9,13.2
	c0,2.7,1.3,3.1,2.1,3.1c1.6,0,2.4-0.2,2.9-4.7h2.6c0.5,3.1,0.9,5,2.8,5c1.6,0,1.6-3.2,1-9.4C30,25.6,29.5,21.2,28.6,20.4 M25.2,24.3
	c0.4,0,0.9,1.9,1,3.9h-2.1c0-0.6,0.6-3.1,0.9-3.8C25,24.3,25.1,24.3,25.2,24.3 M73.9,21.3c-0.2-0.8-0.4-0.9-1-1.2
	c-1-0.2-2.7-0.1-2.9,0.7c-0.6,1.1-0.4,12.9-0.2,14.2c0,0.8-0.1,1.1,4.5,1.1c3.3,0,4.8-0.8,5.1-2.7c0.4-2.4-0.2-2.6-1.2-2.6h-3.7
	C74.5,29.2,74.1,22.5,73.9,21.3 M8.4,21.7c-0.7-1.4-1.9-2.1-3.2-2.1C1.5,19.6,0,25.8,0,30.8C0,34.4,0.4,36,1.4,36c2.3,0,2.9,0,3-0.1
	c1.3-0.3,0-9.4,1.7-9.4c0.4,0,0.7,1.2,0.9,2.5c0.3,2,1,3.9,2.5,3.9c1.7,0,1.8-0.5,2-2.5c0.3-2.5,0.5-4.6,1.1-4.6
	c0.7,0,1.1,4,1.1,4.9c0.2,2.8,0.2,5.3,1.4,5.3c2,0,2.7-1.6,2.9-3.1c0.3-3.4-0.2-7.7-0.8-9.7c-0.9-2.7-2.3-4-4.2-4
	C10.8,19.2,9.3,20.5,8.4,21.7 M63.1,33c0-2.2,0.2-6.7,0-11.3c0-0.4,0.4-1.4,2.4-1.4c1.2,0,2.1,0.2,2.1,1.1
	c0.6,5.8,0.6,13.9,0.4,14.2c-0.1,0.6-0.4,0.5-0.4,0.7c-0.1-0.1-0.5,0.3-0.5,0.4c-0.1-0.1-0.4,0-0.3,0c-0.2-0.1-1,0-1.2,0.1
	c0,0-0.3-0.1-0.5,0c0-0.2-0.6-0.5-0.6-0.2c-0.1-0.3-0.3-0.4-0.4-0.1C64.1,36.3,63.1,35.9,63.1,33 M109.5,30.6
	c2.1,3.3,3.9,4.9,6.3,4.9c1.6,0,3.3-2.1,3.3-8.4c0-6.9-1-7.6-2.7-7.6c-1.8,0-2.8,1-2.8,2.9c0,2.6,0.1,5-0.1,5.7
	c-0.3-0.2-1.2-1.4-3.1-5.2c-1.1-2.2-2.5-2.4-3.1-2.4c-3.2,0-3,9.2-3,11.5c0,3.1,0.9,4.1,2.4,4.1c1.2,0,1.8-0.2,2.1-0.3
	c0.4-0.2,0.4-0.2,0.4-0.8L109.5,30.6z M86.2,32c-0.9,0-1.2-0.1-1.2-1.8l-0.1-8.7c0-0.6,0-1-0.6-1c-0.8-0.1-3.5-0.1-3.7,0.1
	c-0.2,0.1-0.2,0.5-0.2,0.5c0,1.2-0.2,6.5-0.2,9.4c0.1,3.2,0.1,4.3,0.7,5c1.1,1.2,6.3,1.2,7.8,1.2c0.2,0,0.5,0,0.7-0.7
	c0.2-0.2,0.2-0.6,0.4-0.6c-0.2,0-0.1-0.8,0-0.8c-0.1,0-0.1-0.6-0.1-0.6c-0.2-0.1,0.4-1.9-1.8-1.9H86.2z M37.1,16.1
	c1.8,0,2.5-2.2,3-4.4h2.4c0.6,2.1,1,4.6,2.9,4.6c1,0,1.9-0.6,1.9-2.1c0-2.6-1.2-9.2-2.3-13c-0.2-0.5-0.5-0.6-0.9-0.6
	c-1.1-0.1-4.6-0.3-5.7,0.1C38,1,37.9,1,37.7,1.4c-1,2.6-1.9,8.1-2.1,11.7c-0.1,2.1,0,3,1.3,3H37.1z M41.4,4.3c0.2,1,0.6,3.8,0.7,4.4
	h-1.6C40.6,8.3,41.2,5.4,41.4,4.3 M65.6,10.2c3.2,0,4.1-0.5,4.1-2.9c0-0.5-0.3-0.8-4.1-0.8V4.6c3.8,0,5.3-0.4,5.3-1.8
	c0-1.7-0.6-2.6-3.6-2.6c-2.1,0-5.3,0.4-5.4,0.7c-0.2,0.6-0.7,3.9-0.7,7.1c0,5.4,1.2,8.6,6.4,8.6c2.6,0,3.4-0.6,3.4-2.1
	c0-1.8,0-1.9-0.4-1.9C66.6,12.7,65.6,12.4,65.6,10.2 M50.5,2.1c-2.8,3.6-2.1,10.7-1.9,12.7c0.2,0.8,0.7,1.5,2.4,1.5
	c1.3,0,1.7-0.1,1.7-0.6c0-0.3,0.1-0.5,0.1-4.1c1.4,1.8,4,4.5,5.9,4.5c0.6,0,1.7-2,1.7-3.1c0-0.8-1.5-2.2-3.5-3.9
	c2.2-1.3,3.1-2.7,3.1-4.5c0-2.3-1.7-4.6-4.8-4.6C53.2,0,51.7,0.7,50.5,2.1 M53.2,7.6c0.4-2.1,1.1-3.9,2.2-3.9c0.9,0,1.2,0.6,1.2,1.1
	C56.6,6.3,54.6,7.1,53.2,7.6 M26.3,10.4c3.4,0,3.4-1.4,3.4-2.6c0-0.9-0.5-1.3-1.9-1.3c-0.9,0-1.8,0.1-2.3,0.3V5.7
	c0-0.9,0.1-1.1,0.6-1.1h1.4c2,0,2.9-1.3,2.9-2.6c0-1.2-2.7-1.5-5.9-1.5c-1.4,0-1.9,0.2-2.2,0.8c-0.7,1.2-1.3,5.2-1.3,13.1
	c0,0.6,1.6,2.2,6.3,2.2c1.4,0,3.6-0.6,3.6-2.4c0-1.7-3.1-2.6-5.2-1.8v-2H26.3z M6.8,16.2c2.6,0,3.4-3.2,3.7-5.4
	c0.1-0.4,0.2-1.6,0.4-1.6c0.4,0,1.2,7.6,3.2,7.6c5.9,0,5.9-11.4,5.9-13.7c0-2.2-1-3-2-3c-1.3,0-2.6,0.6-2.6,2.5
	c0,3.1-0.2,8.3-0.6,8.3c-0.5,0-0.3-9.1-3.4-9.1c-2,0-2.7,2.8-3.2,5.7C8.1,8.4,8,10,7.5,10c-0.9,0-0.6-6.1-0.6-7.6
	c0-0.6-0.2-1.6-1.7-1.6H3.8C3,0.7,2.7,1.1,2.7,3v3.9C2.7,14.2,5.1,16.2,6.8,16.2 M39,32.2c-1.9,0-3.3-1.2-3.3-3.2
	c0-2.3,1.5-2.9,3.4-2.9c2.6,0,4-0.2,4-1.7c0-2-1.9-4.1-5.4-4.1c-3.6,0-6.5,3.5-6.5,7.8c0,6.8,3.9,8.8,7.1,8.8c2.7,0,5.1-1.3,5.1-3.9
	c0-0.4-0.1-0.9-0.3-1c-0.4-0.3-0.8-0.3-1.6-0.1C40.9,32,40.3,32.2,39,32.2 M127,30.7c0,1.2,0,3.9-0.8,4.9c-0.8,1-3.2,0.1-4-0.7
	c-0.8-0.8-0.6-2.9-0.6-4.5c0-1.6,2.4-1.1,3.1-1.1C125.5,29.3,127,29.5,127,30.7 M109.4,43c0.3,0.7,0.3,7-0.2,6.9
	c0,0.1-0.3,0.2-0.3,0.3c-0.1-0.2-0.2,0-0.2,0.1c0-0.1-0.3,0-0.4,0.2c0-0.1-0.3,0-0.3,0.1c-0.1-0.2-0.5-0.2-0.6-0.1
	c0-0.1-0.1-0.1-0.2-0.1c0-0.1-0.2-0.2-0.2-0.2c0-0.1-0.2-0.3-0.2-0.5v-1.9c0-1.6,0.3-3.3,0.3-4.6c0-0.1,0-0.2-0.2-0.2h-0.4
	c-0.8,0-2.5,0-2.5-1.3c0-0.2,0-1.2,0.2-1.3c0.7-0.5,5.1-0.4,5.2-0.4c0.7,0,2-0.1,2.7,0.4c0.1,0.1,0.2,1.1,0.2,1.3
	c0,1.3-1.6,1.3-2.5,1.3H109.4z M98.6,43.6c0.1,0,2.5,0.7,2.5-0.6c0-1.2-2.5-0.8-2.5,0.4V43.6z M103.6,42.8c0,3.2-2.7,2.8-2.9,2.8
	c0.6,0.8,1.8,2.6,2.9,3.7c0.4,0.4,0,1.8-2.2,0.9c-1.2-0.4-2.7-4.1-2.8-4.5V50c0,0.4-0.3,0.6-0.8,0.6c-1.2,0-2.1-1.5-2.1-4.2
	c0-1.5,0-3.8,0.7-4.9c0.7-1.2,2.2-1.7,4-1.6C102.6,40.1,103.6,41.3,103.6,42.8 M89.1,44.8c0,0.8,0.1,2.9,1.8,2.9
	c1.4,0,1.8-1.5,1.8-2.6c0-1.6-0.2-3.4-1.7-3.4C89.7,41.7,89.1,42.7,89.1,44.8 M91.2,39.4c2.8,0,3.8,3.1,3.8,5.9
	c0,3.5-2.3,5.1-4.3,5.1c-2.9,0-3.7-3.1-3.7-5.5C87,40.9,88.5,39.4,91.2,39.4 M78.5,47.2c0-5.2,2.1-7.1,4.9-7.1
	c1.8,0,3.2,1.3,3.2,3.3c0,1.6-0.8,3-2.6,3c-1,0-2-0.5-2-1.2c0-0.4,0.3-0.9,0.8-1c0.9-0.2,1.4-0.1,1.4-0.8c0-0.4-0.8-1.3-2.3,0.3
	c-0.1,0,0.9-0.9,0.8-0.9c-0.1,0-0.6,0.3-0.6,0.3c0,0,0.2-0.2,0.1-0.2c-0.1,0-1,0.6-1,3.7v2.7c0,1.4-0.5,1.4-1.2,1.4
	c-1.4,0-1.6-1-1.6-1.5V47.2z M73.6,44.5c1.6,0,2.4-0.4,2.4-1.7c0-1.1-1.3-1.1-2.4-1.1V44.5z M73.6,39.3c3.3,0,4.6,1.6,4.6,3.3
	c0,3.1-1.9,4.5-4.4,4.5c-0.2,0-0.2,0.2-0.2,0.3v1.2c0,0.6-0.2,1.5-1.3,1.5c-1,0-1.1-0.6-1.1-1.5v-1.3C71.3,41.9,70.8,39.3,73.6,39.3
	 M67.6,40.9c0-0.6,0.4-0.8,0.8-0.9c0.4-0.1,1.1,0,1.3,0.5c0.2,0.7,0.2,2.3,0.2,4c0,3.4-0.5,5.9-4,5.9c-1.6,0-3.1-0.4-4-2.5
	c-0.7-1.7-0.6-5.7-0.5-7.2c0-0.5,0.2-0.8,0.5-0.9c0.3-0.1,2.1-0.3,2.1,1c0,0.7-0.2,3,0.2,4.7c0.3,1.2,1,2,1.9,2
	C67.8,47.5,67.5,41.1,67.6,40.9 M58.3,39.5c1.2,0,2.1,0.9,2.1,2.1c0,0.6-0.2,1-0.5,1c-0.8,0-2.4-0.6-2.4,0.2c0,1.1,3.1,2.2,3.1,4.8
	c0,2-1.1,3.4-2.9,3.4c-2.1,0-3.2-1.2-2.9-1.7c0.1-0.2,0.7-1,0.4-1.4c0.2,0.2,0.4,0,0.3-0.2c0.1,0,0.3-0.1,0.2-0.4
	c0.1-0.1,0.9,0.9,1.6,0.9c0.4,0,0.6-0.2,0.6-0.6c0-1.2-3.2-1.8-3.2-4.9C54.7,41.1,56.1,39.5,58.3,39.5 M45.8,44
	c0.7,0,0.6,0.6,1.4,0.6c0.4,0,0.8-0.5,0.8-1.1c0-0.7-0.5-1.1-1.2-1.1c-1.5,0-1.7,1.9-1.6,1.7C45.3,44.1,45.6,44,45.8,44 M50.6,49.6
	c0,0.6-0.6,1-1.3,1c-0.8,0-0.9-0.1-1.1-1.1c-0.2-0.8-0.9-1.8-1.2-1.8c-1-0.2-0.9-0.5-1-0.6c-0.1-0.1-0.1,0.1-0.1,0.2
	c-0.1-0.3-0.3-0.3-0.3-0.1c-0.1-0.3-0.2-0.3-0.2-0.2c0,0.1-0.1-0.2-0.2-0.3c0-0.1-0.1,0.2-0.1,0.5v2.4c0,0.9-0.6,1.1-1,1.1
	c-1.1,0-1.1-1-1.1-1.7v-2.9c0-3.4,0.4-6.3,4.1-6.1c0,0-0.2-0.1-0.1-0.1c0.1,0,0.8,0.2,0.7,0.1c-0.7-0.4-1.7-0.2-1.6-0.2
	c2.4-0.5,4.3,1,4.3,3.2c0,1.5-1,2.7-2,2.8C49.6,46.7,50.6,48.1,50.6,49.6 M41.4,40.4c0.4,0,1,0,1,0.7s-0.1,1.5-1.7,1.5h-1.6
	c-0.6,0-0.6,0.2-0.6,1.7h1.5c0.2,0,1.6,0,1.6,0.9c0,0.5,0,1.5-1.1,1.5h-2.1v1.4H40c1.5,0,2.2,0.5,2.2,1.2c0,1.1-1.8,1.3-2.7,1.3
	c-1.7,0-3.5-0.5-3.5-1.6c0-0.6-0.1-8.7,1-8.7H41.4z M33.3,47.9c1.5,0,2.1,0.5,2.1,1.1c0,1.1-0.7,1.6-1.7,1.6c-2.8,0-5.1-1.7-5.1-5.2
	c0-1,0.5-3.4,2.2-4.5c1.5-0.9,3.1-0.8,3.5-0.8c0.7,0,0.9,0.3,0.9,0.8c0,0.6-0.2,1.6-1.8,1.6c-1.3,0-1.9,0.4-1.9,3.7
	C31.7,48,32.3,47.9,33.3,47.9 M20.4,40.4c0.5,0,1.2,0.2,1.7,1.1c0.3,0.6,2,4.1,2.5,4.1c0.3,0,0.2-2.3,0.2-4.2c0-1,0.4-1.6,1.6-1.6
	c1.2,0,1.5,0.4,1.5,1V42c0,5.6-1,7.9-2.3,7.9c-1.4,0-2.6-1.2-4.2-3.8v2.9c0,1.2-0.7,1.2-1.2,1.2c-0.6,0-1.7-0.1-1.7-1.8
	c0-1.6-0.1-6.2,0.3-7.2c0-0.1,0.1,0.2,0.2,0c0-0.1,0.2,0.1,0.2,0C19.3,40.9,19.7,40.4,20.4,40.4 M12.8,45.9l1.6-0.1l-0.7-3.4
	L12.8,45.9z M12,40.5c0.2-0.3,0.3-0.3,0.5-0.3c0.6,0,2,0.1,2.3,0.1c0.1,0,0.4,0.1,0.5,0.3c0.1,0.3,2.3,7.5,2.4,7.8
	c0.1,0.2,0.2,0.4,0.3,0.5c0,0.1-0.2-0.1-0.1,0c0,0.2,0.2,0.3,0.3,0.4c0,0.1-0.1-0.1-0.1,0c-0.1,0.1,0.1,0.6,0.2,0.7
	c-0.1,0.3-1.4,0.8-2.2,0.5c-0.7-0.2-0.8-1.2-1.2-2.3h-2.2l-0.3,1.2c-0.2,0.9-1,1-1.7,1c-0.9,0-1.3-0.6-1.2-1.9
	C9.6,47.4,11.2,41.8,12,40.5 M8.8,47.5c-0.1,0.1,0,0.2,0.1,0.2c-0.3,0,0.2,0.6-0.1,1.5c-0.4,0.9-1.4,1.3-2.5,1.3
	c-2.9,0-4.9-1.7-4.9-5.2c0-2.1,1-4.2,3.2-5c1.6-0.5,3.1-0.2,3.7,0.4c0.6,0.6,0.6,2-0.2,2.2c-2.2,0-3.4,0.4-3.4,2.5
	C4.5,48.3,7.8,47.3,8.8,47.5"/>
</svg>
