<?xml version="1.0" encoding="utf-8"?>
<!-- Generator: Adobe Illustrator 17.1.0, SVG Export Plug-In . SVG Version: 6.00 Build 0)  -->
<!DOCTYPE svg PUBLIC "-//W3C//DTD SVG 1.1//EN" "http://www.w3.org/Graphics/SVG/1.1/DTD/svg11.dtd">
<svg version="1.1" id="Layer_1" xmlns="http://www.w3.org/2000/svg" xmlns:xlink="http://www.w3.org/1999/xlink" x="0px" y="0px"
	 viewBox="0 0 74.3 693.3" enable-background="new 0 0 74.3 693.3" xml:space="preserve">
<g>
	<path fill="#FFFFFF" d="M41.3,548.9c0-18.2,14.9-33,33-33v66C56.1,581.9,41.3,567,41.3,548.9z"/>
	<path fill="#FFFFFF" d="M74.3,74.3C33,74.3,0,41.3,0,0l74.3,0V74.3z"/>
	<path fill="#FFFFFF" d="M74.3,415.2v66c-18.2,0-33-14.9-33-33C41.3,430,56.1,415.2,74.3,415.2z"/>
	<path fill="#FFFFFF" d="M74.3,212.1v66c-18.2,0-33-14.9-33-33C41.3,227,56.1,212.1,74.3,212.1z"/>
	<path fill="#FFFFFF" d="M0,693.3C0,652.1,33,619,74.3,619v74.3H0z"/>
	<path fill="#FFFFFF" d="M74.3,313.6v66c-18.2,0-33-14.9-33-33C41.3,328.5,56.1,313.6,74.3,313.6z"/>
	<path fill="#FFFFFF" d="M74.3,111.4v66c-18.2,0-33-14.9-33-33C41.3,126.3,56.1,111.4,74.3,111.4z"/>
</g>
</svg>
