<?xml version="1.0" encoding="utf-8"?>
<!-- Generator: Adobe Illustrator 17.1.0, SVG Export Plug-In . SVG Version: 6.00 Build 0)  -->
<!DOCTYPE svg PUBLIC "-//W3C//DTD SVG 1.1//EN" "http://www.w3.org/Graphics/SVG/1.1/DTD/svg11.dtd">
<svg version="1.1" id="Layer_1" xmlns="http://www.w3.org/2000/svg" xmlns:xlink="http://www.w3.org/1999/xlink" x="0px" y="0px"
	 viewBox="0 0 74.3 693.3" enable-background="new 0 0 74.3 693.3" xml:space="preserve">
<g>
	<path fill="#FFFFFF" d="M33,548.9c0-18.2-14.9-33-33-33v66C18.2,581.9,33,567,33,548.9z"/>
	<path fill="#FFFFFF" d="M0,74.3c41.3,0,74.3-33,74.3-74.3H0V74.3z"/>
	<path fill="#FFFFFF" d="M0,415.2v66c18.2,0,33-14.9,33-33C33,430,18.2,415.2,0,415.2z"/>
	<path fill="#FFFFFF" d="M0,212.1v66c18.2,0,33-14.9,33-33C33,227,18.2,212.1,0,212.1z"/>
	<path fill="#FFFFFF" d="M74.3,693.3c0-41.3-33-74.3-74.3-74.3v74.3H74.3z"/>
	<path fill="#FFFFFF" d="M0,313.6v66c18.2,0,33-14.9,33-33C33,328.5,18.2,313.6,0,313.6z"/>
	<path fill="#FFFFFF" d="M0,111.4v66c18.2,0,33-14.9,33-33C33,126.3,18.2,111.4,0,111.4z"/>
</g>
</svg>
