<?xml version="1.0" encoding="utf-8"?>
<!-- Generator: Adobe Illustrator 18.0.0, SVG Export Plug-In . SVG Version: 6.00 Build 0)  -->
<!DOCTYPE svg PUBLIC "-//W3C//DTD SVG 1.1//EN" "http://www.w3.org/Graphics/SVG/1.1/DTD/svg11.dtd">
<svg version="1.1" id="Layer_1" xmlns="http://www.w3.org/2000/svg" xmlns:xlink="http://www.w3.org/1999/xlink" x="0px" y="0px"
	 viewBox="0 0 595.3 100.5" enable-background="new 0 0 595.3 100.5" xml:space="preserve">
<path fill="#027EAD" d="M55.5,75.3c3.1-14,1.3-40.4,12.2-40.4c4.5,0,7.6,0.6,7.6,4.5c0,1.5,0.7,24.2,0,39.2
	c-0.6,15.5-10.4,18.9-15.7,18.9c-21.2,0-15.2-38.2-18.9-38c0.3-0.6-0.7-1.5-1.5-1c-2.5,1.9,0.7,38.6-19.4,38.6
	C9.7,97.1,0,88.6,0,67.8c0-11.9,1.3-33,9.3-33c4,0,7.2,0.7,8.7,2.8c1.9,2.8,0.3,26.9,4.8,38.6c4.8-13.1,1.6-40,14.2-40
	C59.7,36.4,52.2,68.9,55.5,75.3z M133.7,66.2c0,20.9-15.7,30.6-28.8,30.6c-19.7,0-24.8-18.5-24.8-33.3c0-23.9,9.7-33,28.2-33
	C127.3,30.5,133.7,49.3,133.7,66.2z M106.2,80.7c9.4,0,12.4-9,12.4-15.5c0-9.7-1.5-20.6-11.5-20.6C98,44.9,94,50.8,94,63.1
	C94,67.7,94.9,80.7,106.2,80.7z M154.5,61.4c-0.1,1,0,25.1,0.1,26.3c0.1,1.2,1,1.2,1.3,0.6c0,5.8-4.2,11.6-11,11.6
	c-7.9,0-9.4-7.5-9.4-15.1c0-10,0.1-45.4,19.4-45.4c7.6,0,13.9,7.5,22.5,28v-27c0-4.5,2.1-6.3,8.4-6.3c5.5,0,9.5,0.3,9.5,2.7
	c0,10.4,0,30.6,0,40.3c0,9.7-3.3,16.4-11.5,16.4c-5.8,0-14.2-4-20.6-16L154.5,61.4z M201.3,45.6c0-7,3.9-11,10.1-11
	c8.4,0,23,3.3,25.7,4.3c2.8,1.2,18.1,6.7,20.3,23.9c1.8,12.4-6,18.2-8.5,20.3c-7.3,6.3-24.9,8.8-26.3,9.3c-1.5,0.4,5.1-1.9,4.9-2.4
	c0-0.3-6.6,0.9-9.5,2.8c1.3-1.6,4.9-2.8,4.9-3.3c-0.1-0.7-6.6,3.7-10.4,4.2c-8.7,1.3-11.2-5.8-11.2-10.9V45.6z M221.3,79.9
	c5.8-1.9,14-6.1,13.1-14c-1.2-7.6-13.1-8.5-13.1-8.5V79.9z M278.5,32c4.8,0,13.4-0.6,17.9,2.7c0.9,0.7,1.2,1.8,1.2,3.1
	c0,7.8-10.9,7.8-16.6,7.8h-2.4c-1.5,0-1.5,1.2-1.5,1.5v4.8c0,1,0.7,1.6,1.8,1.6h4.3c9.4,0,10.9,3.6,10.9,6.6c0,3-1.5,6.6-10.9,6.6
	h-4.3c-1,0-1.8,0.6-1.8,1.6v12.2c0,0.3,0,1.5,1.5,1.5h2.4c5.7,0,16.7,0,16.7,7.8c0,1.3-0.3,2.4-1.2,3.1c-4.5,3.3-34.5,2.7-34.8,2.7
	c-2.1,0-2.7-4.2-2.7-16.3C259.1,41.3,262.9,32,278.5,32z M350.5,91.9c0,3.6-3.9,6-8.8,6c-5.2,0-6-0.7-7.2-6.9
	c-1-4.8-6.3-10.9-8.2-10.9c-6.9-1.3-6-3.3-6.6-3.4c-0.6-0.4-0.4,0.9-0.4,1.5c-0.6-1.6-1.8-1.6-1.8-0.4c-0.6-1.6-1.2-1.8-1.3-1.5
	c-0.1,0.4-0.9-1-1-1.8c-0.1-0.6-0.7,1.5-0.7,3v14.5c0,5.7-3.7,6.7-6.4,6.7c-7.2,0-7.2-5.8-7.2-10.4V70.8c0-20.4,3-37.9,27.5-36.7
	c0.3,0-1.2-0.6-0.6-0.6c0.7,0,5.1,0.9,4.8,0.7c-4.8-2.4-11.3-1-11-1c16-3.1,29.1,6.1,29.1,19.2c0,8.8-6.6,16-13.1,16.9
	C344.3,74.9,350.5,82.8,350.5,91.9z M318.5,58.6c4.9,0,4.2,3.9,9.4,3.9c2.5,0,5.7-3,5.7-6.9c0-4.3-3.6-6.6-7.8-6.6
	c-9.8,0-11.6,11.2-10.7,10.4C315.6,59,317.4,58.6,318.5,58.6z M370.4,37.4c1.6,0.4,2.4,2.2,3,3.6c2.1,4.5,3,36,3,38h22.1
	c4,0,6.9,0,9.1,0.6c0,0.6,0.4,1.8,1,1.6c-0.4,0.6-0.1,1.6,0.3,1.5c-0.6,0.9-0.3,3.6,0.6,4c-0.3,0-0.7,1.5-0.3,1.8
	c-0.9,0.3-1.8,2.7-1,2.5c-0.6,0.4-1.3,1-0.3,1.5c-0.7,0-1.3,1.6-1.9,2.2c-1.9,1.9-35.1,3.1-40.7,3.1c-5.7,0-7.2-5.4-7.2-13.3
	c0-1.8,0-17.3,0.1-21.3c0.1-7.5-0.1-22.4,0.9-24.3C359.9,37.3,366.2,36.2,370.4,37.4z M455.8,39.2c3.1,13.3,8.5,42.5,8.5,53.4
	c0,6-4.2,7.9-7.2,7.9c-6.9,0-9.8-13.4-12.4-21.8h-13.4c-2.5,8.4-5.5,21.8-12.4,21.8c-3,0-7.2-1.9-7.2-7.9c0-11,6-39.1,10-52.8
	c0.7-2.5,1.9-4.5,4.8-4.9c8.2-1.3,16.4-1.5,23.9-0.7C454.9,34.6,455.4,37.1,455.8,39.2z M434.2,67.3h7.8c0.4,0-3.1-15.2-3.9-17.2
	C437.3,52,433.7,67.3,434.2,67.3z M524.4,34.9c4.5,0,11.9,0,12.7,4.2c5.2,29.5-7.3,49.2-9.8,52.2c1.3-2.4,2.2-4,2.8-7
	c-1.8,3.7-2.5,6.4-6.6,9.8c3.1-3.1,4.9-8.1,4.2-6.7c-3.6,6.4-8.1,10.3-16.9,10.3c-8.2,0-9.5-6.9-10.9-13.9
	c-2.1-10.7-5.8-29.7-9.4-29.7c-3.1,0-3,25.1-5.7,38.3c-1.6,5.2-5.4,6.3-10.1,6.3c-5.8,0-7.9-2.2-7.9-6.9c0-21.9,8.1-56.8,23.1-57.6
	c6-0.3,13.1,2.8,18.9,13.1c4,7,7,16.4,9.1,24.9C523.5,65.2,520.4,34.9,524.4,34.9z M591.9,83.8c0.4-1,0.6-2.2,0.7-3.4
	c-0.6,1.8-1.8,4.2-2.8,6.1c-1.9,3.1-4.6,4.8-5.8,5.4c1.9-0.7,3.1-1.8,5.5-4c-2.2,3.1-9.1,9.1-20.3,10.1
	c-14.8,1.3-27.6-5.1-24.3-13.6c-2.5-4.5-0.6-41,1.6-44.6c2.8-4.5,12.4-5.8,16.3-5.8c18.5,0,32.4,8.8,32.4,34.5
	C595.2,73.8,594,79.9,591.9,83.8z M561.1,54.1c0,13.4,2.7,24.9-1.5,27.5c0,0.9,2.8,0.9,7,0.9c11,0,12.5-10.1,12.5-16.9
	c0-11.5-5.2-15.4-11.2-15.4C564,50.2,561.1,51.7,561.1,54.1z M590.5,83.7c-1,2.4-2.7,4.3-4.5,6.3C587.3,89,589.9,86.3,590.5,83.7z
	 M168.1,17l5.6-13.8l5.6,13.8l4.5-12.9h2.1l-6.6,18.1l-5.6-13.8l-5.6,13.8l-6.6-18.1h2.1L168.1,17z M196.6,4.1h8.9v1.8h-7V11h6.8
	v1.8h-6.8v6.7h7v1.8h-8.9V4.1z M219.2,19.5h4.7v1.8h-6.7V4.1h1.9V19.5z M246.9,7.9c-0.7-0.7-1.5-1.3-2.4-1.7
	c-0.9-0.4-1.9-0.6-2.9-0.6c-1,0-1.9,0.2-2.7,0.6c-0.8,0.4-1.6,0.9-2.2,1.6c-0.6,0.7-1.1,1.4-1.5,2.3c-0.4,0.9-0.5,1.8-0.5,2.7
	c0,0.9,0.2,1.8,0.5,2.7c0.4,0.9,0.9,1.6,1.5,2.3c0.6,0.7,1.4,1.2,2.2,1.6c0.9,0.4,1.8,0.6,2.7,0.6c1,0,1.9-0.2,2.8-0.6
	c0.9-0.4,1.7-1,2.4-1.7v2.4c-0.7,0.5-1.6,0.9-2.4,1.2c-0.9,0.3-1.8,0.4-2.7,0.4c-1.2,0-2.4-0.2-3.5-0.7c-1.1-0.5-2-1.1-2.8-1.9
	s-1.5-1.7-1.9-2.8c-0.5-1.1-0.7-2.2-0.7-3.4c0-1.2,0.2-2.4,0.7-3.5c0.5-1.1,1.1-2,1.9-2.8c0.8-0.8,1.8-1.5,2.8-1.9
	c1.1-0.5,2.2-0.7,3.5-0.7c1.9,0,3.6,0.6,5.1,1.7V7.9z M266.5,3.8c1.2,0,2.4,0.2,3.5,0.7c1.1,0.5,2,1.1,2.8,1.9
	c0.8,0.8,1.5,1.8,1.9,2.8c0.5,1.1,0.7,2.2,0.7,3.5s-0.2,2.4-0.7,3.5c-0.5,1.1-1.1,2-1.9,2.8c-0.8,0.8-1.8,1.4-2.8,1.9
	c-1.1,0.5-2.2,0.7-3.5,0.7s-2.4-0.2-3.5-0.7c-1.1-0.5-2-1.1-2.8-1.9c-0.8-0.8-1.5-1.7-1.9-2.8c-0.5-1.1-0.7-2.2-0.7-3.5
	s0.2-2.4,0.7-3.5c0.5-1.1,1.1-2,1.9-2.8c0.8-0.8,1.8-1.4,2.8-1.9C264.2,4.1,265.3,3.8,266.5,3.8z M266.5,5.6c-1,0-1.9,0.2-2.8,0.6
	c-0.9,0.4-1.6,0.9-2.2,1.5c-0.6,0.6-1.1,1.4-1.5,2.3c-0.4,0.9-0.5,1.8-0.5,2.8c0,1,0.2,1.9,0.5,2.7c0.4,0.9,0.9,1.6,1.5,2.3
	c0.6,0.6,1.4,1.2,2.2,1.5c0.9,0.4,1.8,0.6,2.7,0.6c1,0,1.9-0.2,2.7-0.6c0.9-0.4,1.6-0.9,2.2-1.5c0.6-0.6,1.1-1.4,1.5-2.3
	c0.4-0.9,0.5-1.8,0.5-2.7c0-1-0.2-1.9-0.5-2.8c-0.4-0.9-0.9-1.6-1.5-2.3c-0.6-0.6-1.4-1.2-2.2-1.5C268.4,5.8,267.5,5.6,266.5,5.6z
	 M289.1,3.2l6.2,14.4l6.3-14.4l3.5,18.2h-2L301,9.7h0L295.4,22l-5.5-12.3h0l-2.2,11.6h-2L289.1,3.2z M316.4,4.1h8.9v1.8h-7V11h6.8
	v1.8h-6.8v6.7h7v1.8h-8.9V4.1z M358.3,21.3h-1.9V5.9h-4.1V4.1h10.2v1.8h-4.2V21.3z M380.4,3.8c1.2,0,2.4,0.2,3.5,0.7
	c1.1,0.5,2,1.1,2.8,1.9c0.8,0.8,1.5,1.8,1.9,2.8c0.5,1.1,0.7,2.2,0.7,3.5s-0.2,2.4-0.7,3.5c-0.5,1.1-1.1,2-1.9,2.8
	c-0.8,0.8-1.8,1.4-2.8,1.9c-1.1,0.5-2.2,0.7-3.5,0.7s-2.4-0.2-3.5-0.7s-2-1.1-2.8-1.9s-1.5-1.7-1.9-2.8c-0.5-1.1-0.7-2.2-0.7-3.5
	s0.2-2.4,0.7-3.5c0.5-1.1,1.1-2,1.9-2.8c0.8-0.8,1.8-1.4,2.8-1.9C378.1,4.1,379.2,3.8,380.4,3.8z M380.4,5.6c-1,0-1.9,0.2-2.8,0.6
	c-0.9,0.4-1.6,0.9-2.2,1.5c-0.6,0.6-1.1,1.4-1.5,2.3c-0.4,0.9-0.5,1.8-0.5,2.8c0,1,0.2,1.9,0.5,2.7c0.4,0.9,0.9,1.6,1.5,2.3
	s1.4,1.2,2.2,1.5s1.8,0.6,2.7,0.6s1.9-0.2,2.7-0.6c0.9-0.4,1.6-0.9,2.2-1.5c0.6-0.6,1.1-1.4,1.5-2.3c0.4-0.9,0.5-1.8,0.5-2.7
	c0-1-0.2-1.9-0.5-2.8c-0.4-0.9-0.9-1.6-1.5-2.3c-0.6-0.6-1.4-1.2-2.2-1.5C382.4,5.8,381.4,5.6,380.4,5.6z M434.9,11.5
	c2.3,0.3,4.6,0.5,6.9,0.9c3.3,0.5,6.5,1.1,9.8,1c2,0,3.9,0.3,5.9,0.5c1.2,0.2,2.1,0.6,2.9,1.4c0.8,0.7,1.7,1.4,2.5,2
	c2.7,2,5.7,3,9.2,2.9c1.8,0,3.5-0.6,5.3-0.2c0.1,0,0.4-0.2,0.4-0.3c0.1-0.1,0-0.4-0.1-0.5c-0.4-0.3-0.8-0.4-1.2-0.6
	c-2.2-1.2-4.6-2.2-7.1-2.8c-2-0.5-4.1-0.7-6.2-1c-1.2-0.2-2.1-0.8-3.2-1.5c0.5-0.1,0.8-0.1,1.1-0.1c2.7-0.1,5.4-0.5,8.1-1.2
	c0.5-0.1,1.1-0.1,1.6-0.1c2.3,0.2,4.5,0.5,6.8,0c1.7-0.4,3.3-0.8,4.7-1.8c1.7-1.2,3.4-2.4,5-3.6c0.2-0.1,0.3-0.5,0.2-0.7
	c-0.1-0.3-0.4-0.3-0.8-0.1c-0.5,0.3-1,0.7-1.6,0.8c-2.1,0.4-4.2,0.7-6.3,0.9c-3.1,0.3-5.9,1.1-8.3,2.8c-0.4,0.3-0.9,0.5-1.3,0.6
	c-2.6,0.5-5.3,1-8,1.3c-3.3,0.3-6.6,0.5-9.9,0.4c-1,0-2,0-2.9-0.4c0.7-0.3,1.3-0.5,2-0.7c1-0.2,2-0.3,3-0.6c2.3-0.7,4.5-1.8,6.3-3.4
	c1.6-1.5,3.1-3.1,4.6-4.7c0.1-0.1,0.1-0.4,0.1-0.6c-0.3,0-0.6-0.1-0.8-0.1c-0.2,0-0.4,0.2-0.6,0.4c-1,0.7-2.2,1.2-3.4,1.5
	c-1.8,0.5-3.6,0.9-5.4,1.5c-2,0.7-3.8,1.8-4.3,4c-0.1,0.4-0.3,0.7-0.5,1c-0.1,0.2-0.3,0.4-0.5,0.5c-1.9,0.6-3.8,1.1-5.9,0.7
	c-4-0.7-8-1.2-12.1-1.5c-1.2-0.1-2.4-0.1-3.6-0.2c-0.2,0-0.4-0.1-0.5-0.1c0.1-0.2,0.2-0.5,0.4-0.5c0.8-0.4,1.6-0.8,2.5-1
	c3-0.8,5.8-1.9,8.7-3c2.6-1,4.9-2.3,7-3.9c0.2-0.1,0.4-0.3,0.5-0.5c0.1-0.2,0.2-0.5,0.2-0.7c-0.3-0.1-0.6-0.2-0.8-0.2
	c-1.3,0.7-2.8,0.9-4.2,1c-2.5,0.2-4.8,0.9-6.9,2c-2.8,1.4-5.1,3.6-7.5,5.5c-1.2,0.9-2.3,1.4-3.8,1.2c-2.9-0.4-5.8-0.7-8.8-0.5
	c-1.2,0.1-2.4,0.2-3.6,0.3c-3.9,0.4-7.7,1.4-11.2,3c-0.9,0.4-1.8,0.8-2.7,1.3c-0.4,0.2-0.9,0.3-0.9,0.9c0,0.3,1.3,0.7,1.7,0.5
	c0.2-0.1,0.4-0.3,0.7-0.3c1.5-0.6,3-1.2,4.5-1.8c3.5-1.3,7.3-1.8,11-2.3c2.1-0.3,4.2-0.4,6.4,0c1.3,0.2,2.6,0.3,3.9,0.3
	c1.8,0.1,3.6,0.1,5.3,0.2c2.2,0.2,4.3,0.9,6.1,2c0.4,0.2,0.9,0.6,1,1c0.3,1.4,1.4,2.2,2.5,2.9c2.3,1.5,5,2.1,7.5,3
	c1,0.4,2.1,0.8,3,1.3c0.9,0.4,1.8,0.9,2.7,1.3c0.1,0.1,0.4,0,0.5-0.1c0.1-0.1,0-0.3,0-0.5c-0.1-0.1-0.2-0.2-0.3-0.3
	c-1.9-1.5-3.8-3-5.7-4.5c-2.4-1.9-5-3.6-8.3-4c-1.3-0.2-2.3-0.8-3.3-1.6C434.8,11.7,434.8,11.6,434.9,11.5z M118.2,11.8
	c-1,0.7-1.9,1.4-3.3,1.6c-3.2,0.4-5.8,2.1-8.3,4c-1.9,1.5-3.8,3-5.7,4.5c-0.1,0.1-0.3,0.2-0.3,0.3c-0.1,0.1-0.1,0.4,0,0.5
	c0.1,0.1,0.4,0.2,0.5,0.1c0.9-0.4,1.8-0.9,2.7-1.3c1-0.5,2-0.9,3-1.3c2.5-0.9,5.2-1.6,7.5-3c1.1-0.7,2.2-1.5,2.5-2.9
	c0.1-0.4,0.6-0.7,1-1c1.9-1,3.9-1.8,6.1-2c1.8-0.1,3.5-0.1,5.3-0.2c1.3-0.1,2.6-0.1,3.9-0.3c2.1-0.3,4.3-0.3,6.4,0
	c3.7,0.5,7.4,1,11,2.3c1.5,0.6,3,1.2,4.5,1.8c0.2,0.1,0.4,0.3,0.7,0.3c0.4,0.2,1.7-0.2,1.7-0.5c0.1-0.6-0.5-0.7-0.9-0.9
	c-0.9-0.5-1.8-0.9-2.7-1.3c-3.6-1.6-7.3-2.6-11.2-3c-1.2-0.1-2.4-0.2-3.6-0.3c-3-0.2-5.9,0.1-8.8,0.5c-1.6,0.2-2.7-0.3-3.8-1.2
	C124,6.6,121.8,4.5,119,3c-2.2-1.1-4.4-1.9-6.9-2c-1.5-0.1-2.9-0.3-4.2-1c-0.2-0.1-0.5,0.1-0.8,0.2c0.1,0.2,0.1,0.5,0.2,0.7
	c0.1,0.2,0.4,0.3,0.5,0.5c2.1,1.6,4.4,3,7,3.9c2.9,1.1,5.7,2.2,8.7,3c0.9,0.2,1.7,0.7,2.5,1c0.2,0.1,0.2,0.4,0.4,0.5
	c-0.2,0-0.4,0.1-0.5,0.1c-1.2,0.1-2.4,0.1-3.6,0.2c-4.1,0.3-8.1,0.7-12.1,1.5c-2.1,0.4-4-0.1-5.9-0.7c-0.2-0.1-0.4-0.3-0.5-0.5
	c-0.2-0.3-0.4-0.7-0.5-1c-0.5-2.2-2.3-3.3-4.3-4C97,4.9,95.2,4.4,93.3,4c-1.2-0.3-2.4-0.8-3.4-1.5c-0.2-0.1-0.4-0.3-0.6-0.4
	c-0.3-0.1-0.5,0-0.8,0.1c0,0.2,0,0.5,0.1,0.6c1.5,1.6,2.9,3.2,4.6,4.7c1.8,1.6,4,2.6,6.3,3.4c0.9,0.3,2,0.4,3,0.6
	c0.7,0.1,1.3,0.3,2,0.7c-1,0.5-2,0.4-2.9,0.4c-3.3,0.1-6.6-0.1-9.9-0.4c-2.7-0.3-5.3-0.8-8-1.3c-0.5-0.1-1-0.3-1.3-0.6
	c-2.4-1.8-5.2-2.6-8.3-2.8c-2.1-0.2-4.2-0.5-6.3-0.9C67,6.4,66.5,6.1,66,5.8c-0.3-0.2-0.6-0.2-0.8,0.1c-0.1,0.2,0,0.6,0.2,0.7
	c1.7,1.2,3.3,2.5,5,3.6c1.4,0.9,3,1.4,4.7,1.8c2.3,0.5,4.5,0.2,6.8,0c0.5,0,1.1,0,1.6,0.1c2.6,0.7,5.3,1.1,8.1,1.2
	c0.3,0,0.6,0.1,1.1,0.1c-1.1,0.7-2,1.3-3.2,1.5c-2.1,0.3-4.1,0.5-6.2,1c-2.5,0.6-4.9,1.6-7.1,2.8c-0.4,0.2-0.8,0.4-1.2,0.6
	c-0.1,0.1-0.2,0.4-0.1,0.5c0.1,0.1,0.3,0.3,0.4,0.3c1.8-0.4,3.5,0.2,5.3,0.2c3.4,0,6.5-0.9,9.2-2.9c0.9-0.7,1.7-1.3,2.5-2
	c0.8-0.7,1.8-1.2,2.9-1.4c1.9-0.3,3.9-0.6,5.9-0.5c3.3,0,6.6-0.6,9.8-1c2.3-0.3,4.6-0.6,6.9-0.9C118.1,11.6,118.2,11.7,118.2,11.8z"
	/>
</svg>
