<?xml version="1.0" encoding="utf-8"?>
<!-- Generator: Adobe Illustrator 18.0.0, SVG Export Plug-In . SVG Version: 6.00 Build 0)  -->
<!DOCTYPE svg PUBLIC "-//W3C//DTD SVG 1.1//EN" "http://www.w3.org/Graphics/SVG/1.1/DTD/svg11.dtd">
<svg version="1.1" id="Layer_1" xmlns="http://www.w3.org/2000/svg" xmlns:xlink="http://www.w3.org/1999/xlink" x="0px" y="0px"
	 viewBox="0 0 110 153.2" enable-background="new 0 0 110 153.2" xml:space="preserve">
<g id="Layer_2">
	<path fill="#FFFFFF" d="M2.7,95.2c0,0,0,26.5,28.5,47.9c11.2,6.1,25,6.6,25,6.6s24.6-8.3,42.1-27.3c5.8-10.4,6.4-13.3,6.7-19.6
		c0.3-6.2,2-43.9,2-43.9s4.5-17.6-12.8-18.9S46,37,46,37s-29.4-1.6-37.8,7.6C-0.3,53.9,2.6,86.9,2.7,95.2z"/>
</g>
<g id="Layer_1_1_">
	<path fill="#B6D6E0" d="M58.3,52.7c0-0.2,0.4,0,0.5-0.1C59,53,58.5,52.7,58.3,52.7z"/>
	<path fill="#B6D6E0" d="M79.2,53.5c0-0.7-1-0.5-0.9,0.1C78.5,54.1,78.9,53.6,79.2,53.5z"/>
	<path fill="#B6D6E0" d="M58.4,53.4C59,53.5,58.4,53.1,58.4,53.4L58.4,53.4z"/>
	<path fill="#B6D6E0" d="M64.4,55.2c0.2-1-1.1-1-1.2-0.2C63.7,55.1,64,55.4,64.4,55.2z"/>
	<path fill="#B6D6E0" d="M71,40.8C71.5,40.9,71,40.5,71,40.8L71,40.8z"/>
	<path fill="#B6D6E0" d="M69.9,41C70.4,41.1,69.9,40.7,69.9,41L69.9,41z"/>
	<path fill="#B6D6E0" d="M70.8,41.1C70.9,41.2,70.8,41.1,70.8,41.1L70.8,41.1z"/>
	<path fill="#B6D6E0" d="M86.5,58.1c0.1-0.4-0.4-0.5-0.5-0.2C86.1,57.9,86.1,58.2,86.5,58.1z"/>
	<path fill="#B6D6E0" d="M44.4,41.1C44.4,41.9,45.2,41,44.4,41.1C44.4,41.2,44.6,41.1,44.4,41.1z"/>
	<path fill="#B6D6E0" d="M61,58.9C62.4,56.9,61,58.4,61,58.9C61.4,58.4,61,58.7,61,58.9z"/>
	<path fill="#B6D6E0" d="M78,60.9c0.1-0.4-0.1-0.5-0.3-0.5C77.4,60.6,77.7,61,78,60.9z"/>
	<path fill="#B6D6E0" d="M49,45c-0.5-0.7-1.4-0.4-1.7,0.2C48,45.8,48.3,45.6,49,45z"/>
	<path fill="#B6D6E0" d="M63.1,62c0-0.3-0.1-0.5-0.4-0.4C62.2,61.8,62.7,62.3,63.1,62"/>
	<path fill="#B6D6E0" d="M80.6,62.1C78.6,60.1,80.6,64.3,80.6,62.1C80.5,61.9,80.6,62.4,80.6,62.1z"/>
	<path fill="#B6D6E0" d="M84.3,64c0.1-0.4-0.3-0.4-0.7-0.4C83.5,64,84,64,84.3,64z"/>
	<path fill="#B6D6E0" d="M75.9,64.3c0-0.3-0.2-0.3-0.4-0.3C75.4,64.3,75.6,64.3,75.9,64.3z"/>
	<path fill="#B6D6E0" d="M73.1,65.1c-0.2,0-0.2-0.2-0.4-0.1C72.7,65.4,73.1,65.5,73.1,65.1z"/>
	<path fill="#B6D6E0" d="M70.5,65.2c-0.1-0.1-0.3-0.2-0.5-0.1C69.9,65.5,70.5,65.6,70.5,65.2z"/>
	<path fill="#B6D6E0" d="M76.6,65.8c0.1-0.3-0.4-0.5-0.4-0.2C76.4,65.6,76.2,65.9,76.6,65.8z"/>
	<path fill="#B6D6E0" d="M81.4,67.3C81.9,64.1,77.6,68.4,81.4,67.3C81.4,66.9,80.6,67.6,81.4,67.3z"/>
	<path fill="#B6D6E0" d="M78.2,66.8c0.2,0.2,0.9,0.2,0.9-0.1C78.7,66.7,78.4,66.4,78.2,66.8z"/>
	<path fill="#B6D6E0" d="M16.3,60.3C15.6,56.4,17.2,60.6,16.3,60.3C16.2,59.6,15.9,60.2,16.3,60.3z"/>
	<path fill="#B6D6E0" d="M89.6,78.2c0,0.3,0,0.4,0.1,0.5C90.5,78.8,90.4,77.9,89.6,78.2z"/>
	<path fill="#B6D6E0" d="M21.9,62.8C22,62.1,21.1,62.9,21.9,62.8L21.9,62.8z"/>
	<path fill="#B6D6E0" d="M86.5,81.4C89,81.8,86.1,79.9,86.5,81.4C86.7,81.4,86.3,80.6,86.5,81.4z"/>
	<path fill="#B6D6E0" d="M23.8,76.1c0.2,0,0.3,0,0.4,0C24.4,75.7,23.7,75.7,23.8,76.1z"/>
	<path fill="#B6D6E0" d="M52.3,39c-0.9-1-2,0.9-0.7,1.1C51.2,39.4,52,39.3,52.3,39z"/>
	<path fill="#B6D6E0" d="M44,39.1c0,0.2,0.1,0.3,0.3,0.3C44.3,39.2,44.2,39.1,44,39.1z"/>
	<path fill="#B6D6E0" d="M60.6,99.8c0,0.3,0.2,0.3,0.5,0.3C61.4,99.7,60.8,99.6,60.6,99.8z"/>
	<path fill="#B6D6E0" d="M49.5,39.8v0.1C49.2,40.6,50,39.2,49.5,39.8z"/>
	<path fill="#B6D6E0" d="M89.1,100.3c0,0.1,0,0.2,0,0.2C89.4,100.8,89.5,100.4,89.1,100.3z"/>
	<path fill="#B6D6E0" d="M88.8,101.6c0-0.2-0.1-0.3-0.3-0.3C88.3,101.6,88.4,101.7,88.8,101.6z"/>
	<path fill="#B6D6E0" d="M59.4,41.7C59.1,42.1,59.7,41.5,59.4,41.7L59.4,41.7z"/>
	<path fill="#B6D6E0" d="M66.7,41.7C66.8,41.8,66.7,41.7,66.7,41.7L66.7,41.7z"/>
	<path fill="#B6D6E0" d="M64.5,41.8C64.9,42.2,64.7,41.5,64.5,41.8L64.5,41.8z"/>
	<path fill="#B6D6E0" d="M56.6,42.9c0.2-0.3,0.4-0.4,0.4-0.9C56.5,41.4,55.8,42.8,56.6,42.9z"/>
	<path fill="#B6D6E0" d="M58.6,42v0.1C58.4,42.8,59.3,41.4,58.6,42z"/>
	<path fill="#B6D6E0" d="M65.7,104.6C66.5,104.6,65.7,104.2,65.7,104.6C65.8,104.6,65.7,104.5,65.7,104.6z"/>
	<path fill="#B6D6E0" d="M77.1,44.7C76.5,44.7,76.9,45,77.1,44.7C76.9,44.7,77,44.8,77.1,44.7z"/>
	<path fill="#B6D6E0" d="M90.9,44.8C89.2,44.8,91,45.9,90.9,44.8C90.6,44.8,90.9,45.3,90.9,44.8z"/>
	<path fill="#B6D6E0" d="M49.5,44.9C49.2,46.5,51.3,44.7,49.5,44.9C49.4,45.4,49.7,44.9,49.5,44.9z"/>
	<path fill="#B6D6E0" d="M95.1,45.6C94.5,45.6,95.1,46.2,95.1,45.6C94.9,45.6,95.1,45.7,95.1,45.6z"/>
	<path fill="#B6D6E0" d="M92.4,45.9c0,0.3,0.2,0.3,0.4,0.3C93,45.8,92.7,45.8,92.4,45.9z"/>
	<path fill="#B6D6E0" d="M9.8,46.9C9.8,48.7,11.4,46.9,9.8,46.9C9.8,47.2,10,46.9,9.8,46.9z"/>
	<path fill="#B6D6E0" d="M69.3,47.9C71.1,45.5,67.3,48.1,69.3,47.9C69.4,47.7,68.7,47.9,69.3,47.9z"/>
	<path fill="#B6D6E0" d="M51.2,47.4C50.7,49.3,52.5,47.2,51.2,47.4C51.2,47.8,51.7,47.4,51.2,47.4z"/>
	<path fill="#B6D6E0" d="M98.3,47.7c-0.2-0.2-0.5-0.1-0.4,0.3C98.2,48,98.4,47.9,98.3,47.7"/>
	<path fill="#B6D6E0" d="M66.6,109C69.5,109.6,64.6,106.9,66.6,109C67.2,109.1,66.4,108.8,66.6,109z"/>
	<path fill="#B6D6E0" d="M74.7,48.2C75.2,48.3,74.7,47.9,74.7,48.2L74.7,48.2z"/>
	<path fill="#B6D6E0" d="M19.4,49.5C19.4,48.9,18.8,49.5,19.4,49.5C19.4,49.4,19.3,49.5,19.4,49.5z"/>
	<path fill="#B6D6E0" d="M70.4,110.9c0-0.2-0.1-0.3-0.3-0.3C69.9,110.9,70.1,111,70.4,110.9z"/>
	<path fill="#B6D6E0" d="M12.8,50.4C11.3,50.4,13,51.5,12.8,50.4C12.6,50.4,12.9,50.9,12.8,50.4z"/>
	<path fill="#B6D6E0" d="M60.6,50.4C60,50.4,60.6,50.9,60.6,50.4C60.5,50.4,60.6,50.5,60.6,50.4z"/>
	<path fill="#B6D6E0" d="M85.5,50.4C85.5,51.1,86.3,50.3,85.5,50.4C85.5,50.5,85.7,50.4,85.5,50.4z"/>
	<path fill="#B6D6E0" d="M67.3,111.6c0-0.5-0.8-0.5-0.7,0C66.8,111.8,67.1,111.8,67.3,111.6z"/>
	<path fill="#B6D6E0" d="M87.4,53.3c-0.4-0.7,0.4-0.8,0.5-1.2C87.2,50.9,85.8,53.2,87.4,53.3z"/>
	<path fill="#B6D6E0" d="M79.8,52.2C80.2,52.6,80.1,51.8,79.8,52.2L79.8,52.2z"/>
	<path fill="#B6D6E0" d="M54.2,52.7C54.2,52.1,53.5,52.7,54.2,52.7C54.2,52.6,54.1,52.7,54.2,52.7z"/>
	<path fill="#B6D6E0" d="M67.7,113C66.2,113,67.2,114.7,67.7,113C67.3,113,67.6,113.3,67.7,113z"/>
	<path fill="#B6D6E0" d="M59.7,113.3C59.1,112.9,59.3,113.8,59.7,113.3L59.7,113.3z"/>
	<path fill="#B6D6E0" d="M60.9,113.9c0-0.3-0.3-0.4-0.4-0.5C60.4,113.8,60.8,113.8,60.9,113.9z"/>
	<path fill="#B6D6E0" d="M69.3,114.3C67.6,114.7,68.3,115.3,69.3,114.3C68.6,114.4,68.9,114.7,69.3,114.3z"/>
	<path fill="#B6D6E0" d="M61,114.3c-0.2,0-0.4-0.4-0.5-0.1C60.7,114.3,60.7,114.7,61,114.3z"/>
	<path fill="#B6D6E0" d="M64.6,114.3C64.8,114.6,64.9,113.8,64.6,114.3L64.6,114.3z"/>
	<path fill="#B6D6E0" d="M64.7,115.1c0.2,0,0.3,0,0.4,0C65.3,114.6,64.6,114.6,64.7,115.1z"/>
	<path fill="#B6D6E0" d="M75.9,56.1C75.6,55.8,75.6,56.6,75.9,56.1L75.9,56.1z"/>
	<path fill="#B6D6E0" d="M75.6,57.7C75.6,56.4,75.6,57.7,75.6,57.7C75.6,57.4,75.4,57.6,75.6,57.7z"/>
	<path fill="#B6D6E0" d="M77.3,118.2c-0.2,0.2,0,0.7,0.3,0.5C77.7,118.4,77.7,118.1,77.3,118.2z"/>
	<path fill="#B6D6E0" d="M59.4,58.6C59.1,57.1,59.1,58.7,59.4,58.6"/>
	<path fill="#B6D6E0" d="M97.5,58C96,62,99.1,57.7,97.5,58C97.2,58.4,97.9,57.9,97.5,58z"/>
	<path fill="#B6D6E0" d="M83.9,58.5c-0.3,0-0.4,0-0.4,0.2C83.5,59,84,58.9,83.9,58.5z"/>
	<path fill="#B6D6E0" d="M16.7,59.4C15.3,59.4,16.3,60.6,16.7,59.4C16.4,59.4,16.6,59.7,16.7,59.4z"/>
	<path fill="#B6D6E0" d="M83.3,62C87.8,63.4,82.6,58,83.3,62C83.5,62.1,83,60.4,83.3,62z"/>
	<path fill="#B6D6E0" d="M89.3,62.2c0.1-0.4,0.7-0.5,0.8-0.9C89.3,60.7,88.5,62,89.3,62.2z"/>
	<path fill="#B6D6E0" d="M78.2,62.1C78.2,60.8,78.1,62.1,78.2,62.1C78.2,61.9,78,62.1,78.2,62.1z"/>
	<path fill="#B6D6E0" d="M8.5,63.3c-0.2,0-0.2-0.2-0.3-0.1C8.1,63.5,8.6,63.6,8.5,63.3z"/>
	<path fill="#B6D6E0" d="M91.9,63.9C91.9,63.9,92,64,91.9,63.9L91.9,63.9z"/>
	<path fill="#B6D6E0" d="M86.5,64.1C87,64.7,87.1,63.6,86.5,64.1L86.5,64.1z"/>
	<path fill="#B6D6E0" d="M94.5,65.5c0.1-0.2,0.2-0.2,0.4-0.2C94.8,64.4,93.6,65.3,94.5,65.5z"/>
	<path fill="#B6D6E0" d="M73.6,65.1C71.5,67.6,76.7,64.4,73.6,65.1C73.3,65.4,74.1,64.9,73.6,65.1z"/>
	<path fill="#B6D6E0" d="M85.1,65.4C85.1,64.3,84.3,65.5,85.1,65.4C85.1,65.2,84.7,65.4,85.1,65.4z"/>
	<path fill="#B6D6E0" d="M67.6,65.9c0.2,0.2,0.4,0,0.4-0.3C67.7,65.5,67.4,65.6,67.6,65.9"/>
	<path fill="#B6D6E0" d="M74.3,66.6c-0.1,0.7,0.4,0.4,0.3,1.1C75.4,67.6,74.6,66.7,74.3,66.6z"/>
	<path fill="#B6D6E0" d="M94.7,66.9c0.3,0,0.7,0,0.5-0.3C94.9,66.6,94.6,66.6,94.7,66.9z"/>
	<path fill="#B6D6E0" d="M80.9,67C79.4,67.3,80.3,68.4,80.9,67C80.5,67.1,80.7,67.4,80.9,67z"/>
	<path fill="#B6D6E0" d="M82.9,67C82,67,82.7,67.6,82.9,67C82.7,67,82.8,67.2,82.9,67z"/>
	<path fill="#B6D6E0" d="M93.3,69.1c-0.1-0.4,0.1-0.7,0.2-0.8C93,67.8,92.7,69.1,93.3,69.1z"/>
	<path fill="#B6D6E0" d="M75.5,69.4C76,69.4,75.5,68.9,75.5,69.4C75.6,69.4,75.5,69.3,75.5,69.4z"/>
	<path fill="#B6D6E0" d="M94.5,71.3c0.2,0,1.2-0.1,1.4-0.4C95.4,70.5,94.5,70.7,94.5,71.3z"/>
	<path fill="#B6D6E0" d="M91.1,70.8C91.4,71.3,91.5,70.4,91.1,70.8L91.1,70.8z"/>
	<path fill="#B6D6E0" d="M99.3,72c0-0.1,0-0.2,0-0.2C99.1,71.4,98.8,72.1,99.3,72z"/>
	<path fill="#B6D6E0" d="M92.1,72c-0.2,0.2,0.1,0.2,0,0.5C92.9,72.8,92.7,71.9,92.1,72z"/>
	<path fill="#B6D6E0" d="M88.5,72.4C89.2,72.6,88.8,72.1,88.5,72.4L88.5,72.4z"/>
	<path fill="#B6D6E0" d="M87.8,73.9c0,0.1,0,0.3,0.1,0.3C88,74.1,88.2,73.8,87.8,73.9z"/>
	<path fill="#B6D6E0" d="M86.3,74.4c-0.2-1.2-1.4,0.4-0.3,0.5C85.8,74.7,85.8,74.4,86.3,74.4z"/>
	<path fill="#B6D6E0" d="M84.7,74.3C85.3,74.3,84.7,73.8,84.7,74.3C84.7,74.3,84.7,74.2,84.7,74.3z"/>
	<path fill="#B6D6E0" d="M84,74.9c0.1-0.3-0.4-0.5-0.4-0.2C83.8,74.8,83.6,75.1,84,74.9z"/>
	<path fill="#B6D6E0" d="M101,75.9c-1.2-0.7-1.2-0.5-0.2,0.3"/>
	<path fill="#B6D6E0" d="M93,76.3C93.5,74.8,91.9,76.3,93,76.3C93,76.1,92.7,76.3,93,76.3z"/>
	<path fill="#B6D6E0" d="M27,76.8c-0.2,0-0.2-0.2-0.3-0.1C26.5,77,27,77.1,27,76.8z"/>
	<path fill="#B6D6E0" d="M89.9,77.1c-1.1-1.2-1.8,1.5-0.3,1.6C89,78.1,89.5,77.2,89.9,77.1z"/>
	<path fill="#B6D6E0" d="M22.9,63.3C22.2,62.3,20,62.4,22.9,63.3C22.5,62.9,22.2,63.2,22.9,63.3z"/>
	<path fill="#B6D6E0" d="M91.6,79.5C95.2,81.4,91.6,76.5,91.6,79.5C91.8,79.6,91.6,78.1,91.6,79.5z"/>
	<path fill="#B6D6E0" d="M99.2,79.3C99.6,79.4,99.2,79,99.2,79.3L99.2,79.3z"/>
	<path fill="#B6D6E0" d="M31.1,79.8C31.6,79.9,31.1,79.5,31.1,79.8L31.1,79.8z"/>
	<path fill="#B6D6E0" d="M29.2,80.5c0-0.2-0.1-0.3-0.3-0.3C28.7,80.5,28.8,80.6,29.2,80.5z"/>
	<path fill="#B6D6E0" d="M31.8,80.9C31,80.9,31.8,82,31.8,80.9C31.7,80.9,31.8,81.1,31.8,80.9z"/>
	<path fill="#B6D6E0" d="M96.6,82.6C97.1,82.8,96.7,82.2,96.6,82.6L96.6,82.6z"/>
	<path fill="#B6D6E0" d="M31.1,82.9C31.5,83.3,31.2,82.5,31.1,82.9L31.1,82.9z"/>
	<path fill="#B6D6E0" d="M95.7,83.8C96.4,83.8,95.6,83,95.7,83.8C95.8,83.8,95.7,83.5,95.7,83.8z"/>
	<path fill="#B6D6E0" d="M24.7,69.8C24.8,70.2,24.9,69.4,24.7,69.8L24.7,69.8z"/>
	<path fill="#B6D6E0" d="M31.7,84.5C31.9,85,32,84.1,31.7,84.5L31.7,84.5z"/>
	<path fill="#B6D6E0" d="M96.8,85.1C96.8,83.8,96.1,85.2,96.8,85.1C96.8,84.8,96.5,85.1,96.8,85.1z"/>
	<path fill="#B6D6E0" d="M95.3,84.7C95.3,84.7,95.4,84.8,95.3,84.7L95.3,84.7z"/>
	<path fill="#B6D6E0" d="M34.6,85.4c-1.1-0.4-2.5,1.2-0.9,1.5"/>
	<path fill="#B6D6E0" d="M88.1,85.8C88.8,85.8,88.2,86.3,88.1,85.8C88.2,85.8,88.1,85.6,88.1,85.8z"/>
	<path fill="#B6D6E0" d="M93,86.6C91.9,86.6,92.8,87.6,93,86.6C92.8,86.6,92.9,86.8,93,86.6z"/>
	<path fill="#B6D6E0" d="M91.3,87.6c0.7,0.1,0.7-0.3,0.7-0.7C91.5,86.6,91.1,87,91.3,87.6z"/>
	<path fill="#B6D6E0" d="M8.3,73.3c-0.2,0.2,0,0.4,0.3,0.4C8.7,73.4,8.6,73.3,8.3,73.3z"/>
	<path fill="#B6D6E0" d="M31.9,89.1c-0.2,0.7,0.7,0.7,0.4,0C32.2,89.1,32.1,89.1,31.9,89.1z"/>
	<path fill="#B6D6E0" d="M90.7,89.4C90.6,89.3,90.7,89.5,90.7,89.4L90.7,89.4z"/>
	<path fill="#B6D6E0" d="M99.8,89.8C100.1,90.2,100.2,89.4,99.8,89.8L99.8,89.8z"/>
	<path fill="#B6D6E0" d="M27,76C28,76.3,27,75.8,27,76C27.1,76,27,75.9,27,76z"/>
	<path fill="#B6D6E0" d="M97.7,92.2C98.9,94.3,95.8,91.8,97.7,92.2C96.3,89.7,97.5,92.2,97.7,92.2z"/>
	<path fill="#B6D6E0" d="M31.9,92C32.5,92.2,32,91.7,31.9,92L31.9,92z"/>
	<path fill="#B6D6E0" d="M55.8,94.2c0.3,0,0.4,0,0.4-0.2C56,94,55.9,94.1,55.8,94.2z"/>
	<path fill="#B6D6E0" d="M9.2,80.6c0.1-0.3-0.2-0.3-0.3-0.4C8.8,80.5,8.9,80.7,9.2,80.6z"/>
	<path fill="#B6D6E0" d="M22.1,81.1c-0.2,0-0.2-0.2-0.4-0.1C21.6,81.4,22.1,81.5,22.1,81.1z"/>
	<path fill="#B6D6E0" d="M57.7,96.6C58.2,96.7,57.8,96.1,57.7,96.6L57.7,96.6z"/>
	<path fill="#B6D6E0" d="M59.5,97C60,97,59.5,96.5,59.5,97C59.5,97,59.5,96.9,59.5,97z"/>
	<path fill="#B6D6E0" d="M82.9,96.9C82.7,98.7,84.3,96.9,82.9,96.9C82.9,97.5,83.1,96.9,82.9,96.9z"/>
	<path fill="#B6D6E0" d="M59.8,99.1C59.8,99.7,60.3,99.2,59.8,99.1L59.8,99.1z"/>
	<path fill="#B6D6E0" d="M89.8,100.5C88.8,99.3,90.2,102.3,89.8,100.5C89.7,100.3,89.9,100.7,89.8,100.5z"/>
	<path fill="#B6D6E0" d="M87.8,101c0,0.2,0.1,0.3,0.3,0.3C88.1,101.2,88,101,87.8,101z"/>
	<path fill="#B6D6E0" d="M86.6,101.7C86.7,100.9,85.8,101.8,86.6,101.7L86.6,101.7z"/>
	<path fill="#B6D6E0" d="M96.4,101.8C95.3,101.8,96.9,103.3,96.4,101.8C96.3,101.8,96.6,102.1,96.4,101.8z"/>
	<path fill="#B6D6E0" d="M90.8,102C90.8,102.5,91.7,102,90.8,102C90.8,102.1,90.9,102,90.8,102z"/>
	<path fill="#B6D6E0" d="M97.5,103.4C97.5,103.4,97.6,103.5,97.5,103.4L97.5,103.4z"/>
	<path fill="#B6D6E0" d="M64.6,104.7C65,104.7,64.6,104.4,64.6,104.7C64.7,104.7,64.6,104.6,64.6,104.7z"/>
	<path fill="#B6D6E0" d="M90.4,104.7C90.9,104.8,90.5,104.4,90.4,104.7L90.4,104.7z"/>
	<path fill="#B6D6E0" d="M8.6,92c-0.1-0.4-0.2-1.1,0.1-1.4C7.3,89.6,6.8,92.3,8.6,92z"/>
	<path fill="#B6D6E0" d="M63.5,105.7C62.8,105.8,63.4,106.6,63.5,105.7L63.5,105.7z"/>
	<path fill="#B6D6E0" d="M98.3,105.7c-0.3,0-0.3,0.2,0,0.2"/>
	<path fill="#B6D6E0" d="M33.6,92.6C34.1,90.6,32,92.6,33.6,92.6"/>
	<path fill="#B6D6E0" d="M85.8,107.5c0-0.2-0.1-0.3-0.3-0.3C85.5,107.3,85.6,107.5,85.8,107.5z"/>
	<path fill="#B6D6E0" d="M90.1,109C89.2,109,89.9,110.2,90.1,109C89.9,109,90.1,109.2,90.1,109z"/>
	<path fill="#B6D6E0" d="M50.6,95.2c-1.3,0.1-0.1,2.2,0.7,1.5C50.5,96.6,50.6,95.7,50.6,95.2"/>
	<path fill="#B6D6E0" d="M17.3,113.2C17.3,114,18.1,113.1,17.3,113.2C17.3,113.3,17.5,113.2,17.3,113.2z"/>
	<path fill="#B6D6E0" d="M92.2,113.8C91.7,113.8,92.2,114.4,92.2,113.8C92.2,113.8,92.2,113.9,92.2,113.8z"/>
	<path fill="#B6D6E0" d="M93.3,114.9C93.6,115.3,93.4,114.5,93.3,114.9L93.3,114.9z"/>
	<path fill="#B6D6E0" d="M92.7,115.4c0.2,0.3,0.9,0.1,0.8-0.2C93.2,115,92.6,115.1,92.7,115.4z"/>
	<path fill="#B6D6E0" d="M90.4,118.2c-1.1-0.2-0.2-1.1,0.1-1.4C89,116,89.3,119.3,90.4,118.2z"/>
	<path fill="#B6D6E0" d="M92,117.5C91.4,119.7,93.3,117.2,92,117.5C91.9,117.8,92.3,117.5,92,117.5z"/>
	<path fill="#B6D6E0" d="M77.2,117.9C77.2,117.9,77.1,117.8,77.2,117.9L77.2,117.9z"/>
	<path fill="#B6D6E0" d="M13.4,106.6C13,106.3,13.1,107,13.4,106.6L13.4,106.6z"/>
	<path fill="#B6D6E0" d="M58.6,57.7c0.2,0.3,0.3,0.5,0.7,0.3C59.4,57.7,58.6,57.4,58.6,57.7z"/>
	<path fill="#B6D6E0" d="M73.1,47.1C71.9,46.8,73.3,47.8,73.1,47.1C73,47.1,73.2,47.3,73.1,47.1z"/>
	<path fill="#B6D6E0" d="M70.6,108.7C71,109,70.3,108.2,70.6,108.7L70.6,108.7z"/>
	<path fill="#B6D6E0" d="M11.6,49C11.9,49.3,11.2,48.6,11.6,49L11.6,49z"/>
	<path fill="#B6D6E0" d="M70.6,113.2c-0.2,0-0.1-0.4-0.4-0.3C70.2,113.1,70.6,113.4,70.6,113.2"/>
	<path fill="#B6D6E0" d="M99.3,81.6C96,81.6,104,79.9,99.3,81.6C99.2,81.6,98.5,81.8,99.3,81.6z"/>
	<path fill="#B6D6E0" d="M14.6,114.5c-1.4-0.3-0.3-1.6,0-2C13,111.7,11.9,115,14.6,114.5z"/>
	<path fill="#0C7FAE" d="M106.8,44.3c-4.5-6.6-21.5-8.4-32.2-8.8c-13-0.5-25.9-2.1-36-0.4c-0.1-0.3-0.2-0.7-0.3-0.9
		c-0.4-1.3-0.8-4.5-1.1-7c2.3,1,5.9,0.2,8-0.4c2.4-0.8,1.1-2.2-3.3-3.8c-1.8-0.7-3.3-0.7-4.5-0.4c0.2-0.1,0.3-0.2,0.4-0.4
		c1.6-1.6,1.2-1.2,3.5-1.1c2.4,0.1,8.6,1.5,9.6,1.1c1.4-0.1,3.9-0.9,5-1.6c1.2-0.8,3.2-1,5.2-1.4s2.8-1.5,5.3-3.2
		c2.5-1.6,2.6-2.2,3.7-4.1c1.4-2.4,2.2-4.5,2.1-4.5c0,0,0.2-0.4,0.4-2.6c0.3-2.9,1.7-4.1,1.4-4.3c-0.3-0.3-0.4,0-1.2,0.9
		s-1.2,1.8-1.5,3.6S69.8,5.4,68.9,5C68,4.7,66.4,3.6,66,3.2c-0.3-0.4-0.5-0.8-0.8-0.3c-0.7,1,3,3.3,4.6,4c1,0.4-1.3,3.4-2.1,4.7
		c-0.7,1.3-4.5,3.7-4.5,3.7s-1.5,1.3-4.7,2.1c-3.2,0.8-1.8-4.1-1.8-4.1s0.7-3.5,1-4.8c0.3-1.3,1.1-3.2,0.8-3.2
		c-0.3,0-0.5,0.4-0.9,1.2c-0.3,0.7-0.7,1.6-1.1,2.7c-0.4,1.1-0.8,1.6-1.6,2.2c-0.9,0.4-1.7,0.3-3.6,0c-1.8-0.4-2.6-0.3-3.3-2.1
		c-0.7-1.8,1.8-3,2.6-3.8c0.9-0.8,3.3-2.1,4-2.3c0.8-0.3,2-0.5,1.8-0.9c-0.1-0.3-1.2,0-1.8,0.2c-0.7,0.2-3.2,1.1-5.2,2
		s-4.3,3.9-5.1,4.9c-0.8,1-3.5,4-4.3,4.9c-0.8,0.9-0.9-0.9-1-1.3c-0.1-0.4,0.1-1.7,0.7-3c0.5-1.3,1.1-2.3,0.9-2.5
		c-0.3-0.2-0.7,0.3-1,0.9c-0.3,0.5-1.3,2.3-1.6,3.3c-0.7,1.8,0.5,4-0.2,4.7c-0.9,0.7-1.6-0.9-1.8-1.2c-0.3-0.3-1.2-2.1-1.5-2.5
		c-0.3-0.4-0.7-1.2-0.9-2.9c-0.2-1.6,1-2.6,1.4-3.2c0.4-0.5,1.2-1.4,1.6-2c0.5-0.5,0.9-1,0.7-1.3C37,2.9,36,3.9,35.6,4.5
		c-0.4,0.4-1.2,1.1-2.1,2.1c-0.9,0.9-1.4,1.8-1.8,4.5c-0.4,2.6,0.8,5.1,1.2,6c0.5,0.8,1,1.8,0.2,2.3c-0.8,0.4-2.2-1.4-2.2-1.4
		s-1.4-1.8-2.5-3.2c-1.1-1.4-2.5-2.4-3.5-4.1c-1-1.8,0-3.5,0.5-4.3s-0.3-0.4-0.3-0.4S23.8,7.1,23.5,9s1.1,3.7,1.1,3.7
		s-0.3,0-0.8-0.4c-2-2.2-1.1-5.3-1.3-5.4c-0.2,0-0.3-0.1-0.4,0.3c-0.7,1.5-0.7,2.7-0.4,3.7c0.3,1.3,1.1,2.3,1.5,3
		c0.9,1.3,7,6.4,7,6.4s0.4,0.4,0.5,1.2c-2.2-1.4-5.2-0.7-5.5-0.8c0,0-2.9-1.3-4.6-2.2c-1.7-0.9-2.5-1.7-4.2-0.3
		c-1.1,1-0.3,2.3-0.3,2.3s2.2,3.3,1.6,4.2L15,23.6c0,0-0.5,0.5,0,1.3c-0.2,0.3-0.7,1.1-0.2,1.6c0.5,0.8,2.1,1.2,2.1,1.2
		s0.9,0.2,1.6,1.4c0.1,0.1,0.1,0.2,0.2,0.3l0,0l0,0c0.7,1.2,1.8,2.6,3.6,3.5c0,2.5,0.8,2.9,1.1,3.9c-8.8,1-17.7,2.9-20.4,9.4
		c-1.4,3.3-1.5,11-1.8,16.6c-1.5,20.9-2,49.4,6.3,59.4c9.7,11.6,15.4,19.4,26.5,24.7c4.7,2.3,17.5,6.3,19.7,6.3
		c4.5,0,12.6-1.7,19.4-6.6c6-4.2,27.7-22.1,30.9-28.9c3.5-7.5,3-21.9,3.8-36.1C108.6,69.3,111.7,51.5,106.8,44.3z M40.4,18
		c0.1-0.8,0.9-0.9,2.3-2.2c1.4-1.3,3.6-2.9,6.6-2.4c3,0.4,4.9,0.9,6,1c0,0,0,2.9-0.9,3.7c-0.8,0.8-1.6,2.5-8,1.6
		C40,18.8,40.3,18.7,40.4,18z M41.3,107.1l0.9-21.3c0.3,1.2,0.5,2.5,1,3.8c1,3.4,0.7,12.8,0,17.6c0,0.2,0,0.4,0,0.8
		C42.4,107.7,41.9,107.3,41.3,107.1z M83.2,126.9c-3.7-2.2-7.3-4.7-9.8-6.4c1.3-2.3,3.7-6.3,5.4-8.4c2.7,4.1,4.2,9.1,4.6,11.3
		C83.6,124.9,83.4,125.9,83.2,126.9z M73.1,112.7c-2.5,2.6-5,3.7-6.4,5.1c-2.8,0.5-5.9,2.4-6.5,1.7c-1-0.9-4.6-3.7-10.8-7.7
		c-0.5-0.3-1-0.7-1.5-1c0.3-4.8,0.9-13.7,1.1-15c0.2-1.5,1.4-4.2,1.6-9.4c3.2,2.4,7.1,4.9,10.7,6.4l0,0l0,0c0.4,0.2,1,0.4,1.4,0.7
		c0.8,0.4,1.7,1.3,2.5,2.8l0,0c1,2.5,2.2,4.7,3.6,6.1c2.1,2.2,4,3.7,5.8,5.1C74.9,109.1,74.8,110.9,73.1,112.7z M5.9,84.1
		C5.6,74.8,4.2,53.9,7.7,47c2.3-4.5,9.4-5.7,15.7-6.6c0,0,0,0.1,0,0.2l0,0l0,0c-1.2,4.9-2.3,13.5,1.2,20.7c0.7,1.3,1.4,2.6,2.2,3.8
		c1.2,3.5,3.3,9,4.8,10.3c2.3,2.1,3.3,4.9,3.4,8.2c0,3.2-0.8,5.8,0,8.6c0.8,2.7,2.3,7.8,2.2,14.2c-2.5-0.4-6.6-1.3-8.5,1.4
		c-6.3,9-9.9,14.4-11.9,17.3c-0.1-0.2-0.2-0.3-0.4-0.5l0,0c-1.8-2.5-3.6-5.1-5.4-8C7.4,111,6.2,95.7,5.9,84.1z M103,83.2
		c-0.3,11.3-0.7,24.9-3.8,31.5c-1.7,3.7-5.8,8.4-10.2,12.7c-1.2-3.8-2.7-13.5-2.9-16c-0.2-2.7-2.1-1.5-4.8-6.2
		c-2.7-4.7,0.2-9.9,0.2-9.9l0,0c0.3-0.4,0.7-1.1,1-1.6c0.3-0.7,0.7-1.4,1-2.2c1.5,2.2,4.1,3.3,5.3,3.7c1.6,0.5,2.4-0.8,0.9-2.4
		c-1.5-1.6-3.2-4.9-4-7.6c-0.4-1.7-1.6-4.2-2.5-5.8c-0.2-0.5-0.5-1.1-0.9-1.5l0,0l0,0c-0.3-0.4-0.5-0.8-0.9-1.2
		c-4.3-5.4-9.4-5.9-11-6.5c-1.6-0.7-4.9-2.7-7.7-5c-2.9-2.3-5-3.9-7.6-6c-2.6-2-3.9-4.6-5.2-6.3c-1.1-1.4-3.3-2-5.2-3
		c-0.1,0-1.6-1-3.5-6.4c-0.4-1.3-0.9-2.8-1.4-4.5c4.8,0.1,10,0.4,14.9,0.7c8.6,0.5,17.4,0.3,25,0.9c9.1,0.8,19,3.2,23.2,7.4
		C104.7,49.7,103.4,71.1,103,83.2z"/>
	<g>
		<g>
			<defs>
				<path id="SVGID_1_" d="M34.3,146.8c4.7,2.3,17.5,6.3,19.7,6.3c4.5,0,12.6-1.7,19.4-6.6 M104.2,117.5c3.5-7.5,3-21.9,3.8-36.1
					c0.7-12,3.7-29.9-1.2-37.1c-4.5-6.6-21.5-8.4-32.2-8.8c-13-0.5-25.9-2.1-36-0.4c-0.1-0.3-0.2-0.7-0.3-0.9
					c-0.4-1.3-0.8-4.5-1.1-7c2.3,1,5.9,0.2,8-0.4c2.4-0.8,1.1-2.2-3.3-3.8c-1.8-0.7-3.3-0.7-4.5-0.4c0.2-0.1,0.3-0.2,0.4-0.4
					c1.6-1.6,1.2-1.2,3.5-1.1c2.4,0.1,8.6,1.5,9.6,1.1c1.4-0.1,3.9-0.9,5-1.6c1.2-0.8,3.2-1,5.2-1.4s2.8-1.5,5.3-3.2
					c2.5-1.6,2.6-2.2,3.7-4.1c1.4-2.4,2.2-4.5,2.1-4.5c0,0,0.2-0.4,0.4-2.6c0.3-2.9,1.7-4.1,1.4-4.3c-0.3-0.3-0.4,0-1.2,0.9
					s-1.2,1.8-1.5,3.6S69.8,5.4,68.9,5C68,4.7,66.4,3.6,66,3.2c-0.3-0.4-0.5-0.8-0.8-0.3c-0.7,1,3,3.3,4.6,4c1,0.4-1.3,3.4-2.1,4.7
					c-0.7,1.3-4.5,3.7-4.5,3.7s-1.5,1.3-4.7,2.1c-3.2,0.8-1.8-4.1-1.8-4.1s0.7-3.5,1-4.8c0.3-1.3,1.1-3.2,0.8-3.2
					c-0.3,0-0.5,0.4-0.9,1.2c-0.3,0.7-0.7,1.6-1.1,2.7c-0.4,1.1-0.8,1.6-1.6,2.2c-0.9,0.4-1.7,0.3-3.6,0c-1.8-0.4-2.6-0.3-3.3-2.1
					c-0.7-1.8,1.8-3,2.6-3.8c0.9-0.8,3.3-2.1,4-2.3c0.8-0.3,2-0.5,1.8-0.9c-0.1-0.3-1.2,0-1.8,0.2c-0.7,0.2-3.2,1.1-5.2,2
					s-4.3,3.9-5.1,4.9c-0.8,1-3.5,4-4.3,4.9c-0.8,0.9-0.9-0.9-1-1.3c-0.1-0.4,0.1-1.7,0.7-3c0.5-1.3,1.1-2.3,0.9-2.5
					c-0.3-0.2-0.7,0.3-1,0.9c-0.3,0.5-1.3,2.3-1.6,3.3c-0.7,1.8,0.5,4-0.2,4.7c-0.9,0.7-1.6-0.9-1.8-1.2c-0.3-0.3-1.2-2.1-1.5-2.5
					c-0.3-0.4-0.7-1.2-0.9-2.9c-0.2-1.6,1-2.6,1.4-3.2c0.4-0.5,1.2-1.4,1.6-2c0.5-0.5,0.9-1,0.7-1.3C37,2.9,36,3.9,35.6,4.5
					c-0.4,0.4-1.2,1.1-2.1,2.1s-1.4,1.8-1.8,4.5c-0.4,2.6,0.8,5.1,1.2,6c0.5,0.8,1,1.8,0.2,2.3c-0.8,0.4-2.2-1.4-2.2-1.4
					s-1.4-1.8-2.5-3.2c-1.1-1.4-2.5-2.4-3.5-4.1c-1-1.8,0-3.5,0.5-4.3s-0.3-0.4-0.3-0.4S23.8,7.1,23.5,9s1.1,3.7,1.1,3.7
					s-0.3,0-0.8-0.4c-2-2.2-1.1-5.3-1.3-5.4c-0.2,0-0.3-0.1-0.4,0.3c-0.7,1.5-0.7,2.7-0.4,3.7c0.3,1.3,1.1,2.3,1.5,3
					c0.9,1.3,7,6.4,7,6.4s0.4,0.4,0.5,1.2c-2.2-1.4-5.2-0.7-5.5-0.8c0,0-2.9-1.3-4.6-2.2c-1.7-0.9-2.5-1.7-4.2-0.3
					c-1.1,1-0.3,2.3-0.3,2.3s2.2,3.3,1.6,4.2L15,23.6c0,0-0.5,0.5,0,1.3c-0.2,0.3-0.7,1.1-0.2,1.6c0.5,0.8,2.1,1.2,2.1,1.2
					s0.9,0.2,1.6,1.4c0.1,0.1,0.1,0.2,0.2,0.3l0,0l0,0c0.7,1.2,1.8,2.6,3.6,3.5c0,2.5,0.8,2.9,1.1,3.9c-8.8,1-17.7,2.9-20.4,9.4
					c-1.4,3.3-1.5,11-1.8,16.6c-1.5,20.9-2,49.4,6.3,59.4"/>
			</defs>
			<clipPath id="SVGID_2_">
				<use xlink:href="#SVGID_1_"  overflow="visible"/>
			</clipPath>
			<g clip-path="url(#SVGID_2_)">
				<path fill="#FFFFFF" d="M61.4,36.1C57.9,36.1,61.7,38.6,61.4,36.1C60.9,36.1,61.5,36.3,61.4,36.1z"/>
				<path fill="#FFFFFF" d="M24.3,36.6c-0.3-0.7-1.1,0-1.1,0.5C23.7,37.5,24.2,37,24.3,36.6z"/>
				<path fill="#FFFFFF" d="M61.7,37.1C61.7,37.2,61.6,37,61.7,37.1L61.7,37.1z"/>
				<path fill="#FFFFFF" d="M40.5,38.1C39.9,39.4,41.8,38.4,40.5,38.1L40.5,38.1z"/>
				<path fill="#FFFFFF" d="M36.6,40.2C36.7,39.1,35,40.2,36.6,40.2C36.6,39.7,36.3,40.2,36.6,40.2z"/>
				<path fill="#FFFFFF" d="M35.1,42.4c-0.1-0.4,0.2-0.5,0.3-0.8C34.9,40.9,34.1,42.4,35.1,42.4z"/>
				<path fill="#FFFFFF" d="M34,34.5C33.6,33.5,33.1,34.9,34,34.5L34,34.5z"/>
				<path fill="#FFFFFF" d="M35.3,34.7c-0.3-0.2-0.9-0.1-0.5,0.3C35,35.2,35.4,35.2,35.3,34.7z"/>
				<path fill="#FFFFFF" d="M25.8,44.5c-0.2-0.2-0.7-0.1-0.5,0.3C25.6,44.8,25.9,44.8,25.8,44.5z"/>
				<path fill="#FFFFFF" d="M60.5,62.3c-0.2,0-0.4,0-0.7,0C59.7,62.8,60.6,62.8,60.5,62.3z"/>
				<path fill="#FFFFFF" d="M33.2,41.6C36.3,41.5,32.9,39,33.2,41.6L33.2,41.6z"/>
				<path fill="#FFFFFF" d="M64.2,67.2c-0.7-0.3,0.3-0.7,0.2-0.8C63.7,64.9,62,67.1,64.2,67.2z"/>
				<path fill="#FFFFFF" d="M59.3,66.6c-0.2,0-0.1-0.3-0.4-0.2C58.6,66.7,59.2,66.9,59.3,66.6z"/>
				<path fill="#FFFFFF" d="M49,6.1C49.5,6.2,49,5.8,49,6.1L49,6.1z"/>
				<path fill="#FFFFFF" d="M29.6,44.4c0-0.3-0.2-0.3-0.4-0.3C29,44.5,29.3,44.5,29.6,44.4z"/>
				<path fill="#FFFFFF" d="M24.6,44.4c-0.2-0.2-0.5,0-0.8,0C23.6,45.2,24.7,44.9,24.6,44.4z"/>
				<path fill="#FFFFFF" d="M63.7,69.7c0,0.4,0.5,0.7,0.8,0.4C64.6,69.6,64.1,69.5,63.7,69.7z"/>
				<path fill="#FFFFFF" d="M46.9,9.7c-0.2-0.8-1.2-0.3-1.1,0.4C46.2,10.1,46.7,10,46.9,9.7z"/>
				<path fill="#FFFFFF" d="M37.4,53.1c-0.4,0-0.7,0.2-0.5,0.5C37.3,53.7,37.5,53.5,37.4,53.1z"/>
				<path fill="#FFFFFF" d="M24.7,53.5c0-0.2-0.1-0.3-0.3-0.3C24.3,53.5,24.4,53.6,24.7,53.5z"/>
				<path fill="#FFFFFF" d="M35.8,53.4c-0.1,0.1-0.3,0.2-0.2,0.5C36.1,54.1,36.2,53.5,35.8,53.4z"/>
				<path fill="#FFFFFF" d="M58.5,71C59.5,71,58.3,69.5,58.5,71C58.9,71,58.5,70.7,58.5,71z"/>
				<path fill="#FFFFFF" d="M58.7,81.5C59,79.5,57.1,82.4,58.7,81.5C58.7,81,58.6,81.6,58.7,81.5z"/>
				<path fill="#FFFFFF" d="M73,71.6c0.2,0,0.4,0,0.5,0C73.6,71,73,70.9,73,71.6z"/>
				<path fill="#FFFFFF" d="M23.5,55.3c0-0.2-0.1-0.3-0.3-0.3C23.1,55.2,23.2,55.3,23.5,55.3z"/>
				<path fill="#FFFFFF" d="M26.8,55.6C26.8,54.5,26,55.7,26.8,55.6C26.8,55.4,26.5,55.6,26.8,55.6z"/>
				<path fill="#FFFFFF" d="M30.3,48.5c0-0.3-0.2-0.3-0.4-0.3C29.7,48.5,29.9,48.6,30.3,48.5z"/>
				<path fill="#FFFFFF" d="M67,73c-0.1-0.1-0.5-0.3-0.5,0C66.6,73,67,73.2,67,73z"/>
				<path fill="#FFFFFF" d="M78.1,74.9C78.5,74.9,78.1,74.7,78.1,74.9C78.2,74.9,78.1,74.9,78.1,74.9z"/>
				<path fill="#FFFFFF" d="M24.1,51.1c-0.8,0.5,0.8,1.1,0.7,0.2C24.7,50.9,24.3,50.9,24.1,51.1z"/>
				<path fill="#FFFFFF" d="M72.9,75.8c0-0.3-0.2-0.3-0.4-0.3C72.3,75.7,72.6,75.7,72.9,75.8z"/>
				<path fill="#FFFFFF" d="M55,16.2c0.2-0.3,0-0.5-0.3-0.5C54.5,15.9,54.6,16.5,55,16.2z"/>
				<path fill="#FFFFFF" d="M75.6,76.7c0.3,0.3,0.7,0.5,1.3,0.4C77,76.5,75.7,75.9,75.6,76.7z"/>
				<path fill="#FFFFFF" d="M50.5,18c-0.3,0-0.2-0.2-0.5-0.1C49.7,18.4,50.6,18.5,50.5,18z"/>
				<path fill="#FFFFFF" d="M65.2,79.1C64,79.1,65.4,79.4,65.2,79.1C65,79.1,65.4,79.4,65.2,79.1z"/>
				<path fill="#FFFFFF" d="M49,19.4c-0.4,0-0.5-0.2-0.9,0C48.1,20.3,48.7,19.8,49,19.4z"/>
				<path fill="#FFFFFF" d="M83.8,80.8"/>
				<path fill="#FFFFFF" d="M52.7,20.7c-0.1-0.1-0.5-0.3-0.5,0C52.2,20.9,52.4,20.9,52.7,20.7z"/>
				<path fill="#FFFFFF" d="M72.1,81.7C72.1,80.6,70.9,81.8,72.1,81.7L72.1,81.7z"/>
				<path fill="#FFFFFF" d="M67.6,81.7C65.5,80.5,66.7,83.9,67.6,81.7L67.6,81.7z"/>
				<path fill="#FFFFFF" d="M45.5,21.5c0-0.2-0.1-0.3-0.3-0.3C45.2,21.3,45.3,21.5,45.5,21.5z"/>
				<path fill="#FFFFFF" d="M25.5,21.5c-0.2,0.3,0.4,0.3,0.3,0.1C25.7,21.6,25.7,21.5,25.5,21.5z"/>
				<path fill="#FFFFFF" d="M32.8,21.8C32.8,20.9,32,21.8,32.8,21.8C32.8,21.7,32.4,21.8,32.8,21.8z"/>
				<path fill="#FFFFFF" d="M19.4,21.7C18.8,21.2,18.9,22.1,19.4,21.7L19.4,21.7z"/>
				<path fill="#FFFFFF" d="M72.4,82.6c0,0.2,0.1,0.3,0.3,0.3C72.9,82.7,72.7,82.6,72.4,82.6z"/>
				<path fill="#FFFFFF" d="M21.7,22.2C21.7,23,22.4,22.1,21.7,22.2C21.7,22.3,21.9,22.2,21.7,22.2z"/>
				<path fill="#FFFFFF" d="M53.2,66.9V67C52.9,67.6,54,66.1,53.2,66.9z"/>
				<path fill="#FFFFFF" d="M25.7,23.2c-0.1-0.1-0.3-0.2-0.5-0.1C24.9,23.6,25.8,23.5,25.7,23.2z"/>
				<path fill="#FFFFFF" d="M81.9,83.9c-0.1-0.1-0.5-0.3-0.5,0C81.4,84,81.9,84.1,81.9,83.9z"/>
				<path fill="#FFFFFF" d="M20.3,25.2c0.7-0.1,1.2-0.3,1.3-0.9C20.9,23.6,19.8,24.2,20.3,25.2z"/>
				<path fill="#FFFFFF" d="M52.1,25C52.2,25.2,52,24.9,52.1,25L52.1,25z"/>
				<path fill="#FFFFFF" d="M36,25C34.9,25,36.1,26,36,25C35.8,25,36.1,25.3,36,25z"/>
				<path fill="#FFFFFF" d="M52.9,70.1C55.7,69.5,51.7,69,52.9,70.1C53.3,69.9,52.5,69.7,52.9,70.1z"/>
				<path fill="#FFFFFF" d="M65.7,86.3c0.1-0.4-0.2-0.3-0.4-0.3C65.2,86.3,65.4,86.4,65.7,86.3z"/>
				<path fill="#FFFFFF" d="M76.6,86.1C75.4,88.9,79.9,85.9,76.6,86.1C76.4,86.6,77.1,86.1,76.6,86.1z"/>
				<path fill="#FFFFFF" d="M29.8,26.3C31.3,25.2,28.5,26.6,29.8,26.3C30,26.2,29.6,26.5,29.8,26.3z"/>
				<path fill="#FFFFFF" d="M39.1,71.3c0.1-0.7,0.9-1.2,1.3-1.2C39.4,69.9,38.7,70.5,39.1,71.3z"/>
				<path fill="#FFFFFF" d="M29.2,27.1C30.4,27.1,28.8,25.7,29.2,27.1C29.3,27.1,29.1,26.8,29.2,27.1z"/>
				<path fill="#FFFFFF" d="M26,26.7C26,27.3,26.9,26.5,26,26.7C26,26.7,26.2,26.6,26,26.7z"/>
				<path fill="#FFFFFF" d="M58.9,87.6c0,0.3,0.2,0.3,0.4,0.3C59.5,87.5,59.2,87.6,58.9,87.6z"/>
				<path fill="#FFFFFF" d="M83.1,87.8C82.8,89.4,84.6,86.5,83.1,87.8C83,88,83.3,87.6,83.1,87.8z"/>
				<path fill="#FFFFFF" d="M74.8,88.8C75.9,90.8,74.5,89,74.8,88.8C74.9,89.1,75.4,88.1,74.8,88.8z"/>
				<path fill="#FFFFFF" d="M71.6,89c0,0.5,0.8,0.5,0.8,0C72.2,88.8,71.7,88.8,71.6,89z"/>
				<path fill="#FFFFFF" d="M23,29.5c0-0.3-0.1-0.5-0.4-0.4C22.5,29.4,22.6,29.5,23,29.5z"/>
				<path fill="#FFFFFF" d="M64.5,89.6c-0.2,0-0.2-0.2-0.3-0.1C64,89.7,64.5,89.8,64.5,89.6z"/>
				<path fill="#FFFFFF" d="M86,89.8C86.6,90,86.1,89.5,86,89.8L86,89.8z"/>
				<path fill="#FFFFFF" d="M59.8,90.2c-0.2,0.3,0.4,0.3,0.4,0.1C60.2,90.3,60,90.2,59.8,90.2z"/>
				<path fill="#FFFFFF" d="M69.2,90.7C67.6,89.8,68.6,91.8,69.2,90.7C68.9,90.6,69.1,90.9,69.2,90.7z"/>
				<path fill="#FFFFFF" d="M43.8,135.5c0,0.3,0.3,0.3,0.5,0.3C44.4,135.5,44.1,135.5,43.8,135.5z"/>
				<path fill="#FFFFFF" d="M70.8,91.4C70.3,91.4,70.8,91.9,70.8,91.4C70.8,91.4,70.8,91.5,70.8,91.4z"/>
				<path fill="#FFFFFF" d="M36.8,31c-0.3-0.1-0.5,0.4-0.2,0.4C36.6,31.2,36.9,31.3,36.8,31z"/>
				<path fill="#FFFFFF" d="M23.8,31.2C21.7,31.2,25.9,34,23.8,31.2C23.7,31.2,24.2,31.6,23.8,31.2z"/>
				<path fill="#FFFFFF" d="M68.7,92c-0.2,0.3,0.4,0.3,0.3,0.1C69,92.1,69,92,68.7,92z"/>
				<path fill="#FFFFFF" d="M35.3,32.2C35.7,32.3,35.3,31.8,35.3,32.2L35.3,32.2z"/>
				<path fill="#FFFFFF" d="M41.2,76.4C41.7,76.8,41.5,76,41.2,76.4L41.2,76.4z"/>
				<path fill="#FFFFFF" d="M37.2,76.6C36.6,75.9,36.7,77.3,37.2,76.6L37.2,76.6z"/>
				<path fill="#FFFFFF" d="M63.3,93.4C64,93.4,63.4,93.9,63.3,93.4C63.4,93.4,63.3,93.2,63.3,93.4z"/>
				<path fill="#FFFFFF" d="M30,33.6c-0.1,0.3,0,0.4,0.3,0.3C30.5,33.7,30.4,33.6,30,33.6z"/>
				<path fill="#FFFFFF" d="M75.4,100.2C73.3,97.9,74.7,104,75.4,100.2C74.9,99.5,75.4,100.6,75.4,100.2z"/>
				<path fill="#FFFFFF" d="M65.7,95.2c0-0.3-0.4-0.4-0.4-0.1C65.4,95.1,65.5,95.2,65.7,95.2z"/>
				<path fill="#FFFFFF" d="M66.8,96.8C65.8,97.6,69.5,98,66.8,96.8C66.2,97.3,67,96.9,66.8,96.8z"/>
				<path fill="#FFFFFF" d="M64.1,36.8C64.2,36.6,63.2,36.8,64.1,36.8C64.2,36.5,64,36.8,64.1,36.8z"/>
				<path fill="#FFFFFF" d="M65.7,97.6c0-0.4-0.4-0.3-0.5-0.1C65.3,97.6,65.4,97.6,65.7,97.6z"/>
				<path fill="#FFFFFF" d="M74.1,98.3C74.3,98.9,74.2,98,74.1,98.3L74.1,98.3z"/>
				<path fill="#FFFFFF" d="M58.3,38c-0.4,0-0.3,0.4-0.1,0.5C58.1,38.2,58.4,38.3,58.3,38z"/>
				<path fill="#FFFFFF" d="M88,38.7c0-0.1,0-0.2,0-0.2C87.8,38.1,87.4,38.9,88,38.7z"/>
				<path fill="#FFFFFF" d="M38.8,38.5c-0.1,0.4,0.3,0.5,0.4,0.3C39.4,38.5,39.2,38.4,38.8,38.5z"/>
				<path fill="#FFFFFF" d="M91.1,39C91.1,38.2,90.4,39,91.1,39C91.1,38.9,91,39,91.1,39z"/>
				<path fill="#FFFFFF" d="M52.3,37.9c-0.9-1-2,0.9-0.7,1.1C51.2,38.2,52,38.2,52.3,37.9z"/>
				<path fill="#FFFFFF" d="M44,39.1"/>
				<path fill="#FFFFFF" d="M99.1,39.2C99.5,39.3,99.1,38.9,99.1,39.2L99.1,39.2z"/>
				<path fill="#FFFFFF" d="M97.2,39.7C97.6,39.9,97.6,39.3,97.2,39.7L97.2,39.7z"/>
				<path fill="#FFFFFF" d="M23.5,40.5c0.3,0.2,0.8,0,0.7-0.3C23.8,39.9,23.5,40,23.5,40.5z"/>
				<path fill="#FFFFFF" d="M37.1,41.4c0.1,0.1,0.3,0.2,0.5,0.1C37.9,41.1,37.1,41.2,37.1,41.4z"/>
				<path fill="#FFFFFF" d="M40.5,41.4c0,0.2,0,0.3,0,0.4"/>
				<path fill="#FFFFFF" d="M92.4,42.7c-0.2,0-0.4,0-0.5,0"/>
				<path fill="#FFFFFF" d="M39,44.7C39.3,45,39.2,44.3,39,44.7L39,44.7z"/>
				<path fill="#FFFFFF" d="M25,47.1C26.1,47.1,25.5,45.4,25,47.1C25.3,47.1,25.1,46.7,25,47.1z"/>
				<path fill="#FFFFFF" d="M34.8,53.4c-0.2-0.8,0-1.3,0.3-1.8C33.7,50.4,33.1,53.4,34.8,53.4z"/>
				<path fill="#FFFFFF" d="M58.3,111.9c0,0.2,0,0.3,0,0.4"/>
				<path fill="#FFFFFF" d="M27.8,53c-0.5-0.2-0.8,0.3-0.5,0.8C27.5,53.7,27.6,53.3,27.8,53z"/>
				<path fill="#FFFFFF" d="M44.6,53.1C45,53.2,44.6,52.8,44.6,53.1L44.6,53.1z"/>
				<path fill="#FFFFFF" d="M31.6,56.2c-0.3-0.8,0.2-0.9,0.5-1.3C31.2,53.5,29.8,56,31.6,56.2z"/>
				<path fill="#FFFFFF" d="M43.1,54.6C42.1,54.6,43.3,55.8,43.1,54.6C43,54.6,43.2,54.9,43.1,54.6z"/>
				<path fill="#FFFFFF" d="M-0.4,56.8C0,56.9-0.4,56.5-0.4,56.8L-0.4,56.8z"/>
				<path fill="#FFFFFF" d="M5.6,57.2C5.9,57.7,5.8,56.9,5.6,57.2L5.6,57.2z"/>
				<path fill="#FFFFFF" d="M2.3,59.3c0.2-0.2,0.2-0.8-0.2-0.7C1.9,58.7,2.1,59.2,2.3,59.3z"/>
				<path fill="#FFFFFF" d="M53.7,59C53.7,60.5,56.4,59.3,53.7,59C53.7,59.3,54.3,59.1,53.7,59z"/>
				<path fill="#FFFFFF" d="M3.9,60.4C3.5,59.9,3.6,60.7,3.9,60.4L3.9,60.4z"/>
				<path fill="#FFFFFF" d="M42.5,60.3C41.9,60.3,42.5,60.8,42.5,60.3C42.4,60.3,42.5,60.4,42.5,60.3z"/>
				<path fill="#FFFFFF" d="M54.1,60.5C54.5,60.6,54.1,60.2,54.1,60.5L54.1,60.5z"/>
				<path fill="#FFFFFF" d="M31.6,60.8c0.2-0.3-0.4-0.3-0.4-0.1C31.2,60.7,31.3,60.8,31.6,60.8z"/>
				<path fill="#FFFFFF" d="M55.4,62.6c0-0.3,0-0.7-0.3-0.5C54.9,62.1,55,62.6,55.4,62.6z"/>
				<path fill="#FFFFFF" d="M43.7,62.8c-0.4-0.8-1.5,0.5-0.4,0.5C43.4,63.1,43.7,63.1,43.7,62.8z"/>
				<path fill="#FFFFFF" d="M38.1,63.2C37.7,62.7,37.9,63.5,38.1,63.2L38.1,63.2z"/>
				<path fill="#FFFFFF" d="M59.7,66.1c0-0.4,0.4-0.5,0.5-0.9C59.4,64.2,58.1,66,59.7,66.1z"/>
				<path fill="#FFFFFF" d="M63.1,65.7c0.1-0.3,0-0.4-0.3-0.3C62.7,65.6,63.1,65.6,63.1,65.7z"/>
				<path fill="#FFFFFF" d="M63.5,65.5C64,65.6,63.5,65.1,63.5,65.5L63.5,65.5z"/>
				<path fill="#FFFFFF" d="M62.2,65.9c-0.2,0.3,0.4,0.3,0.3,0.1C62.4,66,62.4,65.9,62.2,65.9z"/>
				<path fill="#FFFFFF" d="M62.9,66.2C62.8,66.9,63.4,66.4,62.9,66.2L62.9,66.2z"/>
				<path fill="#FFFFFF" d="M52.8,66.6c0.2,0,0.3-0.1,0.3-0.2C53,66.4,52.8,66.4,52.8,66.6z"/>
				<path fill="#FFFFFF" d="M53.3,67.3c-0.2-0.2-0.4-0.2-0.4,0.1C53.1,67.6,53.3,67.6,53.3,67.3z"/>
				<path fill="#FFFFFF" d="M33.1,53.3c-0.5-0.3-1.2,0.2-1.7,0.3C31.3,55.1,33.3,54.5,33.1,53.3z"/>
				<path fill="#FFFFFF" d="M49.9,67.9C49.9,67.9,49.8,67.8,49.9,67.9L49.9,67.9z"/>
				<path fill="#FFFFFF" d="M53.9,68.8c-0.7-0.5-1.2,0.7-0.4,0.8C53.2,69.1,53.7,69.1,53.9,68.8z"/>
				<path fill="#FFFFFF" d="M28.6,54.8C28.6,54,27.9,54.8,28.6,54.8C28.6,54.7,28.3,54.8,28.6,54.8z"/>
				<path fill="#FFFFFF" d="M66.7,69.8C67.1,70.2,67,69.4,66.7,69.8L66.7,69.8z"/>
				<path fill="#FFFFFF" d="M105.5,70.1c-0.1,0-0.1-0.1-0.2-0.1C105,70.2,105.5,70.4,105.5,70.1z"/>
				<path fill="#FFFFFF" d="M44.4,56.1C44,55.7,44.1,56.5,44.4,56.1L44.4,56.1z"/>
				<path fill="#FFFFFF" d="M42.5,70.8c-0.7-1.1-2.5,0.9-0.7,0.9C41.7,71.1,42.4,71.3,42.5,70.8z"/>
				<path fill="#FFFFFF" d="M35.1,73.1C34.7,73.1,34.5,73.6,35.1,73.1"/>
				<path fill="#FFFFFF" d="M40.7,71.5C40.3,71,40.4,71.8,40.7,71.5L40.7,71.5z"/>
				<path fill="#FFFFFF" d="M59.5,71.8C59,71.8,59.5,72.3,59.5,71.8C59.5,71.8,59.5,71.9,59.5,71.8z"/>
				<path fill="#FFFFFF" d="M25.8,57.8c-0.3-0.3-0.7,0-0.5,0.3C25.6,58.2,25.8,58,25.8,57.8z"/>
				<path fill="#FFFFFF" d="M39.8,72.9C40.4,73,39.9,72.4,39.8,72.9L39.8,72.9z"/>
				<path fill="#FFFFFF" d="M48.2,73.1c0,0.2,0.1,0.3,0.2,0.3C48.4,73.3,48.4,73.1,48.2,73.1z"/>
				<path fill="#FFFFFF" d="M53.7,78.4C49,78.4,54.9,81,53.7,78.4C52.9,78.4,53.9,78.6,53.7,78.4z"/>
				<path fill="#FFFFFF" d="M45.3,59.7C47.3,59.4,45.2,59,45.3,59.7C45.6,59.7,45.2,59.1,45.3,59.7z"/>
				<path fill="#FFFFFF" d="M55.7,74.7c-0.2,0.2-0.2,0.4,0.1,0.4C55.9,75.1,55.9,74.8,55.7,74.7z"/>
				<path fill="#FFFFFF" d="M27.9,60.2C28.4,60.4,24,63.6,27.9,60.2C26.7,59.6,27.4,60.5,27.9,60.2z"/>
				<path fill="#FFFFFF" d="M77.2,75.6c-0.3-0.3,0.3-0.7,0.5-0.7C77.1,73.8,75.8,75.9,77.2,75.6z"/>
				<path fill="#FFFFFF" d="M32.3,60.2C31.1,60.2,32.5,61.5,32.3,60.2C32.2,60.2,32.4,60.5,32.3,60.2z"/>
				<path fill="#FFFFFF" d="M84,74.9c0.1-0.3-0.4-0.5-0.4-0.2C83.8,74.8,83.6,75.1,84,74.9z"/>
				<path fill="#FFFFFF" d="M50,62.3c-0.3-0.7,0.4-0.8,0.3-1.5C49,60.2,48.4,62.4,50,62.3z"/>
				<path fill="#FFFFFF" d="M42.8,61c0,0.3,0.1,0.5,0.4,0.4C43.3,61.1,43.1,61.1,42.8,61z"/>
				<path fill="#FFFFFF" d="M48.7,76C48.7,74.9,48,76.1,48.7,76C48.7,75.9,48.5,76,48.7,76z"/>
				<path fill="#FFFFFF" d="M106.4,75.7C105.2,75.7,106.5,76.8,106.4,75.7C106.1,75.7,106.4,76,106.4,75.7z"/>
				<path fill="#FFFFFF" d="M80.9,76.1C81,75.9,80.1,76.1,80.9,76.1C81,75.9,80.8,76.1,80.9,76.1z"/>
				<path fill="#FFFFFF" d="M103.6,76C104.1,76.1,103.6,75.7,103.6,76L103.6,76z"/>
				<path fill="#FFFFFF" d="M38.8,62.1C39,60.8,37.5,62.3,38.8,62.1C38.8,61.8,38.5,62.1,38.8,62.1z"/>
				<path fill="#FFFFFF" d="M42,76.6c-0.7-1.4-3.4,0.7-1.4,1.1C40.8,76.6,41.5,77.3,42,76.6z"/>
				<path fill="#FFFFFF" d="M80.1,76.3C80.2,76.4,79.9,76.3,80.1,76.3L80.1,76.3z"/>
				<path fill="#FFFFFF" d="M73.5,76.3C73.1,77.6,75.4,76.3,73.5,76.3C73.4,76.7,73.7,76.3,73.5,76.3z"/>
				<path fill="#FFFFFF" d="M46.3,76.5c-0.2,0-0.4,0-0.7,0C45.7,76.9,46.5,77.2,46.3,76.5z"/>
				<path fill="#FFFFFF" d="M82.3,76.5c-0.2,0.2-0.1,0.3,0.2,0.3C82.7,76.6,82.6,76.6,82.3,76.5z"/>
				<path fill="#FFFFFF" d="M27.3,62.4C27.2,63.2,27.9,62.6,27.3,62.4L27.3,62.4z"/>
				<path fill="#FFFFFF" d="M83.1,77.4C83.1,77.6,83,77.3,83.1,77.4L83.1,77.4z"/>
				<path fill="#FFFFFF" d="M74.8,77.8C75.4,77.9,74.9,77.4,74.8,77.8L74.8,77.8z"/>
				<path fill="#FFFFFF" d="M83.5,78.2c0-0.2,0.2-0.3,0.3-0.4C83.3,77.3,82.9,78,83.5,78.2z"/>
				<path fill="#FFFFFF" d="M52.1,78.5"/>
				<path fill="#FFFFFF" d="M52.1,78.5"/>
				<path fill="#FFFFFF" d="M77.8,78.2C77.9,78.3,77.7,78.2,77.8,78.2L77.8,78.2z"/>
				<path fill="#FFFFFF" d="M67.8,78.2C66.6,78.2,68,79.4,67.8,78.2C67.6,78.2,67.8,78.6,67.8,78.2z"/>
				<path fill="#FFFFFF" d="M76.4,78.3C76.6,78.8,76.7,77.9,76.4,78.3L76.4,78.3z"/>
				<path fill="#FFFFFF" d="M107.5,78.4c-0.2,0-0.2-0.2-0.3-0.1C106.9,78.6,107.5,78.6,107.5,78.4z"/>
				<path fill="#FFFFFF" d="M105.7,78.4c-0.7-0.1-1,0.4-0.7,0.8C105.5,79.3,105.7,79,105.7,78.4z"/>
				<path fill="#FFFFFF" d="M67.7,79C67.7,79,67.6,78.9,67.7,79L67.7,79z"/>
				<path fill="#FFFFFF" d="M70.7,79.5C70.5,79.3,71.6,78.5,70.7,79.5C70.2,79,70.4,79.9,70.7,79.5z"/>
				<path fill="#FFFFFF" d="M46.5,79.4c0-0.1-0.3-0.1-0.3,0C46,79.6,46.6,79.6,46.5,79.4z"/>
				<path fill="#FFFFFF" d="M73.4,79.9c0-0.2,0.2-0.3,0.2-0.5C73.1,79.2,73,79.9,73.4,79.9z"/>
				<path fill="#FFFFFF" d="M74.3,79.7C74.3,78.9,74,79.6,74.3,79.7C74.3,79.5,74.2,79.7,74.3,79.7z"/>
				<path fill="#FFFFFF" d="M78.7,79.6C78.5,79.9,79.2,79.3,78.7,79.6L78.7,79.6z"/>
				<path fill="#FFFFFF" d="M81,79.9v0.1C80.8,80.8,81.7,79.4,81,79.9z"/>
				<path fill="#FFFFFF" d="M61.1,75.3C61.8,75.3,61.1,74.7,61.1,75.3C61.2,75.3,61.1,75.2,61.1,75.3z"/>
				<path fill="#FFFFFF" d="M75.6,80.6C76.5,80.6,75.6,79.5,75.6,80.6C75.9,80.6,75.6,80.5,75.6,80.6z"/>
				<path fill="#FFFFFF" d="M67.8,81.1c0.2-0.4,0.1-0.7-0.3-0.4C67.3,80.9,67.4,81.1,67.8,81.1z"/>
				<path fill="#FFFFFF" d="M37.3,81C37.3,79.9,36.7,81.1,37.3,81C37.3,80.9,37,81,37.3,81z"/>
				<path fill="#FFFFFF" d="M46.7,80.9c-0.2,0-0.2-0.2-0.3-0.1C46.1,81,46.7,81.1,46.7,80.9z"/>
				<path fill="#FFFFFF" d="M69.6,80.9C69.9,81.3,69.7,80.5,69.6,80.9L69.6,80.9z"/>
				<path fill="#FFFFFF" d="M69.1,81.7c-0.1,0.3,0,0.4,0.3,0.3C69.4,81.8,69.3,81.7,69.1,81.7z"/>
				<path fill="#FFFFFF" d="M44.1,67.4C44.5,67.6,44.1,67,44.1,67.4L44.1,67.4z"/>
				<path fill="#FFFFFF" d="M43.4,82.3C44.9,83.2,43.4,80.6,43.4,82.3C43.5,82.5,43.4,82,43.4,82.3z"/>
				<path fill="#FFFFFF" d="M71.5,82c0.1,0,0.4,0.3,0.4,0C71.8,82,71.5,81.7,71.5,82z"/>
				<path fill="#FFFFFF" d="M44.5,82.1C44.9,82.2,44.5,81.8,44.5,82.1L44.5,82.1z"/>
				<path fill="#FFFFFF" d="M40.8,68.1c0.3,0.3,0.8-0.1,0.8-0.3C41.2,67.4,40.9,67.9,40.8,68.1z"/>
				<path fill="#FFFFFF" d="M40.9,119c-1.2-0.8-0.7,1,0.1,1.2C41,119.6,40.2,119.3,40.9,119z"/>
				<path fill="#FFFFFF" d="M82.7,83C82.7,82,81.9,83.1,82.7,83C82.7,82.9,82.2,83,82.7,83z"/>
				<path fill="#FFFFFF" d="M50.7,69.8c-0.5-0.2-0.1-1.1,0.1-1.3C49.5,68.2,50,70.3,50.7,69.8z"/>
				<path fill="#FFFFFF" d="M46.9,83.2C47.3,83.3,46.9,82.9,46.9,83.2L46.9,83.2z"/>
				<path fill="#FFFFFF" d="M105.9,83.9c-0.2,0-0.2-0.2-0.3-0.1C105.5,84.1,106,84.1,105.9,83.9z"/>
				<path fill="#FFFFFF" d="M52.1,84.1c0.1,0.5,1.1,0.4,1.2-0.1C52.8,83.8,52.7,84.2,52.1,84.1z"/>
				<path fill="#FFFFFF" d="M51,84.2c-0.2,0.5,0.8,0.4,0.5,0C51.5,84.2,51.2,84.2,51,84.2z"/>
				<path fill="#FFFFFF" d="M46.5,91.8C44.8,91.8,47.7,93.1,46.5,91.8C46.3,91.8,46.6,92.1,46.5,91.8z"/>
				<path fill="#FFFFFF" d="M76.4,84.5C76.5,84.6,76.4,84.5,76.4,84.5L76.4,84.5z"/>
				<path fill="#FFFFFF" d="M61.5,84.7C62.1,84.7,61.6,85.2,61.5,84.7C61.6,84.7,61.5,84.5,61.5,84.7z"/>
				<path fill="#FFFFFF" d="M85.3,85C84.9,85.3,85.6,84.6,85.3,85L85.3,85z"/>
				<path fill="#FFFFFF" d="M39.2,85.5C39.2,84.5,38.5,85.6,39.2,85.5C39.2,85.4,38.8,85.5,39.2,85.5z"/>
				<path fill="#FFFFFF" d="M57,85.3C57.5,85.4,57.1,85,57,85.3L57,85.3z"/>
				<path fill="#FFFFFF" d="M83.4,85.3c-0.2,0-0.2-0.1-0.4-0.1C82.9,85.5,83.3,85.6,83.4,85.3z"/>
				<path fill="#FFFFFF" d="M65.2,85.3C63.7,85,65.6,86.8,65.2,85.3C64.8,85.2,65.3,85.6,65.2,85.3z"/>
				<path fill="#FFFFFF" d="M45.3,71C46.1,74.1,46.6,70.6,45.3,71C45.5,71.9,45.6,70.9,45.3,71z"/>
				<path fill="#FFFFFF" d="M78,85.4C78,86,78.7,85.4,78,85.4C78,85.5,78.1,85.4,78,85.4z"/>
				<path fill="#FFFFFF" d="M56.9,85.6C57,85.6,56.9,85.5,56.9,85.6L56.9,85.6z"/>
				<path fill="#FFFFFF" d="M75.4,85.6C73.9,85.6,75.2,86.3,75.4,85.6C75.1,85.6,75.3,85.8,75.4,85.6z"/>
				<path fill="#FFFFFF" d="M41.5,71.1C41.5,71.9,42.2,70.9,41.5,71.1C41.5,71.1,41.7,71,41.5,71.1z"/>
				<path fill="#FFFFFF" d="M61.2,85.9C61.4,86,61.2,85.9,61.2,85.9L61.2,85.9z"/>
				<path fill="#FFFFFF" d="M82,86.1c0-0.1,0-0.2,0-0.2C81.8,85.6,81.5,86.3,82,86.1z"/>
				<path fill="#FFFFFF" d="M83.3,87.5C83.3,86.9,83.2,87.8,83.3,87.5"/>
				<path fill="#FFFFFF" d="M49.9,86.6c0.1-0.2-0.3-0.5-0.3-0.2C49.7,86.4,49.7,86.5,49.9,86.6z"/>
				<path fill="#FFFFFF" d="M80.8,86.6C81.1,86.9,80.9,86.1,80.8,86.6L80.8,86.6z"/>
				<path fill="#FFFFFF" d="M35.3,72.4C35.3,71.4,34.5,72.7,35.3,72.4C35.3,72.3,34.9,72.6,35.3,72.4z"/>
				<path fill="#FFFFFF" d="M70.4,86.8C70.5,86.8,70.4,86.7,70.4,86.8L70.4,86.8z"/>
				<path fill="#FFFFFF" d="M36,87c-0.2,0-0.2-0.2-0.3-0.1C35.5,87.1,36,87.2,36,87z"/>
				<path fill="#FFFFFF" d="M38.1,87.3c0-0.3,0-0.4-0.2-0.4C37.8,87,37.8,87.3,38.1,87.3z"/>
				<path fill="#FFFFFF" d="M73.3,87.6c0.4,0,0.4-0.4,0.5-0.7C73.4,86.8,73.3,87.1,73.3,87.6z"/>
				<path fill="#FFFFFF" d="M45.7,127.1c0.2,0,0.2,0.2,0.4,0.1C46.3,126.8,45.9,126.7,45.7,127.1z"/>
				<path fill="#FFFFFF" d="M40.2,87.5c0-0.3-0.2-0.3-0.4-0.3C39.6,87.3,39.8,87.5,40.2,87.5z"/>
				<path fill="#FFFFFF" d="M41.3,87.6c-0.2,0-0.2-0.2-0.3-0.1C40.8,87.8,41.5,87.8,41.3,87.6z"/>
				<path fill="#FFFFFF" d="M66,88.9C63.2,88,69.7,87.6,66,88.9C65.8,88.8,64.8,89.2,66,88.9z"/>
				<path fill="#FFFFFF" d="M36,73.2C36,73.8,36.5,73.3,36,73.2L36,73.2z"/>
				<path fill="#FFFFFF" d="M37.9,73.5C38.2,74,38.1,73.1,37.9,73.5L37.9,73.5z"/>
				<path fill="#FFFFFF" d="M62.9,88C63.3,88.4,63.1,87.7,62.9,88L62.9,88z"/>
				<path fill="#FFFFFF" d="M56.6,88.1C56.7,88.2,56.6,88.1,56.6,88.1L56.6,88.1z"/>
				<path fill="#FFFFFF" d="M48.3,73.8c-0.7-0.2-0.7,0.9-0.2,0.9C47.9,74.2,48.3,74.2,48.3,73.8z"/>
				<path fill="#FFFFFF" d="M42.9,88.4C42.4,87.9,42.5,88.8,42.9,88.4L42.9,88.4z"/>
				<path fill="#FFFFFF" d="M73.5,88.4c-0.2,0-0.4,0-0.5,0C72.9,88.9,73.4,88.6,73.5,88.4z"/>
				<path fill="#FFFFFF" d="M108.1,88.4C107.6,88.4,108.1,89,108.1,88.4C108,88.4,108.1,88.4,108.1,88.4z"/>
				<path fill="#FFFFFF" d="M51.9,74.2"/>
				<path fill="#FFFFFF" d="M38.1,74.3C37.1,74.1,37.9,74.9,38.1,74.3C38,74.3,38.1,74.5,38.1,74.3z"/>
				<path fill="#FFFFFF" d="M40.5,88.9c-0.2,0.3,0.4,0.3,0.3,0.1C40.7,89,40.6,88.8,40.5,88.9z"/>
				<path fill="#FFFFFF" d="M37,74.6C37.8,74.6,37.1,74.2,37,74.6C37.1,74.6,37,74.6,37,74.6z"/>
				<path fill="#FFFFFF" d="M90.7,89.4C90.6,89.3,90.7,89.5,90.7,89.4L90.7,89.4z"/>
				<path fill="#FFFFFF" d="M80.5,89.4C80.1,89.8,81.5,90.5,80.5,89.4C80.3,89.6,80.6,89.5,80.5,89.4z"/>
				<path fill="#FFFFFF" d="M105.4,89.5C105.4,89.5,105.5,89.6,105.4,89.5L105.4,89.5z"/>
				<path fill="#FFFFFF" d="M70.4,91.6C70.9,91.9,70.8,91,70.4,91.6"/>
				<path fill="#FFFFFF" d="M37.9,90.2c0.1-0.4-0.4-0.4-0.4-0.1C37.7,90.2,37.7,90.4,37.9,90.2z"/>
				<path fill="#FFFFFF" d="M42.5,90C43.2,90.1,42.7,89.6,42.5,90L42.5,90z"/>
				<path fill="#FFFFFF" d="M67.6,90.1c-0.2,0-0.2-0.2-0.3-0.1C67,90.3,67.6,90.3,67.6,90.1z"/>
				<path fill="#FFFFFF" d="M36.6,75.6C36.6,76.7,37.2,75.6,36.6,75.6C36.6,75.7,36.6,75.6,36.6,75.6z"/>
				<path fill="#FFFFFF" d="M86.5,90.4C84.8,89.1,85.9,91.6,86.5,90.4C86.3,90.3,86.3,90.8,86.5,90.4z"/>
				<path fill="#FFFFFF" d="M106.1,90.2C106,90.2,106.1,90.3,106.1,90.2L106.1,90.2z"/>
				<path fill="#FFFFFF" d="M36.7,90.6C37.2,90.6,36.7,90,36.7,90.6C36.7,90.6,36.7,90.5,36.7,90.6z"/>
				<path fill="#FFFFFF" d="M37,90.4C37.5,90.4,37.1,90.8,37,90.4C37,90.4,36.9,90.2,37,90.4z"/>
				<path fill="#FFFFFF" d="M79.7,90.6C79.8,90.6,79.7,90.5,79.7,90.6L79.7,90.6z"/>
				<path fill="#FFFFFF" d="M102.9,90.7C103.4,90.7,102.9,90.2,102.9,90.7C102.9,90.7,102.9,90.6,102.9,90.7z"/>
				<path fill="#FFFFFF" d="M78.3,90.8C78.3,91.7,79.3,90.6,78.3,90.8C78.3,90.9,78.6,90.7,78.3,90.8z"/>
				<path fill="#FFFFFF" d="M68.1,91.1C68.1,91.9,68.9,90.9,68.1,91.1C68.1,91.1,68.3,91,68.1,91.1z"/>
				<path fill="#FFFFFF" d="M82.4,92.1C82.7,90.8,82.2,92.1,82.4,92.1C82.6,91.9,82.2,92.1,82.4,92.1z"/>
				<path fill="#FFFFFF" d="M69.6,92.1c0-0.2,0-0.4-0.2-0.3C69.3,92,69.5,92.1,69.6,92.1z"/>
				<path fill="#FFFFFF" d="M60.6,92v0.1C60.4,92.9,61.2,91.5,60.6,92z"/>
				<path fill="#FFFFFF" d="M40.2,94.3c-0.3-1-0.2-1.4,0.3-2.1C38.7,91.6,39,94.2,40.2,94.3z"/>
				<path fill="#FFFFFF" d="M69.4,92.1C68.9,92.1,69.4,92.7,69.4,92.1C69.3,92.1,69.4,92.2,69.4,92.1z"/>
				<path fill="#FFFFFF" d="M37.1,78.2c-0.7-1.4-2,1-0.2,0.8C37.2,78.3,36.6,78.3,37.1,78.2z"/>
				<path fill="#FFFFFF" d="M71.2,92.8C71.4,92.6,70.5,92.8,71.2,92.8C71.5,92.5,71.2,92.8,71.2,92.8z"/>
				<path fill="#FFFFFF" d="M44.1,78.6c0.4,0.1,0.4-0.4,0.1-0.4C44.1,78.3,44,78.3,44.1,78.6z"/>
				<path fill="#FFFFFF" d="M64.6,93.1C63.6,92,64.6,94.6,64.6,93.1C64.6,93,64.6,93.3,64.6,93.1z"/>
				<path fill="#FFFFFF" d="M62.9,93.1C61.5,93.1,63.6,94.4,62.9,93.1C62.8,93.1,63,93.2,62.9,93.1z"/>
				<path fill="#FFFFFF" d="M80.2,93.2C79.1,93.4,80.3,93.8,80.2,93.2C79.9,93.2,80.3,93.5,80.2,93.2z"/>
				<path fill="#FFFFFF" d="M77.9,93.6C78,93.8,77.9,93.6,77.9,93.6L77.9,93.6z"/>
				<path fill="#FFFFFF" d="M79.8,93.9C78.5,93.9,79.9,94.3,79.8,93.9C79.6,93.9,79.9,94.2,79.8,93.9z"/>
				<path fill="#FFFFFF" d="M43.5,79.5c-0.1,0.4,0.5,0.4,0.5,0.1C44,79.5,43.8,79.5,43.5,79.5z"/>
				<path fill="#FFFFFF" d="M41,94.6c0.2,0,0.3-0.1,0.3-0.2C41.2,94.3,41,94.3,41,94.6z"/>
				<path fill="#FFFFFF" d="M79,94.5C79,94.5,78.9,94.4,79,94.5L79,94.5z"/>
				<path fill="#FFFFFF" d="M102.1,95c-0.1-0.3,0.3-0.1,0.2-0.4"/>
				<path fill="#FFFFFF" d="M106.3,94.7C106.7,94.8,106.3,94.3,106.3,94.7L106.3,94.7z"/>
				<path fill="#FFFFFF" d="M80.9,97.1C80.3,94.4,80.1,97.1,80.9,97.1C80.8,96.8,78.2,97,80.9,97.1z"/>
				<path fill="#FFFFFF" d="M44.3,80.8c-0.2,0.3,0,0.5,0.3,0.5C44.7,81,44.6,80.8,44.3,80.8z"/>
				<path fill="#FFFFFF" d="M71.1,97.6C72.1,97.6,71,96.5,71.1,97.6L71.1,97.6z"/>
				<path fill="#FFFFFF" d="M42.1,82.8C42.5,82.9,42.1,82.3,42.1,82.8L42.1,82.8z"/>
				<path fill="#FFFFFF" d="M65.9,97.9c-0.1,0.3,0,0.4,0.3,0.3C66.2,98,66.1,97.9,65.9,97.9z"/>
				<path fill="#FFFFFF" d="M69.3,98.3C69.3,98.4,69.2,98.3,69.3,98.3L69.3,98.3z"/>
				<path fill="#FFFFFF" d="M104.1,98.7C104.1,99.6,104.8,98.4,104.1,98.7C104.1,98.8,104.3,98.5,104.1,98.7z"/>
				<path fill="#FFFFFF" d="M70.1,98.8c0,0.3,0.1,0.5,0.4,0.4C70.6,98.9,70.4,98.7,70.1,98.8z"/>
				<path fill="#FFFFFF" d="M106.1,99.2c0-0.2,0-0.3,0-0.4C105.5,98.5,105.5,99.3,106.1,99.2z"/>
				<path fill="#FFFFFF" d="M66.6,100.7C67.1,100.8,66.6,100.3,66.6,100.7L66.6,100.7z"/>
				<path fill="#FFFFFF" d="M106.8,101.9C106.8,101.9,106.9,102,106.8,101.9L106.8,101.9z"/>
				<path fill="#FFFFFF" d="M105.1,102.9c-0.3,0-0.4,0-0.4,0.2C104.7,103.3,105.1,103.2,105.1,102.9z"/>
				<path fill="#FFFFFF" d="M42.9,89.3c0-0.1,0-0.2,0-0.2C42.7,88.6,42.3,89.4,42.9,89.3z"/>
				<path fill="#FFFFFF" d="M39.5,91.4C39.5,90.3,38.8,91.5,39.5,91.4C39.5,91.3,39.2,91.5,39.5,91.4z"/>
				<path fill="#FFFFFF" d="M101.1,106.4"/>
				<path fill="#FFFFFF" d="M5.2,95.4C5.2,94.4,4.5,95.4,5.2,95.4C5.2,95.3,4.9,95.4,5.2,95.4z"/>
				<path fill="#FFFFFF" d="M6.9,97"/>
				<path fill="#FFFFFF" d="M6.7,98.3c0,0.2-0.1,0.2-0.1,0.4C6.9,99,6.9,98.2,6.7,98.3z"/>
				<path fill="#FFFFFF" d="M6.8,99c-0.9,0-1.1,0.4-1.2,1.3C6.6,100.7,6.6,99.5,6.8,99z"/>
				<path fill="#FFFFFF" d="M5.8,103.8C6,104.3,5.9,103.4,5.8,103.8L5.8,103.8z"/>
				<path fill="#FFFFFF" d="M5.9,104.6C5.2,103.1,3.2,105,5.9,104.6C5.7,104.2,5.2,104.7,5.9,104.6z"/>
				<path fill="#FFFFFF" d="M4.6,104.8v0.1C4.8,105,4.7,104.8,4.6,104.8z"/>
				<path fill="#FFFFFF" d="M7.1,109.8"/>
				<path fill="#FFFFFF" d="M8.9,110.4C8.9,111.4,9.6,110.3,8.9,110.4C8.9,110.4,9.3,110.3,8.9,110.4z"/>
				<path fill="#FFFFFF" d="M94.6,125C95.2,125,94.7,125.4,94.6,125C94.6,125,94.5,124.7,94.6,125z"/>
				<path fill="#FFFFFF" d="M87.4,125.8c0.2-0.1,0.4,0.3,0.5,0C87.9,125.7,87.6,125.4,87.4,125.8z"/>
				<path fill="#FFFFFF" d="M73,136.2C69.6,133.5,76.7,134.8,73,136.2C72.8,135.9,71.5,136.7,73,136.2z"/>
				<path fill="#FFFFFF" d="M4.6,114.1c0,0.3,0,0.7,0,0.9C5.1,114.9,5.2,114.2,4.6,114.1z"/>
				<path fill="#FFFFFF" d="M84.4,125.8c-0.2,0-0.1-0.3-0.3-0.2C83.9,125.8,84.3,126,84.4,125.8z"/>
				<path fill="#FFFFFF" d="M86.6,125.8C86.7,125.8,86.6,125.7,86.6,125.8L86.6,125.8z"/>
				<path fill="#FFFFFF" d="M84.6,127.2C84.7,127.4,84.6,127.2,84.6,127.2L84.6,127.2z"/>
				<path fill="#FFFFFF" d="M82.9,129.3C83,129.4,82.9,129.3,82.9,129.3L82.9,129.3z"/>
				<path fill="#FFFFFF" d="M10,121.4C10.5,121.6,10,121,10,121.4L10,121.4z"/>
				<path fill="#FFFFFF" d="M10.8,122.4C9.2,121.6,11.1,122.1,10.8,122.4C10.4,122.2,10.9,122.2,10.8,122.4z"/>
				<path fill="#FFFFFF" d="M71.1,135.9C71.7,136.1,71.2,135.6,71.1,135.9L71.1,135.9z"/>
				<path fill="#FFFFFF" d="M82.4,130.1C82.4,130.2,82.3,130,82.4,130.1L82.4,130.1z"/>
				<path fill="#FFFFFF" d="M81.7,130.9C82.9,130.5,82.4,130.3,81.7,130.9C82,130.8,82,130.7,81.7,130.9z"/>
				<path fill="#FFFFFF" d="M86.4,130.3C86.5,130.4,86.3,130.3,86.4,130.3L86.4,130.3z"/>
				<path fill="#FFFFFF" d="M59.8,136.5C60.3,137.1,60.4,136.1,59.8,136.5L59.8,136.5z"/>
				<path fill="#FFFFFF" d="M82,130.9C81.7,132.4,82.4,130.8,82,130.9C81.9,131.2,82.3,130.8,82,130.9z"/>
				<path fill="#FFFFFF" d="M86.8,131.9C86.9,132,86.8,131.8,86.8,131.9L86.8,131.9z"/>
				<path fill="#FFFFFF" d="M88.3,131.9C88.4,132,88.2,131.8,88.3,131.9L88.3,131.9z"/>
				<path fill="#FFFFFF" d="M83.5,132c0,0.3,0.3,0.3,0.5,0.3C84.2,131.8,83.9,131.9,83.5,132z"/>
				<path fill="#FFFFFF" d="M86.1,132.6c0-0.2,0-0.4-0.1-0.4C85.8,132.2,85.8,132.6,86.1,132.6z"/>
				<path fill="#FFFFFF" d="M88.8,132.2C88.9,131.8,88.6,132.9,88.8,132.2L88.8,132.2z"/>
				<path fill="#FFFFFF" d="M88.9,132.8C89,132.9,88.9,132.8,88.9,132.8L88.9,132.8z"/>
				<path fill="#FFFFFF" d="M82.3,133.9C82.4,133.9,82.2,133.8,82.3,133.9L82.3,133.9z"/>
				<path fill="#FFFFFF" d="M55,140C55.2,140.1,55,140,55,140L55,140z"/>
				<path fill="#FFFFFF" d="M19.9,125.5c-0.1-0.1-0.3-0.2-0.5-0.1C19.4,125.8,19.9,125.9,19.9,125.5z"/>
				<path fill="#FFFFFF" d="M19.6,126.6C19.6,127.5,20.4,126.8,19.6,126.6L19.6,126.6z"/>
				<path fill="#FFFFFF" d="M17.6,132.6"/>
				<path fill="#FFFFFF" d="M31,143.1C31.6,143.1,31,142.5,31,143.1C31,143.1,31,143,31,143.1z"/>
				<path fill="#FFFFFF" d="M68.5,144.1C68.1,145.1,69.2,144.3,68.5,144.1C68.5,144.2,69,144.2,68.5,144.1z"/>
				<path fill="#FFFFFF" d="M49.3,145.7c0.2,0.2,0.4,0.2,0.4-0.1C49.6,145.4,49.4,145.4,49.3,145.7z"/>
				<path fill="#FFFFFF" d="M49.2,145.8c0,0.2-0.3,0.1-0.2,0.4C49.3,146.4,49.5,145.9,49.2,145.8z"/>
				<path fill="#FFFFFF" d="M68.3,141.3c-0.2,0.3,0.1,0.9,0.4,0.9C68.9,141.6,68.6,141.4,68.3,141.3z"/>
				<path fill="#FFFFFF" d="M55.6,147.5c-0.2,0.2,0,0.2,0,0.4C56,148,56,147.4,55.6,147.5z"/>
				<path fill="#FFFFFF" d="M17.6,133.4C17.6,133.4,17.8,133.6,17.6,133.4L17.6,133.4z"/>
				<path fill="#FFFFFF" d="M17.9,133.4C17.9,133.4,18,133.6,17.9,133.4L17.9,133.4z"/>
				<path fill="#FFFFFF" d="M18.8,133.4C18.7,133.4,18.8,133.6,18.8,133.4L18.8,133.4z"/>
				<path fill="#FFFFFF" d="M67.9,143.1c0.2,0.3,0.8,0.7,0.7-0.1C68.3,142.9,68,142.7,67.9,143.1z"/>
				<path fill="#FFFFFF" d="M71.4,142.8c-0.1,0.4,0.3,0.4,0.7,0.4C72.1,142.8,71.6,143,71.4,142.8z"/>
				<path fill="#FFFFFF" d="M62.1,143.4C63.4,143.7,62.2,143.2,62.1,143.4C62.3,143.4,62.2,143.2,62.1,143.4z"/>
				<path fill="#FFFFFF" d="M56.9,150.1c-0.2,0.2,0,0.8,0.3,0.7C57.2,150.4,57.3,150.1,56.9,150.1z"/>
				<path fill="#FFFFFF" d="M46.8,151.1C46.7,150.9,46.8,151.1,46.8,151.1L46.8,151.1z"/>
				<path fill="#FFFFFF" d="M65.4,146.9C65.4,145.4,64.3,146.9,65.4,146.9C65.4,146.7,64.9,146.9,65.4,146.9z"/>
				<path fill="#FFFFFF" d="M62.1,147.9C62.8,148,62.2,147.6,62.1,147.9L62.1,147.9z"/>
				<path fill="#FFFFFF" d="M63.3,149.2c-0.1,0.2,0,0.8,0.3,0.8C64,149.6,63.5,149.2,63.3,149.2z"/>
				<path fill="#FFFFFF" d="M5.2,102.6C7.7,100.1,4.7,101.6,5.2,102.6C5.5,102.3,5.1,102.3,5.2,102.6z"/>
				<path fill="#FFFFFF" d="M28.6,54.8C31.3,54.8,27.9,51.1,28.6,54.8C28.4,54.8,28.5,54.5,28.6,54.8z"/>
				<path fill="#FFFFFF" d="M22.5,21C23,21.2,22.3,20.7,22.5,21L22.5,21z"/>
				<path fill="#FFFFFF" d="M46.6,35.5C46.6,34.3,47,35.5,46.6,35.5C46.6,35.3,46.2,35.5,46.6,35.5z"/>
				<path fill="#FFFFFF" d="M54.3,69.6C54.3,69.4,53,69.8,54.3,69.6C54.3,69.6,53.9,69.6,54.3,69.6z"/>
				<path fill="#FFFFFF" d="M42.3,79.9C41.1,79,41.2,82.6,42.3,79.9C41.9,79.6,42.2,80.3,42.3,79.9z"/>
				<path fill="#FFFFFF" d="M62.8,84.7L62.8,84.7L62.8,84.7z"/>
				<path fill="#FFFFFF" d="M62.7,84.7c-0.1-0.1-0.2-0.1-0.2-0.1C62.4,84.5,62.5,84.6,62.7,84.7z"/>
				<path fill="#FFFFFF" d="M62.7,84.7L62.7,84.7L62.7,84.7z"/>
				<path fill="#FFFFFF" d="M62.8,84.7L62.8,84.7L62.8,84.7z"/>
				<path fill="#FFFFFF" d="M53,86.9C53.3,87.2,52.7,86.5,53,86.9L53,86.9z"/>
				<path fill="#FFFFFF" d="M77.2,88.2C77,89,77.2,88,77.2,88.2L77.2,88.2z"/>
				<path fill="#FFFFFF" d="M41.5,89.4C40.6,89.1,41,89.6,41.5,89.4L41.5,89.4z"/>
				<path fill="#FFFFFF" d="M70.8,89.4C71.2,89.7,70.5,89.1,70.8,89.4L70.8,89.4z"/>
				<path fill="#FFFFFF" d="M70.5,93.3C69.3,93.3,70.8,94.2,70.5,93.3C70.4,93.3,70.7,93.8,70.5,93.3z"/>
				<path fill="#FFFFFF" d="M4.8,103C4.5,103.3,5.2,102.7,4.8,103L4.8,103z"/>
				<path fill="#FFFFFF" d="M84.3,132.8C84.7,133,83.6,132.6,84.3,132.8L84.3,132.8z"/>
				<path fill="#FFFFFF" d="M20.6,136.4C20.7,135.1,19.6,137.5,20.6,136.4C20.6,136.1,20.7,136.3,20.6,136.4z"/>
				<path fill="#FFFFFF" d="M28,140.8c-0.3,0-0.3-0.2-0.5,0"/>
			</g>
		</g>
		<path fill="#FFFFFF" d="M54.6,132.6C56,129.8,52.6,132.7,54.6,132.6C54.7,132.3,52.8,132.7,54.6,132.6z"/>
		<path fill="#FFFFFF" d="M55.9,132.1c-0.2,0-0.2-0.1-0.4-0.1C55.3,132.5,55.9,132.6,55.9,132.1z"/>
		<path fill="#FFFFFF" d="M52.8,134c-0.2-0.2-0.7-0.2-0.7,0.1C52.3,134.2,52.8,134.2,52.8,134z"/>
		<path fill="#FFFFFF" d="M34.4,124.8C34,122.3,36.8,125.6,34.4,124.8C34.3,124.6,33,124.5,34.4,124.8z"/>
		<path fill="#FFFFFF" d="M33.8,126C34.3,126,33.8,125.5,33.8,126C33.8,126,33.8,125.9,33.8,126z"/>
		<path fill="#FFFFFF" d="M26.9,136c-0.3,0-0.3-0.2-0.5,0C26.2,136.4,27,136.4,26.9,136z"/>
		<path fill="#FFFFFF" d="M48.1,141.8C47.2,141.3,47.2,141.9,48.1,141.8C47.9,141.6,47.5,141.9,48.1,141.8z"/>
		<path fill="#FFFFFF" d="M38.5,142.5C38.7,145.4,40,140.9,38.5,142.5C38.6,142.9,38.7,142.2,38.5,142.5z"/>
		<path fill="#FFFFFF" d="M46.6,142.8c0-0.3-0.4-0.4-0.4-0.1C46.2,142.7,46.3,142.8,46.6,142.8z"/>
		<path fill="#FFFFFF" d="M37.8,143.3C38.1,143.3,37.9,143,37.8,143.3"/>
		<path fill="#FFFFFF" d="M37.8,143.3C37.9,143.3,38.2,141.9,37.8,143.3"/>
		<path fill="#FFFFFF" d="M40.8,144.6C40.8,145.4,41.6,144.4,40.8,144.6C40.8,144.7,41,144.6,40.8,144.6z"/>
		<path fill="#FFFFFF" d="M63.8,136.5C66.5,136.5,64.3,134.6,63.8,136.5C64.1,136.5,63.9,135.7,63.8,136.5z"/>
		<path fill="#FFFFFF" d="M45.2,146.8C44,146.8,45.5,148,45.2,146.8C44.9,146.8,45.2,147,45.2,146.8z"/>
		<path fill="#FFFFFF" d="M37.5,139c0,0.7,0.7,0.5,0.5-0.1C37.8,138.8,37.8,139.1,37.5,139"/>
	</g>
</g>
</svg>
