<?xml version="1.0" encoding="utf-8"?>
<!-- Generator: Adobe Illustrator 18.0.0, SVG Export Plug-In . SVG Version: 6.00 Build 0)  -->
<!DOCTYPE svg PUBLIC "-//W3C//DTD SVG 1.1//EN" "http://www.w3.org/Graphics/SVG/1.1/DTD/svg11.dtd">
<svg version="1.1" id="Layer_1" xmlns="http://www.w3.org/2000/svg" xmlns:xlink="http://www.w3.org/1999/xlink" x="0px" y="0px"
	 viewBox="247.6 0 100 140.4" enable-background="new 247.6 0 100 140.4" xml:space="preserve">
<g id="Layer_2">
	<path fill="#FFFFFF" d="M249.6,87.2c0,0,0,24.4,26.2,44.1c10.3,5.6,23,6.1,23,6.1s22.6-7.6,38.7-25.1c5.3-9.6,5.9-12.2,6.2-18
		c0.3-5.7,1.8-40.4,1.8-40.4s4.1-16.2-11.8-17.4c-15.9-1.2-44.3-2.8-44.3-2.8s-27-1.5-34.8,7C246.8,49.2,249.5,79.6,249.6,87.2z"/>
</g>
<g id="Layer_1_1_">
	<path fill="#B6D6E0" d="M300.7,48.1c0-0.2,0.4,0,0.5-0.1C301.3,48.4,300.9,48.1,300.7,48.1z"/>
	<path fill="#B6D6E0" d="M319.9,48.9c0-0.6-0.9-0.5-0.8,0.1C319.3,49.4,319.6,49,319.9,48.9z"/>
	<path fill="#B6D6E0" d="M300.8,48.8C301.3,48.9,300.8,48.5,300.8,48.8L300.8,48.8z"/>
	<path fill="#B6D6E0" d="M306.3,50.4c0.2-0.9-1-0.9-1.1-0.2C305.7,50.3,305.9,50.6,306.3,50.4z"/>
	<path fill="#B6D6E0" d="M312.4,37.2C312.8,37.3,312.4,36.9,312.4,37.2L312.4,37.2z"/>
	<path fill="#B6D6E0" d="M311.4,37.4C311.8,37.5,311.4,37.1,311.4,37.4L311.4,37.4z"/>
	<path fill="#B6D6E0" d="M312.2,37.5C312.3,37.6,312.2,37.5,312.2,37.5L312.2,37.5z"/>
	<path fill="#B6D6E0" d="M326.6,53.1c0.1-0.4-0.4-0.5-0.5-0.2C326.3,52.9,326.3,53.2,326.6,53.1z"/>
	<path fill="#B6D6E0" d="M287.9,37.5C287.9,38.2,288.6,37.4,287.9,37.5C287.9,37.6,288.1,37.5,287.9,37.5z"/>
	<path fill="#B6D6E0" d="M303.2,53.8C304.5,52,303.2,53.4,303.2,53.8C303.5,53.4,303.2,53.7,303.2,53.8z"/>
	<path fill="#B6D6E0" d="M318.8,55.7c0.1-0.4-0.1-0.5-0.3-0.5C318.3,55.4,318.5,55.8,318.8,55.7z"/>
	<path fill="#B6D6E0" d="M292.1,41.1c-0.5-0.6-1.3-0.4-1.6,0.2C291.2,41.8,291.5,41.6,292.1,41.1z"/>
	<path fill="#B6D6E0" d="M305.1,56.7c0-0.3-0.1-0.5-0.4-0.4C304.3,56.5,304.7,57,305.1,56.7"/>
	<path fill="#B6D6E0" d="M321.2,56.8C319.4,54.9,321.2,58.8,321.2,56.8C321.1,56.6,321.2,57.1,321.2,56.8z"/>
	<path fill="#B6D6E0" d="M324.6,58.5c0.1-0.4-0.3-0.4-0.6-0.4C323.9,58.5,324.3,58.5,324.6,58.5z"/>
	<path fill="#B6D6E0" d="M316.9,58.8c0-0.3-0.2-0.3-0.4-0.3C316.4,58.8,316.6,58.8,316.9,58.8z"/>
	<path fill="#B6D6E0" d="M314.3,59.5c-0.2,0-0.2-0.2-0.4-0.1C313.9,59.8,314.3,59.9,314.3,59.5z"/>
	<path fill="#B6D6E0" d="M311.9,59.6c-0.1-0.1-0.3-0.2-0.5-0.1C311.4,59.9,311.9,60,311.9,59.6z"/>
	<path fill="#B6D6E0" d="M317.5,60.2c0.1-0.3-0.4-0.5-0.4-0.2C317.3,60,317.2,60.3,317.5,60.2z"/>
	<path fill="#B6D6E0" d="M321.9,61.6C322.4,58.6,318.4,62.6,321.9,61.6C321.9,61.2,321.2,61.8,321.9,61.6z"/>
	<path fill="#B6D6E0" d="M319,61.1c0.2,0.2,0.8,0.2,0.8-0.1C319.5,61,319.2,60.7,319,61.1z"/>
	<path fill="#B6D6E0" d="M262.1,55.1C261.4,51.5,262.9,55.4,262.1,55.1C262,54.5,261.7,55,262.1,55.1z"/>
	<path fill="#B6D6E0" d="M329.5,71.6c0,0.3,0,0.4,0.1,0.5C330.3,72.1,330.2,71.3,329.5,71.6z"/>
	<path fill="#B6D6E0" d="M267.2,57.4C267.3,56.8,266.5,57.5,267.2,57.4L267.2,57.4z"/>
	<path fill="#B6D6E0" d="M326.6,74.5C328.9,74.9,326.3,73.2,326.6,74.5C326.8,74.5,326.4,73.8,326.6,74.5z"/>
	<path fill="#B6D6E0" d="M269,69.7c0.2,0,0.3,0,0.4,0C269.5,69.3,268.9,69.3,269,69.7z"/>
	<path fill="#B6D6E0" d="M295.2,35.5c-0.8-0.9-1.8,0.8-0.6,1C294.2,35.9,294.9,35.8,295.2,35.5z"/>
	<path fill="#B6D6E0" d="M287.5,35.6c0,0.2,0.1,0.3,0.3,0.3C287.8,35.7,287.7,35.6,287.5,35.6z"/>
	<path fill="#B6D6E0" d="M302.8,91.5c0,0.3,0.2,0.3,0.5,0.3C303.5,91.4,303,91.3,302.8,91.5z"/>
	<path fill="#B6D6E0" d="M292.6,36.3c0,0,0,0.1,0,0.1C292.3,37,293.1,35.7,292.6,36.3z"/>
	<path fill="#B6D6E0" d="M329,91.9c0,0.1,0,0.2,0,0.2C329.3,92.4,329.4,92,329,91.9z"/>
	<path fill="#B6D6E0" d="M328.7,93.1c0-0.2-0.1-0.3-0.3-0.3C328.3,93.1,328.4,93.2,328.7,93.1z"/>
	<path fill="#B6D6E0" d="M301.7,38C301.4,38.4,302,37.8,301.7,38L301.7,38z"/>
	<path fill="#B6D6E0" d="M308.4,38C308.5,38.1,308.4,38,308.4,38L308.4,38z"/>
	<path fill="#B6D6E0" d="M306.4,38.1C306.8,38.5,306.6,37.8,306.4,38.1L306.4,38.1z"/>
	<path fill="#B6D6E0" d="M299.1,39.1c0.2-0.3,0.4-0.4,0.4-0.8C299,37.7,298.4,39,299.1,39.1z"/>
	<path fill="#B6D6E0" d="M301,38.3c0,0,0,0.1,0,0.1C300.8,39,301.6,37.7,301,38.3z"/>
	<path fill="#B6D6E0" d="M307.5,95.9C308.2,95.9,307.5,95.5,307.5,95.9C307.6,95.9,307.5,95.8,307.5,95.9z"/>
	<path fill="#B6D6E0" d="M318,40.8C317.4,40.8,317.8,41.1,318,40.8C317.8,40.8,317.9,40.9,318,40.8z"/>
	<path fill="#B6D6E0" d="M330.7,40.9C329.1,40.9,330.8,41.9,330.7,40.9C330.4,40.9,330.7,41.3,330.7,40.9z"/>
	<path fill="#B6D6E0" d="M292.6,41C292.3,42.4,294.3,40.8,292.6,41C292.5,41.4,292.8,41,292.6,41z"/>
	<path fill="#B6D6E0" d="M334.5,41.6C334,41.6,334.5,42.2,334.5,41.6C334.4,41.6,334.5,41.7,334.5,41.6z"/>
	<path fill="#B6D6E0" d="M332.1,41.9c0,0.3,0.2,0.3,0.4,0.3C332.6,41.8,332.3,41.8,332.1,41.9z"/>
	<path fill="#B6D6E0" d="M256.1,42.8C256.1,44.5,257.6,42.8,256.1,42.8C256.1,43.1,256.3,42.8,256.1,42.8z"/>
	<path fill="#B6D6E0" d="M310.8,43.7C312.5,41.5,309,43.9,310.8,43.7C310.9,43.5,310.3,43.7,310.8,43.7z"/>
	<path fill="#B6D6E0" d="M294.2,43.3C293.7,45,295.4,43.1,294.2,43.3C294.2,43.6,294.6,43.3,294.2,43.3z"/>
	<path fill="#B6D6E0" d="M337.5,43.5c-0.2-0.2-0.5-0.1-0.4,0.3C337.4,43.8,337.6,43.7,337.5,43.5"/>
	<path fill="#B6D6E0" d="M308.3,99.9C311,100.5,306.5,98,308.3,99.9C308.9,100,308.1,99.7,308.3,99.9z"/>
	<path fill="#B6D6E0" d="M315.8,44C316.2,44.1,315.8,43.7,315.8,44L315.8,44z"/>
	<path fill="#B6D6E0" d="M264.9,45.2C264.9,44.6,264.4,45.2,264.9,45.2C264.9,45.1,264.8,45.2,264.9,45.2z"/>
	<path fill="#B6D6E0" d="M311.8,101.7c0-0.2-0.1-0.3-0.3-0.3C311.4,101.7,311.5,101.8,311.8,101.7z"/>
	<path fill="#B6D6E0" d="M258.8,46C257.5,46,259,47,258.8,46C258.7,46,258.9,46.5,258.8,46z"/>
	<path fill="#B6D6E0" d="M302.8,46C302.3,46,302.8,46.5,302.8,46C302.7,46,302.8,46.1,302.8,46z"/>
	<path fill="#B6D6E0" d="M325.7,46C325.7,46.7,326.4,45.9,325.7,46C325.7,46.1,325.9,46,325.7,46z"/>
	<path fill="#B6D6E0" d="M309,102.3c0-0.5-0.7-0.5-0.6,0C308.5,102.5,308.8,102.5,309,102.3z"/>
	<path fill="#B6D6E0" d="M327.5,48.7c-0.4-0.6,0.4-0.7,0.5-1.1C327.3,46.5,326,48.6,327.5,48.7z"/>
	<path fill="#B6D6E0" d="M320.5,47.7C320.8,48,320.7,47.3,320.5,47.7L320.5,47.7z"/>
	<path fill="#B6D6E0" d="M296.9,48.1C296.9,47.6,296.3,48.1,296.9,48.1C296.9,48,296.8,48.1,296.9,48.1z"/>
	<path fill="#B6D6E0" d="M309.3,103.6C308,103.6,308.9,105.2,309.3,103.6C309,103.6,309.2,103.9,309.3,103.6z"/>
	<path fill="#B6D6E0" d="M302,103.9C301.4,103.5,301.6,104.3,302,103.9L302,103.9z"/>
	<path fill="#B6D6E0" d="M303.1,104.4c0-0.3-0.3-0.4-0.4-0.5C302.6,104.3,303,104.3,303.1,104.4z"/>
	<path fill="#B6D6E0" d="M310.8,104.8C309.2,105.2,309.9,105.7,310.8,104.8C310.2,104.9,310.4,105.2,310.8,104.8z"/>
	<path fill="#B6D6E0" d="M303.2,104.8c-0.2,0-0.4-0.4-0.5-0.1C302.9,104.8,302.9,105.2,303.2,104.8z"/>
	<path fill="#B6D6E0" d="M306.5,104.8C306.7,105.1,306.8,104.3,306.5,104.8L306.5,104.8z"/>
	<path fill="#B6D6E0" d="M306.6,105.5c0.2,0,0.3,0,0.4,0C307.1,105.1,306.5,105.1,306.6,105.5z"/>
	<path fill="#B6D6E0" d="M316.9,51.3C316.6,51,316.6,51.7,316.9,51.3L316.9,51.3z"/>
	<path fill="#B6D6E0" d="M316.6,52.7C316.6,51.5,316.6,52.7,316.6,52.7C316.6,52.5,316.4,52.6,316.6,52.7z"/>
	<path fill="#B6D6E0" d="M318.2,108.4c-0.2,0.2,0,0.6,0.3,0.5C318.5,108.6,318.5,108.3,318.2,108.4z"/>
	<path fill="#B6D6E0" d="M301.7,53.6C301.4,52.2,301.4,53.7,301.7,53.6"/>
	<path fill="#B6D6E0" d="M336.7,53C335.4,56.7,338.2,52.7,336.7,53C336.5,53.4,337.1,52.9,336.7,53z"/>
	<path fill="#B6D6E0" d="M324.2,53.5c-0.3,0-0.4,0-0.4,0.2C323.9,53.9,324.3,53.8,324.2,53.5z"/>
	<path fill="#B6D6E0" d="M262.4,54.3C261.1,54.3,262.1,55.4,262.4,54.3C262.2,54.3,262.3,54.6,262.4,54.3z"/>
	<path fill="#B6D6E0" d="M323.7,56.7C327.8,58,323,53,323.7,56.7C323.9,56.8,323.4,55.2,323.7,56.7z"/>
	<path fill="#B6D6E0" d="M329.2,56.9c0.1-0.4,0.6-0.5,0.7-0.8C329.2,55.5,328.5,56.7,329.2,56.9z"/>
	<path fill="#B6D6E0" d="M319,56.8C319,55.6,318.9,56.8,319,56.8C319,56.6,318.8,56.8,319,56.8z"/>
	<path fill="#B6D6E0" d="M254.9,57.9c-0.2,0-0.2-0.2-0.3-0.1C254.5,58.1,255,58.2,254.9,57.9z"/>
	<path fill="#B6D6E0" d="M331.6,58.4C331.6,58.4,331.7,58.5,331.6,58.4L331.6,58.4z"/>
	<path fill="#B6D6E0" d="M326.6,58.6C327.1,59.2,327.2,58.2,326.6,58.6L326.6,58.6z"/>
	<path fill="#B6D6E0" d="M334,59.9c0.1-0.2,0.2-0.2,0.4-0.2C334.3,58.9,333.2,59.7,334,59.9z"/>
	<path fill="#B6D6E0" d="M314.8,59.5C312.8,61.8,317.6,58.9,314.8,59.5C314.5,59.8,315.2,59.4,314.8,59.5z"/>
	<path fill="#B6D6E0" d="M325.3,59.8C325.3,58.8,324.6,59.9,325.3,59.8C325.3,59.6,325,59.8,325.3,59.8z"/>
	<path fill="#B6D6E0" d="M309.2,60.3c0.2,0.2,0.4,0,0.4-0.3C309.3,59.9,309.1,60,309.2,60.3"/>
	<path fill="#B6D6E0" d="M315.4,60.9c-0.1,0.6,0.4,0.4,0.3,1C316.4,61.8,315.7,61,315.4,60.9z"/>
	<path fill="#B6D6E0" d="M334.2,61.2c0.3,0,0.6,0,0.5-0.3C334.4,60.9,334.1,60.9,334.2,61.2z"/>
	<path fill="#B6D6E0" d="M321.5,61.3C320.1,61.6,320.9,62.6,321.5,61.3C321.1,61.4,321.3,61.7,321.5,61.3z"/>
	<path fill="#B6D6E0" d="M323.3,61.3C322.5,61.3,323.1,61.8,323.3,61.3C323.1,61.3,323.2,61.5,323.3,61.3z"/>
	<path fill="#B6D6E0" d="M332.9,63.2c-0.1-0.4,0.1-0.6,0.2-0.7C332.6,62,332.3,63.2,332.9,63.2z"/>
	<path fill="#B6D6E0" d="M316.5,63.5C317,63.5,316.5,63,316.5,63.5C316.6,63.5,316.5,63.4,316.5,63.5z"/>
	<path fill="#B6D6E0" d="M334,65.2c0.2,0,1.1-0.1,1.3-0.4C334.8,64.5,334,64.7,334,65.2z"/>
	<path fill="#B6D6E0" d="M330.9,64.8C331.1,65.2,331.2,64.4,330.9,64.8L330.9,64.8z"/>
	<path fill="#B6D6E0" d="M338.4,65.9c0-0.1,0-0.2,0-0.2C338.2,65.3,337.9,66,338.4,65.9z"/>
	<path fill="#B6D6E0" d="M331.8,65.9c-0.2,0.2,0.1,0.2,0,0.5C332.5,66.6,332.3,65.8,331.8,65.9z"/>
	<path fill="#B6D6E0" d="M328.5,66.3C329.1,66.4,328.7,66,328.5,66.3L328.5,66.3z"/>
	<path fill="#B6D6E0" d="M327.8,67.6c0,0.1,0,0.3,0.1,0.3C328,67.8,328.2,67.5,327.8,67.6z"/>
	<path fill="#B6D6E0" d="M326.4,68.1c-0.2-1.1-1.3,0.4-0.3,0.5C326,68.4,326,68.1,326.4,68.1z"/>
	<path fill="#B6D6E0" d="M325,68C325.5,68,325,67.5,325,68C325,68,325,67.9,325,68z"/>
	<path fill="#B6D6E0" d="M324.3,68.6c0.1-0.3-0.4-0.5-0.4-0.2C324.1,68.5,324,68.7,324.3,68.6z"/>
	<path fill="#B6D6E0" d="M340,69.5c-1.1-0.6-1.1-0.5-0.2,0.3"/>
	<path fill="#B6D6E0" d="M332.6,69.8C333.1,68.5,331.6,69.8,332.6,69.8C332.6,69.7,332.3,69.8,332.6,69.8z"/>
	<path fill="#B6D6E0" d="M271.9,70.3c-0.2,0-0.2-0.2-0.3-0.1C271.4,70.5,271.9,70.6,271.9,70.3z"/>
	<path fill="#B6D6E0" d="M329.8,70.6c-1-1.1-1.7,1.4-0.3,1.5C328.9,71.5,329.4,70.7,329.8,70.6z"/>
	<path fill="#B6D6E0" d="M268.1,57.9C267.5,57,265.5,57.1,268.1,57.9C267.8,57.5,267.5,57.8,268.1,57.9z"/>
	<path fill="#B6D6E0" d="M331.3,72.8C334.6,74.5,331.3,70,331.3,72.8C331.5,72.9,331.3,71.5,331.3,72.8z"/>
	<path fill="#B6D6E0" d="M338.3,72.6C338.7,72.7,338.3,72.3,338.3,72.6L338.3,72.6z"/>
	<path fill="#B6D6E0" d="M275.7,73.1C276.1,73.2,275.7,72.8,275.7,73.1L275.7,73.1z"/>
	<path fill="#B6D6E0" d="M273.9,73.7c0-0.2-0.1-0.3-0.3-0.3C273.5,73.7,273.6,73.8,273.9,73.7z"/>
	<path fill="#B6D6E0" d="M276.3,74.1C275.6,74.1,276.3,75.1,276.3,74.1C276.2,74.1,276.3,74.3,276.3,74.1z"/>
	<path fill="#B6D6E0" d="M335.9,75.6C336.4,75.8,336,75.3,335.9,75.6L335.9,75.6z"/>
	<path fill="#B6D6E0" d="M275.7,75.9C276,76.3,275.8,75.5,275.7,75.9L275.7,75.9z"/>
	<path fill="#B6D6E0" d="M335.1,76.7C335.7,76.7,335,76,335.1,76.7C335.2,76.7,335.1,76.5,335.1,76.7z"/>
	<path fill="#B6D6E0" d="M269.8,63.9C269.9,64.2,270,63.5,269.8,63.9L269.8,63.9z"/>
	<path fill="#B6D6E0" d="M276.2,77.4C276.4,77.8,276.5,77,276.2,77.4L276.2,77.4z"/>
	<path fill="#B6D6E0" d="M336.1,77.9C336.1,76.7,335.5,78,336.1,77.9C336.1,77.7,335.8,77.9,336.1,77.9z"/>
	<path fill="#B6D6E0" d="M334.7,77.6C334.7,77.6,334.8,77.7,334.7,77.6L334.7,77.6z"/>
	<path fill="#B6D6E0" d="M278.9,78.2c-1-0.4-2.3,1.1-0.8,1.4"/>
	<path fill="#B6D6E0" d="M328.1,78.6C328.7,78.6,328.2,79,328.1,78.6C328.2,78.6,328.1,78.4,328.1,78.6z"/>
	<path fill="#B6D6E0" d="M332.6,79.3C331.6,79.3,332.4,80.2,332.6,79.3C332.4,79.3,332.5,79.5,332.6,79.3z"/>
	<path fill="#B6D6E0" d="M331,80.2c0.6,0.1,0.6-0.3,0.6-0.6C331.2,79.3,330.9,79.7,331,80.2z"/>
	<path fill="#B6D6E0" d="M254.7,67.1c-0.2,0.2,0,0.4,0.3,0.4C255.1,67.2,255,67.1,254.7,67.1z"/>
	<path fill="#B6D6E0" d="M276.4,81.6c-0.2,0.6,0.6,0.6,0.4,0C276.7,81.6,276.6,81.6,276.4,81.6z"/>
	<path fill="#B6D6E0" d="M330.5,81.9C330.4,81.8,330.5,82,330.5,81.9L330.5,81.9z"/>
	<path fill="#B6D6E0" d="M338.9,82.3C339.1,82.6,339.2,81.9,338.9,82.3L338.9,82.3z"/>
	<path fill="#B6D6E0" d="M271.9,69.6C272.8,69.8,271.9,69.4,271.9,69.6C272,69.6,271.9,69.5,271.9,69.6z"/>
	<path fill="#B6D6E0" d="M336.9,84.5C338,86.4,335.2,84.1,336.9,84.5C335.6,82.2,336.7,84.5,336.9,84.5z"/>
	<path fill="#B6D6E0" d="M276.4,84.3C277,84.5,276.5,84,276.4,84.3L276.4,84.3z"/>
	<path fill="#B6D6E0" d="M298.4,86.3c0.3,0,0.4,0,0.4-0.2C298.6,86.1,298.5,86.2,298.4,86.3z"/>
	<path fill="#B6D6E0" d="M255.5,73.8c0.1-0.3-0.2-0.3-0.3-0.4C255.2,73.7,255.3,73.9,255.5,73.8z"/>
	<path fill="#B6D6E0" d="M267.4,74.3c-0.2,0-0.2-0.2-0.4-0.1C266.9,74.5,267.4,74.6,267.4,74.3z"/>
	<path fill="#B6D6E0" d="M300.1,88.5C300.6,88.6,300.2,88.1,300.1,88.5L300.1,88.5z"/>
	<path fill="#B6D6E0" d="M301.8,88.9C302.3,88.9,301.8,88.4,301.8,88.9C301.8,88.9,301.8,88.8,301.8,88.9z"/>
	<path fill="#B6D6E0" d="M323.3,88.8C323.1,90.4,324.6,88.8,323.3,88.8C323.3,89.3,323.5,88.8,323.3,88.8z"/>
	<path fill="#B6D6E0" d="M302.1,90.8C302.1,91.4,302.5,90.9,302.1,90.8L302.1,90.8z"/>
	<path fill="#B6D6E0" d="M329.7,92.1C328.7,91,330,93.8,329.7,92.1C329.6,91.9,329.8,92.3,329.7,92.1z"/>
	<path fill="#B6D6E0" d="M327.8,92.6c0,0.2,0.1,0.3,0.3,0.3C328.1,92.7,328,92.6,327.8,92.6z"/>
	<path fill="#B6D6E0" d="M326.7,93.2C326.8,92.5,326,93.3,326.7,93.2L326.7,93.2z"/>
	<path fill="#B6D6E0" d="M335.7,93.3C334.7,93.3,336.2,94.7,335.7,93.3C335.6,93.3,335.9,93.6,335.7,93.3z"/>
	<path fill="#B6D6E0" d="M330.6,93.5C330.6,93.9,331.4,93.5,330.6,93.5C330.6,93.6,330.7,93.5,330.6,93.5z"/>
	<path fill="#B6D6E0" d="M336.7,94.8C336.7,94.8,336.8,94.9,336.7,94.8L336.7,94.8z"/>
	<path fill="#B6D6E0" d="M306.5,96C306.9,96,306.5,95.7,306.5,96C306.6,96,306.5,95.9,306.5,96z"/>
	<path fill="#B6D6E0" d="M330.2,96C330.7,96.1,330.3,95.7,330.2,96L330.2,96z"/>
	<path fill="#B6D6E0" d="M255,84.3c-0.1-0.4-0.2-1,0.1-1.3C253.8,82.1,253.3,84.6,255,84.3z"/>
	<path fill="#B6D6E0" d="M305.5,96.9C304.8,97,305.4,97.7,305.5,96.9L305.5,96.9z"/>
	<path fill="#B6D6E0" d="M337.5,96.9c-0.3,0-0.3,0.2,0,0.2"/>
	<path fill="#B6D6E0" d="M278,84.8C278.4,83,276.5,84.8,278,84.8"/>
	<path fill="#B6D6E0" d="M326,98.5c0-0.2-0.1-0.3-0.3-0.3C325.7,98.4,325.8,98.5,326,98.5z"/>
	<path fill="#B6D6E0" d="M329.9,99.9C329.1,99.9,329.8,101,329.9,99.9C329.8,99.9,329.9,100.1,329.9,99.9z"/>
	<path fill="#B6D6E0" d="M293.6,87.2c-1.2,0.1-0.1,2,0.6,1.4C293.5,88.5,293.6,87.7,293.6,87.2"/>
	<path fill="#B6D6E0" d="M263,103.8C263,104.5,263.7,103.7,263,103.8C263,103.9,263.2,103.8,263,103.8z"/>
	<path fill="#B6D6E0" d="M331.9,104.3C331.4,104.3,331.9,104.9,331.9,104.3C331.9,104.3,331.9,104.4,331.9,104.3z"/>
	<path fill="#B6D6E0" d="M332.9,105.3C333.2,105.7,333,105,332.9,105.3L332.9,105.3z"/>
	<path fill="#B6D6E0" d="M332.3,105.8c0.2,0.3,0.8,0.1,0.7-0.2C332.8,105.4,332.2,105.5,332.3,105.8z"/>
	<path fill="#B6D6E0" d="M330.2,108.4c-1-0.2-0.2-1,0.1-1.3C328.9,106.4,329.2,109.4,330.2,108.4z"/>
	<path fill="#B6D6E0" d="M331.7,107.7C331.1,109.8,332.9,107.5,331.7,107.7C331.6,108,332,107.7,331.7,107.7z"/>
	<path fill="#B6D6E0" d="M318.1,108.1C318.1,108.1,318,108,318.1,108.1L318.1,108.1z"/>
	<path fill="#B6D6E0" d="M259.4,97.7C259,97.4,259.1,98.1,259.4,97.7L259.4,97.7z"/>
	<path fill="#B6D6E0" d="M301,52.7c0.2,0.3,0.3,0.5,0.6,0.3C301.7,52.7,301,52.5,301,52.7z"/>
	<path fill="#B6D6E0" d="M314.3,43C313.2,42.7,314.5,43.6,314.3,43C314.2,43,314.4,43.2,314.3,43z"/>
	<path fill="#B6D6E0" d="M312,99.6C312.4,99.9,311.7,99.2,312,99.6L312,99.6z"/>
	<path fill="#B6D6E0" d="M257.7,44.7C258,45,257.4,44.4,257.7,44.7L257.7,44.7z"/>
	<path fill="#B6D6E0" d="M312,103.8c-0.2,0-0.1-0.4-0.4-0.3C311.6,103.7,312,104,312,103.8"/>
	<path fill="#B6D6E0" d="M338.4,74.7C335.4,74.7,342.7,73.2,338.4,74.7C338.3,74.7,337.7,74.9,338.4,74.7z"/>
	<path fill="#B6D6E0" d="M260.5,105c-1.3-0.3-0.3-1.5,0-1.8C259,102.4,258,105.4,260.5,105z"/>
	<path fill="#027EAD" d="M345.3,40.4c-4.1-6.1-19.8-7.7-29.6-8.1c-12-0.5-23.8-1.9-33.1-0.4c-0.1-0.3-0.2-0.6-0.3-0.8
		c-0.4-1.2-0.7-4.1-1-6.4c2.1,0.9,5.4,0.2,7.4-0.4c2.2-0.7,1-2-3-3.5c-1.7-0.6-3-0.6-4.1-0.4c0.2-0.1,0.3-0.2,0.4-0.4
		c1.5-1.5,1.1-1.1,3.2-1c2.2,0.1,7.9,1.4,8.8,1c1.3-0.1,3.6-0.8,4.6-1.5c1.1-0.7,2.9-0.9,4.8-1.3c1.9-0.4,2.6-1.4,4.9-2.9
		c2.3-1.5,2.4-2,3.4-3.8c1.3-2.2,2-4.1,1.9-4.1c0,0,0.2-0.4,0.4-2.4c0.3-2.7,1.6-3.8,1.3-4c-0.3-0.3-0.4,0-1.1,0.8
		c-0.7,0.8-1.1,1.7-1.4,3.3c-0.3,1.6-1.5,0.5-2.4,0.2c-0.8-0.3-2.3-1.3-2.6-1.7c-0.3-0.4-0.5-0.7-0.7-0.3c-0.6,0.9,2.8,3,4.2,3.7
		c0.9,0.4-1.2,3.1-1.9,4.3c-0.6,1.2-4.1,3.4-4.1,3.4s-1.4,1.2-4.3,1.9c-2.9,0.7-1.7-3.8-1.7-3.8s0.6-3.2,0.9-4.4
		c0.3-1.2,1-2.9,0.7-2.9c-0.3,0-0.5,0.4-0.8,1.1c-0.3,0.6-0.6,1.5-1,2.5c-0.4,1-0.7,1.5-1.5,2c-0.8,0.4-1.6,0.3-3.3,0
		c-1.7-0.4-2.4-0.3-3-1.9c-0.6-1.7,1.7-2.8,2.4-3.5c0.8-0.7,3-1.9,3.7-2.1c0.7-0.3,1.8-0.5,1.7-0.8c-0.1-0.3-1.1,0-1.7,0.2
		c-0.6,0.2-2.9,1-4.8,1.8c-1.9,0.8-4,3.6-4.7,4.5c-0.7,0.9-3.2,3.7-4,4.5c-0.7,0.8-0.8-0.8-0.9-1.2c-0.1-0.4,0.1-1.6,0.6-2.8
		c0.5-1.2,1-2.1,0.8-2.3c-0.3-0.2-0.6,0.3-0.9,0.8c-0.3,0.5-1.2,2.1-1.5,3c-0.6,1.7,0.5,3.7-0.2,4.3c-0.8,0.6-1.5-0.8-1.7-1.1
		c-0.3-0.3-1.1-1.9-1.4-2.3c-0.3-0.4-0.6-1.1-0.8-2.7c-0.2-1.5,0.9-2.4,1.3-2.9c0.4-0.5,1.1-1.3,1.5-1.8c0.5-0.5,0.8-0.9,0.6-1.2
		c-0.2-0.3-1.1,0.7-1.5,1.2c-0.4,0.4-1.1,1-1.9,1.9c-0.8,0.8-1.3,1.7-1.7,4.1c-0.4,2.4,0.7,4.7,1.1,5.5c0.5,0.7,0.9,1.7,0.2,2.1
		c-0.7,0.4-2-1.3-2-1.3s-1.3-1.7-2.3-2.9c-1-1.3-2.3-2.2-3.2-3.8c-0.9-1.7,0-3.2,0.5-4s-0.3-0.4-0.3-0.4s-1.2,1.2-1.5,2.9
		c-0.3,1.7,1,3.4,1,3.4s-0.3,0-0.7-0.4c-1.8-2-1-4.9-1.2-5c-0.2,0-0.3-0.1-0.4,0.3c-0.6,1.4-0.6,2.5-0.4,3.4c0.3,1.2,1,2.1,1.4,2.8
		c0.8,1.2,6.4,5.9,6.4,5.9s0.4,0.4,0.5,1.1c-2-1.3-4.8-0.6-5.1-0.7c0,0-2.7-1.2-4.2-2c-1.6-0.8-2.3-1.6-3.9-0.3
		c-1,0.9-0.3,2.1-0.3,2.1s2,3,1.5,3.9l-2.4-1c0,0-0.5,0.5,0,1.2c-0.2,0.3-0.6,1-0.2,1.5c0.5,0.7,1.9,1.1,1.9,1.1s0.8,0.2,1.5,1.3
		c0.1,0.1,0.1,0.2,0.2,0.3c0,0,0,0,0,0c0,0,0,0,0,0c0.6,1.1,1.7,2.4,3.3,3.2c0,2.3,0.7,2.7,1,3.6c-8.1,0.9-16.3,2.7-18.8,8.6
		c-1.3,3-1.4,10.1-1.7,15.3c-1.4,19.2-1.8,45.4,5.8,54.6c8.9,10.7,14.2,17.8,24.4,22.7c4.3,2.1,16.1,5.8,18.1,5.8
		c4.1,0,11.6-1.6,17.8-6.1c5.5-3.9,25.5-20.3,28.4-26.6c3.2-6.9,2.8-20.1,3.5-33.2C347,63.4,349.8,47,345.3,40.4z M284.2,16.2
		c0.1-0.7,0.8-0.8,2.1-2s3.3-2.7,6.1-2.2c2.8,0.4,4.5,0.8,5.5,0.9c0,0,0,2.7-0.8,3.4c-0.7,0.7-1.5,2.3-7.4,1.5
		C283.9,17,284.1,16.9,284.2,16.2z M285.1,98.2l0.8-19.6c0.3,1.1,0.5,2.3,0.9,3.5c0.9,3.1,0.6,11.8,0,16.2c0,0.2,0,0.4,0,0.7
		C286.1,98.7,285.6,98.4,285.1,98.2z M323.6,116.4c-3.4-2-6.7-4.3-9-5.9c1.2-2.1,3.4-5.8,5-7.7c2.5,3.8,3.9,8.4,4.2,10.4
		C324,114.5,323.8,115.5,323.6,116.4z M314.3,103.3c-2.3,2.4-4.6,3.4-5.9,4.7c-2.6,0.5-5.4,2.2-6,1.6c-0.9-0.8-4.2-3.4-9.9-7.1
		c-0.5-0.3-0.9-0.6-1.4-0.9c0.3-4.4,0.8-12.6,1-13.8c0.2-1.4,1.3-3.9,1.5-8.6c2.9,2.2,6.5,4.5,9.8,5.9l0,0l0,0
		c0.4,0.2,0.9,0.4,1.3,0.6c0.7,0.4,1.6,1.2,2.3,2.6l0,0c0.9,2.3,2,4.3,3.3,5.6c1.9,2,3.7,3.4,5.3,4.7
		C316,100,315.9,101.7,314.3,103.3z M252.5,77c-0.3-8.5-1.6-27.8,1.7-34.1c2.1-4.1,8.6-5.2,14.4-6.1c0,0,0,0.1,0,0.2l0,0l0,0
		c-1.1,4.5-2.1,12.4,1.1,19c0.6,1.2,1.3,2.4,2,3.5c1.1,3.2,3,8.3,4.4,9.5c2.1,1.9,3,4.5,3.1,7.5c0,2.9-0.7,5.3,0,7.9
		c0.7,2.5,2.1,7.2,2,13.1c-2.3-0.4-6.1-1.2-7.8,1.3c-5.8,8.3-9.1,13.2-10.9,15.9c-0.1-0.2-0.2-0.3-0.4-0.5c0,0,0,0,0,0
		c-1.7-2.3-3.3-4.7-5-7.4C253.9,101.8,252.8,87.7,252.5,77z M341.8,76.2c-0.3,10.4-0.6,22.9-3.5,29c-1.6,3.4-5.3,7.7-9.4,11.7
		c-1.1-3.5-2.5-12.4-2.7-14.7c-0.2-2.5-1.9-1.4-4.4-5.7c-2.5-4.3,0.2-9.1,0.2-9.1l0,0c0.3-0.4,0.6-1,0.9-1.5c0.3-0.6,0.6-1.3,0.9-2
		c1.4,2,3.8,3,4.9,3.4c1.5,0.5,2.2-0.7,0.8-2.2c-1.4-1.5-2.9-4.5-3.7-7c-0.4-1.6-1.5-3.9-2.3-5.3c-0.2-0.5-0.5-1-0.8-1.4
		c0,0,0,0,0,0l0,0c-0.3-0.4-0.5-0.7-0.8-1.1c-4-5-8.6-5.4-10.1-6c-1.5-0.6-4.5-2.5-7.1-4.6c-2.7-2.1-4.6-3.6-7-5.5
		c-2.4-1.8-3.6-4.2-4.8-5.8c-1-1.3-3-1.8-4.8-2.8c-0.1,0-1.5-0.9-3.2-5.9c-0.4-1.2-0.8-2.6-1.3-4.1c4.4,0.1,9.2,0.4,13.7,0.6
		c7.9,0.5,16,0.3,23,0.8c8.4,0.7,17.5,2.9,21.3,6.8C343.4,45.4,342.2,65.1,341.8,76.2z"/>
	<g>
		<g>
			<g>
				<g>
					<defs>
						<path id="SVGID_1_" d="M278.6,134.7c4.3,2.1,16.1,5.8,18.1,5.8c4.1,0,11.6-1.6,17.8-6.1 M342.9,107.7
							c3.2-6.9,2.8-20.1,3.5-33.2c0.6-11,3.4-27.5-1.1-34.1c-4.1-6.1-19.8-7.7-29.6-8.1c-12-0.5-23.8-1.9-33.1-0.4
							c-0.1-0.3-0.2-0.6-0.3-0.8c-0.4-1.2-0.7-4.1-1-6.4c2.1,0.9,5.4,0.2,7.4-0.4c2.2-0.7,1-2-3-3.5c-1.7-0.6-3-0.6-4.1-0.4
							c0.2-0.1,0.3-0.2,0.4-0.4c1.5-1.5,1.1-1.1,3.2-1c2.2,0.1,7.9,1.4,8.8,1c1.3-0.1,3.6-0.8,4.6-1.5c1.1-0.7,2.9-0.9,4.8-1.3
							c1.9-0.4,2.6-1.4,4.9-2.9c2.3-1.5,2.4-2,3.4-3.8c1.3-2.2,2-4.1,1.9-4.1c0,0,0.2-0.4,0.4-2.4c0.3-2.7,1.6-3.8,1.3-4
							c-0.3-0.3-0.4,0-1.1,0.8c-0.7,0.8-1.1,1.7-1.4,3.3c-0.3,1.6-1.5,0.5-2.4,0.2c-0.8-0.3-2.3-1.3-2.6-1.7
							c-0.3-0.4-0.5-0.7-0.7-0.3c-0.6,0.9,2.8,3,4.2,3.7c0.9,0.4-1.2,3.1-1.9,4.3c-0.6,1.2-4.1,3.4-4.1,3.4s-1.4,1.2-4.3,1.9
							c-2.9,0.7-1.7-3.8-1.7-3.8s0.6-3.2,0.9-4.4c0.3-1.2,1-2.9,0.7-2.9c-0.3,0-0.5,0.4-0.8,1.1c-0.3,0.6-0.6,1.5-1,2.5
							c-0.4,1-0.7,1.5-1.5,2c-0.8,0.4-1.6,0.3-3.3,0c-1.7-0.4-2.4-0.3-3-1.9c-0.6-1.7,1.7-2.8,2.4-3.5c0.8-0.7,3-1.9,3.7-2.1
							c0.7-0.3,1.8-0.5,1.7-0.8c-0.1-0.3-1.1,0-1.7,0.2c-0.6,0.2-2.9,1-4.8,1.8c-1.9,0.8-4,3.6-4.7,4.5c-0.7,0.9-3.2,3.7-4,4.5
							c-0.7,0.8-0.8-0.8-0.9-1.2c-0.1-0.4,0.1-1.6,0.6-2.8c0.5-1.2,1-2.1,0.8-2.3c-0.3-0.2-0.6,0.3-0.9,0.8c-0.3,0.5-1.2,2.1-1.5,3
							c-0.6,1.7,0.5,3.7-0.2,4.3c-0.8,0.6-1.5-0.8-1.7-1.1c-0.3-0.3-1.1-1.9-1.4-2.3c-0.3-0.4-0.6-1.1-0.8-2.7
							c-0.2-1.5,0.9-2.4,1.3-2.9s1.1-1.3,1.5-1.8c0.5-0.5,0.8-0.9,0.6-1.2c-0.2-0.3-1.1,0.7-1.5,1.2c-0.4,0.4-1.1,1-1.9,1.9
							s-1.3,1.7-1.7,4.1c-0.4,2.4,0.7,4.7,1.1,5.5c0.5,0.7,0.9,1.7,0.2,2.1c-0.7,0.4-2-1.3-2-1.3s-1.3-1.7-2.3-2.9
							c-1-1.3-2.3-2.2-3.2-3.8c-0.9-1.7,0-3.2,0.5-4s-0.3-0.4-0.3-0.4s-1.2,1.2-1.5,2.9c-0.3,1.7,1,3.4,1,3.4s-0.3,0-0.7-0.4
							c-1.8-2-1-4.9-1.2-5c-0.2,0-0.3-0.1-0.4,0.3c-0.6,1.4-0.6,2.5-0.4,3.4c0.3,1.2,1,2.1,1.4,2.8c0.8,1.2,6.4,5.9,6.4,5.9
							s0.4,0.4,0.5,1.1c-2-1.3-4.8-0.6-5.1-0.7c0,0-2.7-1.2-4.2-2c-1.6-0.8-2.3-1.6-3.9-0.3c-1,0.9-0.3,2.1-0.3,2.1s2,3,1.5,3.9
							l-2.4-1c0,0-0.5,0.5,0,1.2c-0.2,0.3-0.6,1-0.2,1.5c0.5,0.7,1.9,1.1,1.9,1.1s0.8,0.2,1.5,1.3c0.1,0.1,0.1,0.2,0.2,0.3
							c0,0,0,0,0,0c0,0,0,0,0,0c0.6,1.1,1.7,2.4,3.3,3.2c0,2.3,0.7,2.7,1,3.6c-8.1,0.9-16.3,2.7-18.8,8.6c-1.3,3-1.4,10.1-1.7,15.3
							c-1.4,19.2-1.8,45.4,5.8,54.6"/>
					</defs>
					<clipPath id="SVGID_2_">
						<use xlink:href="#SVGID_1_"  overflow="visible"/>
					</clipPath>
					<g clip-path="url(#SVGID_2_)">
						<path fill="#FFFFFF" d="M303.5,32.9C300.3,32.9,303.8,35.2,303.5,32.9C303.1,32.9,303.6,33.1,303.5,32.9z"/>
						<path fill="#FFFFFF" d="M269.4,33.3c-0.3-0.6-1,0-1,0.5C268.9,34.2,269.3,33.7,269.4,33.3z"/>
						<path fill="#FFFFFF" d="M303.8,33.8C303.8,33.9,303.7,33.7,303.8,33.8L303.8,33.8z"/>
						<path fill="#FFFFFF" d="M284.3,34.7C283.8,35.9,285.5,35,284.3,34.7L284.3,34.7z"/>
						<path fill="#FFFFFF" d="M280.7,36.6C280.8,35.6,279.3,36.6,280.7,36.6C280.7,36.2,280.5,36.6,280.7,36.6z"/>
						<path fill="#FFFFFF" d="M279.4,38.7c-0.1-0.4,0.2-0.5,0.3-0.7C279.2,37.3,278.4,38.7,279.4,38.7z"/>
						<path fill="#FFFFFF" d="M278.3,31.4C278,30.5,277.5,31.8,278.3,31.4L278.3,31.4z"/>
						<path fill="#FFFFFF" d="M279.5,31.6c-0.3-0.2-0.8-0.1-0.5,0.3C279.3,32,279.6,32,279.5,31.6z"/>
						<path fill="#FFFFFF" d="M270.8,40.6c-0.2-0.2-0.6-0.1-0.5,0.3C270.6,40.9,270.9,40.9,270.8,40.6z"/>
						<path fill="#FFFFFF" d="M302.7,57c-0.2,0-0.4,0-0.6,0C302,57.4,302.8,57.4,302.7,57z"/>
						<path fill="#FFFFFF" d="M277.6,37.9C280.5,37.8,277.3,35.5,277.6,37.9L277.6,37.9z"/>
						<path fill="#FFFFFF" d="M306.1,61.5c-0.6-0.3,0.3-0.6,0.2-0.7C305.7,59.4,304.1,61.4,306.1,61.5z"/>
						<path fill="#FFFFFF" d="M301.6,60.9c-0.2,0-0.1-0.3-0.4-0.2C301,61,301.5,61.2,301.6,60.9z"/>
						<path fill="#FFFFFF" d="M292.1,5.3C292.6,5.4,292.1,5,292.1,5.3L292.1,5.3z"/>
						<path fill="#FFFFFF" d="M274.3,40.5c0-0.3-0.2-0.3-0.4-0.3C273.7,40.6,274,40.6,274.3,40.5z"/>
						<path fill="#FFFFFF" d="M269.7,40.5c-0.2-0.2-0.5,0-0.7,0C268.8,41.2,269.8,41,269.7,40.5z"/>
						<path fill="#FFFFFF" d="M305.7,63.8c0,0.4,0.5,0.6,0.7,0.4C306.5,63.7,306,63.6,305.7,63.8z"/>
						<path fill="#FFFFFF" d="M290.2,8.6c-0.2-0.7-1.1-0.3-1,0.4C289.6,9,290,8.9,290.2,8.6z"/>
						<path fill="#FFFFFF" d="M281.5,48.5c-0.4,0-0.6,0.2-0.5,0.5C281.4,49.1,281.6,48.9,281.5,48.5z"/>
						<path fill="#FFFFFF" d="M269.8,48.9c0-0.2-0.1-0.3-0.3-0.3C269.4,48.9,269.5,49,269.8,48.9z"/>
						<path fill="#FFFFFF" d="M280,48.8c-0.1,0.1-0.3,0.2-0.2,0.5C280.3,49.4,280.4,48.9,280,48.8z"/>
						<path fill="#FFFFFF" d="M300.9,65C301.8,65,300.7,63.6,300.9,65C301.2,65,300.9,64.7,300.9,65z"/>
						<path fill="#FFFFFF" d="M304.2,65.2C304.4,63.4,302.7,66.1,304.2,65.2C304.2,64.8,304.1,65.3,304.2,65.2z"/>
						<path fill="#FFFFFF" d="M314.2,65.5c0.2,0,0.4,0,0.5,0C314.8,65,314.2,64.9,314.2,65.5z"/>
						<path fill="#FFFFFF" d="M303,67.3C304.3,64.8,301.2,67.4,303,67.3C303.1,67.1,301.4,67.4,303,67.3z"/>
						<path fill="#FFFFFF" d="M268.7,50.5c0-0.2-0.1-0.3-0.3-0.3C268.3,50.4,268.4,50.5,268.7,50.5z"/>
						<path fill="#FFFFFF" d="M271.7,50.8C271.7,49.8,271,50.9,271.7,50.8C271.7,50.6,271.4,50.8,271.7,50.8z"/>
						<path fill="#FFFFFF" d="M274.9,44.3c0-0.3-0.2-0.3-0.4-0.3C274.4,44.3,274.6,44.4,274.9,44.3z"/>
						<path fill="#FFFFFF" d="M308.7,66.8c-0.1-0.1-0.5-0.3-0.5,0C308.3,66.8,308.7,67,308.7,66.8z"/>
						<path fill="#FFFFFF" d="M304.2,66.9c-0.2,0-0.2-0.1-0.4-0.1C303.7,67.2,304.2,67.3,304.2,66.9z"/>
						<path fill="#FFFFFF" d="M301.4,68.6c-0.2-0.2-0.6-0.2-0.6,0.1C300.9,68.8,301.4,68.8,301.4,68.6z"/>
						<path fill="#FFFFFF" d="M318.9,68.6C319.3,68.6,318.9,68.4,318.9,68.6C319,68.6,318.9,68.6,318.9,68.6z"/>
						<path fill="#FFFFFF" d="M269.2,46.7c-0.7,0.5,0.7,1,0.6,0.2C269.8,46.5,269.4,46.5,269.2,46.7z"/>
						<path fill="#FFFFFF" d="M314.1,69.4c0-0.3-0.2-0.3-0.4-0.3C313.6,69.3,313.8,69.3,314.1,69.4z"/>
						<path fill="#FFFFFF" d="M297.7,14.6c0.2-0.3,0-0.5-0.3-0.5C297.2,14.3,297.3,14.8,297.7,14.6z"/>
						<path fill="#FFFFFF" d="M316.6,70.2c0.3,0.3,0.6,0.5,1.2,0.4C317.9,70,316.7,69.5,316.6,70.2z"/>
						<path fill="#FFFFFF" d="M293.5,16.2c-0.3,0-0.2-0.2-0.5-0.1C292.8,16.6,293.6,16.7,293.5,16.2z"/>
						<path fill="#FFFFFF" d="M307,72.4C305.9,72.4,307.2,72.7,307,72.4C306.9,72.4,307.2,72.7,307,72.4z"/>
						<path fill="#FFFFFF" d="M292.1,17.5c-0.4,0-0.5-0.2-0.8,0C291.3,18.3,291.9,17.9,292.1,17.5z"/>
						<path fill="#FFFFFF" d="M324.1,74"/>
						<path fill="#FFFFFF" d="M295.5,18.7c-0.1-0.1-0.5-0.3-0.5,0C295.1,18.9,295.3,18.9,295.5,18.7z"/>
						<path fill="#FFFFFF" d="M313.4,74.8C313.4,73.8,312.3,74.9,313.4,74.8L313.4,74.8z"/>
						<path fill="#FFFFFF" d="M309.2,74.8C307.3,73.7,308.4,76.8,309.2,74.8L309.2,74.8z"/>
						<path fill="#FFFFFF" d="M288.9,19.4c0-0.2-0.1-0.3-0.3-0.3C288.6,19.3,288.7,19.4,288.9,19.4z"/>
						<path fill="#FFFFFF" d="M270.5,19.4c-0.2,0.3,0.4,0.3,0.3,0.1C270.7,19.5,270.7,19.4,270.5,19.4z"/>
						<path fill="#FFFFFF" d="M277.2,19.7C277.2,18.9,276.5,19.7,277.2,19.7C277.2,19.6,276.9,19.7,277.2,19.7z"/>
						<path fill="#FFFFFF" d="M264.9,19.6C264.4,19.2,264.5,20,264.9,19.6L264.9,19.6z"/>
						<path fill="#FFFFFF" d="M313.7,75.6c0,0.2,0.1,0.3,0.3,0.3C314.1,75.7,313.9,75.6,313.7,75.6z"/>
						<path fill="#FFFFFF" d="M267,20.1C267,20.8,267.7,20,267,20.1C267,20.2,267.2,20.1,267,20.1z"/>
						<path fill="#FFFFFF" d="M296,61.2c0,0,0,0.1,0,0.1C295.7,61.8,296.7,60.5,296,61.2z"/>
						<path fill="#FFFFFF" d="M270.7,21c-0.1-0.1-0.3-0.2-0.5-0.1C270,21.4,270.8,21.3,270.7,21z"/>
						<path fill="#FFFFFF" d="M322.4,76.8c-0.1-0.1-0.5-0.3-0.5,0C321.9,76.9,322.4,77,322.4,76.8z"/>
						<path fill="#FFFFFF" d="M265.7,22.8c0.6-0.1,1.1-0.3,1.2-0.8C266.3,21.4,265.3,21.9,265.7,22.8z"/>
						<path fill="#FFFFFF" d="M295,22.7C295.1,22.8,294.9,22.6,295,22.7L295,22.7z"/>
						<path fill="#FFFFFF" d="M280.2,22.7C279.2,22.7,280.3,23.6,280.2,22.7C280,22.7,280.3,22.9,280.2,22.7z"/>
						<path fill="#FFFFFF" d="M295.7,64.1C298.3,63.6,294.6,63.1,295.7,64.1C296.1,64,295.4,63.8,295.7,64.1z"/>
						<path fill="#FFFFFF" d="M307.5,79c0.1-0.4-0.2-0.3-0.4-0.3C307,79,307.2,79.1,307.5,79z"/>
						<path fill="#FFFFFF" d="M317.5,78.9C316.4,81.4,320.6,78.7,317.5,78.9C317.3,79.3,318,78.9,317.5,78.9z"/>
						<path fill="#FFFFFF" d="M274.5,23.9C275.9,22.8,273.3,24.1,274.5,23.9C274.7,23.8,274.3,24,274.5,23.9z"/>
						<path fill="#FFFFFF" d="M283,65.2c0.1-0.6,0.8-1.1,1.2-1.1C283.3,64,282.7,64.5,283,65.2z"/>
						<path fill="#FFFFFF" d="M273.9,24.6C275,24.6,273.6,23.3,273.9,24.6C274,24.6,273.8,24.3,273.9,24.6z"/>
						<path fill="#FFFFFF" d="M271,24.2C271,24.8,271.8,24,271,24.2C271,24.2,271.2,24.1,271,24.2z"/>
						<path fill="#FFFFFF" d="M301.2,80.2c0,0.3,0.2,0.3,0.4,0.3C301.8,80.1,301.5,80.2,301.2,80.2z"/>
						<path fill="#FFFFFF" d="M323.5,80.4C323.2,81.9,324.9,79.2,323.5,80.4C323.4,80.6,323.7,80.2,323.5,80.4z"/>
						<path fill="#FFFFFF" d="M315.9,81.3C316.9,83.2,315.6,81.5,315.9,81.3C316,81.6,316.4,80.7,315.9,81.3z"/>
						<path fill="#FFFFFF" d="M312.9,81.5c0,0.5,0.7,0.5,0.7,0C313.5,81.3,313,81.3,312.9,81.5z"/>
						<path fill="#FFFFFF" d="M268.2,26.8c0-0.3-0.1-0.5-0.4-0.4C267.8,26.7,267.9,26.8,268.2,26.8z"/>
						<path fill="#FFFFFF" d="M306.4,82.1c-0.2,0-0.2-0.2-0.3-0.1C305.9,82.2,306.4,82.3,306.4,82.1z"/>
						<path fill="#FFFFFF" d="M326.2,82.3C326.7,82.4,326.3,82,326.2,82.3L326.2,82.3z"/>
						<path fill="#FFFFFF" d="M302.1,82.6c-0.2,0.3,0.4,0.3,0.4,0.1C302.4,82.7,302.3,82.6,302.1,82.6z"/>
						<path fill="#FFFFFF" d="M310.7,83.1C309.2,82.3,310.2,84.1,310.7,83.1C310.4,83,310.6,83.3,310.7,83.1z"/>
						<path fill="#FFFFFF" d="M308.6,83c0,0.3,0.3,0.3,0.5,0.3C309.2,83,308.9,83,308.6,83z"/>
						<path fill="#FFFFFF" d="M312.2,83.7C311.7,83.7,312.2,84.2,312.2,83.7C312.2,83.7,312.2,83.8,312.2,83.7z"/>
						<path fill="#FFFFFF" d="M280.9,28.2c-0.3-0.1-0.5,0.4-0.2,0.4C280.7,28.4,281,28.5,280.9,28.2z"/>
						<path fill="#FFFFFF" d="M269,28.4C267,28.4,270.9,30.9,269,28.4C268.9,28.4,269.3,28.7,269,28.4z"/>
						<path fill="#FFFFFF" d="M310.3,84.3c-0.2,0.3,0.4,0.3,0.3,0.1C310.5,84.4,310.5,84.3,310.3,84.3z"/>
						<path fill="#FFFFFF" d="M279.5,29.3C279.9,29.4,279.5,28.9,279.5,29.3L279.5,29.3z"/>
						<path fill="#FFFFFF" d="M285,69.9C285.4,70.3,285.2,69.6,285,69.9L285,69.9z"/>
						<path fill="#FFFFFF" d="M281.3,70.1C280.7,69.5,280.8,70.8,281.3,70.1L281.3,70.1z"/>
						<path fill="#FFFFFF" d="M305.3,85.6C305.9,85.6,305.4,86,305.3,85.6C305.4,85.6,305.3,85.4,305.3,85.6z"/>
						<path fill="#FFFFFF" d="M274.7,30.6c-0.1,0.3,0,0.4,0.3,0.3C275.1,30.7,275,30.6,274.7,30.6z"/>
						<path fill="#FFFFFF" d="M312.6,86.6C310.7,84.5,312,90.1,312.6,86.6C312.2,86,312.6,87,312.6,86.6z"/>
						<path fill="#FFFFFF" d="M307.5,87.2c0-0.3-0.4-0.4-0.4-0.1C307.2,87.1,307.3,87.2,307.5,87.2z"/>
						<path fill="#FFFFFF" d="M308.5,88.7C307.6,89.4,311,89.8,308.5,88.7C308,89.2,308.7,88.8,308.5,88.7z"/>
						<path fill="#FFFFFF" d="M306,33.5C306.1,33.3,305.2,33.5,306,33.5C306.1,33.2,305.9,33.5,306,33.5z"/>
						<path fill="#FFFFFF" d="M307.5,89.4c0-0.4-0.4-0.3-0.5-0.1C307.1,89.4,307.2,89.4,307.5,89.4z"/>
						<path fill="#FFFFFF" d="M315.2,90.1C315.4,90.6,315.3,89.8,315.2,90.1L315.2,90.1z"/>
						<path fill="#FFFFFF" d="M300.7,34.6c-0.4,0-0.3,0.4-0.1,0.5C300.5,34.8,300.8,34.9,300.7,34.6z"/>
						<path fill="#FFFFFF" d="M328,35.3c0-0.1,0-0.2,0-0.2C327.8,34.7,327.5,35.4,328,35.3z"/>
						<path fill="#FFFFFF" d="M282.8,35.1c-0.1,0.4,0.3,0.5,0.4,0.3C283.3,35.1,283.1,35,282.8,35.1z"/>
						<path fill="#FFFFFF" d="M330.9,35.5C330.9,34.8,330.2,35.5,330.9,35.5C330.9,35.4,330.8,35.5,330.9,35.5z"/>
						<path fill="#FFFFFF" d="M295.2,34.5c-0.8-0.9-1.8,0.8-0.6,1C294.2,34.8,294.9,34.8,295.2,34.5z"/>
						<path fill="#FFFFFF" d="M287.5,35.6"/>
						<path fill="#FFFFFF" d="M338.2,35.7C338.6,35.8,338.2,35.4,338.2,35.7L338.2,35.7z"/>
						<path fill="#FFFFFF" d="M336.5,36.2C336.8,36.4,336.8,35.8,336.5,36.2L336.5,36.2z"/>
						<path fill="#FFFFFF" d="M268.7,36.9c0.3,0.2,0.7,0,0.6-0.3C269,36.4,268.7,36.5,268.7,36.9z"/>
						<path fill="#FFFFFF" d="M281.2,37.7c0.1,0.1,0.3,0.2,0.5,0.1C281.9,37.5,281.2,37.6,281.2,37.7z"/>
						<path fill="#FFFFFF" d="M284.3,37.7c0,0.2,0,0.3,0,0.4"/>
						<path fill="#FFFFFF" d="M332.1,38.9c-0.2,0-0.4,0-0.5,0"/>
						<path fill="#FFFFFF" d="M282.9,40.8C283.2,41.1,283.1,40.4,282.9,40.8L282.9,40.8z"/>
						<path fill="#FFFFFF" d="M270.1,43C271.1,43,270.5,41.4,270.1,43C270.3,43,270.2,42.6,270.1,43z"/>
						<path fill="#FFFFFF" d="M279.1,48.8c-0.2-0.7,0-1.2,0.3-1.7C278.1,46,277.5,48.8,279.1,48.8z"/>
						<path fill="#FFFFFF" d="M300.7,102.6c0,0.2,0,0.3,0,0.4"/>
						<path fill="#FFFFFF" d="M272.6,48.4c-0.5-0.2-0.7,0.3-0.5,0.7C272.4,49.1,272.5,48.7,272.6,48.4z"/>
						<path fill="#FFFFFF" d="M288.1,48.5C288.5,48.6,288.1,48.2,288.1,48.5L288.1,48.5z"/>
						<path fill="#FFFFFF" d="M276.1,51.4c-0.3-0.7,0.2-0.8,0.5-1.2C275.8,48.9,274.5,51.2,276.1,51.4z"/>
						<path fill="#FFFFFF" d="M286.7,49.9C285.8,49.9,286.9,51,286.7,49.9C286.6,49.9,286.8,50.2,286.7,49.9z"/>
						<path fill="#FFFFFF" d="M246.7,51.9C247.1,52,246.7,51.6,246.7,51.9L246.7,51.9z"/>
						<path fill="#FFFFFF" d="M252.2,52.3C252.5,52.7,252.4,52,252.2,52.3L252.2,52.3z"/>
						<path fill="#FFFFFF" d="M249.2,54.2c0.2-0.2,0.2-0.7-0.2-0.6C248.8,53.7,249,54.1,249.2,54.2z"/>
						<path fill="#FFFFFF" d="M296.5,53.9C296.5,55.3,298.9,54.2,296.5,53.9C296.5,54.2,297,54,296.5,53.9z"/>
						<path fill="#FFFFFF" d="M250.7,55.2C250.3,54.8,250.4,55.5,250.7,55.2L250.7,55.2z"/>
						<path fill="#FFFFFF" d="M286.2,55.1C285.6,55.1,286.2,55.6,286.2,55.1C286.1,55.1,286.2,55.2,286.2,55.1z"/>
						<path fill="#FFFFFF" d="M296.8,55.3C297.2,55.4,296.8,55,296.8,55.3L296.8,55.3z"/>
						<path fill="#FFFFFF" d="M276.1,55.6c0.2-0.3-0.4-0.3-0.4-0.1C275.8,55.5,275.9,55.6,276.1,55.6z"/>
						<path fill="#FFFFFF" d="M298,57.2c0-0.3,0-0.6-0.3-0.5C297.6,56.8,297.7,57.2,298,57.2z"/>
						<path fill="#FFFFFF" d="M287.3,57.4c-0.4-0.7-1.4,0.5-0.4,0.5C287,57.7,287.3,57.7,287.3,57.4z"/>
						<path fill="#FFFFFF" d="M282.1,57.8C281.7,57.3,281.9,58.1,282.1,57.8L282.1,57.8z"/>
						<path fill="#FFFFFF" d="M302,60.5c0-0.4,0.4-0.5,0.5-0.8C301.7,58.7,300.5,60.4,302,60.5z"/>
						<path fill="#FFFFFF" d="M305.1,60.1c0.1-0.3,0-0.4-0.3-0.3C304.7,60,305.1,60,305.1,60.1z"/>
						<path fill="#FFFFFF" d="M305.5,59.9C305.9,60,305.5,59.5,305.5,59.9L305.5,59.9z"/>
						<path fill="#FFFFFF" d="M304.3,60.3c-0.2,0.3,0.4,0.3,0.3,0.1C304.5,60.4,304.5,60.3,304.3,60.3z"/>
						<path fill="#FFFFFF" d="M304.9,60.6C304.8,61.2,305.4,60.7,304.9,60.6L304.9,60.6z"/>
						<path fill="#FFFFFF" d="M295.6,60.9c0.2,0,0.3-0.1,0.3-0.2C295.8,60.7,295.6,60.7,295.6,60.9z"/>
						<path fill="#FFFFFF" d="M296.1,61.6c-0.2-0.2-0.4-0.2-0.4,0.1C295.9,61.8,296.1,61.8,296.1,61.6z"/>
						<path fill="#FFFFFF" d="M277.5,48.7c-0.5-0.3-1.1,0.2-1.6,0.3C275.9,50.3,277.7,49.8,277.5,48.7z"/>
						<path fill="#FFFFFF" d="M293,62.1C293,62.1,292.9,62,293,62.1L293,62.1z"/>
						<path fill="#FFFFFF" d="M296.6,62.9c-0.6-0.5-1.1,0.6-0.4,0.7C296,63.2,296.5,63.2,296.6,62.9z"/>
						<path fill="#FFFFFF" d="M273.4,50.1C273.4,49.3,272.7,50.1,273.4,50.1C273.4,50,273.1,50.1,273.4,50.1z"/>
						<path fill="#FFFFFF" d="M308.4,63.9C308.8,64.2,308.7,63.5,308.4,63.9L308.4,63.9z"/>
						<path fill="#FFFFFF" d="M344.1,64.1c-0.1,0-0.1-0.1-0.2-0.1C343.6,64.2,344.1,64.4,344.1,64.1z"/>
						<path fill="#FFFFFF" d="M287.9,51.3C287.5,50.9,287.6,51.6,287.9,51.3L287.9,51.3z"/>
						<path fill="#FFFFFF" d="M286.2,64.8c-0.6-1-2.3,0.8-0.6,0.8C285.4,65.1,286.1,65.2,286.2,64.8z"/>
						<path fill="#FFFFFF" d="M279.4,66.9C279,66.9,278.8,67.4,279.4,66.9"/>
						<path fill="#FFFFFF" d="M284.5,65.4C284.1,65,284.2,65.7,284.5,65.4L284.5,65.4z"/>
						<path fill="#FFFFFF" d="M301.8,65.7C301.3,65.7,301.8,66.2,301.8,65.7C301.8,65.7,301.8,65.8,301.8,65.7z"/>
						<path fill="#FFFFFF" d="M298.8,66.9C298.4,64.6,301,67.6,298.8,66.9C298.7,66.7,297.5,66.6,298.8,66.9z"/>
						<path fill="#FFFFFF" d="M270.8,52.8c-0.3-0.3-0.6,0-0.5,0.3C270.6,53.2,270.8,53,270.8,52.8z"/>
						<path fill="#FFFFFF" d="M283.7,66.7C284.2,66.8,283.8,66.3,283.7,66.7L283.7,66.7z"/>
						<path fill="#FFFFFF" d="M291.4,66.9c0,0.2,0.1,0.3,0.2,0.3C291.6,67.1,291.6,66.9,291.4,66.9z"/>
						<path fill="#FFFFFF" d="M315.9,67.2C311.5,67.2,317,69.6,315.9,67.2C315.1,67.2,316,67.4,315.9,67.2z"/>
						<path fill="#FFFFFF" d="M288.7,54.6C290.6,54.3,288.6,53.9,288.7,54.6C289,54.6,288.6,54,288.7,54.6z"/>
						<path fill="#FFFFFF" d="M298.2,68C298.7,68,298.2,67.5,298.2,68C298.2,68,298.2,67.9,298.2,68z"/>
						<path fill="#FFFFFF" d="M291.4,68.1c-0.2,0.2-0.2,0.4,0.1,0.4C291.6,68.4,291.6,68.2,291.4,68.1z"/>
						<path fill="#FFFFFF" d="M272.7,55C273.2,55.2,269.1,58.2,272.7,55C271.6,54.5,272.3,55.3,272.7,55z"/>
						<path fill="#FFFFFF" d="M318.1,69.2c-0.3-0.3,0.3-0.6,0.5-0.6C318,67.5,316.8,69.5,318.1,69.2z"/>
						<path fill="#FFFFFF" d="M276.8,55C275.7,55,277,56.2,276.8,55C276.7,55,276.9,55.3,276.8,55z"/>
						<path fill="#FFFFFF" d="M324.3,68.6c0.1-0.3-0.4-0.5-0.4-0.2C324.1,68.5,324,68.7,324.3,68.6z"/>
						<path fill="#FFFFFF" d="M295.7,68.6c-0.3,0-0.3-0.2-0.5,0C295.1,69,295.8,69,295.7,68.6z"/>
						<path fill="#FFFFFF" d="M293.1,57c-0.3-0.6,0.4-0.7,0.3-1.4C292.1,55,291.6,57.1,293.1,57z"/>
						<path fill="#FFFFFF" d="M286.4,55.8c0,0.3,0.1,0.5,0.4,0.4C286.9,55.9,286.7,55.9,286.4,55.8z"/>
						<path fill="#FFFFFF" d="M291.9,69.6C291.9,68.6,291.2,69.7,291.9,69.6C291.9,69.5,291.7,69.6,291.9,69.6z"/>
						<path fill="#FFFFFF" d="M344.9,69.3C343.8,69.3,345,70.3,344.9,69.3C344.7,69.3,344.9,69.6,344.9,69.3z"/>
						<path fill="#FFFFFF" d="M321.5,69.7C321.6,69.5,320.7,69.7,321.5,69.7C321.6,69.5,321.4,69.7,321.5,69.7z"/>
						<path fill="#FFFFFF" d="M342.4,69.6C342.8,69.7,342.4,69.3,342.4,69.6L342.4,69.6z"/>
						<path fill="#FFFFFF" d="M282.8,56.8C282.9,55.6,281.6,57,282.8,56.8C282.8,56.5,282.5,56.8,282.8,56.8z"/>
						<path fill="#FFFFFF" d="M285.7,70.1c-0.6-1.3-3.1,0.6-1.3,1C284.6,70.1,285.2,70.8,285.7,70.1z"/>
						<path fill="#FFFFFF" d="M320.7,69.8C320.8,69.9,320.6,69.8,320.7,69.8L320.7,69.8z"/>
						<path fill="#FFFFFF" d="M314.7,69.8C314.3,71,316.4,69.8,314.7,69.8C314.6,70.2,314.9,69.8,314.7,69.8z"/>
						<path fill="#FFFFFF" d="M289.7,70c-0.2,0-0.4,0-0.6,0C289.1,70.4,289.8,70.7,289.7,70z"/>
						<path fill="#FFFFFF" d="M322.8,70c-0.2,0.2-0.1,0.3,0.2,0.3C323.1,70.1,323,70.1,322.8,70z"/>
						<path fill="#FFFFFF" d="M304.5,70.5C303.7,70,303.7,70.6,304.5,70.5C304.3,70.3,304,70.6,304.5,70.5z"/>
						<path fill="#FFFFFF" d="M272.2,57.1C272.1,57.8,272.7,57.2,272.2,57.1L272.2,57.1z"/>
						<path fill="#FFFFFF" d="M323.5,70.9C323.5,71,323.4,70.8,323.5,70.9L323.5,70.9z"/>
						<path fill="#FFFFFF" d="M295.7,71.1C295.9,73.8,297.1,69.7,295.7,71.1C295.8,71.5,295.9,70.9,295.7,71.1z"/>
						<path fill="#FFFFFF" d="M303.1,71.4c0-0.3-0.4-0.4-0.4-0.1C302.8,71.3,302.9,71.4,303.1,71.4z"/>
						<path fill="#FFFFFF" d="M315.9,71.2C316.4,71.3,316,70.9,315.9,71.2L315.9,71.2z"/>
						<path fill="#FFFFFF" d="M323.9,71.6c0-0.2,0.2-0.3,0.3-0.4C323.7,70.8,323.3,71.4,323.9,71.6z"/>
						<path fill="#FFFFFF" d="M295,71.9C295.1,71.9,295.4,70.6,295,71.9C295.3,71.9,295.1,71.6,295,71.9z"/>
						<path fill="#FFFFFF" d="M318.6,71.6C318.7,71.7,318.5,71.6,318.6,71.6L318.6,71.6z"/>
						<path fill="#FFFFFF" d="M309.4,71.6C308.3,71.6,309.6,72.7,309.4,71.6C309.2,71.6,309.4,72,309.4,71.6z"/>
						<path fill="#FFFFFF" d="M317.3,71.7C317.5,72.1,317.6,71.3,317.3,71.7L317.3,71.7z"/>
						<path fill="#FFFFFF" d="M345.9,71.8c-0.2,0-0.2-0.2-0.3-0.1C345.4,72,345.9,72,345.9,71.8z"/>
						<path fill="#FFFFFF" d="M344.3,71.8c-0.6-0.1-0.9,0.4-0.6,0.7C344.1,72.6,344.3,72.3,344.3,71.8z"/>
						<path fill="#FFFFFF" d="M309.3,72.3C309.3,72.3,309.2,72.2,309.3,72.3L309.3,72.3z"/>
						<path fill="#FFFFFF" d="M312.1,72.8C311.9,72.6,312.9,71.9,312.1,72.8C311.6,72.3,311.8,73.2,312.1,72.8z"/>
						<path fill="#FFFFFF" d="M289.8,72.7c0-0.1-0.3-0.1-0.3,0C289.4,72.9,289.9,72.9,289.8,72.7z"/>
						<path fill="#FFFFFF" d="M314.6,73.2c0-0.2,0.2-0.3,0.2-0.5C314.3,72.5,314.2,73.2,314.6,73.2z"/>
						<path fill="#FFFFFF" d="M315.4,73C315.4,72.2,315.1,72.9,315.4,73C315.4,72.8,315.3,73,315.4,73z"/>
						<path fill="#FFFFFF" d="M319.5,72.9C319.3,73.2,319.9,72.6,319.5,72.9L319.5,72.9z"/>
						<path fill="#FFFFFF" d="M297.8,73.1C297.8,73.8,298.5,72.9,297.8,73.1C297.8,73.2,298,73.1,297.8,73.1z"/>
						<path fill="#FFFFFF" d="M321.6,73.2c0,0,0,0.1,0,0.1C321.4,74,322.2,72.7,321.6,73.2z"/>
						<path fill="#FFFFFF" d="M299.9,74.4C302.4,74.4,300.4,72.7,299.9,74.4C300.2,74.4,300,73.7,299.9,74.4z"/>
						<path fill="#FFFFFF" d="M312.2,73.6C312.8,73.6,312.2,73.1,312.2,73.6C312.3,73.6,312.2,73.5,312.2,73.6z"/>
						<path fill="#FFFFFF" d="M316.6,73.8C317.4,73.8,316.6,72.8,316.6,73.8C316.9,73.8,316.6,73.7,316.6,73.8z"/>
						<path fill="#FFFFFF" d="M309.4,74.3c0.2-0.4,0.1-0.6-0.3-0.4C309,74.1,309.1,74.3,309.4,74.3z"/>
						<path fill="#FFFFFF" d="M281.4,74.2C281.4,73.2,280.8,74.3,281.4,74.2C281.4,74.1,281.1,74.2,281.4,74.2z"/>
						<path fill="#FFFFFF" d="M290,74.1c-0.2,0-0.2-0.2-0.3-0.1C289.5,74.2,290,74.3,290,74.1z"/>
						<path fill="#FFFFFF" d="M311.1,74.1C311.4,74.4,311.2,73.7,311.1,74.1L311.1,74.1z"/>
						<path fill="#FFFFFF" d="M310.6,74.8c-0.1,0.3,0,0.4,0.3,0.3C310.9,74.9,310.8,74.8,310.6,74.8z"/>
						<path fill="#FFFFFF" d="M287.6,61.7C288,61.8,287.6,61.3,287.6,61.7L287.6,61.7z"/>
						<path fill="#FFFFFF" d="M287,75.4C288.4,76.2,287,73.8,287,75.4C287.1,75.5,287,75.1,287,75.4z"/>
						<path fill="#FFFFFF" d="M312.8,75.1c0.1,0,0.4,0.3,0.4,0C313.1,75.1,312.8,74.8,312.8,75.1z"/>
						<path fill="#FFFFFF" d="M288,75.2C288.4,75.3,288,74.9,288,75.2L288,75.2z"/>
						<path fill="#FFFFFF" d="M301.8,75.1C300.7,75.1,302.1,76.2,301.8,75.1C301.6,75.1,301.8,75.3,301.8,75.1z"/>
						<path fill="#FFFFFF" d="M284.6,62.3c0.3,0.3,0.7-0.1,0.7-0.3C285,61.7,284.7,62.1,284.6,62.3z"/>
						<path fill="#FFFFFF" d="M290,75.6c-1.1-0.7-0.6,0.9,0.1,1.1C290.1,76.2,289.3,75.9,290,75.6z"/>
						<path fill="#FFFFFF" d="M323.1,76C323.1,75.1,322.4,76.1,323.1,76C323.1,75.9,322.7,76,323.1,76z"/>
						<path fill="#FFFFFF" d="M293.7,63.9c-0.5-0.2-0.1-1,0.1-1.2C292.6,62.4,293.1,64.3,293.7,63.9z"/>
						<path fill="#FFFFFF" d="M290.2,76.2C290.6,76.3,290.2,75.9,290.2,76.2L290.2,76.2z"/>
						<path fill="#FFFFFF" d="M344.5,76.8c-0.2,0-0.2-0.2-0.3-0.1C344.1,77,344.6,77,344.5,76.8z"/>
						<path fill="#FFFFFF" d="M295,77c0.1,0.5,1,0.4,1.1-0.1C295.6,76.7,295.5,77.1,295,77z"/>
						<path fill="#FFFFFF" d="M294,77.1c-0.2,0.5,0.7,0.4,0.5,0C294.4,77.1,294.2,77.1,294,77.1z"/>
						<path fill="#FFFFFF" d="M290.9,77.2C289.3,77.2,292,78.4,290.9,77.2C290.7,77.2,291,77.4,290.9,77.2z"/>
						<path fill="#FFFFFF" d="M317.3,77.4C317.4,77.5,317.3,77.4,317.3,77.4L317.3,77.4z"/>
						<path fill="#FFFFFF" d="M303.6,77.6C304.2,77.6,303.7,78,303.6,77.6C303.7,77.6,303.6,77.4,303.6,77.6z"/>
						<path fill="#FFFFFF" d="M325.5,77.8C325.2,78.1,325.8,77.5,325.5,77.8L325.5,77.8z"/>
						<path fill="#FFFFFF" d="M283.1,78.3C283.1,77.4,282.5,78.4,283.1,78.3C283.1,78.2,282.8,78.3,283.1,78.3z"/>
						<path fill="#FFFFFF" d="M299.5,78.1C300,78.2,299.6,77.8,299.5,78.1L299.5,78.1z"/>
						<path fill="#FFFFFF" d="M323.8,78.1c-0.2,0-0.2-0.1-0.4-0.1C323.3,78.3,323.7,78.4,323.8,78.1z"/>
						<path fill="#FFFFFF" d="M307,78.1C305.7,77.8,307.4,79.5,307,78.1C306.7,78,307.1,78.4,307,78.1z"/>
						<path fill="#FFFFFF" d="M288.7,65C289.5,67.8,289.9,64.6,288.7,65C288.9,65.8,289,64.9,288.7,65z"/>
						<path fill="#FFFFFF" d="M318.8,78.2C318.8,78.8,319.5,78.2,318.8,78.2C318.8,78.3,318.9,78.2,318.8,78.2z"/>
						<path fill="#FFFFFF" d="M299.4,78.4C299.5,78.4,299.4,78.3,299.4,78.4L299.4,78.4z"/>
						<path fill="#FFFFFF" d="M316.4,78.4C315,78.4,316.2,79,316.4,78.4C316.1,78.4,316.3,78.6,316.4,78.4z"/>
						<path fill="#FFFFFF" d="M285.2,65.1C285.2,65.8,285.9,64.9,285.2,65.1C285.2,65.1,285.4,65,285.2,65.1z"/>
						<path fill="#FFFFFF" d="M303.4,78.7C303.5,78.8,303.4,78.7,303.4,78.7L303.4,78.7z"/>
						<path fill="#FFFFFF" d="M322.5,78.9c0-0.1,0-0.2,0-0.2C322.3,78.4,322,79,322.5,78.9z"/>
						<path fill="#FFFFFF" d="M323.7,80.1C323.7,79.6,323.6,80.4,323.7,80.1"/>
						<path fill="#FFFFFF" d="M293,79.3c0.1-0.2-0.3-0.5-0.3-0.2C292.8,79.1,292.8,79.2,293,79.3z"/>
						<path fill="#FFFFFF" d="M321.4,79.3C321.7,79.6,321.5,78.9,321.4,79.3L321.4,79.3z"/>
						<path fill="#FFFFFF" d="M279.5,66.3C279.5,65.3,278.8,66.5,279.5,66.3C279.5,66.2,279.2,66.4,279.5,66.3z"/>
						<path fill="#FFFFFF" d="M311.8,79.5C311.9,79.5,311.8,79.4,311.8,79.5L311.8,79.5z"/>
						<path fill="#FFFFFF" d="M280.2,79.7c-0.2,0-0.2-0.2-0.3-0.1C279.7,79.8,280.2,79.9,280.2,79.7z"/>
						<path fill="#FFFFFF" d="M282.1,80c0-0.3,0-0.4-0.2-0.4C281.8,79.7,281.8,80,282.1,80z"/>
						<path fill="#FFFFFF" d="M314.5,80.2c0.4,0,0.4-0.4,0.5-0.6C314.6,79.5,314.5,79.8,314.5,80.2z"/>
						<path fill="#FFFFFF" d="M312.6,79.9c0.2,0,0.2,0.2,0.4,0.1C313.1,79.7,312.7,79.6,312.6,79.9z"/>
						<path fill="#FFFFFF" d="M284,80.1c0-0.3-0.2-0.3-0.4-0.3C283.5,80,283.7,80.1,284,80.1z"/>
						<path fill="#FFFFFF" d="M285.1,80.2c-0.2,0-0.2-0.2-0.3-0.1C284.6,80.4,285.2,80.4,285.1,80.2z"/>
						<path fill="#FFFFFF" d="M307.8,81.4C305.2,80.6,311.2,80.2,307.8,81.4C307.6,81.3,306.7,81.7,307.8,81.4z"/>
						<path fill="#FFFFFF" d="M280.2,67C280.2,67.5,280.6,67.1,280.2,67L280.2,67z"/>
						<path fill="#FFFFFF" d="M281.9,67.3C282.2,67.7,282.1,66.9,281.9,67.3L281.9,67.3z"/>
						<path fill="#FFFFFF" d="M304.9,80.6C305.3,81,305.1,80.3,304.9,80.6L304.9,80.6z"/>
						<path fill="#FFFFFF" d="M299.1,80.7C299.2,80.8,299.1,80.7,299.1,80.7L299.1,80.7z"/>
						<path fill="#FFFFFF" d="M291.5,67.5c-0.6-0.2-0.6,0.8-0.2,0.8C291.1,67.9,291.5,67.9,291.5,67.5z"/>
						<path fill="#FFFFFF" d="M286.5,81C286.1,80.5,286.2,81.3,286.5,81L286.5,81z"/>
						<path fill="#FFFFFF" d="M314.7,81c-0.2,0-0.4,0-0.5,0C314.1,81.4,314.6,81.2,314.7,81z"/>
						<path fill="#FFFFFF" d="M346.5,81C346,81,346.5,81.5,346.5,81C346.4,81,346.5,81,346.5,81z"/>
						<path fill="#FFFFFF" d="M294.8,67.9c0,0.6,0.6,0.5,0.5-0.1C295,67.7,295,68,294.8,67.9z"/>
						<path fill="#FFFFFF" d="M282.1,68C281.2,67.8,281.9,68.6,282.1,68C282,68,282.1,68.2,282.1,68z"/>
						<path fill="#FFFFFF" d="M284.3,81.4c-0.2,0.3,0.4,0.3,0.3,0.1C284.5,81.5,284.4,81.3,284.3,81.4z"/>
						<path fill="#FFFFFF" d="M281.1,68.3C281.8,68.3,281.2,67.9,281.1,68.3C281.2,68.3,281.1,68.3,281.1,68.3z"/>
						<path fill="#FFFFFF" d="M330.5,81.9C330.4,81.8,330.5,82,330.5,81.9L330.5,81.9z"/>
						<path fill="#FFFFFF" d="M321.1,81.9C320.7,82.3,322,82.9,321.1,81.9C320.9,82.1,321.2,82,321.1,81.9z"/>
						<path fill="#FFFFFF" d="M344,82C344,82,344.1,82.1,344,82L344,82z"/>
						<path fill="#FFFFFF" d="M311.8,83.9C312.3,84.2,312.2,83.4,311.8,83.9"/>
						<path fill="#FFFFFF" d="M281.9,82.6c0.1-0.4-0.4-0.4-0.4-0.1C281.7,82.6,281.7,82.8,281.9,82.6z"/>
						<path fill="#FFFFFF" d="M286.2,82.4C286.8,82.5,286.3,82.1,286.2,82.4L286.2,82.4z"/>
						<path fill="#FFFFFF" d="M309.2,82.5c-0.2,0-0.2-0.2-0.3-0.1C308.7,82.7,309.2,82.7,309.2,82.5z"/>
						<path fill="#FFFFFF" d="M280.7,69.2C280.7,70.2,281.3,69.2,280.7,69.2C280.7,69.3,280.7,69.2,280.7,69.2z"/>
						<path fill="#FFFFFF" d="M326.6,82.8C325.1,81.6,326.1,83.9,326.6,82.8C326.4,82.7,326.4,83.2,326.6,82.8z"/>
						<path fill="#FFFFFF" d="M344.7,82.6C344.6,82.6,344.7,82.7,344.7,82.6L344.7,82.6z"/>
						<path fill="#FFFFFF" d="M280.8,83C281.3,83,280.8,82.4,280.8,83C280.8,83,280.8,82.9,280.8,83z"/>
						<path fill="#FFFFFF" d="M281.1,82.8C281.6,82.8,281.2,83.2,281.1,82.8C281.1,82.8,281,82.6,281.1,82.8z"/>
						<path fill="#FFFFFF" d="M320.4,83C320.5,83,320.4,82.9,320.4,83L320.4,83z"/>
						<path fill="#FFFFFF" d="M341.7,83.1C342.2,83.1,341.7,82.6,341.7,83.1C341.7,83.1,341.7,83,341.7,83.1z"/>
						<path fill="#FFFFFF" d="M319.1,83.2C319.1,84,320,83,319.1,83.2C319.1,83.3,319.4,83.1,319.1,83.2z"/>
						<path fill="#FFFFFF" d="M309.7,83.5C309.7,84.2,310.4,83.3,309.7,83.5C309.7,83.5,309.9,83.4,309.7,83.5z"/>
						<path fill="#FFFFFF" d="M322.9,84.4C323.1,83.2,322.7,84.4,322.9,84.4C323,84.2,322.7,84.4,322.9,84.4z"/>
						<path fill="#FFFFFF" d="M311.1,84.4c0-0.2,0-0.4-0.2-0.3C310.8,84.3,311,84.4,311.1,84.4z"/>
						<path fill="#FFFFFF" d="M302.8,84.3c0,0,0,0.1,0,0.1C302.6,85.1,303.4,83.8,302.8,84.3z"/>
						<path fill="#FFFFFF" d="M284,86.4c-0.3-0.9-0.2-1.3,0.3-1.9C282.7,83.9,282.9,86.3,284,86.4z"/>
						<path fill="#FFFFFF" d="M310.9,84.4C310.4,84.4,310.9,84.9,310.9,84.4C310.8,84.4,310.9,84.5,310.9,84.4z"/>
						<path fill="#FFFFFF" d="M281.2,71.6c-0.6-1.3-1.8,0.9-0.2,0.7C281.3,71.7,280.7,71.7,281.2,71.6z"/>
						<path fill="#FFFFFF" d="M312.6,85C312.7,84.8,311.9,85,312.6,85C312.8,84.7,312.6,85,312.6,85z"/>
						<path fill="#FFFFFF" d="M287.6,72c0.4,0.1,0.4-0.4,0.1-0.4C287.6,71.7,287.5,71.7,287.6,72z"/>
						<path fill="#FFFFFF" d="M306.5,85.3C305.6,84.3,306.5,86.7,306.5,85.3C306.5,85.2,306.5,85.5,306.5,85.3z"/>
						<path fill="#FFFFFF" d="M304.9,85.3C303.6,85.3,305.6,86.5,304.9,85.3C304.8,85.3,305,85.4,304.9,85.3z"/>
						<path fill="#FFFFFF" d="M320.8,85.4C319.8,85.6,320.9,85.9,320.8,85.4C320.6,85.4,320.9,85.7,320.8,85.4z"/>
						<path fill="#FFFFFF" d="M318.7,85.8C318.8,85.9,318.7,85.8,318.7,85.8L318.7,85.8z"/>
						<path fill="#FFFFFF" d="M320.5,86C319.3,86,320.6,86.4,320.5,86C320.3,86,320.6,86.3,320.5,86z"/>
						<path fill="#FFFFFF" d="M287.1,72.8c-0.1,0.4,0.5,0.4,0.5,0.1C287.5,72.8,287.4,72.8,287.1,72.8z"/>
						<path fill="#FFFFFF" d="M284.8,86.7c0.2,0,0.3-0.1,0.3-0.2C285,86.4,284.8,86.4,284.8,86.7z"/>
						<path fill="#FFFFFF" d="M319.7,86.6C319.7,86.6,319.6,86.5,319.7,86.6L319.7,86.6z"/>
						<path fill="#FFFFFF" d="M341,87c-0.1-0.3,0.3-0.1,0.2-0.4"/>
						<path fill="#FFFFFF" d="M344.8,86.8C345.2,86.9,344.8,86.4,344.8,86.8L344.8,86.8z"/>
						<path fill="#FFFFFF" d="M321.5,89C320.9,86.5,320.7,89,321.5,89C321.4,88.7,319,88.9,321.5,89z"/>
						<path fill="#FFFFFF" d="M287.8,74c-0.2,0.3,0,0.5,0.3,0.5C288.2,74.2,288.1,74,287.8,74z"/>
						<path fill="#FFFFFF" d="M312.5,89.4C313.4,89.4,312.4,88.4,312.5,89.4L312.5,89.4z"/>
						<path fill="#FFFFFF" d="M285.8,75.8C286.2,75.9,285.8,75.4,285.8,75.8L285.8,75.8z"/>
						<path fill="#FFFFFF" d="M307.7,89.7c-0.1,0.3,0,0.4,0.3,0.3C308,89.8,307.9,89.7,307.7,89.7z"/>
						<path fill="#FFFFFF" d="M310.8,90.1C310.8,90.2,310.7,90.1,310.8,90.1L310.8,90.1z"/>
						<path fill="#FFFFFF" d="M342.8,90.4C342.8,91.3,343.5,90.2,342.8,90.4C342.8,90.5,343,90.3,342.8,90.4z"/>
						<path fill="#FFFFFF" d="M311.5,90.5c0,0.3,0.1,0.5,0.4,0.4C312,90.6,311.8,90.4,311.5,90.5z"/>
						<path fill="#FFFFFF" d="M344.7,90.9c0-0.2,0-0.3,0-0.4C344.1,90.3,344.1,91,344.7,90.9z"/>
						<path fill="#FFFFFF" d="M308.3,92.3C308.8,92.4,308.3,91.9,308.3,92.3L308.3,92.3z"/>
						<path fill="#FFFFFF" d="M345.3,93.4C345.3,93.4,345.4,93.5,345.3,93.4L345.3,93.4z"/>
						<path fill="#FFFFFF" d="M343.7,94.3c-0.3,0-0.4,0-0.4,0.2C343.4,94.7,343.7,94.6,343.7,94.3z"/>
						<path fill="#FFFFFF" d="M286.5,81.8c0-0.1,0-0.2,0-0.2C286.3,81.2,286,81.9,286.5,81.8z"/>
						<path fill="#FFFFFF" d="M283.4,83.7C283.4,82.7,282.8,83.8,283.4,83.7C283.4,83.6,283.1,83.8,283.4,83.7z"/>
						<path fill="#FFFFFF" d="M340.1,97.5"/>
						<path fill="#FFFFFF" d="M251.9,87.4C251.9,86.5,251.2,87.4,251.9,87.4C251.9,87.3,251.6,87.4,251.9,87.4z"/>
						<path fill="#FFFFFF" d="M253.4,88.9"/>
						<path fill="#FFFFFF" d="M253.2,90.1c0,0.2-0.1,0.2-0.1,0.4C253.4,90.7,253.4,90,253.2,90.1z"/>
						<path fill="#FFFFFF" d="M253.3,90.7c-0.8,0-1,0.4-1.1,1.2C253.1,92.3,253.1,91.2,253.3,90.7z"/>
						<path fill="#FFFFFF" d="M252.4,95.1C252.6,95.6,252.5,94.8,252.4,95.1L252.4,95.1z"/>
						<path fill="#FFFFFF" d="M252.5,95.9C251.9,94.5,250,96.2,252.5,95.9C252.3,95.5,251.9,96,252.5,95.9z"/>
						<path fill="#FFFFFF" d="M251.3,96.1c0,0,0,0.1,0,0.1C251.5,96.2,251.4,96.1,251.3,96.1z"/>
						<path fill="#FFFFFF" d="M253.6,100.7"/>
						<path fill="#FFFFFF" d="M255.3,101.2C255.3,102.1,255.9,101.1,255.3,101.2C255.3,101.2,255.6,101.1,255.3,101.2z"/>
						<path fill="#FFFFFF" d="M334.1,114.6C334.6,114.6,334.2,115,334.1,114.6C334.1,114.6,334,114.4,334.1,114.6z"/>
						<path fill="#FFFFFF" d="M327.5,115.4c0.2-0.1,0.4,0.3,0.5,0C327.9,115.3,327.6,115,327.5,115.4z"/>
						<path fill="#FFFFFF" d="M323.3,119.8C320.1,117.4,326.7,118.6,323.3,119.8C323.1,119.6,321.9,120.3,323.3,119.8z"/>
						<path fill="#FFFFFF" d="M251.3,104.6c0,0.3,0,0.6,0,0.8C251.8,105.3,251.9,104.7,251.3,104.6z"/>
						<path fill="#FFFFFF" d="M324.7,115.4c-0.2,0-0.1-0.3-0.3-0.2C324.2,115.4,324.6,115.6,324.7,115.4z"/>
						<path fill="#FFFFFF" d="M326.7,115.4C326.8,115.4,326.7,115.3,326.7,115.4L326.7,115.4z"/>
						<path fill="#FFFFFF" d="M324.9,116.7C325,116.8,324.9,116.7,324.9,116.7L324.9,116.7z"/>
						<path fill="#FFFFFF" d="M323.3,118.6C323.4,118.7,323.3,118.6,323.3,118.6L323.3,118.6z"/>
						<path fill="#FFFFFF" d="M256.3,111.3C256.7,111.5,256.3,111,256.3,111.3L256.3,111.3z"/>
						<path fill="#FFFFFF" d="M257,112.2C255.5,111.5,257.3,112,257,112.2C256.6,112.1,257.1,112.1,257,112.2z"/>
						<path fill="#FFFFFF" d="M312.5,124.7C313,124.8,312.6,124.4,312.5,124.7L312.5,124.7z"/>
						<path fill="#FFFFFF" d="M322.9,119.3C322.9,119.4,322.8,119.2,322.9,119.3L322.9,119.3z"/>
						<path fill="#FFFFFF" d="M322.2,120.1C323.3,119.7,322.9,119.5,322.2,120.1C322.5,120,322.5,119.9,322.2,120.1z"/>
						<path fill="#FFFFFF" d="M326.5,119.5C326.6,119.6,326.4,119.5,326.5,119.5L326.5,119.5z"/>
						<path fill="#FFFFFF" d="M302.1,125.2C302.5,125.8,302.6,124.8,302.1,125.2L302.1,125.2z"/>
						<path fill="#FFFFFF" d="M322.5,120.1C322.2,121.4,322.9,120,322.5,120.1C322.4,120.3,322.8,120,322.5,120.1z"/>
						<path fill="#FFFFFF" d="M326.9,121C327,121.1,326.9,120.9,326.9,121L326.9,121z"/>
						<path fill="#FFFFFF" d="M328.3,121C328.4,121.1,328.2,120.9,328.3,121L328.3,121z"/>
						<path fill="#FFFFFF" d="M323.9,121.1c0,0.3,0.3,0.3,0.5,0.3C324.5,120.9,324.2,121,323.9,121.1z"/>
						<path fill="#FFFFFF" d="M326.3,121.6c0-0.2,0-0.4-0.1-0.4C326,121.3,326,121.6,326.3,121.6z"/>
						<path fill="#FFFFFF" d="M328.7,121.3C328.8,120.9,328.6,121.9,328.7,121.3L328.7,121.3z"/>
						<path fill="#FFFFFF" d="M328.8,121.8C328.9,121.9,328.8,121.8,328.8,121.8L328.8,121.8z"/>
						<path fill="#FFFFFF" d="M322.8,122.8C322.9,122.8,322.7,122.7,322.8,122.8L322.8,122.8z"/>
						<path fill="#FFFFFF" d="M297.7,128.4C297.8,128.5,297.7,128.4,297.7,128.4L297.7,128.4z"/>
						<path fill="#FFFFFF" d="M265.4,115.1c-0.1-0.1-0.3-0.2-0.5-0.1C264.9,115.4,265.4,115.5,265.4,115.1z"/>
						<path fill="#FFFFFF" d="M265.1,116.1C265.1,116.9,265.8,116.3,265.1,116.1L265.1,116.1z"/>
						<path fill="#FFFFFF" d="M263.3,121.6"/>
						<path fill="#FFFFFF" d="M275.6,131.3C276.1,131.3,275.6,130.7,275.6,131.3C275.6,131.3,275.6,131.2,275.6,131.3z"/>
						<path fill="#FFFFFF" d="M310.1,132.2C309.7,133.1,310.7,132.4,310.1,132.2C310.1,132.3,310.5,132.3,310.1,132.2z"/>
						<path fill="#FFFFFF" d="M292.4,133.7c0.2,0.2,0.4,0.2,0.4-0.1C292.7,133.4,292.5,133.4,292.4,133.7z"/>
						<path fill="#FFFFFF" d="M292.3,133.8c0,0.2-0.3,0.1-0.2,0.4C292.4,134.3,292.6,133.9,292.3,133.8z"/>
						<path fill="#FFFFFF" d="M309.9,129.6c-0.2,0.3,0.1,0.8,0.4,0.8C310.4,129.9,310.2,129.7,309.9,129.6z"/>
						<path fill="#FFFFFF" d="M298.2,135.3c-0.2,0.2,0,0.2,0,0.4C298.6,135.8,298.6,135.2,298.2,135.3z"/>
						<path fill="#FFFFFF" d="M263.3,122.4C263.3,122.4,263.4,122.5,263.3,122.4L263.3,122.4z"/>
						<path fill="#FFFFFF" d="M263.5,122.4C263.5,122.4,263.6,122.5,263.5,122.4L263.5,122.4z"/>
						<path fill="#FFFFFF" d="M264.4,122.4C264.3,122.4,264.4,122.5,264.4,122.4L264.4,122.4z"/>
						<path fill="#FFFFFF" d="M309.5,131.3c0.2,0.3,0.7,0.6,0.6-0.1C309.9,131.1,309.6,130.9,309.5,131.3z"/>
						<path fill="#FFFFFF" d="M312.7,131c-0.1,0.4,0.3,0.4,0.6,0.4C313.4,131,312.9,131.2,312.7,131z"/>
						<path fill="#FFFFFF" d="M304.2,131.6C305.4,131.8,304.3,131.4,304.2,131.6C304.4,131.6,304.3,131.4,304.2,131.6z"/>
						<path fill="#FFFFFF" d="M299.4,137.7c-0.2,0.2,0,0.7,0.3,0.6C299.7,138,299.8,137.7,299.4,137.7z"/>
						<path fill="#FFFFFF" d="M290.1,138.6C290,138.5,290.1,138.6,290.1,138.6L290.1,138.6z"/>
						<path fill="#FFFFFF" d="M307.2,134.8C307.2,133.4,306.2,134.8,307.2,134.8C307.2,134.6,306.8,134.8,307.2,134.8z"/>
						<path fill="#FFFFFF" d="M304.2,135.7C304.8,135.8,304.3,135.4,304.2,135.7L304.2,135.7z"/>
						<path fill="#FFFFFF" d="M305.3,136.9c-0.1,0.2,0,0.7,0.3,0.7C305.9,137.3,305.5,136.9,305.3,136.9z"/>
						<path fill="#FFFFFF" d="M251.9,94C254.2,91.7,251.4,93.1,251.9,94C252.1,93.8,251.8,93.8,251.9,94z"/>
						<path fill="#FFFFFF" d="M273.4,50.1C275.9,50.1,272.7,46.7,273.4,50.1C273.2,50.1,273.3,49.8,273.4,50.1z"/>
						<path fill="#FFFFFF" d="M267.8,19C268.2,19.2,267.6,18.7,267.8,19L267.8,19z"/>
						<path fill="#FFFFFF" d="M289.9,32.3C289.9,31.2,290.3,32.3,289.9,32.3C289.9,32.1,289.6,32.3,289.9,32.3z"/>
						<path fill="#FFFFFF" d="M297,63.7C297,63.5,295.8,63.9,297,63.7C297,63.7,296.6,63.7,297,63.7z"/>
						<path fill="#FFFFFF" d="M286,73.2C284.9,72.3,285,75.6,286,73.2C285.6,72.9,285.9,73.5,286,73.2z"/>
						<path fill="#FFFFFF" d="M304.8,77.6C304.8,77.6,304.8,77.6,304.8,77.6C304.8,77.6,304.8,77.6,304.8,77.6z"/>
						<path fill="#FFFFFF" d="M304.7,77.6c-0.1-0.1-0.2-0.1-0.2-0.1C304.5,77.4,304.6,77.5,304.7,77.6z"/>
						<path fill="#FFFFFF" d="M304.7,77.6C304.7,77.6,304.7,77.6,304.7,77.6C304.7,77.6,304.7,77.6,304.7,77.6z"/>
						<path fill="#FFFFFF" d="M304.8,77.6L304.8,77.6L304.8,77.6z"/>
						<path fill="#FFFFFF" d="M295.8,79.6C296.1,79.9,295.5,79.2,295.8,79.6L295.8,79.6z"/>
						<path fill="#FFFFFF" d="M318.1,80.8C317.9,81.5,318.1,80.6,318.1,80.8L318.1,80.8z"/>
						<path fill="#FFFFFF" d="M285.2,81.9C284.4,81.6,284.8,82.1,285.2,81.9L285.2,81.9z"/>
						<path fill="#FFFFFF" d="M312.2,81.9C312.6,82.2,311.9,81.6,312.2,81.9L312.2,81.9z"/>
						<path fill="#FFFFFF" d="M311.9,85.5C310.8,85.5,312.2,86.3,311.9,85.5C311.8,85.5,312.1,85.9,311.9,85.5z"/>
						<path fill="#FFFFFF" d="M251.5,94.4C251.2,94.7,251.9,94.1,251.5,94.4L251.5,94.4z"/>
						<path fill="#FFFFFF" d="M324.6,121.8C325,122,324,121.6,324.6,121.8L324.6,121.8z"/>
						<path fill="#FFFFFF" d="M266,125.1C266.1,123.9,265.1,126.1,266,125.1C266,124.8,266.1,125,266,125.1z"/>
						<path fill="#FFFFFF" d="M272.8,129.2c-0.3,0-0.3-0.2-0.5,0"/>
					</g>
				</g>
			</g>
		</g>
	</g>
</g>
</svg>
