<?xml version="1.0" encoding="utf-8"?>
<!-- Generator: Adobe Illustrator 18.0.0, SVG Export Plug-In . SVG Version: 6.00 Build 0)  -->
<!DOCTYPE svg PUBLIC "-//W3C//DTD SVG 1.1//EN" "http://www.w3.org/Graphics/SVG/1.1/DTD/svg11.dtd">
<svg version="1.1" id="Layer_1" xmlns="http://www.w3.org/2000/svg" xmlns:xlink="http://www.w3.org/1999/xlink" x="0px" y="0px"
	 viewBox="0 0 192 37.4" enable-background="new 0 0 192 37.4" xml:space="preserve">
<g>
	<g>
		<path fill="#0C7FAE" d="M184.6,23.3c-5.1-4,0.7-7.3,0.7-7.3s8.2-5.3,4.9-8.5C188.6,6,181,5.7,181,5.7H171
			c-0.5-2.4-1.2-4.3-2.2-4.9c-3.4-2-95.3,0.4-116.8,0.4C36.2,1.2,21-1.4,20.7,6.1c0,0.7,0,1.3-0.1,2C20,8,19.1,7.9,18.2,7.9h-6.5
			c-0.9,0-1.8,0.1-2.7,0.2C6.7,8.4,3,9,1.2,9.7c-4,1.6,5.3,7.4,5.3,7.4s7.1,4.7,0.3,9.9c-9.6,7.4-9.6,9,4.2,10.4
			c2.3,0.2,9.6,0,9.6,0s10,0.9,11.5-8c17.7,0,99.6-1,128.5-0.3c0.8,8.2,10.2,7.2,10.2,7.2s7.3,0,9.6,0
			C192.9,36.3,196.4,32.6,184.6,23.3z"/>
	</g>
</g>
<g>
	<g>
		<path fill="#FFFFFF" d="M43.2,8.1c-1.6,0-2.2,2.5-2.4,4.9c-0.2,2.6-0.4,5.1-0.8,5.1c-0.4,0-0.7-2.6-1.5-4.9c-0.9-2.5-1.4-3-2.7-3
			c-2.1,0-2.6,2-3.9,7.1c-0.2-0.8,0-5.9-0.8-8c-0.5-1.2-1.5-1.1-2.8-1.1c-0.9,0-1.1,0.5-0.9,1.8l0.7,8.1c0.3,3,1.7,3.7,3.1,3.7
			c2,0,2.9-0.2,3.6-2l1.6-4.3l0.9,2.9c1,3.2,1,3.5,2.4,3.5c5.2,0,5.1-4.2,5.1-10.8C44.9,8.2,44.2,8.1,43.2,8.1z M52.8,7.7
			c-4.1,0-6.2,2-6.2,7.3c0,3.3,1.2,7.3,5.5,7.3c2.9,0,6.3-2.1,6.3-6.7C58.4,11.8,57,7.7,52.8,7.7z M52.4,18.7
			c-2.5,0-2.7-2.9-2.7-3.8c0-2.7,0.9-4,2.9-4c2.2,0,2.6,2.4,2.6,4.5C55.1,16.8,54.4,18.7,52.4,18.7z M72.1,8.7
			c-0.9,0-0.2,6.7-1.4,8.2c-0.5-1.8-1.2-3.9-2-5.5c-1.2-2.3-2.9-3-4.2-2.9c-3.4,0.2-5.1,7.9-5.1,12.7c0,1.1,0.5,1.5,1.7,1.5
			c1.1,0,1.9-0.2,2.2-1.3c0.6-2.9,0.6-8.4,1.2-8.4c0.8,0,1.6,4.2,2.1,6.5c0.3,1.5,0.6,3.1,2.4,3.1c1.9,0,3-0.9,3.7-2.3
			c0.2-0.3-0.2,0.8-1,1.5c0.9-0.8,1.1-1.3,1.4-2.2c-0.1,0.7-0.4,1.1-0.6,1.5c0.6-0.7,3.4-5,2.2-11.5C74.6,8.7,73,8.7,72.1,8.7z
			 M81,8.5c-0.9,0-3,0.3-3.6,1.2c-0.5,0.8-1,8.8-0.4,9.9c-0.7,1.8,2.1,3.3,5.4,3c2.5-0.2,4-1.5,4.5-2.2c-0.6,0.5-0.8,0.7-1.2,0.9
			c0.3-0.1,0.9-0.5,1.2-1.2c0.2-0.5,0.5-1,0.6-1.3c0,0.3-0.1,0.6-0.2,0.8c0.5-0.9,0.7-2.2,0.7-3.4C88.1,10.4,85,8.5,81,8.5z
			 M81.8,19.1c-1,0-1.5,0-1.5-0.2c1-0.6,0.4-3.1,0.4-6c0-0.6,0.6-0.9,1.5-0.9c1.3,0,2.5,0.9,2.5,3.4C84.5,16.9,84.2,19.1,81.8,19.1z
			 M86.1,20.8c0.4-0.5,0.8-0.9,1-1.4C86.9,20,86.4,20.6,86.1,20.8z M94.3,19h-0.6c-0.4,0-0.4-0.3-0.4-0.4V16c0-0.2,0.2-0.4,0.4-0.4
			h1c2.1,0,2.4-0.8,2.4-1.4c0-0.7-0.4-1.4-2.4-1.4h-1c-0.2,0-0.4-0.1-0.4-0.4v-1.1c0-0.1,0-0.4,0.4-0.4h0.6c1.2,0,3.6,0,3.6-1.7
			c0-0.3-0.1-0.6-0.3-0.7c-1-0.7-2.9-0.6-3.9-0.6c-3.5,0-4.3,2-4.3,10.5c0,2.7,0.1,3.5,0.6,3.5c0.1,0,6.7,0.1,7.7-0.6
			c0.2-0.2,0.3-0.4,0.3-0.7C98.1,19,95.6,19,94.3,19z M104.6,8.3c-0.3,0-0.5,0.1-0.4,0.1C104.4,8.3,104.5,8.3,104.6,8.3z
			 M110.6,12.5c0-2.8-2.7-4.8-6-4.3c0.5-0.1,1.3-0.1,2,0.3c0.1,0-0.9-0.2-1.1-0.2c-0.1,0,0.2,0.1,0.1,0.1c-5.4-0.3-6,3.5-6,8.2v3.8
			c0,1.1,0,2.3,1.6,2.3c0.6,0,1.4-0.2,1.4-1.5v-3.1c0-0.4,0.1-0.8,0.2-0.7c0,0.2,0.2,0.5,0.2,0.4c0-0.1,0.2,0,0.3,0.4
			c0-0.3,0.3-0.3,0.4,0.1c0-0.1,0-0.5,0.1-0.4c0.1,0-0.1,0.5,1.4,0.8c0.5,0,1.6,1.3,1.8,2.4c0.3,1.3,0.5,1.5,1.6,1.5
			c1.1,0,1.9-0.6,1.9-1.3c0-2-1.4-3.7-2.9-5C109.2,16.1,110.6,14.5,110.6,12.5z M105.6,14.7c-1.2,0-1-0.9-2.1-0.9
			c-0.2,0-0.6,0.1-0.8,0.2c-0.2,0.2,0.2-2.3,2.4-2.3c1,0,1.7,0.5,1.7,1.4C106.9,14,106.2,14.7,105.6,14.7z M117.3,18.4
			c0-1.6,0-8.3-0.3-8.8c-0.2-0.4-0.3-0.6-2-0.6c-1.9,0-1.3,2.3-1.3,6.6c0,2-0.2,3.4-0.2,3.8c0,2.2,1,2.5,1,2.9
			c0.1-0.2,0.2-0.1,0.4,0.1c0-0.2,0.5,0,0.6,0.2c0.1-0.1,0.4,0,0.4,0.1c0.1-0.2,0.7-0.3,0.9-0.1c0-0.1,0.2-0.2,0.4-0.1
			c0-0.1,0.6,0,0.8,0c1.2,0,3.5,0.3,4.3-0.7c0.5-0.6,0.4-1.4,0.4-2.6C122.3,18.3,117.3,18.9,117.3,18.4z M133,8.5
			c-1.6-0.2-3.5-0.1-5.3,0.2c-0.6,0.1-0.9,0.6-1.1,1.1c-0.9,3-2.2,9.2-2.2,11.6c0,1.3,1,1.7,1.6,1.7c1.5,0,2.2-3,2.7-4.8h3
			c0.6,1.8,1.2,4.8,2.7,4.8c0.7,0,1.6-0.5,1.6-1.7c0-2.4-1.2-8.8-1.9-11.8C134,9.2,133.9,8.6,133,8.5z M131,15.8h-1.7
			c-0.1,0,0.7-3.4,0.9-3.8C130.4,12.4,131.1,15.8,131,15.8z M148.4,8.5c-1.4,0-1.8,0.4-1.8,1.3v5.9c-1.9-4.5-3.3-6.1-5-6.1
			c-4.2,0-4.3,7.8-4.3,10c0,1.6,0.4,3.4,2.1,3.4c1.5,0,2.5-1.2,2.5-2.6c-0.1,0.1-0.3,0.1-0.3-0.1c0-0.2-0.1-5.6,0-5.8l1.9,3.5
			c1.4,2.7,3.3,3.5,4.6,3.5c1.8,0,2.6-1.5,2.6-3.6V9.2C150.5,8.6,149.7,8.5,148.4,8.5z M165.9,14.8c-0.5-3.8-3.8-5-4.5-5.3
			c-0.6-0.2-3.8-1-5.7-1c-1.4,0-2.2,0.9-2.2,2.4v8.2c0,1.2,0.6,2.7,2.5,2.4c0.9-0.1,2.3-1.1,2.3-1c0,0.1-0.8,0.4-1.1,0.7
			c0.7-0.5,2.1-0.7,2.1-0.6s-1.4,0.6-1.1,0.6c0.3-0.1,4.2-0.7,5.9-2C164.5,18.8,166.3,17.6,165.9,14.8z M157.9,18.6v-5
			c0,0,2.7,0.2,2.9,1.8C161,17.2,159.2,18.2,157.9,18.6z"/>
	</g>
</g>
<g>
	<g>
		<g>
			<defs>
				<path id="SVGID_1_" d="M184.6,23.3c-5.1-4,0.7-7.3,0.7-7.3s8.2-5.3,4.9-8.5C188.6,6,181,5.7,181,5.7H171
					c-0.5-2.4-1.2-4.3-2.2-4.9c-3.4-2-95.3,0.4-116.8,0.4C36.2,1.2,21-1.4,20.7,6.1c0,0.7,0,1.3-0.1,2C20,8,19.1,7.9,18.2,7.9h-6.5
					c-0.9,0-1.8,0.1-2.7,0.2C6.7,8.4,3,9,1.2,9.7c-4,1.6,5.3,7.4,5.3,7.4s7.1,4.7,0.3,9.9c-9.6,7.4-9.6,9,4.2,10.4
					c2.3,0.2,9.6,0,9.6,0s10,0.9,11.5-8c17.7,0,99.6-1,128.5-0.3c0.8,8.2,10.2,7.2,10.2,7.2s7.3,0,9.6,0
					C192.9,36.3,196.4,32.6,184.6,23.3z"/>
			</defs>
			<clipPath id="SVGID_2_">
				<use xlink:href="#SVGID_1_"  overflow="visible"/>
			</clipPath>
			<g clip-path="url(#SVGID_2_)">
				<g>
					<path fill="#FFFFFF" d="M66.5,3.6c0-0.3-0.1-0.7-0.1-1c-0.1,0-0.1-0.1-0.2-0.1c-0.2,0.3-0.3,0.3-0.6,0.2c0.2,0.4-0.1,0.5,0,0.9
						c0.3,0,0.4,0.2,0.6,0.2C66.2,3.7,66.3,3.6,66.5,3.6z"/>
					<path fill="#FFFFFF" d="M55,3C55,3.4,55.3,3,55,3L55,3z"/>
					<path fill="#FFFFFF" d="M65.8,3.8C65.7,3.9,65.8,3.8,65.8,3.8L65.8,3.8z"/>
					<path fill="#FFFFFF" d="M54.4,7C55,7,55,6.3,54.5,6.3C54.5,6.6,54.2,6.8,54.4,7z"/>
					<path fill="#FFFFFF" d="M51.7,5.1c0.3,0.2,0,0.6,0.3,0.8c0.4,0,0.4-0.3,0.5-0.6c-0.3-0.1-0.4-0.3-0.7-0.4
						C51.8,5,51.8,5.1,51.7,5.1z"/>
					<path fill="#FFFFFF" d="M52.8,14.1c0-0.1,0.1-0.4-0.1-0.4C52.9,13.9,52.6,14.1,52.8,14.1z"/>
					<path fill="#FFFFFF" d="M51.8,16.2c0.3,0,0.3-0.1,0.4-0.3C52,15.8,51.7,16,51.8,16.2z"/>
					<path fill="#FFFFFF" d="M51.4,14.1c0.2,0,0-0.3,0-0.4C51.1,13.7,51.1,14.1,51.4,14.1z"/>
					<path fill="#FFFFFF" d="M50.2,5.3c-0.3,0-0.3,0.2-0.3,0.5C50.2,5.8,50.2,5.5,50.2,5.3z"/>
					<path fill="#FFFFFF" d="M49.9,6.7c0.2-0.1,0.4-0.1,0.3-0.4C50,6.2,49.7,6.5,49.9,6.7z"/>
					<path fill="#FFFFFF" d="M49.7,3.7C49.5,3.6,49.4,4,49.6,4C49.6,3.9,49.8,4,49.7,3.7z"/>
					<path fill="#FFFFFF" d="M51.3,18.1c0.1-0.1,0.2-0.4,0-0.6c-0.1,0-0.2,0-0.2,0C51.1,17.7,51.1,18.1,51.3,18.1z"/>
					<path fill="#FFFFFF" d="M50.2,14.6c0.1,0.1,0.4,0,0.3-0.2C50.3,14.4,50.2,14.5,50.2,14.6z"/>
					<path fill="#FFFFFF" d="M46.7,7.9C46.9,7.5,47.2,8,47.3,8C48.1,7.4,46.5,6.5,46.7,7.9z"/>
					<path fill="#FFFFFF" d="M46.6,4.6c0-0.1,0.2-0.1,0.1-0.3C46.5,4.3,46.4,4.6,46.6,4.6z"/>
					<path fill="#FFFFFF" d="M46.6,12.4c-0.1,0.2-0.2,0.2-0.1,0.5"/>
					<path fill="#FFFFFF" d="M46.2,11.7c0.3,0,0.3-0.4,0.2-0.6C46.1,11.3,46.1,11.5,46.2,11.7z"/>
					<path fill="#FFFFFF" d="M45,7.8"/>
					<path fill="#FFFFFF" d="M43.9,4.5c0,0.2,0.2,0.1,0,0.3c0.3,0,0.5-0.1,0.4-0.4C44.1,4.4,44,4.5,43.9,4.5z"/>
					<path fill="#FFFFFF" d="M44,6.8c0.3,0,0.4-0.2,0.3-0.4c-0.1-0.1-0.4-0.1-0.5,0.1C43.9,6.7,43.9,6.8,44,6.8z"/>
					<path fill="#FFFFFF" d="M82.9,1.1c-0.3,0.2-0.8,0-0.8,0.5c0.2-0.1,0.3,0.1,0.6,0c0.1,0.1,0.1,0.5,0.3,0.5
						C83.2,1.9,83.1,1.3,82.9,1.1z"/>
					<path fill="#FFFFFF" d="M42.3,6.2c0.2,0,0.2,0.3,0.4,0.3c0.2-0.3-0.4-0.5,0-0.7c0.5,0,0.5,0.1,1,0.2
						C44.1,4.8,42.1,5.1,42.3,6.2z"/>
					<path fill="#FFFFFF" d="M42.7,7c0-0.1,0.1-0.2,0-0.3C42.5,6.7,42.5,7,42.7,7z"/>
					<path fill="#FFFFFF" d="M52.1,11.9c0,0.2,0,0.4,0.2,0.4C52.4,12.1,52.5,11.9,52.1,11.9C52.2,11.8,52.2,11.9,52.1,11.9z"/>
					<path fill="#FFFFFF" d="M41.7,25.1c-0.2,0-0.3,0.1-0.4,0.1C41.4,25.6,41.9,25.6,41.7,25.1z"/>
					<path fill="#FFFFFF" d="M39.2,9.4c0-0.1,0-0.2,0-0.3c-0.1,0-0.1,0-0.2,0C39.1,9.3,39,9.5,39.2,9.4z"/>
					<path fill="#FFFFFF" d="M39.6,21.9"/>
					<path fill="#FFFFFF" d="M39.4,23.3c0,0.2-0.2,0.2-0.1,0.4c0.2,0.1,0.3,0.3,0.6,0.3C40,23.7,39.9,23.2,39.4,23.3z"/>
					<path fill="#FFFFFF" d="M38.9,22.9c0.3,0,0.3-0.2,0.3-0.5C38.8,22.3,38.8,22.6,38.9,22.9z"/>
					<path fill="#FFFFFF" d="M46.1,0.8C46.1,0.8,46,0.8,46.1,0.8C45.6,0.7,46.5,1.2,46.1,0.8z"/>
					<path fill="#FFFFFF" d="M37.4,20.6c0-0.1,0.1-0.4-0.1-0.4C37.3,20.3,37.2,20.6,37.4,20.6z"/>
					<path fill="#FFFFFF" d="M44,0.8c0.1,0.2,0.3,0.4,0.5,0.5c0.1-0.1,0.1-0.3,0-0.5C44.1,1,44.1,0.6,44,0.8z"/>
					<path fill="#FFFFFF" d="M34.6,10.4c0.3,0,0.2-0.1,0.2-0.3C34.6,10,34.5,10.2,34.6,10.4z"/>
					<path fill="#FFFFFF" d="M33.2,6.1C33,6.1,33,6.2,33,6.4C33.3,6.5,33.2,6.3,33.2,6.1z"/>
					<path fill="#FFFFFF" d="M35,21.6c-0.2,0-0.2,0.1-0.3,0.1c0,0.3,0.1,0.4,0.4,0.4C35,21.9,35.2,21.8,35,21.6z"/>
					<path fill="#FFFFFF" d="M32.3,9.9c0-0.1,0.1-0.1,0-0.2C32.2,9.5,32.2,9.9,32.3,9.9z"/>
					<path fill="#FFFFFF" d="M33.9,23.7C33.9,24.1,34.2,23.7,33.9,23.7L33.9,23.7z"/>
					<path fill="#FFFFFF" d="M31.6,6.9c-0.2-0.1-0.2,0.4,0,0.3C31.5,7.1,31.6,7,31.6,6.9z"/>
					<path fill="#FFFFFF" d="M32,11.5c-0.2,0-0.2,0.2-0.2,0.4C32,11.9,32,11.7,32,11.5z"/>
					<path fill="#FFFFFF" d="M69.6,1.8C69.4,2,69.9,1.8,69.6,1.8L69.6,1.8z"/>
					<path fill="#FFFFFF" d="M29.3,7.2c-0.3,0-0.4,0.5-0.1,0.5C29.2,7.5,29.4,7.4,29.3,7.2z"/>
					<path fill="#FFFFFF" d="M27.3,12.6"/>
					<path fill="#FFFFFF" d="M66.2,5.3c0.2,0.1,0.2-0.3,0-0.2C66.2,5.1,66.2,5.2,66.2,5.3C66.2,5.2,66.2,5.2,66.2,5.3z"/>
					<path fill="#FFFFFF" d="M27.3,11.3c0.3,0,0.2-0.4,0-0.4C27.3,11,27.3,11.2,27.3,11.3z"/>
					<path fill="#FFFFFF" d="M27.5,16.7C27.2,16.9,27.7,16.8,27.5,16.7L27.5,16.7z"/>
					<path fill="#FFFFFF" d="M65,1.7c0-0.3-0.3-0.2-0.4,0C64.8,1.7,64.8,1.8,65,1.7z"/>
					<path fill="#FFFFFF" d="M67,22.9c0.1,0,0.2,0,0.2,0c0-0.2-0.1-0.2-0.3-0.2C67,22.7,67,22.8,67,22.9z"/>
					<path fill="#FFFFFF" d="M67.6,28C67.5,28.3,67.7,28,67.6,28L67.6,28z"/>
					<path fill="#FFFFFF" d="M27.2,21c0-0.1,0.2-0.3,0-0.3C27.2,20.9,27,21.1,27.2,21z"/>
					<path fill="#FFFFFF" d="M25.4,8.3c-0.3,0-0.2,0.2-0.2,0.4C25.5,8.7,25.6,8.4,25.4,8.3z"/>
					<path fill="#FFFFFF" d="M67.1,26.8C66.9,27.1,67.4,27,67.1,26.8L67.1,26.8z"/>
					<path fill="#FFFFFF" d="M27.5,26.5c-0.1,0-0.1,0-0.2,0C27.2,26.8,27.5,26.8,27.5,26.5z"/>
					<path fill="#FFFFFF" d="M26.6,26.4c0.2,0,0.2-0.1,0.2-0.3C26.6,26.1,26.5,26.2,26.6,26.4z"/>
					<path fill="#FFFFFF" d="M25.5,18.4c0-0.1,0.2-0.3,0-0.3C25.4,18.1,25.3,18.4,25.5,18.4z"/>
					<path fill="#FFFFFF" d="M62.7,2.7C62.4,2.5,62.9,2.9,62.7,2.7L62.7,2.7z"/>
					<path fill="#FFFFFF" d="M63.2,7.4C63.2,7.4,63.3,7.3,63.2,7.4L63.2,7.4z"/>
					<path fill="#FFFFFF" d="M63,6C62.8,6.3,63.3,6.1,63,6L63,6z"/>
					<path fill="#FFFFFF" d="M61.7,1c0.2,0.1,0.4,0.3,0.6,0.2C62.7,0.7,61.7,0.5,61.7,1z"/>
					<path fill="#FFFFFF" d="M62.5,2.2L62.5,2.2C61.9,2.1,62.9,2.6,62.5,2.2z"/>
					<path fill="#FFFFFF" d="M64.8,24c0-0.1,0-0.3-0.1-0.4C64.4,23.5,64.5,24.1,64.8,24z"/>
					<path fill="#FFFFFF" d="M24.7,20.9c-0.2,0-0.2,0.1-0.2,0.3C24.7,21.2,24.9,21,24.7,20.9z"/>
					<path fill="#FFFFFF" d="M22.8,11.8c0,0.1,0,0.2,0,0.2C22.9,12,22.9,11.9,22.8,11.8C22.9,11.8,22.9,11.8,22.8,11.8z"/>
					<path fill="#FFFFFF" d="M63.2,23.2c0-0.2,0-0.4-0.1-0.5c-0.1,0-0.2,0-0.3,0.1C62.9,23.1,62.9,23.3,63.2,23.2z"/>
					<path fill="#FFFFFF" d="M63,25.9c0-0.1,0-0.1,0-0.2c-0.1,0-0.1,0-0.2,0c0,0.1,0,0.1,0,0.2C62.9,25.9,63,25.9,63,25.9z"/>
					<path fill="#FFFFFF" d="M62.7,24.2c-0.2,0-0.2,0.1-0.2,0.3C62.8,24.6,62.8,24.4,62.7,24.2z"/>
					<path fill="#FFFFFF" d="M59.5,9.5"/>
					<path fill="#FFFFFF" d="M61.8,28c0,0.2,0.1,0.3,0.3,0.3C62.2,28,62.1,27.9,61.8,28z"/>
					<path fill="#FFFFFF" d="M20.1,12.8c0,0.4,0.3,0.3,0.5,0.4c0-0.2,0.1-0.2,0.1-0.4C20.5,12.8,20.3,12.6,20.1,12.8z"/>
					<path fill="#FFFFFF" d="M20.7,19c0.1,0,0.2,0,0.2,0c0-0.1,0-0.2,0-0.2C20.8,18.8,20.7,18.8,20.7,19z"/>
					<path fill="#FFFFFF" d="M19.1,15.4c0.2,0,0.2-0.1,0.2-0.3C19.1,15.1,19,15.2,19.1,15.4z"/>
					<path fill="#FFFFFF" d="M20.3,22.8c0-0.1,0-0.2,0-0.3C19.9,22.4,19.9,23,20.3,22.8z"/>
					<path fill="#FFFFFF" d="M19.4,17.1c0.2-0.4-0.2-0.8-0.6-0.7C18.6,16.7,18.9,17.3,19.4,17.1z"/>
					<path fill="#FFFFFF" d="M57.2,4.2c0-0.1,0-0.1,0-0.2c-0.1,0-0.1,0-0.2,0c0,0.1,0,0.1,0,0.2C57.1,4.2,57.2,4.2,57.2,4.2z"/>
					<path fill="#FFFFFF" d="M59.3,20.2c-0.1,0-0.1,0-0.2,0c0,0.1,0,0.2,0,0.2C59.3,20.4,59.3,20.3,59.3,20.2z"/>
					<path fill="#FFFFFF" d="M18.4,13.5c0.4,0,0.3-0.5-0.1-0.5C18.2,13.2,18.2,13.4,18.4,13.5z"/>
					<path fill="#FFFFFF" d="M18,10.1C18.4,8.5,16.2,10.1,18,10.1L18,10.1z"/>
					<path fill="#FFFFFF" d="M17.7,8.1c0-0.2-0.2-0.2-0.2-0.4c-0.1,0-0.2,0-0.3,0C16.9,8.1,17.5,8.4,17.7,8.1z"/>
					<path fill="#FFFFFF" d="M57.6,21.6c0.4-0.3,0.5,0.2,0.8,0.3C59,21.3,57.5,20.7,57.6,21.6z"/>
					<path fill="#FFFFFF" d="M17.6,13.8c0-0.2,0-0.4-0.1-0.5c-0.2,0-0.3,0.1-0.5,0.1C17.1,13.8,17.3,13.8,17.6,13.8z"/>
					<path fill="#FFFFFF" d="M18,21.3c0.1-0.3,0.2,0.2,0.5,0c0.1-0.2,0-0.3-0.1-0.5C18,20.9,17.8,21.2,18,21.3z"/>
					<path fill="#FFFFFF" d="M16.7,8.8C16.9,8.3,16.4,8.5,16.7,8.8L16.7,8.8z"/>
					<path fill="#FFFFFF" d="M16.4,9.6c0.2,0,0.3-0.2,0.4-0.4C16.4,9.2,16.5,9.4,16.4,9.6z"/>
					<path fill="#FFFFFF" d="M16.9,14.9c-0.2-0.4,0-0.2,0.3-0.5c0-0.4-0.4-0.3-0.6-0.5C16.5,14.4,16.5,14.7,16.9,14.9z"/>
					<path fill="#FFFFFF" d="M16.2,9.7c0-0.1,0.3-0.4,0-0.4C16.1,9.4,15.9,9.5,16.2,9.7z"/>
					<path fill="#FFFFFF" d="M16.5,12C16.2,12.1,16.8,12.1,16.5,12L16.5,12z"/>
					<path fill="#FFFFFF" d="M17.1,16.2C17,16.6,17.3,16.2,17.1,16.2L17.1,16.2z"/>
					<path fill="#FFFFFF" d="M17.7,22.8c0.4-0.9-1.2-0.9-1,0C17.1,22.6,17.3,22.8,17.7,22.8z"/>
					<path fill="#FFFFFF" d="M15.9,12.1c0,0.1,0,0.2,0,0.3C16.3,12.4,16.2,12,15.9,12.1z"/>
					<path fill="#FFFFFF" d="M17.1,20.9c0.1,0,0.2,0,0.2,0c0-0.1,0-0.2,0-0.2C17.1,20.7,17.1,20.8,17.1,20.9z"/>
					<path fill="#FFFFFF" d="M54.8,14.5C55,14.2,54.5,14.3,54.8,14.5L54.8,14.5z"/>
					<path fill="#FFFFFF" d="M14.1,9.7c-0.2,0-0.2,0.1-0.2,0.3C14.1,10,14.1,9.9,14.1,9.7z"/>
					<path fill="#FFFFFF" d="M53.8,14.4c0.2,0,0.1,0.2,0.3,0.1c0-0.1,0-0.2,0-0.2C53.9,14.3,53.8,14.3,53.8,14.4z"/>
					<path fill="#FFFFFF" d="M15,20.5c-0.2-0.1-0.4,0.1-0.4,0.3C14.9,20.7,15.1,20.7,15,20.5z"/>
					<path fill="#FFFFFF" d="M51.8,4.1c0.2,0,0.2,0.1,0.3,0.1c0-0.2,0.3-0.2,0.3-0.4C52.1,3.6,51.7,3.8,51.8,4.1z"/>
					<path fill="#FFFFFF" d="M15.5,25.7c-0.3-0.1-0.3,0.4,0,0.3C15.6,26,15.5,25.8,15.5,25.7z"/>
					<path fill="#FFFFFF" d="M50.2,0.8C50.2,1.1,50.4,0.8,50.2,0.8L50.2,0.8z"/>
					<path fill="#FFFFFF" d="M51.1,11.6c0.2,0,0.1-0.2,0.2-0.3C51.1,11.4,51.1,11.5,51.1,11.6z"/>
					<path fill="#FFFFFF" d="M51.9,23.5c0.3,0,0.4,0.4,0.7,0.5C52.9,23.4,52,23.1,51.9,23.5z"/>
					<path fill="#FFFFFF" d="M51.1,16.4c0.2,0,0.1,0.2,0.3,0.1c0-0.1,0-0.2,0-0.3C51.2,16.2,51.1,16.3,51.1,16.4z"/>
					<path fill="#FFFFFF" d="M48.9,1.9c0.2,0,0.4,0,0.4-0.3C49.1,1.5,48.9,1.7,48.9,1.9z"/>
					<path fill="#FFFFFF" d="M50.7,13.9C50.6,14,50.7,13.9,50.7,13.9L50.7,13.9z"/>
					<path fill="#FFFFFF" d="M51.1,25.5C51.1,25.4,51.1,25.5,51.1,25.5L51.1,25.5z"/>
					<path fill="#FFFFFF" d="M47,4.9c0.3,0,0.4,0.3,0.7,0.3C48.3,4.5,46.9,3.9,47,4.9z"/>
					<path fill="#FFFFFF" d="M50.3,27.2c0.1,0,0.2,0.2,0.2,0.3C51,27.4,50.4,26.6,50.3,27.2z"/>
					<path fill="#FFFFFF" d="M47.4,6.5c-0.2-0.1-0.2,0.3,0,0.2C47.3,6.7,47.4,6.6,47.4,6.5z"/>
					<path fill="#FFFFFF" d="M47.2,6.9C46.7,6.9,47.2,7.3,47.2,6.9L47.2,6.9z"/>
					<path fill="#FFFFFF" d="M49.3,27.5c0,0.2,0.1,0.4,0.3,0.4C49.6,27.6,49.5,27.4,49.3,27.5z"/>
					<path fill="#FFFFFF" d="M47.9,26.7c0.3-0.1,0.4,0,0.6,0.1C48.7,26.4,47.9,26.3,47.9,26.7z"/>
					<path fill="#FFFFFF" d="M46.4,12.7c0-0.1,0.1,0,0.2,0c0-0.1,0.1-0.1,0-0.2C46.4,12.4,46.2,12.6,46.4,12.7z"/>
					<path fill="#FFFFFF" d="M44.8,1.3c0.3-0.5-0.6-0.7-0.6-0.2C44.6,0.9,44.6,1.3,44.8,1.3z"/>
					<path fill="#FFFFFF" d="M46.3,15.3c0,0.1,0,0.1,0,0.2c0.1,0,0.1,0,0.2,0c0-0.1,0-0.1,0-0.2C46.4,15.3,46.3,15.3,46.3,15.3z"/>
					<path fill="#FFFFFF" d="M45.9,15.2C45.7,15.5,46.2,15.3,45.9,15.2L45.9,15.2z"/>
					<path fill="#FFFFFF" d="M46.5,27.7c0,0.2,0.2,0.7,0.4,0.9C47.1,28.1,46.9,27.7,46.5,27.7z"/>
					<path fill="#FFFFFF" d="M43.4,5.2c0-0.1,0-0.1,0-0.2c-0.1,0-0.1,0-0.2,0c0,0.1,0,0.1,0,0.2C43.3,5.3,43.3,5.3,43.4,5.2z"/>
					<path fill="#FFFFFF" d="M42.2,3.2c0.2-0.1,0.4-0.2,0.5,0c0,0.3-0.1,0.5,0.2,0.5C43.2,2.9,42.3,2.3,42.2,3.2z"/>
					<path fill="#FFFFFF" d="M45.9,26.2c-0.2-0.1-0.1,0.1-0.4,0.1C45.5,26.7,46,26.6,45.9,26.2z"/>
					<path fill="#FFFFFF" d="M45.3,23.9C45.3,24.4,45.5,24,45.3,23.9L45.3,23.9z"/>
					<path fill="#FFFFFF" d="M44.3,23.5c-0.1,0-0.2,0-0.2,0.1S44.4,23.8,44.3,23.5z"/>
					<path fill="#FFFFFF" d="M43.9,22.7c0.8-0.2-0.4-0.9-0.4-0.2C43.7,22.4,43.9,22.3,43.9,22.7z"/>
					<path fill="#FFFFFF" d="M41.5,2.9c0,0.1,0,0.1,0,0.2c0.1,0,0.1,0,0.2,0c0-0.1,0-0.1,0-0.2C41.6,2.9,41.5,2.9,41.5,2.9z"/>
					<path fill="#FFFFFF" d="M43.8,21.6c0,0.1,0,0.1,0,0.2c0.1,0,0.1,0,0.2,0c0-0.1,0-0.1,0-0.2C43.9,21.6,43.9,21.6,43.8,21.6z"/>
					<path fill="#FFFFFF" d="M43.3,21.2c0.2,0.1,0.3-0.3,0.1-0.3C43.4,21,43.2,21,43.3,21.2z"/>
					<path fill="#FFFFFF" d="M40.9,1.2c0-0.2,0.1-0.3-0.1-0.4C40.5,0.8,40.6,1.4,40.9,1.2z"/>
					<path fill="#FFFFFF" d="M43.2,27.1c0.1,0,0.2,0.2,0.3,0.2c0.2-0.1,0.1-0.5-0.1-0.6C43.3,26.8,43.2,26.9,43.2,27.1z"/>
					<path fill="#FFFFFF" d="M40.3,7.5c0-0.2,0.2-0.3,0.2-0.5c-0.3-0.2-0.8-0.1-0.7,0.3C39.9,7.5,40.2,7.2,40.3,7.5z"/>
					<path fill="#FFFFFF" d="M42.4,25.3c0.7-0.9-1.2-1.1-1.1-0.1C41.7,24.6,42.3,25,42.4,25.3z"/>
					<path fill="#FFFFFF" d="M39.9,8.7C40.4,8.7,39.8,8.3,39.9,8.7L39.9,8.7z"/>
					<path fill="#FFFFFF" d="M39.1,1.5c-0.3,0.1-0.5,0.2-0.6,0.4c0.3,0,0.4,0,0.6,0.2C39.3,1.9,39.2,1.6,39.1,1.5z"/>
					<path fill="#FFFFFF" d="M39.5,6.7c0.2,0,0.3-0.3,0-0.3C39.5,6.5,39.4,6.5,39.5,6.7z"/>
					<path fill="#FFFFFF" d="M38.4,1c0,0.2,0.3,0.1,0.4,0.2c0-0.1,0-0.2,0-0.3C38.6,0.9,38.7,1,38.4,1z"/>
					<path fill="#FFFFFF" d="M39.9,11.1c0-0.1,0-0.2,0-0.3c-0.2,0-0.4,0-0.4,0.2C39.7,10.9,39.7,11.2,39.9,11.1z"/>
					<path fill="#FFFFFF" d="M41,26.5c-0.1,0.2-0.2,0.4-0.1,0.6c0.5,0,0.3,0.5,0.6,0.6C41.8,27.2,41.9,26.3,41,26.5z"/>
					<path fill="#FFFFFF" d="M39.4,11.1C39.4,11.1,39.4,11,39.4,11.1L39.4,11.1z"/>
					<path fill="#FFFFFF" d="M39.4,13.1c0.3-0.4,0.2,0.4,0.5,0.4c-0.2-0.4,0.1-0.3,0-0.7C39.6,12.6,39.1,12.8,39.4,13.1z"/>
					<path fill="#FFFFFF" d="M39.9,16C39.7,16.2,40.2,16.1,39.9,16L39.9,16z"/>
					<path fill="#FFFFFF" d="M39.3,14.8c0.2,0,0.2,0.1,0.4,0.1C39.7,14.6,39.3,14.5,39.3,14.8z"/>
					<path fill="#FFFFFF" d="M39.4,15.4c0.1,0,0.1,0.1,0.2,0c0-0.1,0-0.2-0.1-0.2C39.6,15.3,39.4,15.3,39.4,15.4z"/>
					<path fill="#FFFFFF" d="M39.9,18.3L39.9,18.3"/>
					<path fill="#FFFFFF" d="M37.8,3.1c-0.1,0-0.1,0-0.2,0"/>
					<path fill="#FFFFFF" d="M38.8,13.2c0,0.1,0,0.1,0,0.2c0.1,0,0.1,0,0.2,0c0-0.1,0-0.1,0-0.2C38.9,13.2,38.8,13.2,38.8,13.2z"/>
					<path fill="#FFFFFF" d="M39,16.2c0,0.2,0.2,0.2,0.4,0.3c0-0.1,0-0.2,0-0.3C39.2,16.2,39.1,16.2,39,16.2z"/>
					<path fill="#FFFFFF" d="M36.8,6.1c0-0.1,0-0.2,0-0.3c-0.2,0-0.6,0.2-0.4,0.3C36.5,5.8,36.6,6.1,36.8,6.1z"/>
					<path fill="#FFFFFF" d="M36.2,8.1c0.3-0.5-0.4-1-1-1c0.1,0.1-0.2,0.4,0.1,0.4C35.6,7.3,36,7.8,36.2,8.1z"/>
					<path fill="#FFFFFF" d="M34.7,0.8c-0.4-0.1-0.2,0.5,0.1,0.4C34.7,1.1,34.7,0.9,34.7,0.8z"/>
					<path fill="#FFFFFF" d="M36.6,17.1C36.5,17.1,36.6,17,36.6,17.1L36.6,17.1z"/>
					<path fill="#FFFFFF" d="M35.2,7.6C35.2,7.6,35.2,7.7,35.2,7.6c-0.1,0.2-0.1,0.2,0,0.3C35.3,7.9,35.3,7.5,35.2,7.6z"/>
					<path fill="#FFFFFF" d="M34.5,4.7C34.5,5,34.7,4.7,34.5,4.7L34.5,4.7z"/>
					<path fill="#FFFFFF" d="M36.7,21.7c0-0.1,0.1-0.2,0-0.3C36.5,21.3,36.5,21.7,36.7,21.7z"/>
					<path fill="#FFFFFF" d="M35.2,10c0-0.2-0.1-0.2-0.1-0.4c-0.2,0-0.3,0.1-0.3,0.3C35,9.7,34.9,10.1,35.2,10z"/>
					<path fill="#FFFFFF" d="M34.3,4.7C34.3,4.7,34.4,4.6,34.3,4.7L34.3,4.7z"/>
					<path fill="#FFFFFF" d="M36.7,24.8C36.7,24.8,36.7,24.9,36.7,24.8c-0.1,0.2-0.1,0.2,0,0.3C36.9,25.1,36.9,24.7,36.7,24.8z"/>
					<path fill="#FFFFFF" d="M34.4,7.5C34.4,7.6,34.5,7.5,34.4,7.5L34.4,7.5z"/>
					<path fill="#FFFFFF" d="M36,20.9c0.1,0,0.1,0,0.2,0C36.4,20.7,35.8,20.5,36,20.9z"/>
					<path fill="#FFFFFF" d="M35.2,21.8c0.4,0,0.5,0.4,0.8,0.4c1.1-1.2-1.7-1.4-1.2-0.1C35.2,22.1,35,21.7,35.2,21.8z"/>
					<path fill="#FFFFFF" d="M35.6,20.1C35.4,20.4,35.9,20.2,35.6,20.1L35.6,20.1z"/>
					<path fill="#FFFFFF" d="M36.7,28c0-0.1,0-0.3-0.1-0.4c-0.3,0-0.3,0.1-0.4,0.3C36.5,27.8,36.5,27.9,36.7,28z"/>
					<path fill="#FFFFFF" d="M35.8,26.9c0,0.4,0.3,0.4,0.5,0.4C36.5,27,36.2,26.7,35.8,26.9z"/>
					<path fill="#FFFFFF" d="M33.1,4.1c-0.2,0-0.2,0.1-0.2,0.3C33,4.4,33.1,4.3,33.1,4.1z"/>
					<path fill="#FFFFFF" d="M32.9,10.8c0-0.2,0.2-0.2,0.4-0.3c0.2,0.2,0.4,0.3,0.5,0.5C34.3,10.1,32.6,10.1,32.9,10.8z"/>
					<path fill="#FFFFFF" d="M32.6,3.1c-0.2-0.1-0.3,0-0.4,0.2c0.1,0,0.2,0.1,0.3,0C32.6,3.2,32.7,3.2,32.6,3.1z"/>
					<path fill="#FFFFFF" d="M32.6,3.8c-0.1,0-0.1-0.1-0.2,0C32.3,4,32.5,4,32.6,4.1C32.6,3.9,32.6,3.9,32.6,3.8z"/>
					<path fill="#FFFFFF" d="M33.2,8.8C33,9,33.5,8.9,33.2,8.8L33.2,8.8z"/>
					<path fill="#FFFFFF" d="M32.6,4.6C32.5,4.7,32.6,4.6,32.6,4.6L32.6,4.6z"/>
					<path fill="#FFFFFF" d="M34.6,26.7C34.7,26.6,34.6,26.7,34.6,26.7L34.6,26.7z"/>
					<path fill="#FFFFFF" d="M32.3,11.8c0-0.1,0.1-0.1,0-0.2C32.2,11.5,32.2,11.9,32.3,11.8z"/>
					<path fill="#FFFFFF" d="M33.6,24.1c0.1-0.2,0.3-0.4,0.1-0.6c-0.3,0-0.4,0.2-0.3,0.4C33.7,23.7,33.3,23.9,33.6,24.1z"/>
					<path fill="#FFFFFF" d="M30,1.1c0,0.1,0,0.1,0,0.2c0.1,0,0.1,0,0.2,0c0-0.1,0-0.1,0-0.2C30,1.1,30,1.1,30,1.1z"/>
					<path fill="#FFFFFF" d="M30.2,5.3"/>
					<path fill="#FFFFFF" d="M30.4,7.6L30.4,7.6C30,7.5,30.9,7.9,30.4,7.6z"/>
					<path fill="#FFFFFF" d="M29.4,6.2"/>
					<path fill="#FFFFFF" d="M30.8,18.8C30.8,18.8,30.8,18.7,30.8,18.8L30.8,18.8z"/>
					<path fill="#FFFFFF" d="M28.7,4.7c0,0.2,0.1,0.3,0.2,0.3C28.9,4.8,28.8,4.7,28.7,4.7z"/>
					<path fill="#FFFFFF" d="M27.2,7.2c0,0.1,0,0.1,0,0.2c0.1,0,0.1,0,0.2,0c0-0.1,0-0.1,0-0.2C27.3,7.2,27.2,7.2,27.2,7.2z"/>
					<path fill="#FFFFFF" d="M29.2,22.4c-0.4,0-0.4,0.2-0.5,0.4c0.3-0.1,0.2-0.1,0.6-0.1C29.2,22.5,29.2,22.4,29.2,22.4z"/>
					<path fill="#FFFFFF" d="M27.1,11.5c-0.2,0-0.3,0.1-0.2,0.3C27.1,11.7,27.2,11.6,27.1,11.5z"/>
					<path fill="#FFFFFF" d="M27.1,13.7L27.1,13.7L27.1,13.7z"/>
					<path fill="#FFFFFF" d="M26.9,14.2c-0.3,0-0.3,0.1-0.3,0.4C26.9,14.5,27,14.4,26.9,14.2z"/>
					<path fill="#FFFFFF" d="M27.5,27.1c0.1-0.1,0.1-0.3-0.1-0.4c-0.2,0.1-0.4,0.1-0.4,0.4C27.3,26.9,27.3,27.1,27.5,27.1z"/>
					<path fill="#FFFFFF" d="M25.3,12.1C25.3,12.5,25.6,12.1,25.3,12.1L25.3,12.1z"/>
					<path fill="#FFFFFF" d="M26.9,25.7c-0.2,0-0.2,0.1-0.2,0.3C26.9,26,26.9,25.9,26.9,25.7z"/>
					<path fill="#FFFFFF" d="M25.9,18.6c-0.3,0-0.2,0.1-0.2,0.3C25.9,18.9,25.8,18.6,25.9,18.6z"/>
					<path fill="#FFFFFF" d="M26.4,25.1C26.8,25.1,26.2,24.6,26.4,25.1L26.4,25.1z"/>
					<path fill="#FFFFFF" d="M22.5,5.8c0.2,0.1,0.2-0.1,0.5-0.1C22.9,5.9,23,6,23,6.1c0.4-0.1,0.6,0,0.8,0.1
						C24.2,5.6,22.5,5,22.5,5.8z"/>
					<path fill="#FFFFFF" d="M27.1,31.4c0-0.1,0-0.2,0-0.2c-0.1-0.1-0.6-0.1-0.5,0.2C26.8,31.3,26.9,31.5,27.1,31.4z"/>
					<path fill="#FFFFFF" d="M32.4,0.7c-0.2,0.1-0.4,0.1-0.3,0.4C32.4,1.2,32.5,1,32.4,0.7z"/>
					<path fill="#FFFFFF" d="M25.3,18.9C25.2,18.8,25,19,25,19.2C25.2,19.2,25.3,19.1,25.3,18.9z"/>
					<path fill="#FFFFFF" d="M26.5,27.8c-0.1,0-0.1,0-0.2,0c0,0.1,0,0.4,0.2,0.3C26.5,28,26.5,27.9,26.5,27.8z"/>
					<path fill="#FFFFFF" d="M26.1,32.2C26.1,32.2,26.1,32.3,26.1,32.2L26.1,32.2z"/>
					<path fill="#FFFFFF" d="M24.3,21.8C24.3,22.1,24.5,21.8,24.3,21.8L24.3,21.8z"/>
					<path fill="#FFFFFF" d="M22.7,11.4"/>
					<path fill="#FFFFFF" d="M24.8,27.8C24.7,28,25,27.8,24.8,27.8L24.8,27.8z"/>
					<path fill="#FFFFFF" d="M24.6,32.8c0,0.1,0,0.1,0,0.2c0.1,0,0.1,0,0.2,0c0-0.1,0-0.1,0-0.2C24.7,32.8,24.6,32.8,24.6,32.8z"/>
					<path fill="#FFFFFF" d="M24.8,34.6"/>
					<path fill="#FFFFFF" d="M21.3,8.9c-0.2,0-0.3,0.1-0.2,0.3C21.3,9.2,21.3,9.1,21.3,8.9z"/>
					<path fill="#FFFFFF" d="M22.6,25.1c0.2,0,0.2-0.1,0.2-0.3C22.6,24.8,22.6,24.9,22.6,25.1z"/>
					<path fill="#FFFFFF" d="M20.3,7.7c0-0.1-0.1-0.2-0.2-0.2C20.1,7.7,20.1,7.8,20.3,7.7z"/>
					<path fill="#FFFFFF" d="M22.5,34.5c-0.1,0-0.2,0-0.2,0C22.2,34.7,22.6,34.7,22.5,34.5z"/>
					<path fill="#FFFFFF" d="M27.6,1.4c-0.2-0.9-1.4,0.1-1,0.6C26.7,1.5,27.3,1.5,27.6,1.4z"/>
					<path fill="#FFFFFF" d="M20.4,19.6C20.2,19.8,20.6,19.7,20.4,19.6L20.4,19.6z"/>
					<path fill="#FFFFFF" d="M20,23.4C19.8,23.7,20.3,23.5,20,23.4L20,23.4z"/>
					<path fill="#FFFFFF" d="M19.3,18.8C18.7,19.1,19.7,19.3,19.3,18.8L19.3,18.8z"/>
					<path fill="#FFFFFF" d="M19,16.8c-0.1-0.2-0.2-0.3-0.4-0.3c0,0.1-0.1,0.1,0,0.2C18.8,16.7,18.8,16.9,19,16.8
						C18.9,16.9,18.9,16.8,19,16.8z"/>
					<path fill="#FFFFFF" d="M18.6,25.5c-0.1,0-0.2,0-0.3,0C18.2,25.9,18.7,25.8,18.6,25.5z"/>
					<path fill="#FFFFFF" d="M19,29.7c0-0.1,0-0.1,0-0.2c-0.1,0-0.1,0-0.2,0c0,0.1,0,0.1,0,0.2C18.9,29.7,19,29.7,19,29.7z"/>
					<path fill="#FFFFFF" d="M18.4,30.4C18.2,30.6,18.7,30.5,18.4,30.4L18.4,30.4z"/>
					<path fill="#FFFFFF" d="M17.5,24.5c-0.4,0.1-0.3,0.1-0.6,0.1c-0.2,0.2,0.2,0.2,0.2,0.6c0.2,0,0.1-0.1,0.2-0.2
						c0.2,0.2,0.3,0.1,0.2,0.5c0.1,0.1,0.2,0.1,0.4,0C17.6,25.1,17.6,24.9,17.5,24.5z"/>
					<path fill="#FFFFFF" d="M18.1,30.1c-0.2,0.1,0,0.6,0.2,0.5C18.3,30.4,18.2,30,18.1,30.1z"/>
					<path fill="#FFFFFF" d="M15.9,18.2C15.6,18.2,15.9,18.5,15.9,18.2L15.9,18.2z"/>
					<path fill="#FFFFFF" d="M16,28.9c0-0.7,0.7-0.2,0.9,0C17.3,27.8,15.3,28.2,16,28.9z"/>
					<path fill="#FFFFFF" d="M14.9,15.7C14.8,15.7,14.9,15.7,14.9,15.7L14.9,15.7z"/>
					<path fill="#FFFFFF" d="M16.7,29.9c-0.2,0-0.5-0.2-0.6,0c0,0.4,0.3,0.4,0.6,0.4C16.6,30.1,16.7,30.1,16.7,29.9z"/>
					<path fill="#FFFFFF" d="M15.2,20.4C15.2,20.4,15.3,20.3,15.2,20.4L15.2,20.4z"/>
					<path fill="#FFFFFF" d="M13.3,19.5C13.1,19.8,13.5,19.6,13.3,19.5L13.3,19.5z"/>
					<path fill="#FFFFFF" d="M11.4,10.9c0,0.1,0,0.3,0.2,0.2C11.5,11,11.5,10.9,11.4,10.9z"/>
					<path fill="#FFFFFF" d="M11.5,13.7c0.1,0,0.1,0,0.2,0C11.9,13.5,11.4,13.4,11.5,13.7z"/>
					<path fill="#FFFFFF" d="M11.5,15.9c-0.2,0-0.4,0-0.3,0.3C11.4,16.1,11.5,16.1,11.5,15.9z"/>
					<path fill="#FFFFFF" d="M10.1,13.6c0-0.1,0.1-0.2,0-0.3C9.9,13.2,9.9,13.6,10.1,13.6z"/>
					<path fill="#FFFFFF" d="M9.9,14.9C9.8,15,9.9,14.9,9.9,14.9L9.9,14.9z"/>
					<path fill="#FFFFFF" d="M12,32.1C12,32.1,12,32.2,12,32.1c-0.1,0.2-0.1,0.2,0,0.3C12.2,32.4,12.2,32.1,12,32.1z"/>
					<path fill="#FFFFFF" d="M11,27.6c0.1,0.1-0.2,0.4,0.1,0.4C11.1,27.8,11.2,27.6,11,27.6z"/>
					<path fill="#FFFFFF" d="M11.7,12.2C11.9,11.9,11.4,12.1,11.7,12.2L11.7,12.2z"/>
					<path fill="#FFFFFF" d="M7.3,9.1C6.9,9.2,6.6,9.5,6.8,9.9c0.3-0.2,0.4,0,0.6,0C7.5,9.6,7.3,9.2,7.3,9.1z"/>
					<path fill="#FFFFFF" d="M5.1,8.3C4.9,8.4,5.4,8.4,5.1,8.3L5.1,8.3z"/>
					<path fill="#FFFFFF" d="M10.7,25.6c0-0.1,0.2-0.1,0.1-0.3C10.6,25.3,10.6,25.6,10.7,25.6z"/>
					<path fill="#FFFFFF" d="M10.9,27C10.9,27.1,10.9,27,10.9,27L10.9,27z"/>
					<path fill="#FFFFFF" d="M8.8,13.9C8.8,14.1,9,13.8,8.8,13.9L8.8,13.9z"/>
					<path fill="#FFFFFF" d="M8.8,14.2C8.8,14.3,8.9,14.2,8.8,14.2L8.8,14.2z"/>
					<path fill="#FFFFFF" d="M4.1,10.8C4.1,11.1,4.2,10.8,4.1,10.8L4.1,10.8z"/>
					<path fill="#FFFFFF" d="M9.7,25.8C9.7,25.9,9.8,25.8,9.7,25.8L9.7,25.8z"/>
					<path fill="#FFFFFF" d="M1.8,10.7C1.5,11.1,2.1,11.1,1.8,10.7L1.8,10.7z"/>
					<path fill="#FFFFFF" d="M51.3,4c0.1-0.1,0.1-0.3,0.1-0.5c-0.2,0-0.3,0.2-0.3,0.4c0-0.5-0.3-0.1-0.5-0.1c0-0.1,0-0.2,0-0.2
						c-0.1,0-0.1,0-0.2,0c0,0.2-0.1,0.2-0.1,0.4C50.7,4,51.1,3.8,51.3,4z"/>
					<path fill="#FFFFFF" d="M52.4,3.5C52.2,3.6,52,3.7,52.2,4C52.5,4,52.5,3.5,52.4,3.5z"/>
					<path fill="#FFFFFF" d="M20.6,15.4C20.5,15.7,20.8,15.1,20.6,15.4L20.6,15.4z"/>
					<path fill="#FFFFFF" d="M17.9,15.4c-0.2,0-0.3,0.4-0.2,0.3C17.7,15.6,18,15.7,17.9,15.4z"/>
					<path fill="#FFFFFF" d="M16.4,15.3c0.2-0.1,0.4,0.4,0.4,0.3C16.8,15.2,16.6,14.8,16.4,15.3z"/>
					<path fill="#FFFFFF" d="M44.3,1.7C44.3,1.7,44.2,1.8,44.3,1.7c0.4-0.2-0.1-0.3,0-0.6C44.1,1.2,44,1.4,44,1.6
						C44.1,1.7,44.2,1.5,44.3,1.7z"/>
					<path fill="#FFFFFF" d="M35.3,8.4L35.3,8.4L35.3,8.4z"/>
					<path fill="#FFFFFF" d="M35.3,8.3C35.3,8.2,35.3,8.2,35.3,8.3C35.4,8.2,35.4,8.3,35.3,8.3z"/>
					<path fill="#FFFFFF" d="M35.3,8.3L35.3,8.3C35.3,8.4,35.3,8.3,35.3,8.3z"/>
					<path fill="#FFFFFF" d="M35.3,8.4L35.3,8.4L35.3,8.4z"/>
					<path fill="#FFFFFF" d="M33.2,2.2C33,2.5,33.3,2.1,33.2,2.2L33.2,2.2z"/>
					<path fill="#FFFFFF" d="M33,13.9C32.8,14.2,33.2,13.8,33,13.9L33,13.9z"/>
					<path fill="#FFFFFF" d="M19.9,18.6c-0.1-0.3,0.1-0.5-0.1-0.6c-0.3,0.1-0.2,0.6-0.2,0.6C19.7,18.3,19.8,18.6,19.9,18.6z"/>
					<path fill="#FFFFFF" d="M15,31.8c0.1-0.6,0.6-0.2,0.7-0.3c-0.1,0.1-0.1,0.5,0.1,0.5C16.1,31,14.6,31,15,31.8z"/>
				</g>
				<g>
					<path fill="#FFFFFF" d="M124.1,11.8c0.2,0,0.1,0.3,0.1,0.4C124,12.3,124.2,12,124.1,11.8z"/>
					<path fill="#FFFFFF" d="M136,12.1c0-0.3-0.1-0.7-0.1-1c-0.1,0-0.1-0.1-0.2-0.1c-0.2,0.3-0.3,0.3-0.6,0.2c0.2,0.4-0.1,0.5,0,0.9
						c0.3,0,0.4,0.2,0.6,0.2C135.8,12.2,135.8,12.1,136,12.1z"/>
					<path fill="#FFFFFF" d="M162.4,5.1c0,0.1,0,0.1,0,0.2c0,0,0.1,0,0.1,0.1c0.1,0,0.1,0,0.2,0c0,0,0-0.1,0.1-0.1
						c0-0.1,0-0.1,0-0.2c0,0-0.1,0-0.1-0.1C162.5,5,162.5,5,162.4,5.1L162.4,5.1z"/>
					<path fill="#FFFFFF" d="M162.3,3.8c0.1-0.3-0.4-0.8-0.6-0.6C162.1,3.2,161.8,3.8,162.3,3.8z"/>
					<path fill="#FFFFFF" d="M125.3,25.4c0.5-0.1,0.3-0.7-0.2-0.6C125,25,125.2,25.2,125.3,25.4z"/>
					<path fill="#FFFFFF" d="M123.7,12C123.7,12.3,123.9,12,123.7,12L123.7,12z"/>
					<path fill="#FFFFFF" d="M160.9,5c0.8,0.2,0.6-0.7,1.2-0.9c0-0.1,0-0.2,0-0.2c-0.2-0.1-0.3,0-0.5-0.1
						C161.8,4.5,161.2,4.8,160.9,5z"/>
					<path fill="#FFFFFF" d="M135.5,12.3C135.4,12.3,135.5,12.2,135.5,12.3L135.5,12.3z"/>
					<path fill="#FFFFFF" d="M123.1,16c0.6,0,0.6-0.8,0.1-0.8C123.1,15.6,122.9,15.8,123.1,16z"/>
					<path fill="#FFFFFF" d="M161.4,3.9c0-0.1,0-0.1,0-0.2c-0.1,0-0.3,0-0.3,0.1C161.2,3.9,161.3,4,161.4,3.9L161.4,3.9z"/>
					<path fill="#FFFFFF" d="M161.6,8.8c0.3,0,0.3-0.2,0.3-0.4C161.5,8.3,161.4,8.6,161.6,8.8z"/>
					<path fill="#FFFFFF" d="M161,3.3c0,0.2-0.1,0.4,0.2,0.4C161.2,3.5,161.2,3.3,161,3.3z"/>
					<path fill="#FFFFFF" d="M161.1,7.9c0.2,0,0.4,0,0.4-0.2C161.3,7.5,161.2,7.7,161.1,7.9z"/>
					<path fill="#FFFFFF" d="M160,6.1c0.3-0.1,0.3,0.2,0.5,0.1c0.1-0.2,0.1-0.2,0-0.5C160.2,5.7,159.9,5.6,160,6.1z"/>
					<path fill="#FFFFFF" d="M160.3,9.3C160.3,9.3,160.2,9.4,160.3,9.3L160.3,9.3z"/>
					<path fill="#FFFFFF" d="M159.5,5.2c0-0.1,0.1-0.1,0-0.2C159.4,4.9,159.4,5.2,159.5,5.2z"/>
					<path fill="#FFFFFF" d="M120.4,14.1c0.3,0.2,0,0.6,0.3,0.8c0.4,0,0.4-0.3,0.5-0.6c-0.3-0.1-0.4-0.3-0.7-0.4
						C120.5,14,120.5,14.1,120.4,14.1z"/>
					<path fill="#FFFFFF" d="M158.7,5.1c0.4-0.6-0.2-1.2-0.9-1c0,0.1-0.1,0.2,0,0.3C158,4.4,158.3,4.9,158.7,5.1z"/>
					<path fill="#FFFFFF" d="M121.5,23.2c0-0.1,0.1-0.4-0.1-0.4C121.5,22.9,121.3,23.1,121.5,23.2z"/>
					<path fill="#FFFFFF" d="M120.5,25.2c0.3,0,0.3-0.1,0.4-0.3C120.6,24.8,120.4,25,120.5,25.2z"/>
					<path fill="#FFFFFF" d="M120,23.1c0.2,0,0-0.3,0-0.4C119.8,22.6,119.7,23.2,120,23.1z"/>
					<path fill="#FFFFFF" d="M128.3,5.2c0.4-0.4,0.2-1-0.3-1.1C127.7,4.7,127.9,4.9,128.3,5.2z"/>
					<path fill="#FFFFFF" d="M157,5.4C157,5.5,157,5.5,157,5.4c-0.1,0.2-0.1,0.2,0,0.3C157.2,5.8,157.2,5.4,157,5.4z"/>
					<path fill="#FFFFFF" d="M118.8,14.3c-0.3,0-0.3,0.2-0.3,0.5C118.8,14.7,118.8,14.5,118.8,14.3z"/>
					<path fill="#FFFFFF" d="M118.6,15.7c0.2-0.1,0.4-0.1,0.3-0.4C118.6,15.1,118.3,15.5,118.6,15.7z"/>
					<path fill="#FFFFFF" d="M128,2.9c0-0.1,0-0.1,0-0.2c-0.1,0-0.1,0-0.2,0c0,0.1,0,0.1,0,0.2C127.9,2.9,128,2.9,128,2.9z"/>
					<path fill="#FFFFFF" d="M118.4,12.7c-0.2-0.1-0.3,0.3-0.1,0.3C118.2,12.9,118.4,12.9,118.4,12.7z"/>
					<path fill="#FFFFFF" d="M118.3,13.7c0-0.2,0.1-0.2,0.1-0.3c-0.1,0-0.2,0-0.2,0C118.2,13.6,118.2,13.7,118.3,13.7z"/>
					<path fill="#FFFFFF" d="M119.9,27c0.1-0.1,0.2-0.4,0-0.6c-0.1,0-0.2,0-0.2,0C119.7,26.7,119.7,27,119.9,27z"/>
					<path fill="#FFFFFF" d="M118.1,14c0-0.2,0-0.3-0.1-0.5C117.8,13.6,117.8,14.2,118.1,14z"/>
					<path fill="#FFFFFF" d="M118.9,23.6c0.1,0.1,0.4,0,0.3-0.2C119,23.4,118.9,23.4,118.9,23.6z"/>
					<path fill="#FFFFFF" d="M118.1,24.1c0.2,0,0.2-0.2,0.2-0.3C118.1,23.8,118.1,23.9,118.1,24.1z"/>
					<path fill="#FFFFFF" d="M117.2,24.7c0.2,0.1,0.3-0.3,0.1-0.3C117.3,24.5,117.1,24.5,117.2,24.7z"/>
					<path fill="#FFFFFF" d="M116.7,27.9c0.3,0,0.1-0.3,0.4-0.3c0.2,0.1,0.3,0.4,0.4,0.6c0.7-0.5,0.4-1.6-0.5-1.6
						C116.6,26.8,116.5,27.4,116.7,27.9z"/>
					<path fill="#FFFFFF" d="M153.3,2.1C153.3,2.4,153.5,2.1,153.3,2.1L153.3,2.1z"/>
					<path fill="#FFFFFF" d="M116.8,25.8c-0.1,0.1-0.1,0.6,0.2,0.6C116.9,26.1,117,25.8,116.8,25.8z"/>
					<path fill="#FFFFFF" d="M112.4,13.6c0,0.2,0.2,0.1,0,0.3c0.3,0,0.5-0.1,0.4-0.4C112.7,13.4,112.6,13.5,112.4,13.6z"/>
					<path fill="#FFFFFF" d="M112.5,15.9c0.3,0,0.4-0.2,0.3-0.4c-0.1-0.1-0.4-0.1-0.5,0.1C112.4,15.7,112.5,15.8,112.5,15.9z"/>
					<path fill="#FFFFFF" d="M151.5,10.1c-0.3,0.2-0.8,0-0.8,0.5c0.2-0.1,0.3,0.1,0.6,0c0.1,0.1,0.1,0.5,0.3,0.5
						C151.8,10.9,151.7,10.3,151.5,10.1z"/>
					<path fill="#FFFFFF" d="M113.3,22.9c0,0.1,0,0.3,0.1,0.4C113.6,23.3,113.6,22.8,113.3,22.9z"/>
					<path fill="#FFFFFF" d="M111,15.2c0.2,0,0.2,0.3,0.4,0.3c0.2-0.3-0.4-0.5,0-0.7c0.5,0,0.5,0.1,1,0.2
						C112.6,13.8,110.7,14.1,111,15.2z"/>
					<path fill="#FFFFFF" d="M121.7,10.2c0.2-0.1,0.2,0,0.6-0.1c0.2-0.4-0.2-1.1-0.6-1.2C121.4,9.2,121.8,9.9,121.7,10.2z"/>
					<path fill="#FFFFFF" d="M111.9,19.1c0-0.1,0.1-0.4-0.1-0.4C111.8,18.8,111.7,19.1,111.9,19.1z"/>
					<path fill="#FFFFFF" d="M111.3,16c0-0.1,0.1-0.2,0-0.3C111.1,15.7,111.1,16,111.3,16z"/>
					<path fill="#FFFFFF" d="M111.4,26.4c0,0.1,0,0.1,0,0.2C111.7,26.7,111.7,26.3,111.4,26.4C111.5,26.4,111.5,26.4,111.4,26.4z"/>
					<path fill="#FFFFFF" d="M110.5,23.1c0.2,0,0.2-0.1,0.2-0.3C110.4,22.8,110.5,23,110.5,23.1z"/>
					<path fill="#FFFFFF" d="M147.3,6.8c0.2,0.1,0.4,0,0.4-0.3C147.5,6.5,147.2,6.6,147.3,6.8z"/>
					<path fill="#FFFFFF" d="M110.1,24.9c-0.2,0.2-0.3,0.5-0.2,0.9C110.4,25.8,110.7,24.9,110.1,24.9z"/>
					<path fill="#FFFFFF" d="M145.8,4c-0.1-0.2,0.1-0.2,0-0.4C145.4,3.6,145.4,4.1,145.8,4z"/>
					<path fill="#FFFFFF" d="M144.8,3.2c-0.1-0.3,0.1-0.4-0.1-0.6C144.1,2.6,144.6,3,144.8,3.2z"/>
					<path fill="#FFFFFF" d="M145,9c0.1-0.3-0.1-0.5-0.4-0.3C144.7,9,144.8,9,145,9z"/>
					<path fill="#FFFFFF" d="M144.3,5.6c0-0.1,0.1-0.4-0.1-0.4C144.1,5.4,144.1,5.6,144.3,5.6z"/>
					<path fill="#FFFFFF" d="M106.7,23.2C107.4,23.1,106.5,22.4,106.7,23.2L106.7,23.2z"/>
					<path fill="#FFFFFF" d="M106.3,20.2C106.9,18.7,104.9,19.8,106.3,20.2L106.3,20.2z"/>
					<path fill="#FFFFFF" d="M143.1,1.1c0.2,0,0.2-0.1,0.2-0.3C143.2,0.9,143.1,1,143.1,1.1z"/>
					<path fill="#FFFFFF" d="M106.1,23.4c-0.2,0-0.2,0.1-0.2,0.3C106,23.6,106.1,23.5,106.1,23.4z"/>
					<path fill="#FFFFFF" d="M104.8,23.4C104.4,23.7,105.1,23.7,104.8,23.4L104.8,23.4z"/>
					<path fill="#FFFFFF" d="M141.4,5.6C141.4,5.7,141.4,5.6,141.4,5.6L141.4,5.6z"/>
					<path fill="#FFFFFF" d="M112.5,9.8c0.1,0.2,0.3,0.4,0.5,0.5c0.1-0.1,0.1-0.3,0-0.5C112.7,9.9,112.7,9.6,112.5,9.8z"/>
					<path fill="#FFFFFF" d="M103.1,19.3c0.3,0,0.2-0.1,0.2-0.3C103.1,19,103.1,19.1,103.1,19.3z"/>
					<path fill="#FFFFFF" d="M104.1,26.4c-0.3-0.1-0.6,0.2-0.8,0.4c0.1,0.4,0.4,0.4,0.7,0.4C104.2,26.9,104.2,26.7,104.1,26.4z"/>
					<path fill="#FFFFFF" d="M110.7,1c0.4,0,0.8,0.5,0.9,0.7C111.6,1.2,111.1,0.7,110.7,1z"/>
					<path fill="#FFFFFF" d="M102.4,25.4c-0.2,0.2-0.3,0-0.6,0.1c-0.1,0.1-0.1,0.3,0,0.5C102.3,26.1,102.8,25.7,102.4,25.4z"/>
					<path fill="#FFFFFF" d="M139.3,9.3c0.1,0.4,0.4,0.4,0.6,0.6C140,9.5,139.7,9.2,139.3,9.3z"/>
					<path fill="#FFFFFF" d="M102,23.3c-0.4,0.1-0.3,0.6,0.1,0.6C102.1,23.7,102.1,23.4,102,23.3z"/>
					<path fill="#FFFFFF" d="M138.2,6.1c0-0.2,0.2,0.1,0.4,0c0.1-0.1,0.1-0.2,0-0.4C138.4,5.5,137.9,5.8,138.2,6.1z"/>
					<path fill="#FFFFFF" d="M100.6,21.9"/>
					<path fill="#FFFFFF" d="M100.7,23.8c-0.1,0-0.1,0-0.2,0c0,0.1,0,0.2,0,0.2C100.7,24,100.7,23.9,100.7,23.8z"/>
					<path fill="#FFFFFF" d="M138.2,10.7C138.1,11,138.5,10.8,138.2,10.7L138.2,10.7z"/>
					<path fill="#FFFFFF" d="M99.4,17.8C99.1,17.9,99.4,18.1,99.4,17.8L99.4,17.8z"/>
					<path fill="#FFFFFF" d="M137.2,5.9c0-0.2,0.1-0.4-0.1-0.6c-0.1,0-0.2,0-0.2,0C136.8,5.5,136.9,5.9,137.2,5.9z"/>
					<path fill="#FFFFFF" d="M107.5,2.9C107.4,3.1,107.8,2.9,107.5,2.9L107.5,2.9z"/>
					<path fill="#FFFFFF" d="M98.4,18.5C98.4,18.5,98.4,18.6,98.4,18.5c-0.1,0.2-0.1,0.2,0,0.3C98.5,18.7,98.5,18.4,98.4,18.5z"/>
					<path fill="#FFFFFF" d="M97.9,16.2c-0.3,0-0.4,0.5-0.1,0.5C97.9,16.5,98,16.4,97.9,16.2z"/>
					<path fill="#FFFFFF" d="M98.3,23.6c0.3-0.4-0.2-0.8-0.6-0.8c0,0.2-0.2,0.2-0.1,0.4C98.1,23.3,98.1,23.6,98.3,23.6z"/>
					<path fill="#FFFFFF" d="M136.9,25.9c0,0.1,0,0.1,0,0.2c0.1,0,0.1,0,0.2,0c0-0.1,0-0.1,0-0.2C137,25.9,137,25.9,136.9,25.9z"/>
					<path fill="#FFFFFF" d="M135.8,13.9c0.2,0.1,0.2-0.3,0-0.2C135.8,13.7,135.8,13.8,135.8,13.9C135.8,13.8,135.8,13.8,135.8,13.9
						z"/>
					<path fill="#FFFFFF" d="M96.1,25.7C95.8,25.9,96.3,25.8,96.1,25.7L96.1,25.7z"/>
					<path fill="#FFFFFF" d="M94,17.2c-0.3,0-0.2,0.2-0.2,0.4C94.1,17.7,94.2,17.3,94,17.2z"/>
					<path fill="#FFFFFF" d="M94.1,27.4c0-0.1,0.2-0.3,0-0.3C94,27.1,93.9,27.4,94.1,27.4z"/>
					<path fill="#FFFFFF" d="M133,27.9c0.2,0,0.3,0.2,0.5,0.3c0.1-0.1,0.1-0.3,0-0.5C133.3,27.8,132.9,27.7,133,27.9z"/>
					<path fill="#FFFFFF" d="M130.9,23.3c0-0.1,0.1-0.1,0.1-0.2c-0.1,0-0.1-0.1-0.2-0.1c0,0.1-0.1,0.1-0.1,0.2
						C130.8,23.3,130.8,23.3,130.9,23.3z"/>
					<path fill="#FFFFFF" d="M128.5,5.5c-0.3,0-0.4,0.1-0.4,0.3c0.2,0,0.2,0.2,0.4,0.2C128.5,5.9,128.5,5.7,128.5,5.5z"/>
					<path fill="#FFFFFF" d="M127.8,2.8c-0.2,0-0.2,0.2-0.3,0.3C127.8,3.3,128.1,3.1,127.8,2.8z"/>
					<path fill="#FFFFFF" d="M126.9,6.9c-0.2,0-0.3-0.2-0.5-0.1c-0.2,0.3,0,0.5,0.4,0.5C126.8,7.2,127,7.2,126.9,6.9z"/>
					<path fill="#FFFFFF" d="M88.7,21.8c0,0.4,0.3,0.3,0.5,0.4c0-0.2,0.1-0.2,0.1-0.4C89,21.7,88.8,21.6,88.7,21.8z"/>
					<path fill="#FFFFFF" d="M128.4,22C128.4,22.4,128.7,22,128.4,22L128.4,22z"/>
					<path fill="#FFFFFF" d="M125.3,4.3c0.4-0.1,0.6,0.1,0.8,0.1c0-0.3-0.1-0.4-0.1-0.5C125.5,4.1,125.3,3.9,125.3,4.3z"/>
					<path fill="#FFFFFF" d="M89.4,28c0.1,0,0.2,0,0.2,0c0-0.1,0-0.2,0-0.2C89.4,27.8,89.4,27.9,89.4,28z"/>
					<path fill="#FFFFFF" d="M87.7,24.4c0.2,0,0.2-0.1,0.2-0.3C87.7,24.1,87.7,24.2,87.7,24.4z"/>
					<path fill="#FFFFFF" d="M88.1,26.1c0.2-0.4-0.2-0.8-0.6-0.7C87.2,25.6,87.5,26.2,88.1,26.1z"/>
					<path fill="#FFFFFF" d="M125.9,13.2c0-0.1,0-0.1,0-0.2c-0.1,0-0.1,0-0.2,0c0,0.1,0,0.1,0,0.2C125.8,13.2,125.8,13.2,125.9,13.2
						z"/>
					<path fill="#FFFFFF" d="M87,22.5c0.4,0,0.3-0.5-0.1-0.5C86.9,22.1,86.9,22.4,87,22.5z"/>
					<path fill="#FFFFFF" d="M126.3,25.6C126.1,25.9,126.4,25.7,126.3,25.6L126.3,25.6z"/>
					<path fill="#FFFFFF" d="M123.9,9.2c0.1,0,0.1,0,0.2,0c0-0.1,0-0.1,0-0.2c-0.1,0-0.1,0-0.2,0C123.9,9.2,123.9,9.2,123.9,9.2z"/>
					<path fill="#FFFFFF" d="M86.2,22.8c0-0.2,0-0.4-0.1-0.5c-0.2,0-0.3,0.1-0.5,0.1C85.7,22.7,86,22.8,86.2,22.8z"/>
					<path fill="#FFFFFF" d="M85.5,23.9c-0.2-0.4,0-0.2,0.3-0.5c0-0.4-0.4-0.3-0.6-0.5C85.2,23.4,85.2,23.7,85.5,23.9z"/>
					<path fill="#FFFFFF" d="M78.4,26.4C78.3,26.7,78.6,26.4,78.4,26.4L78.4,26.4z"/>
					<path fill="#FFFFFF" d="M122.6,8.7C122.6,8.8,122.7,8.7,122.6,8.7L122.6,8.7z"/>
					<path fill="#FFFFFF" d="M123.4,23.4C123.6,23.3,123.1,23.3,123.4,23.4L123.4,23.4z"/>
					<path fill="#FFFFFF" d="M121.6,17.2c0.3-0.1,0.3,0.2,0.6,0.2c-0.1-0.2,0.1-0.2,0-0.4C122,16.9,121.5,16.9,121.6,17.2z"/>
					<path fill="#FFFFFF" d="M122.5,21.8c0.1,0,0.2,0,0.2,0c0-0.1,0-0.2,0-0.2C122.5,21.6,122.5,21.7,122.5,21.8z"/>
					<path fill="#FFFFFF" d="M82.7,18.7c-0.2,0-0.2,0.1-0.2,0.3C82.8,19,82.8,18.9,82.7,18.7z"/>
					<path fill="#FFFFFF" d="M122.4,23.3c0.2,0,0.1,0.2,0.3,0.1c0-0.1,0-0.2,0-0.2C122.6,23.3,122.4,23.3,122.4,23.3z"/>
					<path fill="#FFFFFF" d="M120.4,13c0.2,0,0.2,0.1,0.3,0.1c0-0.2,0.3-0.2,0.3-0.4C120.7,12.6,120.3,12.7,120.4,13z"/>
					<path fill="#FFFFFF" d="M121.8,22.3c0-0.1,0-0.3-0.1-0.3C121.6,22.2,121.6,22.3,121.8,22.3z"/>
					<path fill="#FFFFFF" d="M120.6,18.1c0.3-0.2,0.3,0.1,0.5,0.1C121.6,17.6,120.5,17.4,120.6,18.1z"/>
					<path fill="#FFFFFF" d="M119.7,9.4c-0.2,0-0.3-0.1-0.5,0c-0.4,0.5,0.2,0.5,0.3,0.9C119.9,10.3,119.7,9.8,119.7,9.4z"/>
					<path fill="#FFFFFF" d="M118.8,9.8C118.8,10.1,119,9.7,118.8,9.8L118.8,9.8z"/>
					<path fill="#FFFFFF" d="M119.7,25.5c0.2,0,0.1,0.2,0.3,0.1c0-0.1,0-0.2,0-0.3C119.8,25.3,119.7,25.4,119.7,25.5z"/>
					<path fill="#FFFFFF" d="M117.6,10.9c0.2,0,0.4,0,0.4-0.3C117.8,10.5,117.5,10.6,117.6,10.9z"/>
					<path fill="#FFFFFF" d="M119.3,23C119.3,23,119.3,22.9,119.3,23L119.3,23z"/>
					<path fill="#FFFFFF" d="M116.5,3.4c0.5-0.4-0.5-0.9-0.4-0.3C116.3,3.2,116.3,3.4,116.5,3.4z"/>
					<path fill="#FFFFFF" d="M117.5,22.7c-0.3-0.2-1-0.2-0.7,0.3c0.3-0.3,0.6,0.1,0.7,0.3C117.5,23.2,117.6,23,117.5,22.7z"/>
					<path fill="#FFFFFF" d="M116.6,23.3c-0.4,0-0.3,0.4-0.7,0.3C116,24,116.5,23.4,116.6,23.3z"/>
					<path fill="#FFFFFF" d="M116.8,27.6c-0.1-0.2,0-0.3,0-0.5c-0.1-0.1-0.5-0.2-0.6,0C116.4,27.3,116.5,27.5,116.8,27.6z"/>
					<path fill="#FFFFFF" d="M113.7,7.7C113.7,7.8,113.8,7.7,113.7,7.7L113.7,7.7z"/>
					<path fill="#FFFFFF" d="M114.8,24.3c0,0.1,0,0.1,0,0.2c0.1,0,0.1,0,0.2,0c0-0.1,0-0.1,0-0.2C114.9,24.2,114.9,24.3,114.8,24.3z
						"/>
					<path fill="#FFFFFF" d="M114.6,24.1C114.4,24.4,114.8,24.2,114.6,24.1L114.6,24.1z"/>
					<path fill="#FFFFFF" d="M111.2,3.2c0.7-0.6-0.8-1.5-0.7-0.4C111,2.7,110.9,3.2,111.2,3.2z"/>
					<path fill="#FFFFFF" d="M110.7,2.1C110.9,1.8,110.4,2,110.7,2.1L110.7,2.1z"/>
					<path fill="#FFFFFF" d="M112,14.2c0-0.1,0-0.1,0-0.2c-0.1,0-0.1,0-0.2,0c0,0.1,0,0.1,0,0.2C111.9,14.2,112,14.2,112,14.2z"/>
					<path fill="#FFFFFF" d="M110.8,12.2c0.2-0.1,0.4-0.2,0.5,0c0,0.3-0.1,0.5,0.2,0.5C111.9,11.9,111,11.4,110.8,12.2z"/>
					<path fill="#FFFFFF" d="M109.8,1.7C109.7,2,109.9,1.7,109.8,1.7L109.8,1.7z"/>
					<path fill="#FFFFFF" d="M110.2,7c-0.1,0-0.2,0.1-0.2,0.2C110.1,7.2,110.2,7.2,110.2,7z"/>
					<path fill="#FFFFFF" d="M110.2,8.4C110.2,8.7,110.4,8.4,110.2,8.4L110.2,8.4z"/>
					<path fill="#FFFFFF" d="M112.2,24.1c-0.1-0.5-0.4-0.7-0.5-1.1c-0.1,0-0.3,0-0.4,0.1c-0.1,0.3-0.1,1.3,0.3,0.9
						c0,0.2,0,0.3,0.1,0.5C111.9,24.4,112.1,24.3,112.2,24.1z"/>
					<path fill="#FFFFFF" d="M109.4,7.1c-0.1-0.1-0.3-0.1-0.3,0.1C109.2,7.3,109.4,7.3,109.4,7.1z"/>
					<path fill="#FFFFFF" d="M111,25.8c0.2-0.3,0.4,0.2,0.5,0.3C112.2,25.6,110.6,25.1,111,25.8z"/>
					<path fill="#FFFFFF" d="M110.3,18.1c0.1,0,0.2,0.1,0.3,0C110.6,17.9,110.3,17.9,110.3,18.1z"/>
					<path fill="#FFFFFF" d="M110.6,19c0.1,0,0-0.2,0-0.3C110.4,18.6,110.4,19.1,110.6,19z"/>
					<path fill="#FFFFFF" d="M117.2,7.3c0.4-0.3,0.6,0.2,1,0.1C118.6,6.5,117.1,6.4,117.2,7.3z"/>
					<path fill="#FFFFFF" d="M117.2,2.9"/>
					<path fill="#FFFFFF" d="M108.4,7.6c0.1,0,0.2,0,0.2,0c0-0.1,0-0.2,0-0.2C108.4,7.4,108.3,7.5,108.4,7.6z"/>
					<path fill="#FFFFFF" d="M109.9,20C109.9,20.1,109.9,20,109.9,20L109.9,20z"/>
					<path fill="#FFFFFF" d="M110.9,28.3c0.2,0.1,0.2-0.3,0-0.2C110.9,28.1,110.9,28.2,110.9,28.3C110.9,28.1,110.9,28.2,110.9,28.3
						z"/>
					<path fill="#FFFFFF" d="M107.5,3.3c0.9-0.5-0.7-2.1-0.8-0.8C107.4,2.6,107,3.1,107.5,3.3z"/>
					<path fill="#FFFFFF" d="M110.8,27.8C110.7,27.9,110.8,27.8,110.8,27.8L110.8,27.8z"/>
					<path fill="#FFFFFF" d="M110.2,23.5c-0.3,0-0.7,0.2-0.4,0.4c0-0.2,0.3,0.1,0.4,0.1C110.3,23.9,110.2,23.7,110.2,23.5z"/>
					<path fill="#FFFFFF" d="M107.9,6.1c0-0.2,0-0.3-0.1-0.5C107.5,5.7,107.5,6.3,107.9,6.1z"/>
					<path fill="#FFFFFF" d="M108.1,8.4C107.8,8.7,108.3,8.5,108.1,8.4L108.1,8.4z"/>
					<path fill="#FFFFFF" d="M108.9,16.5c0-0.2,0.2-0.3,0.2-0.5c-0.3-0.2-0.8-0.1-0.7,0.3C108.6,16.4,108.8,16.2,108.9,16.5z"/>
					<path fill="#FFFFFF" d="M109.4,24.6C109.4,24.9,109.7,24.5,109.4,24.6L109.4,24.6z"/>
					<path fill="#FFFFFF" d="M109.4,26.5C109.3,26.5,109.4,26.4,109.4,26.5L109.4,26.5z"/>
					<path fill="#FFFFFF" d="M109.2,25.6C108.9,25.7,109.5,25.7,109.2,25.6L109.2,25.6z"/>
					<path fill="#FFFFFF" d="M108.5,24.9C108.3,25.2,108.8,25,108.5,24.9L108.5,24.9z"/>
					<path fill="#FFFFFF" d="M106,6.5c0.1,0,0.1-0.2,0-0.2C105.8,6.2,105.9,6.6,106,6.5z"/>
					<path fill="#FFFFFF" d="M107.9,23.8c0.2,0,0.2,0.1,0.4,0.1C108.3,23.5,107.9,23.5,107.9,23.8z"/>
					<path fill="#FFFFFF" d="M108.1,24.4c0.1,0,0.1,0.1,0.2,0c0-0.1,0-0.2-0.1-0.2C108.2,24.3,108.1,24.3,108.1,24.4z"/>
					<path fill="#FFFFFF" d="M108.5,27.3C108.2,27.1,108.8,27.5,108.5,27.3L108.5,27.3z"/>
					<path fill="#FFFFFF" d="M106.5,12.1c-0.1,0-0.1,0-0.2,0c0,0.1,0,0.2,0,0.2C106.5,12.3,106.5,12.2,106.5,12.1z"/>
					<path fill="#FFFFFF" d="M105.3,13.1c0,0.3-0.6,0.5-0.2,0.6c0-0.2,0.1-0.3,0.2-0.3c0.3,0.3,0.7,0.6,0.6,1.2
						C106.7,14.1,105.8,13.2,105.3,13.1z"/>
					<path fill="#FFFFFF" d="M107.4,22.2c0,0.1,0,0.1,0,0.2c0.1,0,0.1,0,0.2,0c0-0.1,0-0.1,0-0.2C107.5,22.2,107.5,22.2,107.4,22.2z
						"/>
					<path fill="#FFFFFF" d="M107.6,25.3c0,0.2,0.2,0.2,0.4,0.3c0-0.1,0-0.2,0-0.3C107.8,25.3,107.7,25.3,107.6,25.3z"/>
					<path fill="#FFFFFF" d="M106.7,20.3"/>
					<path fill="#FFFFFF" d="M105.1,6.8c0-0.1,0.1-0.1,0-0.2C105,6.4,105,6.8,105.1,6.8z"/>
					<path fill="#FFFFFF" d="M107,21.4C106.8,21.7,107.3,21.5,107,21.4L107,21.4z"/>
					<path fill="#FFFFFF" d="M106.4,21.1c-0.2,0-0.3,0.1-0.2,0.3C106.4,21.3,106.5,21.3,106.4,21.1z"/>
					<path fill="#FFFFFF" d="M104.3,5"/>
					<path fill="#FFFFFF" d="M106.4,22.7c0,0.1-0.2,0.3,0,0.3C106.4,23,106.6,22.7,106.4,22.7z"/>
					<path fill="#FFFFFF" d="M104.1,5.4C104.1,5.7,104.4,5.4,104.1,5.4L104.1,5.4z"/>
					<path fill="#FFFFFF" d="M112.8,1.9c-0.2,0.3,0.1,0.5,0.3,0.5C113.3,2.1,113,2,112.8,1.9z"/>
					<path fill="#FFFFFF" d="M104,6.8c0.4-0.9-0.7-0.3-0.7,0.2C103.6,6.9,103.7,6.4,104,6.8z"/>
					<path fill="#FFFFFF" d="M112.5,8.4c0.1-0.4,0.7-0.1,0.8,0C113.5,7.5,112.2,8,112.5,8.4z"/>
					<path fill="#FFFFFF" d="M103.6,7C103.6,7.3,103.9,7,103.6,7L103.6,7z"/>
					<path fill="#FFFFFF" d="M102.9,7.6c0-0.1,0-0.2-0.1-0.3c-0.2,0.1-0.4,0.1-0.4,0.4C102.8,7.5,102.8,7.7,102.9,7.6z"/>
					<path fill="#FFFFFF" d="M104.9,22.6c0-0.1,0-0.1,0-0.2c-0.1,0-0.1,0-0.2,0c0,0.1,0,0.1,0,0.2C104.8,22.6,104.9,22.6,104.9,22.6
						z"/>
					<path fill="#FFFFFF" d="M105.1,24.8C105.3,24.8,104.7,24.8,105.1,24.8L105.1,24.8z"/>
					<path fill="#FFFFFF" d="M105.2,26.1C105.2,26.1,105.2,26,105.2,26.1L105.2,26.1z"/>
					<path fill="#FFFFFF" d="M101.6,2.2c0.1,0,0.2,0,0.2,0c0-0.1,0-0.2,0-0.2C101.5,2,101.5,2.1,101.6,2.2z"/>
					<path fill="#FFFFFF" d="M103.8,18.9c0-0.2-0.1-0.2-0.1-0.4c-0.2,0-0.3,0.1-0.3,0.3C103.7,18.7,103.6,19,103.8,18.9z"/>
					<path fill="#FFFFFF" d="M111.4,5c-0.6,0.2-0.9-0.5-1,0.2c0.3,0.3,0.9,0,1.1,0.4C111.6,5.4,111.4,5.1,111.4,5z"/>
					<path fill="#FFFFFF" d="M104.8,27.2c-0.1,0-0.2,0-0.2,0c0,0.2,0.2,0.1,0.3,0.2C104.8,27.4,104.8,27.3,104.8,27.2z"/>
					<path fill="#FFFFFF" d="M104.4,25.6c0-0.2,0.1-0.3,0-0.5c-0.1-0.1-0.3,0-0.4,0.1C104.4,25.1,104.3,25.5,104.4,25.6z"/>
					<path fill="#FFFFFF" d="M111,2.6c-0.1,0-0.1,0-0.2,0c0,0.1,0,0.2,0,0.2C111,2.8,111,2.7,111,2.6z"/>
					<path fill="#FFFFFF" d="M101.7,9.2c0.2,0,0.3-0.3,0.1-0.3C101.9,9.2,101.8,9.2,101.7,9.2z"/>
					<path fill="#FFFFFF" d="M101.8,9.9c-0.1-0.4-0.1-0.8-0.5-0.8C101.7,9.3,101.2,9.9,101.8,9.9z"/>
					<path fill="#FFFFFF" d="M103.2,22.4C103.2,22.5,103.3,22.4,103.2,22.4L103.2,22.4z"/>
					<path fill="#FFFFFF" d="M100.3,1.8c0.2,0,0.3-0.1,0.3-0.2C100.5,1.5,100.3,1.6,100.3,1.8z"/>
					<path fill="#FFFFFF" d="M102.9,24.3c0,0.3,0.3,0.3,0.5,0.3C103.5,24.3,103.2,24.3,102.9,24.3z"/>
					<path fill="#FFFFFF" d="M103,23.1c0,0.1-0.1,0.2,0,0.3C103.2,23.3,103.2,23.1,103,23.1z"/>
					<path fill="#FFFFFF" d="M100.4,3c0.2,0,0.2-0.1,0.2-0.3C100.4,2.7,100.4,2.8,100.4,3z"/>
					<path fill="#FFFFFF" d="M100.9,9.3c0.2,0,0.2,0.1,0.3,0C101.2,9.1,100.8,9.1,100.9,9.3z"/>
					<path fill="#FFFFFF" d="M100.6,7.4c0-0.1,0.1-0.1,0-0.2C100.5,7.1,100.5,7.4,100.6,7.4z"/>
					<path fill="#FFFFFF" d="M100.6,8.7c-0.2,0-0.1,0.3,0,0.2C100.7,8.9,100.7,8.7,100.6,8.7z"/>
					<path fill="#FFFFFF" d="M109.9,7.1"/>
					<path fill="#FFFFFF" d="M102.5,24.5c0-0.1,0-0.3-0.1-0.4C102.1,24.2,102.3,24.5,102.5,24.5z"/>
					<path fill="#FFFFFF" d="M109.9,9.4c-0.4,0.1-0.3,0.5,0.1,0.4C109.9,9.6,109.9,9.6,109.9,9.4z"/>
					<path fill="#FFFFFF" d="M99.5,3.4"/>
					<path fill="#FFFFFF" d="M99.7,7.5c-0.3,0-0.3,0.3,0,0.3C99.7,7.7,99.8,7.7,99.7,7.5z"/>
					<path fill="#FFFFFF" d="M101.5,25.3c0.1,0,0.1,0.1,0.2,0c0-0.1,0-0.2-0.1-0.2C101.6,25.2,101.5,25.2,101.5,25.3z"/>
					<path fill="#FFFFFF" d="M98.4,1.9c0.3,0,0.3-0.3,0-0.3C98.4,1.7,98.2,1.8,98.4,1.9z"/>
					<path fill="#FFFFFF" d="M101.3,24c0,0.1,0,0.1,0,0.2c0.1,0,0.1,0,0.2,0c0-0.1,0-0.1,0-0.2C101.4,24,101.3,24,101.3,24z"/>
					<path fill="#FFFFFF" d="M98.2,9.6c0,0.1,0,0.2,0,0.3c0.4,0,0.2,0,0.7-0.2c0.2,0.1,0.1,0.6,0.4,0.6c0-0.2,0.1-0.3,0.1-0.5
						C99.2,9.7,98.7,9.3,98.2,9.6z"/>
					<path fill="#FFFFFF" d="M98.1,1.1c0,0.1,0,0.1,0,0.2c0.1,0,0.1,0,0.2,0c0-0.1,0-0.1,0-0.2C98.1,1,98.1,1.1,98.1,1.1z"/>
					<path fill="#FFFFFF" d="M98.1,1.3C98.1,1.3,98.1,1.4,98.1,1.3c-0.1,0.2-0.1,0.2,0,0.3C98.3,1.6,98.3,1.2,98.1,1.3z"/>
					<path fill="#FFFFFF" d="M100.9,25.1c0.2,0.1,0.2-0.3,0-0.2C100.9,24.9,100.9,25,100.9,25.1C100.9,25,100.9,25,100.9,25.1z"/>
					<path fill="#FFFFFF" d="M101.3,27.9c-0.1,0-0.2,0-0.2,0c0,0.2,0.1,0.3,0.2,0.3C101.3,28,101.4,28,101.3,27.9z"/>
					<path fill="#FFFFFF" d="M98.6,10.1c0,0.1,0,0.1,0,0.2c0.1,0,0.1,0,0.2,0c0-0.1,0-0.1,0-0.2C98.7,10.1,98.6,10.1,98.6,10.1z"/>
					<path fill="#FFFFFF" d="M98.8,14.3c-0.1-0.1-0.5-0.1-0.4,0.2C98.6,14.6,98.9,14.6,98.8,14.3z"/>
					<path fill="#FFFFFF" d="M99.1,16.5L99.1,16.5C98.5,16.4,99.5,16.9,99.1,16.5z"/>
					<path fill="#FFFFFF" d="M95.9,3.6c0.6-0.3,0.9-0.2,1.3,0.1C97.6,2.5,95.9,2.8,95.9,3.6z"/>
					<path fill="#FFFFFF" d="M99.5,23.4c0.2,0.1,0.2-0.3,0-0.2C99.5,23.3,99.5,23.3,99.5,23.4C99.5,23.4,99.5,23.4,99.5,23.4z"/>
					<path fill="#FFFFFF" d="M106.4,4.8c0,0.3,0.3,0.3,0.3,0C106.6,4.8,106.5,4.7,106.4,4.8z"/>
					<path fill="#FFFFFF" d="M98.2,14.6c0.2,0.1,0.2-0.4,0-0.3C98.2,14.3,98.1,14.4,98.2,14.6z"/>
					<path fill="#FFFFFF" d="M98.7,19.2c0-0.1,0.1-0.4-0.1-0.4c0,0.1-0.4,0-0.3,0.4C98.5,19.1,98.6,19.2,98.7,19.2z"/>
					<path fill="#FFFFFF" d="M98.1,14.9C98,14.9,98,15,98,15.2C98.1,15.1,98.2,15,98.1,14.9z"/>
					<path fill="#FFFFFF" d="M98.6,18.1c0-0.1,0-0.2,0-0.2c-0.1,0-0.2-0.1-0.3,0c-0.1,0.1-0.1,0.2,0,0.4
						C98.4,18.3,98.5,18.2,98.6,18.1z"/>
					<path fill="#FFFFFF" d="M99.4,27.8C99.4,27.9,99.5,27.8,99.4,27.8L99.4,27.8z"/>
					<path fill="#FFFFFF" d="M98.3,20.6c-0.4,0-0.7-0.2-0.7,0.3c0.4-0.1,0.6,0,0.8,0.1"/>
					<path fill="#FFFFFF" d="M105.7,4.6c-0.3,0-0.3,0.4,0,0.4C105.8,4.9,105.8,4.7,105.7,4.6z"/>
					<path fill="#FFFFFF" d="M97.3,13.7c0,0.2,0.1,0.3,0.2,0.3C97.5,13.9,97.4,13.7,97.3,13.7z"/>
					<path fill="#FFFFFF" d="M95.8,4.2c0,0.1,0.1,0.2,0.2,0.2C96,4.3,96,4.2,95.8,4.2z"/>
					<path fill="#FFFFFF" d="M99,28.5C99,28.6,99,28.5,99,28.5L99,28.5z"/>
					<path fill="#FFFFFF" d="M105,5.1c-0.2-0.1-0.4,0-0.4,0.3C104.9,5.5,105,5.4,105,5.1z"/>
					<path fill="#FFFFFF" d="M95.1,2.5C95.1,2.8,95.4,2.4,95.1,2.5L95.1,2.5z"/>
					<path fill="#FFFFFF" d="M96.8,18c0.2,0,0.2-0.1,0.2-0.3C96.9,17.8,96.8,17.8,96.8,18z"/>
					<path fill="#FFFFFF" d="M95.9,15.1C95.9,15.4,96.1,15.1,95.9,15.1L95.9,15.1z"/>
					<path fill="#FFFFFF" d="M95.8,16.2c0,0.1,0,0.1,0,0.2c0.1,0,0.1,0,0.2,0c0-0.1,0-0.1,0-0.2C95.9,16.2,95.8,16.2,95.8,16.2z"/>
					<path fill="#FFFFFF" d="M96.3,23.7C96.4,24.4,97.1,23.6,96.3,23.7L96.3,23.7z"/>
					<path fill="#FFFFFF" d="M92.7,1.3c0.1,0.1,0.5-0.1,0.5-0.3C93,0.9,92.7,1,92.7,1.3z"/>
					<path fill="#FFFFFF" d="M95.8,22.6C95.7,22.7,95.8,22.6,95.8,22.6L95.8,22.6z"/>
					<path fill="#FFFFFF" d="M95.6,23.2c-0.3,0-0.3,0.1-0.3,0.4C95.6,23.5,95.7,23.4,95.6,23.2z"/>
					<path fill="#FFFFFF" d="M94.5,16.6C94.1,16.6,94.4,16.9,94.5,16.6L94.5,16.6z"/>
					<path fill="#FFFFFF" d="M93.1,6.4C92.8,6.6,93.3,6.5,93.1,6.4L93.1,6.4z"/>
					<path fill="#FFFFFF" d="M94.5,27.6c-0.3,0-0.2,0.1-0.2,0.3C94.6,28,94.4,27.7,94.5,27.6z"/>
					<path fill="#FFFFFF" d="M101.5,9c-0.2-0.1-0.4-0.1-0.6-0.1c0,0.1-0.1,0.2-0.1,0.3C101.1,9.3,101.4,9.3,101.5,9z"/>
					<path fill="#FFFFFF" d="M101.1,9.7c-0.2,0.1-0.4,0.1-0.3,0.4C101.1,10.1,101.2,9.9,101.1,9.7z"/>
					<path fill="#FFFFFF" d="M94,27.9c-0.2-0.1-0.4,0.1-0.4,0.3C93.7,28.2,94,28.1,94,27.9z"/>
					<path fill="#FFFFFF" d="M90.1,7.2C90,7.6,90.3,7.2,90.1,7.2L90.1,7.2z"/>
					<path fill="#FFFFFF" d="M89,3.3c-0.3,0-0.4,0.2-0.2,0.3C89,3.7,89.1,3.5,89,3.3z"/>
					<path fill="#FFFFFF" d="M88.7,3c-0.3,0-0.1,0.5,0.1,0.4C88.7,3.2,88.7,3.1,88.7,3z"/>
					<path fill="#FFFFFF" d="M97.8,2.9c0.1,0,0.2,0,0.2,0c0-0.1,0-0.2,0-0.2C97.8,2.7,97.8,2.8,97.8,2.9z"/>
					<path fill="#FFFFFF" d="M88.9,11.5C88.9,11.6,89,11.5,88.9,11.5L88.9,11.5z"/>
					<path fill="#FFFFFF" d="M87.4,1.5c0,0.1,0,0.2,0,0.3c0.3,0,0.2-0.2,0.3-0.3C87.6,1.6,87.5,1.5,87.4,1.5z"/>
					<path fill="#FFFFFF" d="M87.3,1.4c-0.2-0.2-0.7-0.1-0.7,0.2c0.3,0.1,0.5,0.4,0.6,0.7c0.1,0,0.2,0,0.3,0
						C87.6,1.8,87.2,2,87.3,1.4z"/>
					<path fill="#FFFFFF" d="M88.8,16.7c0-0.1-0.1-0.2-0.2-0.2C88.7,16.6,88.7,16.8,88.8,16.7z"/>
					<path fill="#FFFFFF" d="M95.4,11"/>
					<path fill="#FFFFFF" d="M86.3,8.1c-0.3,0-0.2,0.3,0,0.3C86.3,8.3,86.4,8.3,86.3,8.1z"/>
					<path fill="#FFFFFF" d="M88,27.8C87.4,28.1,88.3,28.3,88,27.8L88,27.8z"/>
					<path fill="#FFFFFF" d="M87.6,25.8c-0.1-0.2-0.2-0.3-0.4-0.3c0,0.1-0.1,0.1,0,0.2C87.4,25.7,87.4,25.9,87.6,25.8
						C87.5,25.8,87.5,25.8,87.6,25.8z"/>
					<path fill="#FFFFFF" d="M83.4,3.5c-0.2-0.1-0.6,0-0.4,0.3C83.1,3.9,83.3,3.6,83.4,3.5z"/>
					<path fill="#FFFFFF" d="M83.4,6.6c0,0.1,0,0.3,0.2,0.2C83.6,6.6,83.5,6.6,83.4,6.6z"/>
					<path fill="#FFFFFF" d="M83.1,5.8C83,6.1,83.3,5.7,83.1,5.8L83.1,5.8z"/>
					<path fill="#FFFFFF" d="M84.5,27.1C84.1,27.2,84.5,27.5,84.5,27.1L84.5,27.1z"/>
					<path fill="#FFFFFF" d="M82.4,16.5C82.7,14.4,80.1,16.6,82.4,16.5L82.4,16.5z"/>
					<path fill="#FFFFFF" d="M83.5,24.6C83.5,24.7,83.5,24.6,83.5,24.6L83.5,24.6z"/>
					<path fill="#FFFFFF" d="M80.1,22.7c0.1,0,0.1,0,0.2,0C80.5,22.5,80,22.3,80.1,22.7z"/>
					<path fill="#FFFFFF" d="M80.1,24.8c-0.2,0-0.4,0-0.3,0.3C80,25.1,80.2,25,80.1,24.8z"/>
					<path fill="#FFFFFF" d="M78.8,22.5"/>
					<path fill="#FFFFFF" d="M76.7,11.8c0.2,0.1,0.2-0.3,0-0.2C76.7,11.6,76.7,11.7,76.7,11.8C76.7,11.7,76.7,11.7,76.7,11.8z"/>
					<path fill="#FFFFFF" d="M75.8,11.3C75.7,11.5,76,11.3,75.8,11.3L75.8,11.3z"/>
					<path fill="#FFFFFF" d="M75.9,18c-0.4,0.1-0.7,0.5-0.5,0.9c0.3-0.2,0.4,0,0.6,0C76.2,18.6,75.9,18.3,75.9,18z"/>
					<path fill="#FFFFFF" d="M73.4,7.5C73.4,7.8,73.6,7.5,73.4,7.5L73.4,7.5z"/>
					<path fill="#FFFFFF" d="M71.6,3.9c0,0.1,0,0.1,0,0.2c0.1,0,0.1,0,0.2,0c0-0.1,0-0.1,0-0.2C71.7,3.8,71.7,3.8,71.6,3.9z"/>
					<path fill="#FFFFFF" d="M69,10.3C69,10.6,69.2,10.3,69,10.3L69,10.3z"/>
					<path fill="#FFFFFF" d="M72.2,1.3c-0.7,0.1-0.3,1.2,0.3,1.2c0.2,0,0.1-0.3,0.3-0.4c0.7,0,1.2,0.7,1.6,0.4
						c0.1,0.2-0.2,0.2,0,0.4C75.2,1.6,72.9,0.3,72.2,1.3z"/>
					<path fill="#FFFFFF" d="M63.9,1.8c0,0.1,0,0.1,0,0.2C64,2,64,2,64.1,2c0-0.1,0-0.1,0-0.2C64,1.7,63.9,1.8,63.9,1.8z"/>
					<path fill="#FFFFFF" d="M66.3,25.9C66.2,25.9,66.2,25.8,66.3,25.9c-0.2,0-0.4,0-0.4,0.2C66.1,25.9,66.2,26.1,66.3,25.9z"/>
					<path fill="#FFFFFF" d="M71,4.9c-0.2,0.5,0.4,1.4,0.9,1.5C71.6,5.9,71.4,5.1,71,4.9z"/>
					<path fill="#FFFFFF" d="M68.1,25.6c-0.2-0.1-0.6,0.1-0.6,0.4C67.9,25.9,68,25.7,68.1,25.6z"/>
					<path fill="#FFFFFF" d="M71.2,9.9c-0.1,0-0.2,0-0.3,0c0,0.1,0,0.2,0,0.3C71.2,10.3,71.2,10.1,71.2,9.9z"/>
					<path fill="#FFFFFF" d="M66.9,25.5c-0.2,0.1-0.4,0.6,0.1,0.5C67.1,25.6,67.2,25.5,66.9,25.5z"/>
					<path fill="#FFFFFF" d="M67.4,27.7c-0.3,0-0.3,0.2-0.3,0.5C67.4,28.1,67.2,27.8,67.4,27.7z"/>
					<path fill="#FFFFFF" d="M66.2,21.7c0,0.1-0.2,0.1-0.1,0.3c0.1,0,0.2,0,0.2,0C66.3,21.9,66.3,21.7,66.2,21.7z"/>
					<path fill="#FFFFFF" d="M70.8,14.1c-0.2,0.1-0.6-0.1-0.5,0.2C70.4,14.5,70.9,14.4,70.8,14.1z"/>
					<path fill="#FFFFFF" d="M59.8,8.1C59.8,8.2,59.8,8.2,59.8,8.1c-0.1,0.2-0.1,0.2,0,0.3C59.9,8.4,59.9,8.1,59.8,8.1z"/>
					<path fill="#FFFFFF" d="M61.5,26.5C61.5,26.6,61.6,26.5,61.5,26.5L61.5,26.5z"/>
					<path fill="#FFFFFF" d="M58.4,3.6C58.3,3.9,58.6,3.5,58.4,3.6L58.4,3.6z"/>
					<path fill="#FFFFFF" d="M64.3,24.1c0.1,0,0.3,0,0.4-0.1c0-0.1,0-0.3-0.1-0.4C64.3,23.7,64.2,23.8,64.3,24.1z"/>
					<path fill="#FFFFFF" d="M58,8.3C58.1,8.3,58,8.4,58,8.3L58,8.3z"/>
					<path fill="#FFFFFF" d="M63.3,22.1C63.3,22.5,63.6,22.2,63.3,22.1L63.3,22.1z"/>
					<path fill="#FFFFFF" d="M62.6,23c-0.1-0.1-0.5,0.1-0.5,0.3C62.4,23.4,62.6,23.2,62.6,23z"/>
					<path fill="#FFFFFF" d="M59,27.2c0,0.1,0,0.1,0,0.2c0.1,0,0.1,0,0.2,0c0-0.1,0-0.1,0-0.2C59.1,27.2,59.1,27.2,59,27.2z"/>
					<path fill="#FFFFFF" d="M62.8,27.1C63.2,27.1,62.6,26.6,62.8,27.1L62.8,27.1z"/>
					<path fill="#FFFFFF" d="M58.2,23.3C58.1,23.5,58.5,23.4,58.2,23.3L58.2,23.3z"/>
					<path fill="#FFFFFF" d="M119.9,12.9c0.1-0.1,0.1-0.3,0.1-0.5c-0.2,0-0.3,0.2-0.3,0.4c0-0.5-0.3-0.1-0.5-0.1c0-0.1,0-0.2,0-0.2
						c-0.1,0-0.1,0-0.2,0c0,0.2-0.1,0.2-0.1,0.4C119.3,12.9,119.6,12.8,119.9,12.9z"/>
					<path fill="#FFFFFF" d="M121.1,12.5c-0.2,0.1-0.4,0.2-0.2,0.5C121.1,13,121.1,12.5,121.1,12.5z"/>
					<path fill="#FFFFFF" d="M134.2,2.9c0.2,0,0.2,0.3,0.4,0.3c0-0.1,0-0.2,0-0.3C134.4,3,134.2,2.7,134.2,2.9z"/>
					<path fill="#FFFFFF" d="M128.9,20.9c0-0.1,0.1-0.2,0-0.3c-0.2,0-0.5,0.2-0.3,0.2C128.7,20.6,128.8,21,128.9,20.9z"/>
					<path fill="#FFFFFF" d="M86.4,24.4c-0.2,0-0.3,0.4-0.2,0.3C86.4,24.6,86.5,24.6,86.4,24.4z"/>
					<path fill="#FFFFFF" d="M85.1,24.3c0.2-0.1,0.4,0.4,0.4,0.3C85.5,24.2,85.3,23.8,85.1,24.3z"/>
					<path fill="#FFFFFF" d="M113,10.7C112.9,10.7,112.9,10.7,113,10.7c0.4-0.2-0.1-0.3,0-0.6c-0.2,0.1-0.4,0.3-0.4,0.5
						C112.7,10.6,112.9,10.5,113,10.7z"/>
					<path fill="#FFFFFF" d="M105.3,3.9c0.2-0.3-0.1-0.5-0.2-0.7c-0.4,0-0.7,0.4-0.6,0.6C104.9,3.3,105.2,3.8,105.3,3.9z"/>
					<path fill="#FFFFFF" d="M102.8,26.9C102.4,26.8,103,26.9,102.8,26.9L102.8,26.9z"/>
					<path fill="#FFFFFF" d="M99.1,23.1c0-0.1,0-0.2,0-0.2c-0.1,0.1-0.3-0.2-0.3,0C99,22.7,98.8,23.2,99.1,23.1z"/>
					<path fill="#FFFFFF" d="M88.6,27.6c-0.1-0.3,0.1-0.5-0.1-0.6c-0.3,0.1-0.2,0.6-0.2,0.6C88.4,27.2,88.5,27.6,88.6,27.6z"/>
				</g>
			</g>
		</g>
	</g>
</g>
</svg>
