<?xml version="1.0" encoding="utf-8"?>
<!-- Generator: Adobe Illustrator 18.0.0, SVG Export Plug-In . SVG Version: 6.00 Build 0)  -->
<!DOCTYPE svg PUBLIC "-//W3C//DTD SVG 1.1//EN" "http://www.w3.org/Graphics/SVG/1.1/DTD/svg11.dtd">
<svg version="1.1" id="Layer_1" xmlns="http://www.w3.org/2000/svg" xmlns:xlink="http://www.w3.org/1999/xlink" x="0px" y="0px"
	 viewBox="197.6 0 200 39" enable-background="new 197.6 0 200 39" xml:space="preserve">
<g>
	<g>
		<path fill="#027EAD" d="M389.9,24.5c-5.3-4.2,0.7-7.6,0.7-7.6s8.6-5.5,5.1-8.9c-1.6-1.6-9.5-1.9-9.5-1.9h-10.5
			c-0.5-2.5-1.3-4.5-2.3-5.1c-3.5-2.1-99.4,0.4-121.8,0.4c-16.4,0-32.2-2.7-32.5,5.1c0,0.7,0,1.4-0.1,2.1c-0.7-0.1-1.6-0.2-2.6-0.2
			h-6.8c-0.9,0-1.9,0.1-2.8,0.2c-2.3,0.3-6.2,0.9-8.1,1.7c-4.2,1.7,5.5,7.7,5.5,7.7s7.4,4.9,0.3,10.3c-10,7.7-10,9.4,4.4,10.8
			c2.4,0.2,10,0,10,0s10.4,0.9,12-8.3c18.5,0,103.8-1,134-0.3c0.8,8.6,10.6,7.5,10.6,7.5s7.6,0,10,0C398.6,38,402.2,34.1,389.9,24.5
			z"/>
	</g>
</g>
<g>
	<g>
		<path fill="#FFFFFF" d="M242.5,8.6c-1.7,0-2.3,2.6-2.5,5.1c-0.2,2.7-0.4,5.3-0.8,5.3c-0.4,0-0.7-2.7-1.6-5.1
			c-0.9-2.6-1.5-3.1-2.8-3.1c-2.2,0-2.7,2.1-4.1,7.4c-0.2-0.8,0-6.2-0.8-8.3c-0.5-1.2-1.6-1.1-2.9-1.1c-0.9,0-1.1,0.5-0.9,1.9
			l0.7,8.4c0.3,3.1,1.8,3.9,3.2,3.9c2.1,0,3-0.2,3.8-2.1l1.7-4.5l0.9,3c1,3.3,1,3.7,2.5,3.7c5.4,0,5.3-4.4,5.3-11.3
			C244.3,8.7,243.6,8.6,242.5,8.6z M252.5,8.2c-4.3,0-6.5,2.1-6.5,7.6c0,3.4,1.2,7.6,5.7,7.6c3,0,6.6-2.2,6.6-7
			C258.4,12.5,256.9,8.2,252.5,8.2z M252.1,19.7c-2.6,0-2.8-3-2.8-4c0-2.8,0.9-4.2,3-4.2c2.3,0,2.7,2.5,2.7,4.7
			C254.9,17.7,254.2,19.7,252.1,19.7z M272.6,9.2c-0.9,0-0.2,7-1.5,8.6c-0.5-1.9-1.2-4.1-2.1-5.7c-1.3-2.4-3-3.1-4.4-3
			c-3.5,0.2-5.3,8.2-5.3,13.2c0,1.1,0.5,1.6,1.8,1.6c1.1,0,2-0.2,2.3-1.4c0.6-3,0.6-8.8,1.3-8.8c0.8,0,1.7,4.4,2.2,6.8
			c0.3,1.6,0.6,3.2,2.5,3.2c2,0,3.1-0.9,3.9-2.4c0.2-0.3-0.2,0.8-1,1.6c0.9-0.8,1.1-1.4,1.5-2.3c-0.1,0.7-0.4,1.1-0.6,1.6
			c0.6-0.7,3.5-5.2,2.3-12C275.3,9.2,273.6,9.2,272.6,9.2z M281.9,9c-0.9,0-3.1,0.3-3.8,1.3c-0.5,0.8-1,9.2-0.4,10.3
			c-0.7,1.9,2.2,3.4,5.6,3.1c2.6-0.2,4.2-1.6,4.7-2.3c-0.6,0.5-0.8,0.7-1.3,0.9c0.3-0.1,0.9-0.5,1.3-1.2c0.2-0.5,0.5-1,0.6-1.4
			c0,0.3-0.1,0.6-0.2,0.8c0.5-0.9,0.7-2.3,0.7-3.5C289.3,11,286.1,9,281.9,9z M282.8,20.1c-1,0-1.6,0-1.6-0.2c1-0.6,0.4-3.2,0.4-6.3
			c0-0.6,0.6-0.9,1.6-0.9c1.4,0,2.6,0.9,2.6,3.5C285.6,17.8,285.3,20.1,282.8,20.1z M287.2,21.8c0.4-0.5,0.8-0.9,1-1.5
			C288.1,21,287.5,21.6,287.2,21.8z M295.8,20h-0.6c-0.4,0-0.4-0.3-0.4-0.4v-2.8c0-0.2,0.2-0.4,0.4-0.4h1c2.2,0,2.5-0.8,2.5-1.5
			c0-0.7-0.4-1.5-2.5-1.5h-1c-0.2,0-0.4-0.1-0.4-0.4v-1.1c0-0.1,0-0.4,0.4-0.4h0.6c1.3,0,3.8,0,3.8-1.8c0-0.3-0.1-0.6-0.3-0.7
			c-1-0.7-3-0.6-4.1-0.6c-3.6,0-4.5,2.1-4.5,10.9c0,2.8,0.1,3.7,0.6,3.7c0.1,0,7,0.1,8-0.6c0.2-0.2,0.3-0.4,0.3-0.7
			C299.7,20,297.1,20,295.8,20z M306.5,8.8c-0.3,0-0.5,0.1-0.4,0.1C306.3,8.8,306.4,8.8,306.5,8.8z M312.8,13.2c0-2.9-2.8-5-6.3-4.5
			c0.5-0.1,1.4-0.1,2.1,0.3c0.1,0-0.9-0.2-1.1-0.2c-0.1,0,0.2,0.1,0.1,0.1c-5.6-0.3-6.3,3.7-6.3,8.5v4c0,1.1,0,2.4,1.7,2.4
			c0.6,0,1.5-0.2,1.5-1.6V19c0-0.4,0.1-0.8,0.2-0.7c0,0.2,0.2,0.5,0.2,0.4c0-0.1,0.2,0,0.3,0.4c0-0.3,0.3-0.3,0.4,0.1
			c0-0.1,0-0.5,0.1-0.4c0.1,0-0.1,0.5,1.5,0.8c0.5,0,1.7,1.4,1.9,2.5c0.3,1.4,0.5,1.6,1.7,1.6c1.1,0,2-0.6,2-1.4
			c0-2.1-1.5-3.9-3-5.2C311.3,16.9,312.8,15.3,312.8,13.2z M307.6,15.5c-1.2,0-1-0.9-2.2-0.9c-0.2,0-0.6,0.1-0.8,0.2
			c-0.2,0.2,0.2-2.4,2.5-2.4c1,0,1.8,0.5,1.8,1.5C308.9,14.8,308.2,15.5,307.6,15.5z M319.8,19.3c0-1.7,0-8.7-0.3-9.2
			c-0.2-0.4-0.3-0.6-2.1-0.6c-2,0-1.4,2.4-1.4,6.9c0,2.1-0.2,3.5-0.2,4c0,2.3,1,2.6,1,3c0.1-0.2,0.2-0.1,0.4,0.1
			c0-0.2,0.5,0,0.6,0.2c0.1-0.1,0.4,0,0.4,0.1c0.1-0.2,0.7-0.3,0.9-0.1c0-0.1,0.2-0.2,0.4-0.1c0-0.1,0.6,0,0.8,0
			c1.2,0,3.6,0.3,4.5-0.7c0.5-0.6,0.4-1.5,0.4-2.7C325,19.2,319.8,19.9,319.8,19.3z M336.1,9c-1.7-0.2-3.6-0.1-5.5,0.2
			c-0.6,0.1-0.9,0.6-1.1,1.1c-0.9,3.1-2.3,9.6-2.3,12.1c0,1.4,1,1.8,1.7,1.8c1.6,0,2.3-3.1,2.8-5h3.1c0.6,1.9,1.3,5,2.8,5
			c0.7,0,1.7-0.5,1.7-1.8c0-2.5-1.2-9.2-2-12.3C337.2,9.7,337.1,9.1,336.1,9z M334.1,16.6h-1.8c-0.1,0,0.7-3.5,0.9-4
			C333.4,13.1,334.2,16.6,334.1,16.6z M352.2,9c-1.5,0-1.9,0.4-1.9,1.4v6.2c-2-4.7-3.4-6.4-5.2-6.4c-4.4,0-4.5,8.1-4.5,10.4
			c0,1.7,0.4,3.5,2.2,3.5c1.6,0,2.6-1.3,2.6-2.7c-0.1,0.1-0.3,0.1-0.3-0.1s-0.1-5.8,0-6l2,3.7c1.5,2.8,3.4,3.7,4.8,3.7
			c1.9,0,2.7-1.6,2.7-3.8V9.7C354.4,9.1,353.5,9,352.2,9z M370.4,15.6c-0.5-4-4-5.2-4.7-5.5c-0.6-0.2-4-1-5.9-1
			c-1.5,0-2.3,0.9-2.3,2.5v8.5c0,1.2,0.6,2.8,2.6,2.5c0.9-0.1,2.4-1.1,2.4-1c0,0.1-0.8,0.4-1.1,0.7c0.7-0.5,2.2-0.7,2.2-0.6
			c0,0.1-1.5,0.6-1.1,0.6c0.3-0.1,4.4-0.7,6.1-2.1C369,19.8,370.8,18.5,370.4,15.6z M362.1,19.5v-5.2c0,0,2.8,0.2,3,1.9
			C365.3,18.1,363.4,19.1,362.1,19.5z"/>
	</g>
</g>
<g>
	<g>
		<defs>
			<path id="SVGID_1_" d="M389.9,24.5c-5.3-4.2,0.7-7.6,0.7-7.6s8.6-5.5,5.1-8.9c-1.6-1.6-9.5-1.9-9.5-1.9h-10.5
				c-0.5-2.5-1.3-4.5-2.3-5.1c-3.5-2.1-99.4,0.4-121.8,0.4c-16.4,0-32.2-2.7-32.5,5.1c0,0.7,0,1.4-0.1,2.1c-0.7-0.1-1.6-0.2-2.6-0.2
				h-6.8c-0.9,0-1.9,0.1-2.8,0.2c-2.3,0.3-6.2,0.9-8.1,1.7c-4.2,1.7,5.5,7.7,5.5,7.7s7.4,4.9,0.3,10.3c-10,7.7-10,9.4,4.4,10.8
				c2.4,0.2,10,0,10,0s10.4,0.9,12-8.3c18.5,0,103.8-1,134-0.3c0.8,8.6,10.6,7.5,10.6,7.5s7.6,0,10,0
				C398.6,38,402.2,34.1,389.9,24.5z"/>
		</defs>
		<clipPath id="SVGID_2_">
			<use xlink:href="#SVGID_1_"  overflow="visible"/>
		</clipPath>
		<g clip-path="url(#SVGID_2_)">
			<g>
				<path fill="#FFFFFF" d="M266.8,3.9c0-0.3-0.1-0.7-0.1-1c-0.1,0-0.1-0.1-0.2-0.1c-0.2,0.3-0.3,0.3-0.6,0.2c0.2,0.4-0.1,0.5,0,0.9
					c0.3,0,0.4,0.2,0.6,0.2C266.5,4,266.6,3.9,266.8,3.9z"/>
				<path fill="#FFFFFF" d="M254.8,3.3C254.8,3.7,255.1,3.3,254.8,3.3L254.8,3.3z"/>
				<path fill="#FFFFFF" d="M266.1,4.1C266,4.2,266.1,4.1,266.1,4.1L266.1,4.1z"/>
				<path fill="#FFFFFF" d="M254.2,7.5c0.6,0,0.6-0.8,0.1-0.8C254.3,7,254,7.2,254.2,7.5z"/>
				<path fill="#FFFFFF" d="M251.4,5.5c0.3,0.2,0,0.6,0.3,0.8c0.4,0,0.4-0.3,0.5-0.6c-0.3-0.1-0.4-0.3-0.7-0.4
					C251.5,5.4,251.5,5.5,251.4,5.5z"/>
				<path fill="#FFFFFF" d="M252.5,14.9c0-0.1,0.1-0.4-0.1-0.4C252.6,14.6,252.3,14.9,252.5,14.9z"/>
				<path fill="#FFFFFF" d="M251.5,17.1c0.3,0,0.3-0.1,0.4-0.3C251.7,16.6,251.4,16.8,251.5,17.1z"/>
				<path fill="#FFFFFF" d="M251.1,14.9c0.2,0,0-0.3,0-0.4C250.8,14.4,250.8,14.9,251.1,14.9z"/>
				<path fill="#FFFFFF" d="M249.8,5.7c-0.3,0-0.3,0.2-0.3,0.5C249.8,6.2,249.8,5.9,249.8,5.7z"/>
				<path fill="#FFFFFF" d="M249.5,7.1c0.2-0.1,0.4-0.1,0.3-0.4C249.6,6.6,249.3,6.9,249.5,7.1z"/>
				<path fill="#FFFFFF" d="M249.3,4c-0.2-0.1-0.3,0.3-0.1,0.3C249.2,4.2,249.4,4.3,249.3,4z"/>
				<path fill="#FFFFFF" d="M251,19c0.1-0.1,0.2-0.4,0-0.6c-0.1,0-0.2,0-0.2,0C250.8,18.6,250.7,19,251,19z"/>
				<path fill="#FFFFFF" d="M249.8,15.4c0.1,0.1,0.4,0,0.3-0.2C249.9,15.2,249.8,15.3,249.8,15.4z"/>
				<path fill="#FFFFFF" d="M246.2,8.4c0.2-0.4,0.5,0.1,0.6,0.1C247.6,7.9,246,6.9,246.2,8.4z"/>
				<path fill="#FFFFFF" d="M246.1,5c0-0.1,0.2-0.1,0.1-0.3C246,4.6,245.9,5,246.1,5z"/>
				<path fill="#FFFFFF" d="M246.1,13.1c-0.1,0.2-0.2,0.2-0.1,0.5"/>
				<path fill="#FFFFFF" d="M245.6,12.4c0.3,0,0.3-0.4,0.2-0.6C245.5,11.9,245.5,12.2,245.6,12.4z"/>
				<path fill="#FFFFFF" d="M244.4,8.3"/>
				<path fill="#FFFFFF" d="M243.2,4.9c0,0.2,0.2,0.1,0,0.3c0.3,0,0.5-0.1,0.4-0.4C243.5,4.7,243.3,4.8,243.2,4.9z"/>
				<path fill="#FFFFFF" d="M243.3,7.3c0.3,0,0.4-0.2,0.3-0.4c-0.1-0.1-0.4-0.1-0.5,0.1C243.2,7.1,243.2,7.2,243.3,7.3z"/>
				<path fill="#FFFFFF" d="M283.9,1.3c-0.3,0.2-0.8,0-0.8,0.5c0.2-0.1,0.3,0.1,0.6,0c0.1,0.1,0.1,0.5,0.3,0.5
					C284.2,2.1,284.1,1.5,283.9,1.3z"/>
				<path fill="#FFFFFF" d="M241.6,6.6c0.2,0,0.2,0.3,0.4,0.3c0.2-0.3-0.4-0.5,0-0.7c0.5,0,0.5,0.1,1,0.2
					C243.4,5.2,241.4,5.5,241.6,6.6z"/>
				<path fill="#FFFFFF" d="M242,7.5c0-0.1,0.1-0.2,0-0.3C241.8,7.1,241.8,7.5,242,7.5z"/>
				<path fill="#FFFFFF" d="M251.8,12.6c0,0.2,0,0.4,0.2,0.4c0.1-0.2,0.2-0.4-0.1-0.5C251.9,12.5,251.9,12.6,251.8,12.6z"/>
				<path fill="#FFFFFF" d="M240.9,26.3c-0.2,0-0.3,0.1-0.4,0.1C240.6,26.9,241.2,26.8,240.9,26.3z"/>
				<path fill="#FFFFFF" d="M238.3,10c0-0.1,0-0.2,0-0.3c-0.1,0-0.1,0-0.2,0C238.2,9.9,238.1,10.1,238.3,10z"/>
				<path fill="#FFFFFF" d="M238.8,23"/>
				<path fill="#FFFFFF" d="M238.6,24.5c0,0.2-0.2,0.2-0.1,0.4c0.2,0.1,0.3,0.3,0.6,0.3C239.2,24.9,239.1,24.3,238.6,24.5z"/>
				<path fill="#FFFFFF" d="M238,24c0.3,0,0.3-0.2,0.3-0.5C237.9,23.4,237.9,23.7,238,24z"/>
				<path fill="#FFFFFF" d="M245.5,1C245.5,1,245.4,1,245.5,1C245,0.9,246,1.4,245.5,1z"/>
				<path fill="#FFFFFF" d="M236.5,21.6c0-0.1,0.1-0.4-0.1-0.4C236.4,21.3,236.3,21.6,236.5,21.6z"/>
				<path fill="#FFFFFF" d="M243.3,1c0.1,0.2,0.3,0.4,0.5,0.5c0.1-0.1,0.1-0.3,0-0.5C243.5,1.2,243.5,0.8,243.3,1z"/>
				<path fill="#FFFFFF" d="M233.5,11c0.3,0,0.2-0.1,0.2-0.3C233.5,10.6,233.4,10.8,233.5,11z"/>
				<path fill="#FFFFFF" d="M232.1,6.5c-0.2,0-0.2,0.1-0.2,0.3C232.2,6.9,232.1,6.7,232.1,6.5z"/>
				<path fill="#FFFFFF" d="M234,22.7c-0.2,0-0.2,0.1-0.3,0.1c0,0.3,0.1,0.4,0.4,0.4C234,23,234.2,22.9,234,22.7z"/>
				<path fill="#FFFFFF" d="M231.2,10.5c0-0.1,0.1-0.1,0-0.2C231,10.1,231,10.5,231.2,10.5z"/>
				<path fill="#FFFFFF" d="M232.8,24.9C232.8,25.3,233.1,24.9,232.8,24.9L232.8,24.9z"/>
				<path fill="#FFFFFF" d="M230.4,7.4c-0.2-0.1-0.2,0.4,0,0.3C230.3,7.6,230.4,7.5,230.4,7.4z"/>
				<path fill="#FFFFFF" d="M230.8,12.2c-0.2,0-0.2,0.2-0.2,0.4C230.8,12.6,230.8,12.4,230.8,12.2z"/>
				<path fill="#FFFFFF" d="M270,2C269.8,2.2,270.3,2,270,2L270,2z"/>
				<path fill="#FFFFFF" d="M228,7.7c-0.3,0-0.4,0.5-0.1,0.5C227.9,8,228.1,7.9,228,7.7z"/>
				<path fill="#FFFFFF" d="M225.9,13.3"/>
				<path fill="#FFFFFF" d="M266.5,5.7c0.2,0.1,0.2-0.3,0-0.2c0,0,0,0.1-0.1,0.1C266.5,5.6,266.5,5.6,266.5,5.7z"/>
				<path fill="#FFFFFF" d="M225.9,11.9c0.3,0,0.2-0.4,0-0.4C225.9,11.6,225.9,11.8,225.9,11.9z"/>
				<path fill="#FFFFFF" d="M226.1,17.6C225.8,17.8,226.4,17.7,226.1,17.6L226.1,17.6z"/>
				<path fill="#FFFFFF" d="M265.2,1.9c0-0.3-0.3-0.2-0.4,0C265,1.9,265,2,265.2,1.9z"/>
				<path fill="#FFFFFF" d="M267.3,24c0.1,0,0.2,0,0.2,0c0-0.2-0.1-0.2-0.3-0.2C267.3,23.8,267.3,23.9,267.3,24z"/>
				<path fill="#FFFFFF" d="M267.9,29.3C267.8,29.7,268.1,29.3,267.9,29.3L267.9,29.3z"/>
				<path fill="#FFFFFF" d="M225.8,22.1c0-0.1,0.2-0.3,0-0.3C225.8,21.9,225.6,22.2,225.8,22.1z"/>
				<path fill="#FFFFFF" d="M224,8.8c-0.3,0-0.2,0.2-0.2,0.4C224.1,9.2,224.2,8.9,224,8.8z"/>
				<path fill="#FFFFFF" d="M267.4,28.1C267.2,28.4,267.7,28.3,267.4,28.1L267.4,28.1z"/>
				<path fill="#FFFFFF" d="M226.1,27.8c-0.1,0-0.1,0-0.2,0C225.8,28.1,226.1,28.1,226.1,27.8z"/>
				<path fill="#FFFFFF" d="M225.2,27.7c0.2,0,0.2-0.1,0.2-0.3C225.2,27.4,225.1,27.5,225.2,27.7z"/>
				<path fill="#FFFFFF" d="M224.1,19.3c0-0.1,0.2-0.3,0-0.3C224,19,223.9,19.3,224.1,19.3z"/>
				<path fill="#FFFFFF" d="M262.8,3C262.5,2.8,263,3.2,262.8,3L262.8,3z"/>
				<path fill="#FFFFFF" d="M263.4,7.9C263.4,7.9,263.5,7.8,263.4,7.9L263.4,7.9z"/>
				<path fill="#FFFFFF" d="M263.2,6.4C262.9,6.7,263.5,6.5,263.2,6.4L263.2,6.4z"/>
				<path fill="#FFFFFF" d="M261.8,1.2c0.2,0.1,0.4,0.3,0.6,0.2C262.8,0.9,261.8,0.7,261.8,1.2z"/>
				<path fill="#FFFFFF" d="M262.6,2.5L262.6,2.5C262,2.4,263,2.9,262.6,2.5z"/>
				<path fill="#FFFFFF" d="M265,25.2c0-0.1,0-0.3-0.1-0.4C264.6,24.7,264.7,25.3,265,25.2z"/>
				<path fill="#FFFFFF" d="M223.2,22c-0.2,0-0.2,0.1-0.2,0.3C223.2,22.3,223.4,22.1,223.2,22z"/>
				<path fill="#FFFFFF" d="M221.2,12.5c0,0.1,0,0.2,0,0.2c0.1,0,0.2-0.1,0.1-0.3C221.3,12.5,221.3,12.5,221.2,12.5z"/>
				<path fill="#FFFFFF" d="M263.4,24.3c0-0.2,0-0.4-0.1-0.5c-0.1,0-0.2,0-0.3,0.1C263,24.2,263.1,24.4,263.4,24.3z"/>
				<path fill="#FFFFFF" d="M263.2,27.2c0-0.1,0-0.1,0-0.2c-0.1,0-0.1,0-0.2,0c0,0.1,0,0.1,0,0.2C263.1,27.2,263.2,27.2,263.2,27.2z
					"/>
				<path fill="#FFFFFF" d="M262.8,25.4c-0.2,0-0.2,0.1-0.2,0.3C262.9,25.8,262.9,25.6,262.8,25.4z"/>
				<path fill="#FFFFFF" d="M259.5,10.1"/>
				<path fill="#FFFFFF" d="M261.9,29.3c0,0.2,0.1,0.3,0.3,0.3C262.3,29.4,262.2,29.2,261.9,29.3z"/>
				<path fill="#FFFFFF" d="M218.4,13.5c0,0.4,0.3,0.3,0.5,0.4c0-0.2,0.1-0.2,0.1-0.4C218.8,13.5,218.6,13.3,218.4,13.5z"/>
				<path fill="#FFFFFF" d="M219.1,20c0.1,0,0.2,0,0.2,0c0-0.1,0-0.2,0-0.2C219.2,19.8,219.1,19.8,219.1,20z"/>
				<path fill="#FFFFFF" d="M217.4,16.2c0.2,0,0.2-0.1,0.2-0.3C217.4,15.9,217.3,16,217.4,16.2z"/>
				<path fill="#FFFFFF" d="M218.6,23.9c0-0.1,0-0.2,0-0.3C218.2,23.5,218.2,24.1,218.6,23.9z"/>
				<path fill="#FFFFFF" d="M217.7,18c0.2-0.4-0.2-0.8-0.6-0.7C216.9,17.6,217.2,18.2,217.7,18z"/>
				<path fill="#FFFFFF" d="M257.1,4.5c0-0.1,0-0.1,0-0.2c-0.1,0-0.1,0-0.2,0c0,0.1,0,0.1,0,0.2C257,4.5,257.1,4.5,257.1,4.5z"/>
				<path fill="#FFFFFF" d="M259.3,21.2c-0.1,0-0.1,0-0.2,0c0,0.1,0,0.2,0,0.2C259.3,21.4,259.3,21.3,259.3,21.2z"/>
				<path fill="#FFFFFF" d="M216.7,14.2c0.4,0,0.3-0.5-0.1-0.5C216.5,13.9,216.5,14.1,216.7,14.2z"/>
				<path fill="#FFFFFF" d="M216.2,10.7C216.7,9,214.4,10.7,216.2,10.7L216.2,10.7z"/>
				<path fill="#FFFFFF" d="M215.9,8.6c0-0.2-0.2-0.2-0.2-0.4c-0.1,0-0.2,0-0.3,0C215.1,8.6,215.7,8.9,215.9,8.6z"/>
				<path fill="#FFFFFF" d="M257.5,22.7c0.4-0.3,0.5,0.2,0.8,0.3C259,22.4,257.4,21.7,257.5,22.7z"/>
				<path fill="#FFFFFF" d="M215.8,14.5c0-0.2,0-0.4-0.1-0.5c-0.2,0-0.3,0.1-0.5,0.1C215.3,14.5,215.5,14.5,215.8,14.5z"/>
				<path fill="#FFFFFF" d="M216.2,22.4c0.1-0.3,0.2,0.2,0.5,0c0.1-0.2,0-0.3-0.1-0.5C216.2,21.9,216,22.3,216.2,22.4z"/>
				<path fill="#FFFFFF" d="M214.9,9.3C215.1,8.8,214.6,9,214.9,9.3L214.9,9.3z"/>
				<path fill="#FFFFFF" d="M214.6,10.2c0.2,0,0.3-0.2,0.4-0.4C214.6,9.8,214.7,10,214.6,10.2z"/>
				<path fill="#FFFFFF" d="M215.1,15.7c-0.2-0.4,0-0.2,0.3-0.5c0-0.4-0.4-0.3-0.6-0.5C214.7,15.2,214.7,15.5,215.1,15.7z"/>
				<path fill="#FFFFFF" d="M214.4,10.3c0-0.1,0.3-0.4,0-0.4C214.3,10,214,10.1,214.4,10.3z"/>
				<path fill="#FFFFFF" d="M214.7,12.7C214.4,12.8,215,12.8,214.7,12.7L214.7,12.7z"/>
				<path fill="#FFFFFF" d="M215.3,17.1C215.2,17.5,215.5,17.1,215.3,17.1L215.3,17.1z"/>
				<path fill="#FFFFFF" d="M215.9,23.9c0.4-0.9-1.3-0.9-1,0C215.3,23.7,215.5,23.9,215.9,23.9z"/>
				<path fill="#FFFFFF" d="M214.1,12.8c0,0.1,0,0.2,0,0.3C214.5,13.1,214.4,12.7,214.1,12.8z"/>
				<path fill="#FFFFFF" d="M215.3,22c0.1,0,0.2,0,0.2,0c0-0.1,0-0.2,0-0.2C215.3,21.7,215.3,21.8,215.3,22z"/>
				<path fill="#FFFFFF" d="M254.6,15.3C254.8,15,254.3,15.1,254.6,15.3L254.6,15.3z"/>
				<path fill="#FFFFFF" d="M212.2,10.3c-0.2,0-0.2,0.1-0.2,0.3C212.2,10.6,212.2,10.5,212.2,10.3z"/>
				<path fill="#FFFFFF" d="M253.6,15.2c0.2,0,0.1,0.2,0.3,0.1c0-0.1,0-0.2,0-0.2C253.7,15.1,253.6,15.1,253.6,15.2z"/>
				<path fill="#FFFFFF" d="M213.1,21.5c-0.2-0.1-0.4,0.1-0.4,0.3C213,21.7,213.2,21.7,213.1,21.5z"/>
				<path fill="#FFFFFF" d="M251.5,4.4c0.2,0,0.2,0.1,0.3,0.1c0-0.2,0.3-0.2,0.3-0.4C251.8,3.9,251.4,4.1,251.5,4.4z"/>
				<path fill="#FFFFFF" d="M213.6,27c-0.3-0.1-0.3,0.4,0,0.3C213.7,27.3,213.6,27.1,213.6,27z"/>
				<path fill="#FFFFFF" d="M249.8,1C249.8,1.3,250,1,249.8,1L249.8,1z"/>
				<path fill="#FFFFFF" d="M250.8,12.3c0.2,0,0.1-0.2,0.2-0.3C250.8,12,250.8,12.1,250.8,12.3z"/>
				<path fill="#FFFFFF" d="M251.6,24.7c0.3,0,0.4,0.4,0.7,0.5C252.6,24.6,251.7,24.2,251.6,24.7z"/>
				<path fill="#FFFFFF" d="M250.8,17.3c0.2,0,0.1,0.2,0.3,0.1c0-0.1,0-0.2,0-0.3C250.9,17.1,250.8,17.2,250.8,17.3z"/>
				<path fill="#FFFFFF" d="M248.5,2.1c0.2,0,0.4,0,0.4-0.3C248.7,1.7,248.5,1.9,248.5,2.1z"/>
				<path fill="#FFFFFF" d="M250.3,14.7C250.2,14.8,250.3,14.7,250.3,14.7L250.3,14.7z"/>
				<path fill="#FFFFFF" d="M250.8,26.7C250.8,26.6,250.7,26.7,250.8,26.7L250.8,26.7z"/>
				<path fill="#FFFFFF" d="M246.5,5.3c0.3,0,0.4,0.3,0.7,0.3C247.8,4.9,246.4,4.2,246.5,5.3z"/>
				<path fill="#FFFFFF" d="M249.9,28.5c0.1,0,0.2,0.2,0.2,0.3C250.6,28.7,250,27.9,249.9,28.5z"/>
				<path fill="#FFFFFF" d="M246.9,6.9c-0.2-0.1-0.2,0.3,0,0.2C246.8,7.1,246.9,7,246.9,6.9z"/>
				<path fill="#FFFFFF" d="M246.7,7.4C246.2,7.4,246.7,7.8,246.7,7.4L246.7,7.4z"/>
				<path fill="#FFFFFF" d="M248.9,28.8c0,0.2,0.1,0.4,0.3,0.4C249.2,28.9,249.1,28.7,248.9,28.8z"/>
				<path fill="#FFFFFF" d="M247.4,28c0.3-0.1,0.4,0,0.6,0.1C248.2,27.7,247.4,27.6,247.4,28z"/>
				<path fill="#FFFFFF" d="M245.8,13.4c0-0.1,0.1,0,0.2,0c0-0.1,0.1-0.1,0-0.2C245.8,13.1,245.6,13.3,245.8,13.4z"/>
				<path fill="#FFFFFF" d="M244.2,1.5c0.3-0.5-0.6-0.7-0.6-0.2C244,1.1,244,1.5,244.2,1.5z"/>
				<path fill="#FFFFFF" d="M245.7,16.1c0,0.1,0,0.1,0,0.2c0.1,0,0.1,0,0.2,0c0-0.1,0-0.1,0-0.2C245.8,16.1,245.7,16.1,245.7,16.1z"
					/>
				<path fill="#FFFFFF" d="M245.3,16C245.1,16.3,245.6,16.1,245.3,16L245.3,16z"/>
				<path fill="#FFFFFF" d="M246,29c0,0.2,0.2,0.7,0.4,0.9C246.6,29.5,246.4,29,246,29z"/>
				<path fill="#FFFFFF" d="M242.7,5.6c0-0.1,0-0.1,0-0.2c-0.1,0-0.1,0-0.2,0c0,0.1,0,0.1,0,0.2C242.6,5.7,242.6,5.7,242.7,5.6z"/>
				<path fill="#FFFFFF" d="M241.5,3.5c0.2-0.1,0.4-0.2,0.5,0c0,0.3-0.1,0.5,0.2,0.5C242.5,3.2,241.6,2.6,241.5,3.5z"/>
				<path fill="#FFFFFF" d="M245.3,27.5c-0.2-0.1-0.1,0.1-0.4,0.1C244.9,28,245.4,27.9,245.3,27.5z"/>
				<path fill="#FFFFFF" d="M244.7,25.1C244.7,25.6,244.9,25.2,244.7,25.1L244.7,25.1z"/>
				<path fill="#FFFFFF" d="M243.7,24.7c-0.1,0-0.2,0-0.2,0.1C243.5,24.9,243.8,25,243.7,24.7z"/>
				<path fill="#FFFFFF" d="M243.2,23.8c0.8-0.2-0.4-0.9-0.4-0.2C243,23.5,243.2,23.4,243.2,23.8z"/>
				<path fill="#FFFFFF" d="M240.7,3.2c0,0.1,0,0.1,0,0.2c0.1,0,0.1,0,0.2,0c0-0.1,0-0.1,0-0.2C240.8,3.2,240.7,3.2,240.7,3.2z"/>
				<path fill="#FFFFFF" d="M243.1,22.7c0,0.1,0,0.1,0,0.2c0.1,0,0.1,0,0.2,0c0-0.1,0-0.1,0-0.2C243.2,22.7,243.2,22.7,243.1,22.7z"
					/>
				<path fill="#FFFFFF" d="M242.6,22.3c0.2,0.1,0.3-0.3,0.1-0.3C242.7,22.1,242.5,22.1,242.6,22.3z"/>
				<path fill="#FFFFFF" d="M240.1,1.4c0-0.2,0.1-0.3-0.1-0.4C239.7,1,239.8,1.6,240.1,1.4z"/>
				<path fill="#FFFFFF" d="M242.5,28.4c0.1,0,0.2,0.2,0.3,0.2c0.2-0.1,0.1-0.5-0.1-0.6C242.6,28.1,242.5,28.2,242.5,28.4z"/>
				<path fill="#FFFFFF" d="M239.5,8c0-0.2,0.2-0.3,0.2-0.5c-0.3-0.2-0.8-0.1-0.7,0.3C239.1,8,239.4,7.7,239.5,8z"/>
				<path fill="#FFFFFF" d="M241.7,26.5c0.7-0.9-1.2-1.1-1.1-0.1C241,25.8,241.6,26.2,241.7,26.5z"/>
				<path fill="#FFFFFF" d="M239.1,9.2C239.6,9.2,239,8.8,239.1,9.2L239.1,9.2z"/>
				<path fill="#FFFFFF" d="M238.2,1.7c-0.3,0.1-0.5,0.2-0.6,0.4c0.3,0,0.4,0,0.6,0.2C238.4,2.1,238.3,1.8,238.2,1.7z"/>
				<path fill="#FFFFFF" d="M238.7,7.1c0.2,0,0.3-0.3,0-0.3C238.7,6.9,238.6,6.9,238.7,7.1z"/>
				<path fill="#FFFFFF" d="M237.5,1.2c0,0.2,0.3,0.1,0.4,0.2c0-0.1,0-0.2,0-0.3C237.7,1.1,237.8,1.2,237.5,1.2z"/>
				<path fill="#FFFFFF" d="M239.1,11.7c0-0.1,0-0.2,0-0.3c-0.2,0-0.4,0-0.4,0.2C238.9,11.5,238.9,11.8,239.1,11.7z"/>
				<path fill="#FFFFFF" d="M240.2,27.8c-0.1,0.2-0.2,0.4-0.1,0.6c0.5,0,0.3,0.5,0.6,0.6C241.1,28.5,241.2,27.6,240.2,27.8z"/>
				<path fill="#FFFFFF" d="M238.6,11.7C238.6,11.7,238.6,11.6,238.6,11.7L238.6,11.7z"/>
				<path fill="#FFFFFF" d="M238.5,13.8c0.3-0.4,0.2,0.4,0.5,0.4c-0.2-0.4,0.1-0.3,0-0.7C238.8,13.3,238.2,13.5,238.5,13.8z"/>
				<path fill="#FFFFFF" d="M239.1,16.8C238.9,17,239.4,16.9,239.1,16.8L239.1,16.8z"/>
				<path fill="#FFFFFF" d="M238.4,15.6c0.2,0,0.2,0.1,0.4,0.1C238.9,15.4,238.4,15.3,238.4,15.6z"/>
				<path fill="#FFFFFF" d="M238.6,16.2c0.1,0,0.1,0.1,0.2,0c0-0.1,0-0.2-0.1-0.2C238.8,16.1,238.6,16.1,238.6,16.2z"/>
				<path fill="#FFFFFF" d="M239.1,19.2L239.1,19.2"/>
				<path fill="#FFFFFF" d="M236.9,3.4c-0.1,0-0.1,0-0.2,0"/>
				<path fill="#FFFFFF" d="M237.9,13.9c0,0.1,0,0.1,0,0.2c0.1,0,0.1,0,0.2,0c0-0.1,0-0.1,0-0.2C238,13.9,237.9,13.9,237.9,13.9z"/>
				<path fill="#FFFFFF" d="M238.1,17.1c0,0.2,0.2,0.2,0.4,0.3c0-0.1,0-0.2,0-0.3C238.3,17.1,238.2,17.1,238.1,17.1z"/>
				<path fill="#FFFFFF" d="M235.8,6.5c0-0.1,0-0.2,0-0.3c-0.2,0-0.6,0.2-0.4,0.3C235.5,6.2,235.6,6.5,235.8,6.5z"/>
				<path fill="#FFFFFF" d="M235.2,8.6c0.3-0.5-0.4-1-1-1c0.1,0.1-0.2,0.4,0.1,0.4C234.6,7.8,235,8.3,235.2,8.6z"/>
				<path fill="#FFFFFF" d="M233.6,1c-0.4-0.1-0.2,0.5,0.1,0.4C233.7,1.3,233.7,1.1,233.6,1z"/>
				<path fill="#FFFFFF" d="M235.6,18C235.5,18,235.6,17.9,235.6,18L235.6,18z"/>
				<path fill="#FFFFFF" d="M234.2,8.1C234.2,8.1,234.2,8.2,234.2,8.1c-0.1,0.2-0.1,0.2,0,0.3C234.3,8.4,234.3,8,234.2,8.1z"/>
				<path fill="#FFFFFF" d="M233.4,5.1C233.4,5.4,233.7,5.1,233.4,5.1L233.4,5.1z"/>
				<path fill="#FFFFFF" d="M235.7,22.8c0-0.1,0.1-0.2,0-0.3C235.5,22.4,235.5,22.8,235.7,22.8z"/>
				<path fill="#FFFFFF" d="M234.2,10.6c0-0.2-0.1-0.2-0.1-0.4c-0.2,0-0.3,0.1-0.3,0.3C234,10.3,233.9,10.7,234.2,10.6z"/>
				<path fill="#FFFFFF" d="M233.2,5.1C233.2,5.1,233.3,5,233.2,5.1L233.2,5.1z"/>
				<path fill="#FFFFFF" d="M235.7,26C235.7,26,235.7,26.1,235.7,26c-0.1,0.2-0.1,0.2,0,0.3C235.9,26.3,235.9,25.9,235.7,26z"/>
				<path fill="#FFFFFF" d="M233.3,8C233.3,8.1,233.4,8,233.3,8L233.3,8z"/>
				<path fill="#FFFFFF" d="M235,21.9c0.1,0,0.1,0,0.2,0C235.4,21.7,234.8,21.5,235,21.9z"/>
				<path fill="#FFFFFF" d="M234.2,22.9c0.4,0,0.5,0.4,0.8,0.4c1.1-1.2-1.8-1.5-1.2-0.1C234.2,23.2,234,22.8,234.2,22.9z"/>
				<path fill="#FFFFFF" d="M234.6,21.1C234.4,21.4,234.9,21.2,234.6,21.1L234.6,21.1z"/>
				<path fill="#FFFFFF" d="M235.7,29.3c0-0.1,0-0.3-0.1-0.4c-0.3,0-0.3,0.1-0.4,0.3C235.5,29.1,235.5,29.2,235.7,29.3z"/>
				<path fill="#FFFFFF" d="M234.8,28.2c0,0.4,0.3,0.4,0.5,0.4C235.5,28.3,235.2,28,234.8,28.2z"/>
				<path fill="#FFFFFF" d="M232,4.4c-0.2,0-0.2,0.1-0.2,0.3C231.9,4.7,232,4.6,232,4.4z"/>
				<path fill="#FFFFFF" d="M231.8,11.4c0-0.2,0.2-0.2,0.4-0.3c0.2,0.2,0.4,0.3,0.5,0.5C233.2,10.7,231.5,10.7,231.8,11.4z"/>
				<path fill="#FFFFFF" d="M231.5,3.4c-0.2-0.1-0.3,0-0.4,0.2c0.1,0,0.2,0.1,0.3,0C231.5,3.5,231.6,3.5,231.5,3.4z"/>
				<path fill="#FFFFFF" d="M231.5,4.1c-0.1,0-0.1-0.1-0.2,0c-0.1,0.2,0.1,0.2,0.2,0.3C231.5,4.2,231.5,4.2,231.5,4.1z"/>
				<path fill="#FFFFFF" d="M232.1,9.3C231.9,9.5,232.4,9.4,232.1,9.3L232.1,9.3z"/>
				<path fill="#FFFFFF" d="M231.5,5C231.4,5.1,231.5,5,231.5,5L231.5,5z"/>
				<path fill="#FFFFFF" d="M233.5,28C233.6,27.9,233.5,28,233.5,28L233.5,28z"/>
				<path fill="#FFFFFF" d="M231.1,12.5c0-0.1,0.1-0.1,0-0.2C231,12.2,231,12.6,231.1,12.5z"/>
				<path fill="#FFFFFF" d="M232.5,25.3c0.1-0.2,0.3-0.4,0.1-0.6c-0.3,0-0.4,0.2-0.3,0.4C232.6,24.9,232.2,25.1,232.5,25.3z"/>
				<path fill="#FFFFFF" d="M228.8,1.3c0,0.1,0,0.1,0,0.2c0.1,0,0.1,0,0.2,0c0-0.1,0-0.1,0-0.2C228.8,1.3,228.8,1.3,228.8,1.3z"/>
				<path fill="#FFFFFF" d="M229,5.7"/>
				<path fill="#FFFFFF" d="M229.2,8.1L229.2,8.1C228.7,8,229.7,8.4,229.2,8.1z"/>
				<path fill="#FFFFFF" d="M228.1,6.6"/>
				<path fill="#FFFFFF" d="M229.6,19.8C229.6,19.8,229.6,19.7,229.6,19.8L229.6,19.8z"/>
				<path fill="#FFFFFF" d="M227.4,5.1c0,0.2,0.1,0.3,0.2,0.3C227.6,5.2,227.5,5.1,227.4,5.1z"/>
				<path fill="#FFFFFF" d="M225.8,7.7c0,0.1,0,0.1,0,0.2c0.1,0,0.1,0,0.2,0c0-0.1,0-0.1,0-0.2C225.9,7.7,225.8,7.7,225.8,7.7z"/>
				<path fill="#FFFFFF" d="M227.9,23.5c-0.4,0-0.4,0.2-0.5,0.4c0.3-0.1,0.2-0.1,0.6-0.1C227.9,23.6,227.9,23.5,227.9,23.5z"/>
				<path fill="#FFFFFF" d="M225.7,12.1c-0.2,0-0.3,0.1-0.2,0.3C225.7,12.4,225.8,12.3,225.7,12.1z"/>
				<path fill="#FFFFFF" d="M225.7,14.4C225.7,14.4,225.7,14.4,225.7,14.4L225.7,14.4z"/>
				<path fill="#FFFFFF" d="M225.5,15c-0.3,0-0.3,0.1-0.3,0.4C225.5,15.3,225.6,15.2,225.5,15z"/>
				<path fill="#FFFFFF" d="M226.1,28.4c0.1-0.1,0.1-0.3-0.1-0.4c-0.2,0.1-0.4,0.1-0.4,0.4C225.9,28.2,225.9,28.4,226.1,28.4z"/>
				<path fill="#FFFFFF" d="M223.9,12.8C223.9,13.2,224.2,12.8,223.9,12.8L223.9,12.8z"/>
				<path fill="#FFFFFF" d="M225.5,27c-0.2,0-0.2,0.1-0.2,0.3C225.5,27.3,225.5,27.2,225.5,27z"/>
				<path fill="#FFFFFF" d="M224.5,19.6c-0.3,0-0.2,0.1-0.2,0.3C224.5,19.9,224.4,19.6,224.5,19.6z"/>
				<path fill="#FFFFFF" d="M225,26.3C225.4,26.3,224.8,25.8,225,26.3L225,26.3z"/>
				<path fill="#FFFFFF" d="M220.9,6.2c0.2,0.1,0.2-0.1,0.5-0.1c0,0.2,0.1,0.3,0.1,0.4c0.4-0.1,0.6,0,0.8,0.1
					C222.7,6,220.9,5.4,220.9,6.2z"/>
				<path fill="#FFFFFF" d="M225.7,32.9c0-0.1,0-0.2,0-0.2c-0.1-0.1-0.6-0.1-0.5,0.2C225.4,32.8,225.5,33,225.7,32.9z"/>
				<path fill="#FFFFFF" d="M231.3,0.9C231.1,1,230.9,1,231,1.3C231.3,1.4,231.4,1.2,231.3,0.9z"/>
				<path fill="#FFFFFF" d="M223.9,19.9c-0.2-0.1-0.4,0.1-0.4,0.3C223.7,20.2,223.9,20.1,223.9,19.9z"/>
				<path fill="#FFFFFF" d="M225.1,29.1c-0.1,0-0.1,0-0.2,0c0,0.1,0,0.4,0.2,0.3C225.1,29.3,225.1,29.2,225.1,29.1z"/>
				<path fill="#FFFFFF" d="M224.7,33.7C224.7,33.7,224.7,33.8,224.7,33.7L224.7,33.7z"/>
				<path fill="#FFFFFF" d="M222.8,22.9C222.8,23.2,223,22.9,222.8,22.9L222.8,22.9z"/>
				<path fill="#FFFFFF" d="M221.1,12"/>
				<path fill="#FFFFFF" d="M223.3,29.1C223.2,29.4,223.5,29.1,223.3,29.1L223.3,29.1z"/>
				<path fill="#FFFFFF" d="M223.1,34.4c0,0.1,0,0.1,0,0.2c0.1,0,0.1,0,0.2,0c0-0.1,0-0.1,0-0.2C223.2,34.4,223.1,34.4,223.1,34.4z"
					/>
				<path fill="#FFFFFF" d="M223.3,36.2"/>
				<path fill="#FFFFFF" d="M219.7,9.4c-0.2,0-0.3,0.1-0.2,0.3C219.7,9.7,219.7,9.6,219.7,9.4z"/>
				<path fill="#FFFFFF" d="M221,26.3c0.2,0,0.2-0.1,0.2-0.3C221,26,221,26.1,221,26.3z"/>
				<path fill="#FFFFFF" d="M218.6,8.2c0-0.1-0.1-0.2-0.2-0.2C218.4,8.2,218.4,8.3,218.6,8.2z"/>
				<path fill="#FFFFFF" d="M220.9,36.1c-0.1,0-0.2,0-0.2,0C220.6,36.3,221,36.3,220.9,36.1z"/>
				<path fill="#FFFFFF" d="M226.3,1.6c-0.2-0.9-1.5,0.1-1,0.6C225.3,1.7,225.9,1.7,226.3,1.6z"/>
				<path fill="#FFFFFF" d="M218.7,20.6C218.5,20.8,219,20.7,218.7,20.6L218.7,20.6z"/>
				<path fill="#FFFFFF" d="M218.3,24.6C218.1,24.9,218.6,24.7,218.3,24.6L218.3,24.6z"/>
				<path fill="#FFFFFF" d="M217.6,19.8C217,20.1,218,20.3,217.6,19.8L217.6,19.8z"/>
				<path fill="#FFFFFF" d="M217.3,17.7c-0.1-0.2-0.2-0.3-0.4-0.3c0,0.1-0.1,0.1,0,0.2C217.1,17.6,217.1,17.8,217.3,17.7
					C217.2,17.8,217.2,17.7,217.3,17.7z"/>
				<path fill="#FFFFFF" d="M216.9,26.7c-0.1,0-0.2,0-0.3,0C216.5,27.2,217,27.1,216.9,26.7z"/>
				<path fill="#FFFFFF" d="M217.3,31.1c0-0.1,0-0.1,0-0.2c-0.1,0-0.1,0-0.2,0c0,0.1,0,0.1,0,0.2C217.2,31.1,217.3,31.1,217.3,31.1z
					"/>
				<path fill="#FFFFFF" d="M216.7,31.9C216.4,32.1,217,32,216.7,31.9L216.7,31.9z"/>
				<path fill="#FFFFFF" d="M215.7,25.7c-0.4,0.1-0.3,0.1-0.6,0.1c-0.2,0.2,0.2,0.2,0.2,0.6c0.2,0,0.1-0.1,0.2-0.2
					c0.2,0.2,0.3,0.1,0.2,0.5c0.1,0.1,0.2,0.1,0.4,0C215.8,26.3,215.8,26.1,215.7,25.7z"/>
				<path fill="#FFFFFF" d="M216.3,31.5c-0.2,0.1,0,0.6,0.2,0.5C216.6,31.9,216.5,31.4,216.3,31.5z"/>
				<path fill="#FFFFFF" d="M214.1,19.1C213.7,19.1,214.1,19.4,214.1,19.1L214.1,19.1z"/>
				<path fill="#FFFFFF" d="M214.2,30.3c0-0.7,0.7-0.2,0.9,0C215.5,29.1,213.4,29.6,214.2,30.3z"/>
				<path fill="#FFFFFF" d="M213,16.5C212.9,16.5,213,16.5,213,16.5L213,16.5z"/>
				<path fill="#FFFFFF" d="M214.9,31.3c-0.2,0-0.5-0.2-0.6,0c0,0.4,0.3,0.4,0.6,0.4C214.8,31.5,214.9,31.5,214.9,31.3z"/>
				<path fill="#FFFFFF" d="M213.3,21.4C213.3,21.4,213.4,21.3,213.3,21.4L213.3,21.4z"/>
				<path fill="#FFFFFF" d="M211.3,20.5C211.1,20.8,211.6,20.6,211.3,20.5L211.3,20.5z"/>
				<path fill="#FFFFFF" d="M209.4,11.5c0,0.1,0,0.3,0.2,0.2C209.5,11.6,209.5,11.5,209.4,11.5z"/>
				<path fill="#FFFFFF" d="M209.5,14.4c0.1,0,0.1,0,0.2,0C209.9,14.2,209.4,14.1,209.5,14.4z"/>
				<path fill="#FFFFFF" d="M209.5,16.7c-0.2,0-0.4,0-0.3,0.3C209.4,16.9,209.5,16.9,209.5,16.7z"/>
				<path fill="#FFFFFF" d="M208,14.3c0-0.1,0.1-0.2,0-0.3C207.8,13.9,207.8,14.3,208,14.3z"/>
				<path fill="#FFFFFF" d="M207.8,15.7C207.7,15.8,207.8,15.7,207.8,15.7L207.8,15.7z"/>
				<path fill="#FFFFFF" d="M210,33.6C210,33.6,210,33.7,210,33.6c-0.1,0.2-0.1,0.2,0,0.3C210.2,33.9,210.2,33.6,210,33.6z"/>
				<path fill="#FFFFFF" d="M208.9,28.9c0.1,0.1-0.2,0.4,0.1,0.4C209,29.1,209.2,28.9,208.9,28.9z"/>
				<path fill="#FFFFFF" d="M209.7,12.9C209.9,12.6,209.4,12.8,209.7,12.9L209.7,12.9z"/>
				<path fill="#FFFFFF" d="M205.1,9.6c-0.4,0.1-0.7,0.5-0.5,0.9c0.3-0.2,0.4,0,0.6,0C205.3,10.2,205.1,9.8,205.1,9.6z"/>
				<path fill="#FFFFFF" d="M202.8,8.8C202.6,8.9,203.1,8.9,202.8,8.8L202.8,8.8z"/>
				<path fill="#FFFFFF" d="M208.6,26.9c0-0.1,0.2-0.1,0.1-0.3C208.5,26.5,208.5,26.9,208.6,26.9z"/>
				<path fill="#FFFFFF" d="M208.8,28.3C208.8,28.4,208.8,28.3,208.8,28.3L208.8,28.3z"/>
				<path fill="#FFFFFF" d="M206.7,14.6C206.6,14.9,206.9,14.5,206.7,14.6L206.7,14.6z"/>
				<path fill="#FFFFFF" d="M206.7,15C206.7,15.1,206.8,15,206.7,15L206.7,15z"/>
				<path fill="#FFFFFF" d="M201.7,11.4C201.7,11.7,201.9,11.4,201.7,11.4L201.7,11.4z"/>
				<path fill="#FFFFFF" d="M207.6,27.1C207.6,27.2,207.7,27.1,207.6,27.1L207.6,27.1z"/>
				<path fill="#FFFFFF" d="M199.4,11.3C199,11.7,199.7,11.7,199.4,11.3L199.4,11.3z"/>
				<path fill="#FFFFFF" d="M251,4.3c0.1-0.1,0.1-0.3,0.1-0.5c-0.2,0-0.3,0.2-0.3,0.4c0-0.5-0.3-0.1-0.5-0.1c0-0.1,0-0.2,0-0.2
					c-0.1,0-0.1,0-0.2,0c0,0.2-0.1,0.2-0.1,0.4C250.3,4.3,250.7,4.1,251,4.3z"/>
				<path fill="#FFFFFF" d="M252.1,3.8c-0.2,0.1-0.4,0.2-0.2,0.5C252.2,4.3,252.2,3.8,252.1,3.8z"/>
				<path fill="#FFFFFF" d="M219,16.2C218.8,16.5,219.2,15.9,219,16.2L219,16.2z"/>
				<path fill="#FFFFFF" d="M216.1,16.2c-0.2,0-0.3,0.4-0.2,0.3C215.9,16.4,216.2,16.5,216.1,16.2z"/>
				<path fill="#FFFFFF" d="M214.6,16.1c0.2-0.1,0.4,0.4,0.4,0.3C215,16,214.8,15.6,214.6,16.1z"/>
				<path fill="#FFFFFF" d="M243.7,1.9C243.7,1.9,243.6,2,243.7,1.9c0.4-0.2-0.1-0.3,0-0.6c-0.2,0.1-0.4,0.3-0.4,0.5
					C243.5,1.9,243.6,1.7,243.7,1.9z"/>
				<path fill="#FFFFFF" d="M234.3,8.9L234.3,8.9L234.3,8.9z"/>
				<path fill="#FFFFFF" d="M234.3,8.8c0-0.1,0-0.1,0.1-0.1C234.4,8.7,234.4,8.8,234.3,8.8z"/>
				<path fill="#FFFFFF" d="M234.3,8.8C234.3,8.8,234.3,8.8,234.3,8.8C234.3,8.9,234.3,8.8,234.3,8.8z"/>
				<path fill="#FFFFFF" d="M234.3,8.9C234.3,8.9,234.3,8.9,234.3,8.9L234.3,8.9z"/>
				<path fill="#FFFFFF" d="M232.1,2.5C231.9,2.8,232.2,2.3,232.1,2.5L232.1,2.5z"/>
				<path fill="#FFFFFF" d="M231.9,14.7C231.7,15,232.1,14.5,231.9,14.7L231.9,14.7z"/>
				<path fill="#FFFFFF" d="M218.2,19.5c-0.1-0.3,0.1-0.5-0.1-0.6c-0.3,0.1-0.2,0.6-0.2,0.6C218,19.2,218.1,19.5,218.2,19.5z"/>
				<path fill="#FFFFFF" d="M213.1,33.3c0.1-0.6,0.6-0.2,0.7-0.3c-0.1,0.1-0.1,0.5,0.1,0.5C214.3,32.5,212.7,32.5,213.1,33.3z"/>
			</g>
			<g>
				<path fill="#FFFFFF" d="M326.9,12.5c0.2,0,0.1,0.3,0.1,0.4C326.7,13,327,12.7,326.9,12.5z"/>
				<path fill="#FFFFFF" d="M339.3,12.8c0-0.3-0.1-0.7-0.1-1c-0.1,0-0.1-0.1-0.2-0.1c-0.2,0.3-0.3,0.3-0.6,0.2
					c0.2,0.4-0.1,0.5,0,0.9c0.3,0,0.4,0.2,0.6,0.2C339.1,12.9,339.1,12.8,339.3,12.8z"/>
				<path fill="#FFFFFF" d="M366.8,5.5c0,0.1,0,0.1,0,0.2c0,0,0.1,0,0.1,0.1c0.1,0,0.1,0,0.2,0c0,0,0-0.1,0.1-0.1c0-0.1,0-0.1,0-0.2
					c0,0-0.1,0-0.1-0.1C366.9,5.4,366.9,5.4,366.8,5.5C366.8,5.5,366.8,5.5,366.8,5.5z"/>
				<path fill="#FFFFFF" d="M366.7,4.1c0.1-0.3-0.4-0.8-0.6-0.6C366.5,3.5,366.2,4.1,366.7,4.1z"/>
				<path fill="#FFFFFF" d="M328.1,26.6c0.5-0.1,0.3-0.7-0.2-0.6C327.8,26.2,328,26.4,328.1,26.6z"/>
				<path fill="#FFFFFF" d="M326.4,12.7C326.4,13,326.6,12.7,326.4,12.7L326.4,12.7z"/>
				<path fill="#FFFFFF" d="M365.2,5.4c0.8,0.2,0.6-0.7,1.2-0.9c0-0.1,0-0.2,0-0.2c-0.2-0.1-0.3,0-0.5-0.1
					C366.2,4.9,365.5,5.2,365.2,5.4z"/>
				<path fill="#FFFFFF" d="M338.7,13C338.6,13,338.7,12.9,338.7,13L338.7,13z"/>
				<path fill="#FFFFFF" d="M325.8,16.8c0.6,0,0.6-0.8,0.1-0.8C325.8,16.4,325.6,16.6,325.8,16.8z"/>
				<path fill="#FFFFFF" d="M365.7,4.2c0-0.1,0-0.1,0-0.2c-0.1,0-0.3,0-0.3,0.1C365.5,4.2,365.6,4.3,365.7,4.2
					C365.7,4.2,365.7,4.2,365.7,4.2z"/>
				<path fill="#FFFFFF" d="M365.9,9.3c0.3,0,0.3-0.2,0.3-0.4C365.8,8.8,365.7,9.1,365.9,9.3z"/>
				<path fill="#FFFFFF" d="M365.3,3.6c0,0.2-0.1,0.4,0.2,0.4C365.5,3.8,365.5,3.6,365.3,3.6z"/>
				<path fill="#FFFFFF" d="M365.4,8.4c0.2,0,0.4,0,0.4-0.2C365.6,8,365.5,8.2,365.4,8.4z"/>
				<path fill="#FFFFFF" d="M364.3,6.5c0.3-0.1,0.3,0.2,0.5,0.1c0.1-0.2,0.1-0.2,0-0.5C364.5,6.1,364.2,6,364.3,6.5z"/>
				<path fill="#FFFFFF" d="M364.6,9.9C364.6,9.9,364.5,10,364.6,9.9L364.6,9.9z"/>
				<path fill="#FFFFFF" d="M363.8,5.6c0-0.1,0.1-0.1,0-0.2C363.7,5.3,363.7,5.6,363.8,5.6z"/>
				<path fill="#FFFFFF" d="M323,14.9c0.3,0.2,0,0.6,0.3,0.8c0.4,0,0.4-0.3,0.5-0.6c-0.3-0.1-0.4-0.3-0.7-0.4
					C323.1,14.8,323.1,14.9,323,14.9z"/>
				<path fill="#FFFFFF" d="M362.9,5.5c0.4-0.6-0.2-1.3-0.9-1c0,0.1-0.1,0.2,0,0.3C362.2,4.7,362.5,5.3,362.9,5.5z"/>
				<path fill="#FFFFFF" d="M324.1,24.3c0-0.1,0.1-0.4-0.1-0.4C324.1,24,323.9,24.2,324.1,24.3z"/>
				<path fill="#FFFFFF" d="M323.1,26.4c0.3,0,0.3-0.1,0.4-0.3C323.2,26,323,26.2,323.1,26.4z"/>
				<path fill="#FFFFFF" d="M322.6,24.2c0.2,0,0-0.3,0-0.4C322.4,23.7,322.3,24.3,322.6,24.2z"/>
				<path fill="#FFFFFF" d="M331.2,5.6c0.4-0.4,0.2-1-0.3-1.1C330.6,5.1,330.8,5.3,331.2,5.6z"/>
				<path fill="#FFFFFF" d="M361.2,5.8C361.2,5.9,361.2,5.9,361.2,5.8c-0.1,0.2-0.1,0.2,0,0.3C361.4,6.2,361.4,5.8,361.2,5.8z"/>
				<path fill="#FFFFFF" d="M321.3,15.1c-0.3,0-0.3,0.2-0.3,0.5C321.3,15.5,321.3,15.3,321.3,15.1z"/>
				<path fill="#FFFFFF" d="M321.1,16.5c0.2-0.1,0.4-0.1,0.3-0.4C321.1,15.9,320.8,16.3,321.1,16.5z"/>
				<path fill="#FFFFFF" d="M330.9,3.2c0-0.1,0-0.1,0-0.2c-0.1,0-0.1,0-0.2,0c0,0.1,0,0.1,0,0.2C330.8,3.2,330.9,3.2,330.9,3.2z"/>
				<path fill="#FFFFFF" d="M320.9,13.4c-0.2-0.1-0.3,0.3-0.1,0.3C320.7,13.6,320.9,13.6,320.9,13.4z"/>
				<path fill="#FFFFFF" d="M320.8,14.4c0-0.2,0.1-0.2,0.1-0.3c-0.1,0-0.2,0-0.2,0C320.7,14.3,320.7,14.4,320.8,14.4z"/>
				<path fill="#FFFFFF" d="M322.5,28.3c0.1-0.1,0.2-0.4,0-0.6c-0.1,0-0.2,0-0.2,0C322.3,28,322.3,28.3,322.5,28.3z"/>
				<path fill="#FFFFFF" d="M320.6,14.8c0-0.2,0-0.3-0.1-0.5C320.3,14.3,320.3,15,320.6,14.8z"/>
				<path fill="#FFFFFF" d="M321.4,24.8c0.1,0.1,0.4,0,0.3-0.2C321.5,24.6,321.4,24.6,321.4,24.8z"/>
				<path fill="#FFFFFF" d="M320.6,25.3c0.2,0,0.2-0.2,0.2-0.3C320.6,25,320.6,25.1,320.6,25.3z"/>
				<path fill="#FFFFFF" d="M319.7,25.9c0.2,0.1,0.3-0.3,0.1-0.3C319.8,25.7,319.6,25.7,319.7,25.9z"/>
				<path fill="#FFFFFF" d="M319.1,29.2c0.3,0,0.1-0.3,0.4-0.3c0.2,0.1,0.3,0.4,0.4,0.6c0.7-0.5,0.4-1.7-0.5-1.7
					C319,28.1,318.9,28.7,319.1,29.2z"/>
				<path fill="#FFFFFF" d="M357.3,2.3C357.3,2.7,357.5,2.3,357.3,2.3L357.3,2.3z"/>
				<path fill="#FFFFFF" d="M319.2,27.1c-0.1,0.1-0.1,0.6,0.2,0.6C319.3,27.4,319.5,27.1,319.2,27.1z"/>
				<path fill="#FFFFFF" d="M314.7,14.3c0,0.2,0.2,0.1,0,0.3c0.3,0,0.5-0.1,0.4-0.4C315,14.1,314.9,14.2,314.7,14.3z"/>
				<path fill="#FFFFFF" d="M314.8,16.7c0.3,0,0.4-0.2,0.3-0.4c-0.1-0.1-0.4-0.1-0.5,0.1C314.7,16.5,314.8,16.6,314.8,16.7z"/>
				<path fill="#FFFFFF" d="M355.4,10.7c-0.3,0.2-0.8,0-0.8,0.5c0.2-0.1,0.3,0.1,0.6,0c0.1,0.1,0.1,0.5,0.3,0.5
					C355.7,11.5,355.6,10.9,355.4,10.7z"/>
				<path fill="#FFFFFF" d="M315.6,24c0,0.1,0,0.3,0.1,0.4C315.9,24.4,315.9,23.9,315.6,24z"/>
				<path fill="#FFFFFF" d="M313.2,16c0.2,0,0.2,0.3,0.4,0.3c0.2-0.3-0.4-0.5,0-0.7c0.5,0,0.5,0.1,1,0.2
					C314.9,14.5,312.9,14.9,313.2,16z"/>
				<path fill="#FFFFFF" d="M324.4,10.8c0.2-0.1,0.2,0,0.6-0.1c0.2-0.4-0.2-1.1-0.6-1.3C324,9.7,324.5,10.5,324.4,10.8z"/>
				<path fill="#FFFFFF" d="M314.1,20.1c0-0.1,0.1-0.4-0.1-0.4C314,19.8,313.9,20.1,314.1,20.1z"/>
				<path fill="#FFFFFF" d="M313.5,16.8c0-0.1,0.1-0.2,0-0.3C313.3,16.5,313.3,16.8,313.5,16.8z"/>
				<path fill="#FFFFFF" d="M313.6,27.7c0,0.1,0,0.1,0,0.2C313.9,28,313.9,27.6,313.6,27.7C313.7,27.7,313.7,27.7,313.6,27.7z"/>
				<path fill="#FFFFFF" d="M312.7,24.2c0.2,0,0.2-0.1,0.2-0.3C312.6,23.9,312.7,24.1,312.7,24.2z"/>
				<path fill="#FFFFFF" d="M351,7.3c0.2,0.1,0.4,0,0.4-0.3C351.2,6.9,350.9,7,351,7.3z"/>
				<path fill="#FFFFFF" d="M312.3,26.1c-0.2,0.2-0.3,0.5-0.2,0.9C312.6,27.1,312.9,26.1,312.3,26.1z"/>
				<path fill="#FFFFFF" d="M349.5,4.3c-0.1-0.2,0.1-0.2,0-0.4C349.1,3.9,349.1,4.4,349.5,4.3z"/>
				<path fill="#FFFFFF" d="M348.4,3.5c-0.1-0.3,0.1-0.4-0.1-0.6C347.7,2.9,348.2,3.3,348.4,3.5z"/>
				<path fill="#FFFFFF" d="M348.6,9.5c0.1-0.3-0.1-0.5-0.4-0.3C348.3,9.5,348.4,9.5,348.6,9.5z"/>
				<path fill="#FFFFFF" d="M347.9,6c0-0.1,0.1-0.4-0.1-0.4C347.7,5.8,347.7,6,347.9,6z"/>
				<path fill="#FFFFFF" d="M308.7,24.3C309.4,24.2,308.5,23.5,308.7,24.3L308.7,24.3z"/>
				<path fill="#FFFFFF" d="M308.3,21.2C308.9,19.7,306.8,20.8,308.3,21.2L308.3,21.2z"/>
				<path fill="#FFFFFF" d="M346.7,1.3c0.2,0,0.2-0.1,0.2-0.3C346.8,1.1,346.7,1.2,346.7,1.3z"/>
				<path fill="#FFFFFF" d="M308.1,24.6c-0.2,0-0.2,0.1-0.2,0.3C308,24.8,308.1,24.7,308.1,24.6z"/>
				<path fill="#FFFFFF" d="M306.7,24.6C306.3,24.9,307,24.9,306.7,24.6L306.7,24.6z"/>
				<path fill="#FFFFFF" d="M344.9,6C344.9,6.1,344.9,6,344.9,6L344.9,6z"/>
				<path fill="#FFFFFF" d="M314.8,10.4c0.1,0.2,0.3,0.4,0.5,0.5c0.1-0.1,0.1-0.3,0-0.5C315,10.5,315,10.2,314.8,10.4z"/>
				<path fill="#FFFFFF" d="M305,20.3c0.3,0,0.2-0.1,0.2-0.3C305,20,305,20.1,305,20.3z"/>
				<path fill="#FFFFFF" d="M306,27.7c-0.3-0.1-0.6,0.2-0.8,0.4c0.1,0.4,0.4,0.4,0.7,0.4C306.1,28.2,306.1,28,306,27.7z"/>
				<path fill="#FFFFFF" d="M312.9,1.2c0.4,0,0.8,0.5,0.9,0.7C313.8,1.4,313.3,0.9,312.9,1.2z"/>
				<path fill="#FFFFFF" d="M304.2,26.6c-0.2,0.2-0.3,0-0.6,0.1c-0.1,0.1-0.1,0.3,0,0.5C304.1,27.4,304.6,27,304.2,26.6z"/>
				<path fill="#FFFFFF" d="M342.7,9.9c0.1,0.4,0.4,0.4,0.6,0.6C343.4,10.1,343.1,9.7,342.7,9.9z"/>
				<path fill="#FFFFFF" d="M303.8,24.5c-0.4,0.1-0.3,0.6,0.1,0.6C303.9,24.9,303.9,24.6,303.8,24.5z"/>
				<path fill="#FFFFFF" d="M341.6,6.5c0-0.2,0.2,0.1,0.4,0c0.1-0.1,0.1-0.2,0-0.4C341.8,5.9,341.2,6.2,341.6,6.5z"/>
				<path fill="#FFFFFF" d="M302.4,23"/>
				<path fill="#FFFFFF" d="M302.5,25c-0.1,0-0.1,0-0.2,0c0,0.1,0,0.2,0,0.2C302.5,25.2,302.5,25.1,302.5,25z"/>
				<path fill="#FFFFFF" d="M341.6,11.3C341.4,11.6,341.9,11.4,341.6,11.3L341.6,11.3z"/>
				<path fill="#FFFFFF" d="M301.1,18.7C300.8,18.8,301.1,19,301.1,18.7L301.1,18.7z"/>
				<path fill="#FFFFFF" d="M340.5,6.3c0-0.2,0.1-0.4-0.1-0.6c-0.1,0-0.2,0-0.2,0C340.1,5.9,340.2,6.3,340.5,6.3z"/>
				<path fill="#FFFFFF" d="M309.6,3.2C309.4,3.4,309.9,3.2,309.6,3.2L309.6,3.2z"/>
				<path fill="#FFFFFF" d="M300.1,19.4C300.1,19.4,300.1,19.5,300.1,19.4c-0.1,0.2-0.1,0.2,0,0.3C300.2,19.7,300.2,19.3,300.1,19.4
					z"/>
				<path fill="#FFFFFF" d="M299.5,17c-0.3,0-0.4,0.5-0.1,0.5C299.5,17.4,299.6,17.3,299.5,17z"/>
				<path fill="#FFFFFF" d="M300,24.8c0.3-0.4-0.2-0.8-0.6-0.8c0,0.2-0.2,0.2-0.1,0.4C299.7,24.5,299.7,24.8,300,24.8z"/>
				<path fill="#FFFFFF" d="M340.2,27.2c0,0.1,0,0.1,0,0.2c0.1,0,0.1,0,0.2,0c0-0.1,0-0.1,0-0.2C340.3,27.2,340.3,27.2,340.2,27.2z"
					/>
				<path fill="#FFFFFF" d="M339.1,14.6c0.2,0.1,0.2-0.3,0-0.2c0,0,0,0.1-0.1,0.1C339.1,14.5,339.1,14.5,339.1,14.6z"/>
				<path fill="#FFFFFF" d="M297.7,27C297.4,27.2,297.9,27.1,297.7,27L297.7,27z"/>
				<path fill="#FFFFFF" d="M295.5,18.1c-0.3,0-0.2,0.2-0.2,0.4C295.6,18.6,295.7,18.2,295.5,18.1z"/>
				<path fill="#FFFFFF" d="M295.6,28.7c0-0.1,0.2-0.3,0-0.3C295.5,28.4,295.4,28.7,295.6,28.7z"/>
				<path fill="#FFFFFF" d="M336.1,29.2c0.2,0,0.3,0.2,0.5,0.3c0.1-0.1,0.1-0.3,0-0.5C336.4,29.1,336,29,336.1,29.2z"/>
				<path fill="#FFFFFF" d="M333.9,24.4c0-0.1,0.1-0.1,0.1-0.2c-0.1,0-0.1-0.1-0.2-0.1c0,0.1-0.1,0.1-0.1,0.2
					C333.8,24.4,333.8,24.4,333.9,24.4z"/>
				<path fill="#FFFFFF" d="M331.4,5.9c-0.3,0-0.4,0.1-0.4,0.3c0.2,0,0.2,0.2,0.4,0.2C331.4,6.3,331.4,6.1,331.4,5.9z"/>
				<path fill="#FFFFFF" d="M330.7,3.1c-0.2,0-0.2,0.2-0.3,0.3C330.7,3.6,331,3.4,330.7,3.1z"/>
				<path fill="#FFFFFF" d="M329.8,7.4c-0.2,0-0.3-0.2-0.5-0.1c-0.2,0.3,0,0.5,0.4,0.5C329.7,7.7,329.9,7.7,329.8,7.4z"/>
				<path fill="#FFFFFF" d="M289.9,22.9c0,0.4,0.3,0.3,0.5,0.4c0-0.2,0.1-0.2,0.1-0.4C290.3,22.8,290.1,22.7,289.9,22.9z"/>
				<path fill="#FFFFFF" d="M331.3,23.1C331.3,23.5,331.6,23.1,331.3,23.1L331.3,23.1z"/>
				<path fill="#FFFFFF" d="M328.1,4.6c0.4-0.1,0.6,0.1,0.8,0.1c0-0.3-0.1-0.4-0.1-0.5C328.3,4.4,328.1,4.2,328.1,4.6z"/>
				<path fill="#FFFFFF" d="M290.7,29.4c0.1,0,0.2,0,0.2,0c0-0.1,0-0.2,0-0.2C290.7,29.1,290.7,29.2,290.7,29.4z"/>
				<path fill="#FFFFFF" d="M288.9,25.6c0.2,0,0.2-0.1,0.2-0.3C288.9,25.3,288.9,25.4,288.9,25.6z"/>
				<path fill="#FFFFFF" d="M289.3,27.4c0.2-0.4-0.2-0.8-0.6-0.7C288.4,26.9,288.7,27.5,289.3,27.4z"/>
				<path fill="#FFFFFF" d="M328.7,13.9c0-0.1,0-0.1,0-0.2c-0.1,0-0.1,0-0.2,0c0,0.1,0,0.1,0,0.2C328.6,13.9,328.6,13.9,328.7,13.9z
					"/>
				<path fill="#FFFFFF" d="M288.2,23.6c0.4,0,0.3-0.5-0.1-0.5C288.1,23.2,288.1,23.5,288.2,23.6z"/>
				<path fill="#FFFFFF" d="M329.1,26.9C328.9,27.2,329.3,27,329.1,26.9L329.1,26.9z"/>
				<path fill="#FFFFFF" d="M326.6,9.8c0.1,0,0.1,0,0.2,0c0-0.1,0-0.1,0-0.2c-0.1,0-0.1,0-0.2,0C326.6,9.7,326.6,9.7,326.6,9.8z"/>
				<path fill="#FFFFFF" d="M287.3,23.9c0-0.2,0-0.4-0.1-0.5c-0.2,0-0.3,0.1-0.5,0.1C286.8,23.8,287.1,23.9,287.3,23.9z"/>
				<path fill="#FFFFFF" d="M286.6,25.1c-0.2-0.4,0-0.2,0.3-0.5c0-0.4-0.4-0.3-0.6-0.5C286.3,24.6,286.3,24.9,286.6,25.1z"/>
				<path fill="#FFFFFF" d="M279.2,27.7C279.1,28,279.4,27.7,279.2,27.7L279.2,27.7z"/>
				<path fill="#FFFFFF" d="M325.3,9.2C325.3,9.3,325.4,9.2,325.3,9.2L325.3,9.2z"/>
				<path fill="#FFFFFF" d="M326.1,24.6C326.3,24.4,325.8,24.4,326.1,24.6L326.1,24.6z"/>
				<path fill="#FFFFFF" d="M324.2,18.1c0.3-0.1,0.3,0.2,0.6,0.2c-0.1-0.2,0.1-0.2,0-0.4C324.7,17.8,324.1,17.8,324.2,18.1z"/>
				<path fill="#FFFFFF" d="M325.2,22.9c0.1,0,0.2,0,0.2,0c0-0.1,0-0.2,0-0.2C325.2,22.7,325.2,22.8,325.2,22.9z"/>
				<path fill="#FFFFFF" d="M283.7,19.7c-0.2,0-0.2,0.1-0.2,0.3C283.8,20,283.8,19.9,283.7,19.7z"/>
				<path fill="#FFFFFF" d="M325.1,24.5c0.2,0,0.1,0.2,0.3,0.1c0-0.1,0-0.2,0-0.2C325.3,24.5,325.1,24.4,325.1,24.5z"/>
				<path fill="#FFFFFF" d="M323,13.7c0.2,0,0.2,0.1,0.3,0.1c0-0.2,0.3-0.2,0.3-0.4C323.3,13.3,322.9,13.4,323,13.7z"/>
				<path fill="#FFFFFF" d="M324.5,23.4c0-0.1,0-0.3-0.1-0.3C324.3,23.3,324.3,23.4,324.5,23.4z"/>
				<path fill="#FFFFFF" d="M323.2,19c0.3-0.2,0.3,0.1,0.5,0.1C324.2,18.5,323.1,18.3,323.2,19z"/>
				<path fill="#FFFFFF" d="M322.3,10c-0.2,0-0.3-0.1-0.5,0c-0.4,0.5,0.2,0.5,0.3,0.9C322.5,10.9,322.3,10.4,322.3,10z"/>
				<path fill="#FFFFFF" d="M321.3,10.4C321.3,10.7,321.5,10.3,321.3,10.4L321.3,10.4z"/>
				<path fill="#FFFFFF" d="M322.3,26.7c0.2,0,0.1,0.2,0.3,0.1c0-0.1,0-0.2,0-0.3C322.4,26.5,322.3,26.6,322.3,26.7z"/>
				<path fill="#FFFFFF" d="M320.1,11.5c0.2,0,0.4,0,0.4-0.3C320.3,11.1,320,11.2,320.1,11.5z"/>
				<path fill="#FFFFFF" d="M321.8,24.1C321.8,24.1,321.8,24,321.8,24.1L321.8,24.1z"/>
				<path fill="#FFFFFF" d="M318.9,3.7c0.5-0.4-0.5-0.9-0.4-0.3C318.7,3.5,318.7,3.7,318.9,3.7z"/>
				<path fill="#FFFFFF" d="M320,23.8c-0.3-0.2-1-0.2-0.7,0.3c0.3-0.3,0.6,0.1,0.7,0.3C320,24.3,320.1,24.1,320,23.8z"/>
				<path fill="#FFFFFF" d="M319,24.5c-0.4,0-0.3,0.4-0.7,0.3C318.4,25.2,318.9,24.6,319,24.5z"/>
				<path fill="#FFFFFF" d="M319.2,28.9c-0.1-0.2,0-0.3,0-0.5c-0.1-0.1-0.5-0.2-0.6,0C318.8,28.6,318.9,28.8,319.2,28.9z"/>
				<path fill="#FFFFFF" d="M316,8.2C316,8.3,316.1,8.2,316,8.2L316,8.2z"/>
				<path fill="#FFFFFF" d="M317.2,25.5c0,0.1,0,0.1,0,0.2c0.1,0,0.1,0,0.2,0c0-0.1,0-0.1,0-0.2C317.3,25.4,317.3,25.5,317.2,25.5z"
					/>
				<path fill="#FFFFFF" d="M316.9,25.3C316.7,25.6,317.2,25.4,316.9,25.3L316.9,25.3z"/>
				<path fill="#FFFFFF" d="M313.4,3.5c0.7-0.6-0.8-1.6-0.7-0.4C313.2,3,313.1,3.5,313.4,3.5z"/>
				<path fill="#FFFFFF" d="M312.9,2.3C313.1,2,312.6,2.2,312.9,2.3L312.9,2.3z"/>
				<path fill="#FFFFFF" d="M314.2,15c0-0.1,0-0.1,0-0.2c-0.1,0-0.1,0-0.2,0c0,0.1,0,0.1,0,0.2C314.1,15,314.2,15,314.2,15z"/>
				<path fill="#FFFFFF" d="M313,12.9c0.2-0.1,0.4-0.2,0.5,0c0,0.3-0.1,0.5,0.2,0.5C314.1,12.6,313.2,12,313,12.9z"/>
				<path fill="#FFFFFF" d="M311.9,1.9C311.8,2.2,312.1,1.9,311.9,1.9L311.9,1.9z"/>
				<path fill="#FFFFFF" d="M312.4,7.5c-0.1,0-0.2,0.1-0.2,0.2C312.3,7.7,312.4,7.7,312.4,7.5z"/>
				<path fill="#FFFFFF" d="M312.4,8.9C312.4,9.2,312.6,8.9,312.4,8.9L312.4,8.9z"/>
				<path fill="#FFFFFF" d="M314.5,25.3c-0.1-0.5-0.4-0.7-0.5-1.1c-0.1,0-0.3,0-0.4,0.1c-0.1,0.3-0.1,1.4,0.3,0.9
					c0,0.2,0,0.3,0.1,0.5C314.1,25.6,314.3,25.5,314.5,25.3z"/>
				<path fill="#FFFFFF" d="M311.5,7.6c-0.1-0.1-0.3-0.1-0.3,0.1C311.3,7.8,311.5,7.8,311.5,7.6z"/>
				<path fill="#FFFFFF" d="M313.2,27.1c0.2-0.3,0.4,0.2,0.5,0.3C314.4,26.9,312.8,26.3,313.2,27.1z"/>
				<path fill="#FFFFFF" d="M312.5,19c0.1,0,0.2,0.1,0.3,0C312.8,18.8,312.5,18.8,312.5,19z"/>
				<path fill="#FFFFFF" d="M312.8,20c0.1,0,0-0.2,0-0.3C312.6,19.5,312.6,20.1,312.8,20z"/>
				<path fill="#FFFFFF" d="M319.7,7.8c0.4-0.3,0.6,0.2,1,0.1C321.1,6.9,319.6,6.8,319.7,7.8z"/>
				<path fill="#FFFFFF" d="M319.7,3.2"/>
				<path fill="#FFFFFF" d="M310.5,8.1c0.1,0,0.2,0,0.2,0c0-0.1,0-0.2,0-0.2C310.5,7.9,310.4,8,310.5,8.1z"/>
				<path fill="#FFFFFF" d="M312.1,21C312.1,21.1,312.1,21,312.1,21L312.1,21z"/>
				<path fill="#FFFFFF" d="M313.1,29.7c0.2,0.1,0.2-0.3,0-0.2c0,0,0,0.1-0.1,0.1C313.1,29.5,313.1,29.6,313.1,29.7z"/>
				<path fill="#FFFFFF" d="M309.5,3.6c0.9-0.5-0.7-2.2-0.8-0.8C309.4,2.9,309,3.4,309.5,3.6z"/>
				<path fill="#FFFFFF" d="M313,29.1C312.9,29.2,313,29.1,313,29.1L313,29.1z"/>
				<path fill="#FFFFFF" d="M312.4,24.7c-0.3,0-0.7,0.2-0.4,0.4c0-0.2,0.3,0.1,0.4,0.1C312.5,25.1,312.4,24.9,312.4,24.7z"/>
				<path fill="#FFFFFF" d="M310,6.5c0-0.2,0-0.3-0.1-0.5C309.6,6.1,309.5,6.7,310,6.5z"/>
				<path fill="#FFFFFF" d="M310.2,8.9C309.9,9.2,310.4,9,310.2,8.9L310.2,8.9z"/>
				<path fill="#FFFFFF" d="M311,17.4c0-0.2,0.2-0.3,0.2-0.5c-0.3-0.2-0.8-0.1-0.7,0.3C310.7,17.3,310.9,17,311,17.4z"/>
				<path fill="#FFFFFF" d="M311.5,25.8C311.5,26.1,311.8,25.7,311.5,25.8L311.5,25.8z"/>
				<path fill="#FFFFFF" d="M311.5,27.8C311.4,27.8,311.5,27.7,311.5,27.8L311.5,27.8z"/>
				<path fill="#FFFFFF" d="M311.3,26.8C311,27,311.6,27,311.3,26.8L311.3,26.8z"/>
				<path fill="#FFFFFF" d="M310.6,26.1C310.4,26.4,310.9,26.2,310.6,26.1L310.6,26.1z"/>
				<path fill="#FFFFFF" d="M308,6.9c0.1,0,0.1-0.2,0-0.2C307.8,6.6,307.9,7,308,6.9z"/>
				<path fill="#FFFFFF" d="M310,25c0.2,0,0.2,0.1,0.4,0.1C310.4,24.7,310,24.7,310,25z"/>
				<path fill="#FFFFFF" d="M310.2,25.6c0.1,0,0.1,0.1,0.2,0c0-0.1,0-0.2-0.1-0.2C310.3,25.5,310.2,25.5,310.2,25.6z"/>
				<path fill="#FFFFFF" d="M310.6,28.6C310.3,28.4,310.9,28.8,310.6,28.6L310.6,28.6z"/>
				<path fill="#FFFFFF" d="M308.5,12.8c-0.1,0-0.1,0-0.2,0c0,0.1,0,0.2,0,0.2C308.5,13,308.5,12.9,308.5,12.8z"/>
				<path fill="#FFFFFF" d="M307.3,13.8c0,0.3-0.6,0.5-0.2,0.6c0-0.2,0.1-0.3,0.2-0.3c0.3,0.3,0.7,0.6,0.6,1.2
					C308.7,14.9,307.8,13.9,307.3,13.8z"/>
				<path fill="#FFFFFF" d="M309.4,23.3c0,0.1,0,0.1,0,0.2c0.1,0,0.1,0,0.2,0c0-0.1,0-0.1,0-0.2C309.5,23.3,309.5,23.3,309.4,23.3z"
					/>
				<path fill="#FFFFFF" d="M309.7,26.5c0,0.2,0.2,0.2,0.4,0.3c0-0.1,0-0.2,0-0.3C309.9,26.5,309.8,26.5,309.7,26.5z"/>
				<path fill="#FFFFFF" d="M308.7,21.3"/>
				<path fill="#FFFFFF" d="M307,7.2c0-0.1,0.1-0.1,0-0.2C306.9,6.8,306.9,7.2,307,7.2z"/>
				<path fill="#FFFFFF" d="M309,22.5C308.8,22.8,309.3,22.6,309,22.5L309,22.5z"/>
				<path fill="#FFFFFF" d="M308.4,22.2c-0.2,0-0.3,0.1-0.2,0.3C308.4,22.4,308.5,22.4,308.4,22.2z"/>
				<path fill="#FFFFFF" d="M306.2,5.4"/>
				<path fill="#FFFFFF" d="M308.4,23.8c0,0.1-0.2,0.3,0,0.3C308.4,24.1,308.6,23.8,308.4,23.8z"/>
				<path fill="#FFFFFF" d="M306,5.8C306,6.1,306.3,5.8,306,5.8L306,5.8z"/>
				<path fill="#FFFFFF" d="M315.1,2.1c-0.2,0.3,0.1,0.5,0.3,0.5C315.6,2.4,315.3,2.2,315.1,2.1z"/>
				<path fill="#FFFFFF" d="M305.9,7.3c0.4-0.9-0.7-0.3-0.7,0.2C305.5,7.4,305.6,6.8,305.9,7.3z"/>
				<path fill="#FFFFFF" d="M314.8,8.9c0.1-0.4,0.7-0.1,0.8,0C315.8,8,314.4,8.5,314.8,8.9z"/>
				<path fill="#FFFFFF" d="M305.5,7.5C305.5,7.8,305.8,7.5,305.5,7.5L305.5,7.5z"/>
				<path fill="#FFFFFF" d="M304.8,8.1c0-0.1,0-0.2-0.1-0.3c-0.2,0.1-0.4,0.1-0.4,0.4C304.6,8,304.7,8.2,304.8,8.1z"/>
				<path fill="#FFFFFF" d="M306.8,23.7c0-0.1,0-0.1,0-0.2c-0.1,0-0.1,0-0.2,0c0,0.1,0,0.1,0,0.2C306.7,23.7,306.8,23.7,306.8,23.7z
					"/>
				<path fill="#FFFFFF" d="M307,26C307.3,26,306.6,26,307,26L307,26z"/>
				<path fill="#FFFFFF" d="M307.1,27.4C307.1,27.4,307.1,27.3,307.1,27.4L307.1,27.4z"/>
				<path fill="#FFFFFF" d="M303.4,2.5c0.1,0,0.2,0,0.2,0c0-0.1,0-0.2,0-0.2C303.3,2.2,303.3,2.3,303.4,2.5z"/>
				<path fill="#FFFFFF" d="M305.7,19.9c0-0.2-0.1-0.2-0.1-0.4c-0.2,0-0.3,0.1-0.3,0.3C305.6,19.7,305.5,20,305.7,19.9z"/>
				<path fill="#FFFFFF" d="M313.6,5.4c-0.6,0.2-0.9-0.5-1,0.2c0.3,0.3,0.9,0,1.1,0.4C313.8,5.8,313.6,5.5,313.6,5.4z"/>
				<path fill="#FFFFFF" d="M306.7,28.5c-0.1,0-0.2,0-0.2,0c0,0.2,0.2,0.1,0.3,0.2C306.7,28.7,306.7,28.6,306.7,28.5z"/>
				<path fill="#FFFFFF" d="M306.3,26.8c0-0.2,0.1-0.3,0-0.5c-0.1-0.1-0.3,0-0.4,0.1C306.3,26.3,306.2,26.7,306.3,26.8z"/>
				<path fill="#FFFFFF" d="M313.2,2.9c-0.1,0-0.1,0-0.2,0c0,0.1,0,0.2,0,0.2C313.2,3.1,313.2,3,313.2,2.9z"/>
				<path fill="#FFFFFF" d="M303.5,9.8c0.2,0,0.3-0.3,0.1-0.3C303.7,9.7,303.6,9.7,303.5,9.8z"/>
				<path fill="#FFFFFF" d="M303.6,10.5c-0.1-0.4-0.1-0.8-0.5-0.8C303.5,9.9,303,10.5,303.6,10.5z"/>
				<path fill="#FFFFFF" d="M305.1,23.5C305.1,23.6,305.2,23.5,305.1,23.5L305.1,23.5z"/>
				<path fill="#FFFFFF" d="M302,2c0.2,0,0.3-0.1,0.3-0.2C302.2,1.7,302,1.8,302,2z"/>
				<path fill="#FFFFFF" d="M304.8,25.5c0,0.3,0.3,0.3,0.5,0.3C305.4,25.5,305.1,25.5,304.8,25.5z"/>
				<path fill="#FFFFFF" d="M304.9,24.2c0,0.1-0.1,0.2,0,0.3C305.1,24.5,305.1,24.2,304.9,24.2z"/>
				<path fill="#FFFFFF" d="M302.1,3.3c0.2,0,0.2-0.1,0.2-0.3C302.1,3,302.1,3.1,302.1,3.3z"/>
				<path fill="#FFFFFF" d="M302.7,9.9c0.2,0,0.2,0.1,0.3,0C303,9.6,302.6,9.6,302.7,9.9z"/>
				<path fill="#FFFFFF" d="M302.4,7.9c0-0.1,0.1-0.1,0-0.2C302.2,7.6,302.2,7.9,302.4,7.9z"/>
				<path fill="#FFFFFF" d="M302.4,9.2c-0.2,0-0.1,0.3,0,0.2C302.5,9.4,302.5,9.2,302.4,9.2z"/>
				<path fill="#FFFFFF" d="M312,7.6"/>
				<path fill="#FFFFFF" d="M304.3,25.7c0-0.1,0-0.3-0.1-0.4C303.9,25.4,304.1,25.7,304.3,25.7z"/>
				<path fill="#FFFFFF" d="M312,10c-0.4,0.1-0.3,0.5,0.1,0.4C312.1,10.2,312,10.2,312,10z"/>
				<path fill="#FFFFFF" d="M301.2,3.7"/>
				<path fill="#FFFFFF" d="M301.4,8c-0.3,0-0.3,0.3,0,0.3C301.4,8.2,301.5,8.2,301.4,8z"/>
				<path fill="#FFFFFF" d="M303.3,26.5c0.1,0,0.1,0.1,0.2,0c0-0.1,0-0.2-0.1-0.2C303.4,26.4,303.3,26.4,303.3,26.5z"/>
				<path fill="#FFFFFF" d="M300.1,2.1c0.3,0,0.3-0.3,0-0.3C300.1,1.9,299.9,2,300.1,2.1z"/>
				<path fill="#FFFFFF" d="M303.1,25.2c0,0.1,0,0.1,0,0.2c0.1,0,0.1,0,0.2,0c0-0.1,0-0.1,0-0.2C303.2,25.2,303.1,25.2,303.1,25.2z"
					/>
				<path fill="#FFFFFF" d="M299.9,10.2c0,0.1,0,0.2,0,0.3c0.4,0,0.2,0,0.7-0.2c0.2,0.1,0.1,0.6,0.4,0.6c0-0.2,0.1-0.3,0.1-0.5
					C300.9,10.3,300.4,9.9,299.9,10.2z"/>
				<path fill="#FFFFFF" d="M299.7,1.3c0,0.1,0,0.1,0,0.2c0.1,0,0.1,0,0.2,0c0-0.1,0-0.1,0-0.2C299.8,1.2,299.8,1.3,299.7,1.3z"/>
				<path fill="#FFFFFF" d="M299.8,1.5C299.8,1.5,299.8,1.6,299.8,1.5c-0.1,0.2-0.1,0.2,0,0.3C300,1.8,300,1.4,299.8,1.5z"/>
				<path fill="#FFFFFF" d="M302.7,26.3c0.2,0.1,0.2-0.3,0-0.2c0,0,0,0.1-0.1,0.1C302.7,26.2,302.7,26.2,302.7,26.3z"/>
				<path fill="#FFFFFF" d="M303.1,29.2c-0.1,0-0.2,0-0.2,0c0,0.2,0.1,0.3,0.2,0.3C303.1,29.4,303.2,29.3,303.1,29.2z"/>
				<path fill="#FFFFFF" d="M300.3,10.7c0,0.1,0,0.1,0,0.2c0.1,0,0.1,0,0.2,0c0-0.1,0-0.1,0-0.2C300.4,10.7,300.3,10.7,300.3,10.7z"
					/>
				<path fill="#FFFFFF" d="M300.5,15.1c-0.1-0.1-0.5-0.1-0.4,0.2C300.3,15.4,300.6,15.4,300.5,15.1z"/>
				<path fill="#FFFFFF" d="M300.8,17.4L300.8,17.4C300.2,17.3,301.2,17.8,300.8,17.4z"/>
				<path fill="#FFFFFF" d="M297.5,3.9c0.6-0.3,0.9-0.2,1.4,0.1C299.2,2.8,297.5,3.1,297.5,3.9z"/>
				<path fill="#FFFFFF" d="M301.2,24.6c0.2,0.1,0.2-0.3,0-0.2c0,0,0,0.1-0.1,0.1C301.2,24.6,301.2,24.6,301.2,24.6z"/>
				<path fill="#FFFFFF" d="M308.4,5.2c0,0.3,0.3,0.3,0.3,0C308.6,5.2,308.5,5.1,308.4,5.2z"/>
				<path fill="#FFFFFF" d="M299.9,15.4c0.2,0.1,0.2-0.4,0-0.3C299.9,15.1,299.8,15.2,299.9,15.4z"/>
				<path fill="#FFFFFF" d="M300.4,20.2c0-0.1,0.1-0.4-0.1-0.4c0,0.1-0.4,0-0.3,0.4C300.2,20.1,300.3,20.2,300.4,20.2z"/>
				<path fill="#FFFFFF" d="M299.8,15.7c-0.2,0-0.2,0.1-0.2,0.3C299.8,15.9,299.9,15.8,299.8,15.7z"/>
				<path fill="#FFFFFF" d="M300.3,19c0-0.1,0-0.2,0-0.2c-0.1,0-0.2-0.1-0.3,0c-0.1,0.1-0.1,0.2,0,0.4
					C300.1,19.2,300.2,19.1,300.3,19z"/>
				<path fill="#FFFFFF" d="M301.1,29.1C301.1,29.2,301.2,29.1,301.1,29.1L301.1,29.1z"/>
				<path fill="#FFFFFF" d="M300,21.6c-0.4,0-0.7-0.2-0.7,0.3c0.4-0.1,0.6,0,0.8,0.1"/>
				<path fill="#FFFFFF" d="M307.7,5c-0.3,0-0.3,0.4,0,0.4C307.8,5.3,307.8,5.1,307.7,5z"/>
				<path fill="#FFFFFF" d="M298.9,14.4c0,0.2,0.1,0.3,0.2,0.3C299.1,14.6,299,14.4,298.9,14.4z"/>
				<path fill="#FFFFFF" d="M297.4,4.5c0,0.1,0.1,0.2,0.2,0.2C297.6,4.6,297.6,4.5,297.4,4.5z"/>
				<path fill="#FFFFFF" d="M300.7,29.9C300.7,30,300.7,29.9,300.7,29.9L300.7,29.9z"/>
				<path fill="#FFFFFF" d="M306.9,5.5c-0.2-0.1-0.4,0-0.4,0.3C306.8,5.9,306.9,5.8,306.9,5.5z"/>
				<path fill="#FFFFFF" d="M296.6,2.8C296.6,3.1,296.9,2.7,296.6,2.8L296.6,2.8z"/>
				<path fill="#FFFFFF" d="M298.4,18.9c0.2,0,0.2-0.1,0.2-0.3C298.5,18.7,298.4,18.7,298.4,18.9z"/>
				<path fill="#FFFFFF" d="M297.5,15.9C297.5,16.2,297.7,15.9,297.5,15.9L297.5,15.9z"/>
				<path fill="#FFFFFF" d="M297.4,17.1c0,0.1,0,0.1,0,0.2c0.1,0,0.1,0,0.2,0c0-0.1,0-0.1,0-0.2C297.5,17.1,297.4,17.1,297.4,17.1z"
					/>
				<path fill="#FFFFFF" d="M297.9,24.9C298,25.6,298.7,24.8,297.9,24.9L297.9,24.9z"/>
				<path fill="#FFFFFF" d="M294.1,1.5c0.1,0.1,0.5-0.1,0.5-0.3C294.4,1.1,294.1,1.2,294.1,1.5z"/>
				<path fill="#FFFFFF" d="M297.3,23.7C297.2,23.8,297.3,23.7,297.3,23.7L297.3,23.7z"/>
				<path fill="#FFFFFF" d="M297.1,24.3c-0.3,0-0.3,0.1-0.3,0.4C297.1,24.7,297.2,24.6,297.1,24.3z"/>
				<path fill="#FFFFFF" d="M296,17.5C295.6,17.5,295.9,17.8,296,17.5L296,17.5z"/>
				<path fill="#FFFFFF" d="M294.5,6.8C294.2,7,294.7,6.9,294.5,6.8L294.5,6.8z"/>
				<path fill="#FFFFFF" d="M296,28.9c-0.3,0-0.2,0.1-0.2,0.3C296.1,29.3,295.9,29,296,28.9z"/>
				<path fill="#FFFFFF" d="M303.3,9.5c-0.2-0.1-0.4-0.1-0.6-0.1c0,0.1-0.1,0.2-0.1,0.3C302.9,9.9,303.2,9.9,303.3,9.5z"/>
				<path fill="#FFFFFF" d="M302.9,10.3c-0.2,0.1-0.4,0.1-0.3,0.4C302.9,10.7,303,10.5,302.9,10.3z"/>
				<path fill="#FFFFFF" d="M295.5,29.2c-0.2-0.1-0.4,0.1-0.4,0.3C295.2,29.6,295.5,29.5,295.5,29.2z"/>
				<path fill="#FFFFFF" d="M291.4,7.7C291.3,8.1,291.6,7.7,291.4,7.7L291.4,7.7z"/>
				<path fill="#FFFFFF" d="M290.3,3.6c-0.3,0-0.4,0.2-0.2,0.3C290.3,4,290.4,3.8,290.3,3.6z"/>
				<path fill="#FFFFFF" d="M289.9,3.3c-0.3,0-0.1,0.5,0.1,0.4C289.9,3.5,290,3.4,289.9,3.3z"/>
				<path fill="#FFFFFF" d="M299.4,3.2c0.1,0,0.2,0,0.2,0c0-0.1,0-0.2,0-0.2C299.4,3,299.4,3.1,299.4,3.2z"/>
				<path fill="#FFFFFF" d="M290.2,12.2C290.2,12.3,290.3,12.2,290.2,12.2L290.2,12.2z"/>
				<path fill="#FFFFFF" d="M288.6,1.7c0,0.1,0,0.2,0,0.3c0.3,0,0.2-0.2,0.3-0.3C288.8,1.8,288.7,1.7,288.6,1.7z"/>
				<path fill="#FFFFFF" d="M288.5,1.6c-0.2-0.2-0.7-0.1-0.7,0.2c0.3,0.1,0.5,0.4,0.6,0.7c0.1,0,0.2,0,0.3,0
					C288.8,2,288.4,2.2,288.5,1.6z"/>
				<path fill="#FFFFFF" d="M290.1,17.6c0-0.1-0.1-0.2-0.2-0.2C290,17.5,290,17.7,290.1,17.6z"/>
				<path fill="#FFFFFF" d="M296.9,11.6"/>
				<path fill="#FFFFFF" d="M287.4,8.6c-0.3,0-0.2,0.3,0,0.3C287.4,8.8,287.5,8.8,287.4,8.6z"/>
				<path fill="#FFFFFF" d="M289.2,29.1C288.6,29.5,289.5,29.7,289.2,29.1L289.2,29.1z"/>
				<path fill="#FFFFFF" d="M288.8,27.1c-0.1-0.2-0.2-0.3-0.4-0.3c0,0.1-0.1,0.1,0,0.2C288.6,27,288.6,27.2,288.8,27.1
					C288.7,27.1,288.7,27.1,288.8,27.1z"/>
				<path fill="#FFFFFF" d="M284.4,3.8c-0.2-0.1-0.6,0-0.4,0.3C284.1,4.2,284.3,3.9,284.4,3.8z"/>
				<path fill="#FFFFFF" d="M284.4,7c0,0.1,0,0.3,0.2,0.2C284.6,7,284.5,7,284.4,7z"/>
				<path fill="#FFFFFF" d="M284.1,6.2C284,6.5,284.3,6.1,284.1,6.2L284.1,6.2z"/>
				<path fill="#FFFFFF" d="M285.6,28.4C285.2,28.5,285.6,28.8,285.6,28.4L285.6,28.4z"/>
				<path fill="#FFFFFF" d="M283.4,17.4C283.7,15.2,281,17.5,283.4,17.4L283.4,17.4z"/>
				<path fill="#FFFFFF" d="M284.5,25.8C284.5,25.9,284.5,25.8,284.5,25.8L284.5,25.8z"/>
				<path fill="#FFFFFF" d="M281,23.8c0.1,0,0.1,0,0.2,0C281.4,23.6,280.9,23.4,281,23.8z"/>
				<path fill="#FFFFFF" d="M281,26c-0.2,0-0.4,0-0.3,0.3C280.9,26.3,281.1,26.2,281,26z"/>
				<path fill="#FFFFFF" d="M279.6,23.6"/>
				<path fill="#FFFFFF" d="M277.4,12.5c0.2,0.1,0.2-0.3,0-0.2c0,0,0,0.1-0.1,0.1C277.4,12.4,277.4,12.4,277.4,12.5z"/>
				<path fill="#FFFFFF" d="M276.5,11.9C276.4,12.2,276.7,11.9,276.5,11.9L276.5,11.9z"/>
				<path fill="#FFFFFF" d="M276.6,18.9c-0.4,0.1-0.7,0.5-0.5,0.9c0.3-0.2,0.4,0,0.6,0C276.9,19.6,276.6,19.2,276.6,18.9z"/>
				<path fill="#FFFFFF" d="M274,8C274,8.3,274.2,8,274,8L274,8z"/>
				<path fill="#FFFFFF" d="M272.1,4.2c0,0.1,0,0.1,0,0.2c0.1,0,0.1,0,0.2,0c0-0.1,0-0.1,0-0.2C272.2,4.1,272.2,4.1,272.1,4.2z"/>
				<path fill="#FFFFFF" d="M269.4,10.9C269.4,11.2,269.6,10.9,269.4,10.9L269.4,10.9z"/>
				<path fill="#FFFFFF" d="M272.7,1.5c-0.7,0.1-0.3,1.3,0.3,1.2c0.2,0,0.1-0.3,0.3-0.4c0.7,0,1.2,0.7,1.7,0.4
					c0.1,0.2-0.2,0.2,0,0.4C275.9,1.8,273.5,0.5,272.7,1.5z"/>
				<path fill="#FFFFFF" d="M264.1,2c0,0.1,0,0.1,0,0.2c0.1,0,0.1,0,0.2,0c0-0.1,0-0.1,0-0.2C264.2,1.9,264.1,2,264.1,2z"/>
				<path fill="#FFFFFF" d="M266.6,27.2c-0.1,0-0.1-0.1-0.1-0.1c-0.1,0.1-0.3,0.1-0.3,0.3C266.4,27.2,266.5,27.4,266.6,27.2z"/>
				<path fill="#FFFFFF" d="M271.5,5.3c-0.2,0.5,0.4,1.5,0.9,1.6C272.1,6.3,271.9,5.5,271.5,5.3z"/>
				<path fill="#FFFFFF" d="M268.5,26.8c-0.2-0.1-0.6,0.1-0.6,0.4C268.3,27.2,268.4,27,268.5,26.8z"/>
				<path fill="#FFFFFF" d="M271.7,10.5c-0.1,0-0.2,0-0.3,0c0,0.1,0,0.2,0,0.3C271.7,10.9,271.7,10.7,271.7,10.5z"/>
				<path fill="#FFFFFF" d="M267.2,26.7c-0.2,0.1-0.4,0.6,0.1,0.5C267.4,26.9,267.5,26.7,267.2,26.7z"/>
				<path fill="#FFFFFF" d="M267.7,29c-0.3,0-0.3,0.2-0.3,0.5C267.7,29.5,267.5,29.1,267.7,29z"/>
				<path fill="#FFFFFF" d="M266.5,22.8c0,0.1-0.2,0.1-0.1,0.3c0.1,0,0.2,0,0.2,0C266.6,23,266.6,22.8,266.5,22.8z"/>
				<path fill="#FFFFFF" d="M271.3,14.9c-0.2,0.1-0.6-0.1-0.5,0.2C270.9,15.3,271.4,15.2,271.3,14.9z"/>
				<path fill="#FFFFFF" d="M259.8,8.6C259.8,8.7,259.8,8.7,259.8,8.6c-0.1,0.2-0.1,0.2,0,0.3C259.9,8.9,259.9,8.6,259.8,8.6z"/>
				<path fill="#FFFFFF" d="M261.6,27.8C261.6,27.9,261.7,27.8,261.6,27.8L261.6,27.8z"/>
				<path fill="#FFFFFF" d="M258.4,3.9C258.3,4.2,258.6,3.8,258.4,3.9L258.4,3.9z"/>
				<path fill="#FFFFFF" d="M264.5,25.3c0.1,0,0.3,0,0.4-0.1c0-0.1,0-0.3-0.1-0.4C264.5,24.9,264.4,25,264.5,25.3z"/>
				<path fill="#FFFFFF" d="M257.9,8.8C258,8.8,257.9,8.9,257.9,8.8L257.9,8.8z"/>
				<path fill="#FFFFFF" d="M263.5,23.2C263.5,23.6,263.8,23.3,263.5,23.2L263.5,23.2z"/>
				<path fill="#FFFFFF" d="M262.7,24.1c-0.1-0.1-0.5,0.1-0.5,0.3C262.5,24.6,262.7,24.3,262.7,24.1z"/>
				<path fill="#FFFFFF" d="M259,28.5c0,0.1,0,0.1,0,0.2c0.1,0,0.1,0,0.2,0c0-0.1,0-0.1,0-0.2C259.1,28.5,259.1,28.5,259,28.5z"/>
				<path fill="#FFFFFF" d="M262.9,28.4C263.4,28.4,262.7,27.9,262.9,28.4L262.9,28.4z"/>
				<path fill="#FFFFFF" d="M258.2,24.5C258,24.7,258.5,24.6,258.2,24.5L258.2,24.5z"/>
				<path fill="#FFFFFF" d="M322.5,13.6c0.1-0.1,0.1-0.3,0.1-0.5c-0.2,0-0.3,0.2-0.3,0.4c0-0.5-0.3-0.1-0.5-0.1c0-0.1,0-0.2,0-0.2
					c-0.1,0-0.1,0-0.2,0c0,0.2-0.1,0.2-0.1,0.4C321.9,13.6,322.2,13.5,322.5,13.6z"/>
				<path fill="#FFFFFF" d="M323.7,13.2c-0.2,0.1-0.4,0.2-0.2,0.5C323.7,13.7,323.7,13.2,323.7,13.2z"/>
				<path fill="#FFFFFF" d="M337.4,3.2c0.2,0,0.2,0.3,0.4,0.3c0-0.1,0-0.2,0-0.3C337.6,3.3,337.4,3,337.4,3.2z"/>
				<path fill="#FFFFFF" d="M331.9,22c0-0.1,0.1-0.2,0-0.3c-0.2,0-0.5,0.2-0.3,0.2C331.7,21.6,331.8,22.1,331.9,22z"/>
				<path fill="#FFFFFF" d="M287.6,25.6c-0.2,0-0.3,0.4-0.2,0.3C287.5,25.8,287.7,25.8,287.6,25.6z"/>
				<path fill="#FFFFFF" d="M286.2,25.5c0.2-0.1,0.4,0.4,0.4,0.3C286.6,25.4,286.4,25,286.2,25.5z"/>
				<path fill="#FFFFFF" d="M315.3,11.3C315.2,11.3,315.2,11.3,315.3,11.3c0.4-0.2-0.1-0.3,0-0.6c-0.2,0.1-0.4,0.3-0.4,0.5
					C315,11.2,315.2,11.1,315.3,11.3z"/>
				<path fill="#FFFFFF" d="M307.3,4.2c0.2-0.3-0.1-0.5-0.2-0.7c-0.4,0-0.7,0.4-0.6,0.6C306.8,3.6,307.1,4.1,307.3,4.2z"/>
				<path fill="#FFFFFF" d="M304.7,28.2C304.2,28.1,304.9,28.2,304.7,28.2L304.7,28.2z"/>
				<path fill="#FFFFFF" d="M300.8,24.2c0-0.1,0-0.2,0-0.2c-0.1,0.1-0.3-0.2-0.3,0C300.7,23.8,300.5,24.3,300.8,24.2z"/>
				<path fill="#FFFFFF" d="M289.8,28.9c-0.1-0.3,0.1-0.5-0.1-0.6c-0.3,0.1-0.2,0.6-0.2,0.6C289.6,28.5,289.7,28.9,289.8,28.9z"/>
			</g>
		</g>
	</g>
</g>
</svg>
